<svg width="20" height="14" viewBox="0 0 20 14" fill="white"
  xmlns="http://www.w3.org/2000/svg">
  <g opacity="0.8">
    <path d="M7.97571 13.3335C8.18443 13.34 8.39002 13.2839 8.5636 13.1732C8.73718 13.0625 8.87001 12.9027 8.94343 12.7164C9.01684 12.53 9.02715 12.3263 8.9729 12.1341C8.91865 11.9418 8.80258 11.7706 8.64098 11.6445L3.69927 7.60991L18.979 7.60991C19.112 7.61269 19.2443 7.59018 19.368 7.54357C19.4917 7.49695 19.6045 7.42719 19.6996 7.33848C19.7947 7.24977 19.8703 7.14389 19.9218 7.02696C19.9734 6.91003 20 6.78451 20 6.65765C20 6.5308 19.9734 6.40517 19.9218 6.28824C19.8703 6.17131 19.7947 6.06542 19.6996 5.97671C19.6045 5.888 19.4917 5.81824 19.368 5.77163C19.2443 5.72502 19.112 5.7025 18.979 5.70528L0.993317 5.70528C0.790227 5.70655 0.592366 5.76675 0.426108 5.87796C0.25985 5.98917 0.133094 6.14603 0.0627353 6.32767C-0.00762303 6.50932 -0.0182413 6.70716 0.0322958 6.8947C0.0828348 7.08225 0.192126 7.25066 0.345605 7.37748L7.3358 13.0935C7.51259 13.2432 7.73933 13.3282 7.97571 13.3335Z"/>
    <path d="M0.992441 7.61657C0.789351 7.61531 0.591491 7.55511 0.425233 7.4439C0.258976 7.33268 0.13222 7.17572 0.0618617 6.99407C-0.00849653 6.81243 -0.0191146 6.6147 0.0314229 6.42715C0.0819603 6.23961 0.191252 6.07119 0.344731 5.94438L7.34274 0.228391C7.44253 0.147172 7.55812 0.0855523 7.68291 0.0469252C7.80771 0.00829806 7.93926 -0.00652965 8.07006 0.00331561C8.20086 0.0131609 8.32834 0.0474464 8.44523 0.104265C8.56212 0.161084 8.66613 0.239252 8.75131 0.334395C8.8365 0.429537 8.9012 0.539789 8.94171 0.65877C8.98223 0.777752 8.99777 0.90315 8.98744 1.02786C8.97711 1.15256 8.94112 1.27418 8.88153 1.38563C8.82194 1.49707 8.7399 1.59616 8.64011 1.67738L3.70034 5.71194L18.9781 5.71194C19.1112 5.70905 19.2436 5.73151 19.3674 5.77807C19.4912 5.82463 19.6041 5.89433 19.6993 5.98304C19.7944 6.07176 19.8701 6.1777 19.9217 6.29468C19.9734 6.41166 20 6.53728 20 6.6642C20 6.79112 19.9734 6.91686 19.9217 7.03384C19.8701 7.15082 19.7944 7.25675 19.6993 7.34547C19.6041 7.43419 19.4912 7.50389 19.3674 7.55045C19.2436 7.59701 19.1112 7.61946 18.9781 7.61658L0.992441 7.61657Z" />
  </g>
</svg>
