<svg width="16" height="16" viewBox="0 0 16 16" fill="#24FF00"
  xmlns="http://www.w3.org/2000/svg">
  <path fill-rule="evenodd" clip-rule="evenodd" d="M13.3369 4.34091C13.5235 4.51095 13.537 4.80008 13.3669 4.98671L7.83547 11.0578L4.24606 7.41054C4.06897 7.23059 4.07129 6.94115 4.25124 6.76406C4.43118 6.58697 4.72062 6.58928 4.89771 6.76923L7.80989 9.72838L12.6911 4.37094C12.8611 4.18432 13.1503 4.17087 13.3369 4.34091Z" />
  <path fill-rule="evenodd" clip-rule="evenodd" d="M7.99999 0.914286C4.08666 0.914286 0.914285 4.08667 0.914285 8C0.914285 11.9133 4.08666 15.0857 7.99999 15.0857C11.9133 15.0857 15.0857 11.9133 15.0857 8C15.0857 7.74753 15.2904 7.54286 15.5428 7.54286C15.7953 7.54286 16 7.74753 16 8C16 12.4183 12.4183 16 7.99999 16C3.58172 16 0 12.4183 0 8C0 3.58172 3.58172 0 7.99999 0C8.25247 0 8.45714 0.20467 8.45714 0.457143C8.45714 0.709616 8.25247 0.914286 7.99999 0.914286Z" />
</svg>
