<svg width="32" height="32" viewBox="0 0 32 32" fill="none" xmlns="http://www.w3.org/2000/svg">
<path fill-rule="evenodd" clip-rule="evenodd" d="M23.5458 11.2085C23.8361 11.473 23.857 11.9228 23.5925 12.2131L14.988 21.6571L9.40447 15.9835C9.12899 15.7036 9.13259 15.2534 9.41251 14.9779C9.69243 14.7024 10.1427 14.706 10.4181 14.9859L14.9482 19.5891L22.5412 11.2553C22.8057 10.965 23.2555 10.944 23.5458 11.2085Z" fill="white"/>
<path fill-rule="evenodd" clip-rule="evenodd" d="M16 30.5778C24.0511 30.5778 30.5778 24.0511 30.5778 16C30.5778 7.94892 24.0511 1.42222 16 1.42222C7.94892 1.42222 1.42222 7.94892 1.42222 16C1.42222 24.0511 7.94892 30.5778 16 30.5778ZM16 32C24.8366 32 32 24.8366 32 16C32 7.16344 24.8366 0 16 0C7.16344 0 0 7.16344 0 16C0 24.8366 7.16344 32 16 32Z" fill="white"/>
</svg>
