<svg width="14" height="14" viewBox="0 0 14 14" fill="none" xmlns="http://www.w3.org/2000/svg">
<g opacity="0.6">
<path d="M7 14C5.61553 14 4.26216 13.5895 3.11101 12.8203C1.95987 12.0511 1.06266 10.9579 0.532846 9.67879C0.003033 8.3997 -0.13559 6.99224 0.134506 5.63437C0.404603 4.2765 1.07129 3.02922 2.05026 2.05026C3.02922 1.07129 4.2765 0.404603 5.63437 0.134506C6.99224 -0.13559 8.3997 0.003033 9.67879 0.532846C10.9579 1.06266 12.0511 1.95987 12.8203 3.11101C13.5895 4.26216 14 5.61553 14 7C13.9981 8.85592 13.2599 10.6353 11.9476 11.9476C10.6353 13.2599 8.85592 13.9981 7 14ZM7 0.878658C5.78896 0.878658 4.60512 1.23779 3.5982 1.91064C2.59128 2.58349 1.8065 3.53982 1.34313 4.65871C0.87975 5.77759 0.758583 7.00875 0.994951 8.1965C1.23132 9.38425 1.81461 10.4752 2.67104 11.3315C3.52748 12.1877 4.61859 12.7707 5.8064 13.0068C6.9942 13.2429 8.22534 13.1214 9.34411 12.6578C10.4629 12.1941 11.419 11.4091 12.0916 10.402C12.7642 9.39497 13.1231 8.21104 13.1228 7C13.1209 5.37686 12.4751 3.82078 11.3273 2.67318C10.1794 1.52558 8.62314 0.880206 7 0.878658Z" fill="white"/>
<path d="M6.24008 8.44879V8.04967C6.23852 7.86907 6.25865 7.68893 6.30002 7.51312C6.34087 7.34662 6.40381 7.18633 6.48716 7.03651C6.58105 6.87059 6.69443 6.71648 6.82487 6.57745C6.98953 6.40213 7.16481 6.2371 7.34973 6.0833C7.5358 5.92343 7.70572 5.74568 7.85704 5.55259C7.97983 5.38275 8.04352 5.17732 8.03832 4.9678C8.03838 4.84826 8.01433 4.72994 7.96761 4.61992C7.92089 4.50989 7.85245 4.41042 7.7664 4.32745C7.66838 4.23252 7.55183 4.15886 7.42404 4.11106C7.29624 4.06326 7.15995 4.04236 7.02371 4.04967C6.72002 4.04483 6.4262 4.15744 6.20353 4.364C6.10083 4.45854 6.01352 4.56854 5.94476 4.69002C5.87933 4.8076 5.83015 4.9335 5.79856 5.06429L4.41113 4.47949C4.48174 4.24098 4.58559 4.0136 4.71961 3.80406C5.02147 3.32287 5.47294 2.95408 6.0047 2.75435C6.31732 2.6374 6.64903 2.57989 6.98277 2.58476C7.34213 2.58157 7.69931 2.64094 8.03832 2.7602C8.34262 2.86628 8.62359 3.03009 8.86581 3.24265C9.09363 3.44628 9.27639 3.69526 9.40236 3.97365C9.61473 4.45644 9.65296 4.99797 9.51055 5.50581C9.45564 5.68758 9.37855 5.8619 9.28101 6.02482C9.18393 6.18683 9.07078 6.33867 8.9433 6.47803C8.81756 6.61643 8.68062 6.75435 8.53248 6.89178C8.38433 7.0292 8.26981 7.14567 8.18891 7.24119C8.10396 7.33472 8.0308 7.43832 7.97107 7.54967C7.91881 7.65077 7.88045 7.75847 7.85704 7.86985C7.83145 7.99688 7.8192 8.12623 7.82049 8.25581V8.44879H6.24008ZM7.01201 11.4181C6.8756 11.42 6.74026 11.3937 6.61448 11.3409C6.4887 11.288 6.37517 11.2098 6.28102 11.1111C6.18218 11.0135 6.10425 10.8968 6.05197 10.7681C5.99969 10.6394 5.97416 10.5014 5.97692 10.3625C5.97495 10.2257 6.00046 10.0898 6.05192 9.96299C6.10339 9.83616 6.17978 9.72095 6.27656 9.62416C6.37334 9.52738 6.48856 9.45099 6.61539 9.39952C6.74221 9.34806 6.87807 9.32255 7.01493 9.32452C7.15255 9.32333 7.28899 9.3499 7.4161 9.40266C7.54321 9.45541 7.65837 9.53326 7.7547 9.63154C7.85335 9.72575 7.93153 9.83929 7.98435 9.96506C8.03718 10.0908 8.06351 10.2261 8.06172 10.3625C8.06133 10.6408 7.95061 10.9076 7.75384 11.1044C7.55706 11.3011 7.29029 11.4119 7.01201 11.4122V11.4181Z" fill="white"/>
</g>
</svg>
