<svg width="22" height="20" viewBox="0 0 22 20" fill="none"
  xmlns="http://www.w3.org/2000/svg">
  <g opacity="0.8">
    <path d="M19.8622 7.06602C19.4513 7.00634 19.0592 6.85475 18.7151 6.62253C18.371 6.39032 18.0836 6.08346 17.8745 5.72481C17.6654 5.36615 17.5399 4.96495 17.5074 4.55108C17.4748 4.1372 17.5361 3.72131 17.6866 3.33438C17.7822 3.08143 17.7963 2.80488 17.7268 2.54351C17.6574 2.28214 17.5079 2.04905 17.2993 1.87693C16.3784 1.10362 15.3302 0.496119 14.2013 0.081525C13.9443 -0.0139605 13.6637 -0.0258907 13.3995 0.047434C13.1352 0.120759 12.9009 0.275598 12.7298 0.489893C12.4723 0.819159 12.1432 1.08547 11.7675 1.26862C11.3917 1.45177 10.9792 1.54695 10.5612 1.54695C10.1432 1.54695 9.73074 1.45177 9.355 1.26862C8.97927 1.08547 8.65017 0.819159 8.39267 0.489893C8.22159 0.275598 7.98725 0.120759 7.72303 0.047434C7.45881 -0.0258907 7.17818 -0.0139605 6.92114 0.081525C5.87886 0.464294 4.90436 1.01097 4.0344 1.70091C3.81511 1.87451 3.65716 2.11376 3.58368 2.38363C3.51019 2.65349 3.52504 2.93979 3.62604 3.20061C3.78851 3.59777 3.85563 4.02749 3.82203 4.45528C3.78843 4.88307 3.65504 5.29704 3.43255 5.66397C3.21007 6.0309 2.90469 6.34058 2.5409 6.56816C2.17711 6.79575 1.76505 6.93491 1.33777 6.97449C1.06037 7.00415 0.799817 7.12209 0.594479 7.31095C0.389141 7.49981 0.249866 7.74961 0.197158 8.02357C0.0660565 8.67252 1.52366e-05 9.33293 1.52366e-05 9.995C-0.000948365 10.5493 0.0437951 11.1027 0.133791 11.6496C0.178581 11.9323 0.315265 12.1924 0.522711 12.3897C0.730158 12.587 0.996811 12.7104 1.28144 12.7409C1.71811 12.7819 2.13861 12.9269 2.50775 13.1637C2.87688 13.4006 3.18391 13.7224 3.40315 14.1023C3.62238 14.4821 3.74743 14.909 3.76783 15.3471C3.78824 15.7852 3.7034 16.2218 3.52042 16.6204C3.40068 16.8797 3.37098 17.1715 3.43603 17.4496C3.50109 17.7277 3.65717 17.9761 3.87951 18.1553C4.79489 18.9146 5.83303 19.5122 6.9493 19.9226C7.09205 19.972 7.24182 19.9981 7.39287 20C7.59999 19.9995 7.80399 19.9494 7.98775 19.8539C8.17151 19.7583 8.32968 19.6201 8.449 19.4508C8.69994 19.0852 9.03633 18.7864 9.42896 18.5802C9.8216 18.3741 10.2586 18.2669 10.7021 18.268C11.1317 18.2685 11.5553 18.3694 11.9391 18.5625C12.323 18.7556 12.6564 19.0357 12.9129 19.3804C13.0835 19.6097 13.3251 19.7762 13.6002 19.8539C13.8753 19.9316 14.1683 19.9161 14.4337 19.8099C15.4544 19.3991 16.4046 18.8313 17.25 18.1271C17.4624 17.9516 17.6136 17.7132 17.6819 17.4462C17.7502 17.1793 17.7321 16.8975 17.6302 16.6415C17.4646 16.2495 17.3924 15.8243 17.4193 15.3996C17.4462 14.9748 17.5714 14.5622 17.7852 14.1941C17.9989 13.8261 18.2952 13.5128 18.6508 13.2789C19.0064 13.045 19.4114 12.897 19.834 12.8465C20.108 12.8086 20.3629 12.6845 20.5616 12.4921C20.7603 12.2997 20.8927 12.049 20.9394 11.7763C21.0525 11.1891 21.1137 10.593 21.1225 9.995C21.1226 9.36424 21.0637 8.73486 20.9464 8.1151C20.8989 7.84846 20.7686 7.60359 20.5739 7.41526C20.3793 7.22693 20.1302 7.10473 19.8622 7.06602ZM19.5664 11.4595C18.9468 11.55 18.3555 11.7792 17.8367 12.1301C17.318 12.481 16.8851 12.9444 16.5704 13.4858C16.2556 14.0273 16.0672 14.6328 16.0191 15.2572C15.971 15.8816 16.0644 16.5089 16.2925 17.0921C15.5943 17.6772 14.8107 18.1521 13.969 18.5003C13.5817 17.997 13.0835 17.5897 12.5133 17.3101C11.9431 17.0305 11.316 16.886 10.6809 16.888C10.0275 16.8915 9.38395 17.0481 8.80193 17.3452C8.21992 17.6423 7.71564 18.0717 7.32951 18.5989C6.41774 18.2521 5.56691 17.7625 4.80889 17.1485C5.06574 16.5579 5.18104 15.9155 5.14559 15.2725C5.11014 14.6295 4.92492 14.0037 4.60471 13.445C4.28109 12.8801 3.82986 12.3988 3.28707 12.0394C2.74428 11.6799 2.12497 11.4524 1.47859 11.375C1.42208 10.9173 1.39856 10.4561 1.40818 9.995C1.40836 9.44918 1.46022 8.90461 1.56308 8.36857C2.19355 8.2947 2.79871 8.07732 3.33208 7.73313C3.86545 7.38895 4.31285 6.9271 4.63991 6.38306C4.96653 5.84456 5.16553 5.23844 5.22167 4.61114C5.27781 3.98384 5.1896 3.35201 4.96379 2.76408C5.6823 2.20043 6.48237 1.74935 7.33655 1.42632C7.72751 1.90368 8.21957 2.28829 8.77723 2.55239C9.33488 2.81648 9.94421 2.95347 10.5612 2.95347C11.1783 2.95347 11.7876 2.81648 12.3453 2.55239C12.9029 2.28829 13.395 1.90368 13.7859 1.42632C14.7141 1.777 15.5777 2.279 16.3418 2.91193C16.133 3.48682 16.0533 4.10061 16.1083 4.70976C16.1634 5.3189 16.3518 5.90847 16.6602 6.43663C16.9686 6.96479 17.3895 7.41861 17.893 7.76587C18.3965 8.11314 18.9702 8.34534 19.5735 8.44602C19.6651 8.95731 19.7122 9.47557 19.7143 9.995C19.7124 10.4855 19.6723 10.9752 19.5946 11.4595H19.5664Z" fill="#FBFBFB"/>
    <path d="M10.561 5.77042C9.79187 5.76981 9.03719 5.97917 8.37833 6.37593C8.29201 6.43174 8.21896 6.50578 8.16431 6.59283C8.10966 6.67989 8.07473 6.77786 8.06198 6.87985C8.04923 6.98185 8.05897 7.0854 8.09051 7.18323C8.12205 7.28106 8.17463 7.37079 8.24455 7.44614C8.3556 7.56587 8.50481 7.64329 8.66665 7.66512C8.82849 7.68696 8.99288 7.65186 9.13169 7.56583C9.59516 7.29297 10.1271 7.15853 10.6645 7.1784C11.202 7.19827 11.7225 7.37161 12.1646 7.67794C12.6066 7.98427 12.9518 8.41077 13.1591 8.90702C13.3665 9.40326 13.4274 9.94851 13.3347 10.4783C13.242 11.0081 12.9995 11.5002 12.6359 11.8966C12.2724 12.2929 11.8029 12.5768 11.2831 12.7148C10.7633 12.8528 10.2148 12.8391 9.70258 12.6753C9.19032 12.5114 8.73567 12.2044 8.39241 11.7903C8.29165 11.658 8.14729 11.5655 7.9849 11.5295C7.82251 11.4934 7.6526 11.5159 7.50526 11.5932C7.41423 11.6402 7.33455 11.7065 7.27179 11.7875C7.20903 11.8685 7.16471 11.9622 7.14191 12.0621C7.11912 12.162 7.1184 12.2657 7.13981 12.3659C7.16122 12.4661 7.20425 12.5604 7.26588 12.6423C7.79147 13.2989 8.50109 13.7837 9.30387 14.0345C10.1067 14.2854 10.9661 14.2909 11.772 14.0504C12.7506 13.7651 13.5931 13.1355 14.144 12.2778C14.6948 11.4201 14.917 10.3921 14.7695 9.38345C14.622 8.3748 14.1147 7.45351 13.3412 6.7895C12.5678 6.12549 11.5803 5.76355 10.561 5.77042Z" fill="#FBFBFB"/>
  </g>
</svg>
