<svg width="193" height="114" viewBox="0 0 193 114" fill="none" xmlns="http://www.w3.org/2000/svg">
<path d="M187.641 21.9029C186.038 28.3315 179.526 32.2438 173.096 30.6407C166.669 29.038 162.756 22.5266 164.359 16.0984C165.962 9.66907 172.473 5.75636 178.902 7.35909C185.331 8.96183 189.244 15.474 187.641 21.9029Z" fill="url(#paint0_linear_1309_11486)"/>
<path d="M181.28 17.3049C181.518 15.7081 180.303 14.8498 178.64 14.2771L179.179 12.1142L177.863 11.786L177.338 13.892C176.991 13.8058 176.636 13.7244 176.283 13.6438L176.811 11.5239L175.495 11.1958L174.956 13.358C174.669 13.2928 174.388 13.2283 174.115 13.1604L174.116 13.1537L172.3 12.7003L171.95 14.1065C171.95 14.1065 172.927 14.3304 172.906 14.3443C173.44 14.4774 173.536 14.8303 173.52 15.11C172.042 21.0353 173.52 15.11 172.042 21.0353C171.977 21.1973 171.812 21.4403 171.439 21.3481C171.452 21.3672 170.482 21.1092 170.482 21.1092L169.828 22.6163L171.542 23.0434C171.86 23.1233 172.173 23.2069 172.48 23.2857L171.935 25.4734L173.251 25.8015L173.79 23.637C174.15 23.7345 174.498 23.8245 174.84 23.9093L174.302 26.0636L175.619 26.3918L176.164 24.2082C178.409 24.633 180.097 24.4617 180.808 22.4311C181.381 20.7961 180.78 19.853 179.598 19.238C180.459 19.0396 181.107 18.4737 181.28 17.3049ZM178.271 21.5232C177.864 23.1582 175.111 22.2743 174.218 22.0527L174.941 19.1543C175.834 19.3771 178.696 19.8181 178.271 21.5232ZM178.678 17.2812C178.307 18.7685 176.016 18.0129 175.272 17.8276L175.928 15.1989C176.671 15.3841 179.065 15.7299 178.678 17.2812Z" fill="white"/>
<path d="M25 19C25 25.6276 19.6276 31 13 31C6.37264 31 1 25.6276 1 19C1 12.3725 6.37264 7 13 7C19.6276 7 25 12.3725 25 19Z" fill="#1BA27A"/>
<path d="M18.6294 13.0513H7.2666V15.7945H11.5764V19.8265H14.3196V15.7945H18.6294V13.0513Z" fill="white"/>
<path d="M12.9743 20.2555C9.40911 20.2555 6.51867 19.6912 6.51867 18.9951C6.51867 18.2991 9.40899 17.7348 12.9743 17.7348C16.5395 17.7348 19.4298 18.2991 19.4298 18.9951C19.4298 19.6912 16.5395 20.2555 12.9743 20.2555ZM20.2229 19.2052C20.2229 18.3076 16.9776 17.5801 12.9743 17.5801C8.97111 17.5801 5.72559 18.3076 5.72559 19.2052C5.72559 19.9957 8.24211 20.6542 11.5768 20.8002V26.5882H14.3197V20.8024C17.6801 20.6611 20.2229 19.9998 20.2229 19.2052Z" fill="white"/>
<path d="M0.231445 94.686H192.123" stroke="#31B047" stroke-width="0.902326"/>
<path d="M97 5L97 114" stroke="#31B047" stroke-width="0.902326"/>
<path opacity="0.2" d="M19.1064 31.7055L19.0922 31.2546L19.0242 31.2568L18.9599 31.2788L19.1064 31.7055ZM35.5373 31.1859L35.5516 31.6368L35.639 31.6341L35.719 31.5989L35.5373 31.1859ZM51.9682 23.9593L51.8093 23.5371L51.7978 23.5414L51.7866 23.5463L51.9682 23.9593ZM66.1585 18.6165L66.1949 18.1668L66.0942 18.1586L65.9996 18.1943L66.1585 18.6165ZM84.83 20.1268L84.7937 20.5765L84.9041 20.5854L85.0061 20.5421L84.83 20.1268ZM101.261 13.16L101.225 12.7103L101.152 12.7161L101.085 12.7446L101.261 13.16ZM117.692 11.8365L117.728 12.2862L117.832 12.2778L117.922 12.2242L117.692 11.8365ZM137.133 0.273926L131.924 0.341382L134.587 4.8189L137.133 0.273926ZM0.377933 38.6118L19.2529 32.1323L18.9599 31.2788L0.0849574 37.7584L0.377933 38.6118ZM19.1207 32.1565L35.5516 31.6368L35.5231 30.7349L19.0922 31.2546L19.1207 32.1565ZM35.719 31.5989L52.1499 24.3723L51.7866 23.5463L35.3557 30.7729L35.719 31.5989ZM52.1272 24.3815L66.3175 19.0387L65.9996 18.1943L51.8093 23.5371L52.1272 24.3815ZM66.1222 19.0662L84.7937 20.5765L84.8664 19.6771L66.1949 18.1668L66.1222 19.0662ZM85.0061 20.5421L101.437 13.5754L101.085 12.7446L84.6539 19.7114L85.0061 20.5421ZM101.297 13.6097L117.728 12.2862L117.656 11.3868L101.225 12.7103L101.297 13.6097ZM117.922 12.2242L133.874 2.73729L133.412 1.96176L117.461 11.4487L117.922 12.2242Z" fill="#31B047"/>
<path opacity="0.4" d="M0.231445 48.7162L19.1064 55.1958L35.5373 55.7155L51.9682 62.9421L66.1585 68.2849L84.83 66.7746L101.261 73.7414L117.692 75.0649L137.133 86.6274" stroke="#FFD44B" stroke-width="0.902326" stroke-dasharray="3.61 3.61"/>
<path d="M110.218 70H111.351V65.528H111.373L114.479 70H115.492V63.6423H114.364V68.0967H114.338L111.24 63.6423H110.218V70ZM119.418 70.1101C121.277 70.1101 122.431 68.8457 122.431 66.8234V66.8145C122.431 64.7966 121.273 63.5322 119.418 63.5322C117.567 63.5322 116.4 64.7966 116.4 66.8145V66.8234C116.4 68.8457 117.558 70.1101 119.418 70.1101ZM119.418 69.1232C118.281 69.1232 117.558 68.2376 117.558 66.8234V66.8145C117.558 65.4003 118.285 64.5191 119.418 64.5191C120.554 64.5191 121.277 65.4047 121.277 66.8145V66.8234C121.277 68.2244 120.568 69.1232 119.418 69.1232ZM124.524 70H125.656V64.5984H127.555V63.6423H122.621V64.5984H124.524V70ZM130.142 70H132.807C134.164 70 134.988 69.3127 134.988 68.2024V68.1936C134.988 67.3565 134.38 66.7308 133.486 66.6515V66.6295C134.169 66.537 134.684 65.9246 134.684 65.2416V65.2328C134.684 64.2679 133.94 63.6423 132.781 63.6423H130.142V70ZM132.494 64.5279C133.169 64.5279 133.561 64.8363 133.561 65.387V65.3958C133.561 65.995 133.12 66.3299 132.301 66.3299H131.278V64.5279H132.494ZM132.481 67.1538C133.371 67.1538 133.829 67.4886 133.829 68.1275V68.1363C133.829 68.7752 133.38 69.1144 132.547 69.1144H131.278V67.1538H132.481ZM135.799 70H139.914V69.0439H136.936V67.2331H139.751V66.3123H136.936V64.5984H139.914V63.6423H135.799V70ZM101.869 82H105.984V81.0439H103.006V79.2331H105.821V78.3123H103.006V76.5984H105.984V75.6423H101.869V82ZM106.605 82H107.843L109.35 79.6605H109.39L110.892 82H112.201L110.113 78.8278V78.8145L112.236 75.6423H110.963L109.491 78.0347H109.443L107.967 75.6423H106.623L108.676 78.7837V78.7969L106.605 82ZM112.99 82H117.105V81.0439H114.126V79.2331H116.942V78.3123H114.126V76.5984H117.105V75.6423H112.99V82ZM118.092 82H119.228V79.6208H120.458L121.709 82H123.004L121.616 79.449C122.356 79.1802 122.815 78.4885 122.815 77.6338V77.625C122.815 76.3957 121.986 75.6423 120.629 75.6423H118.092V82ZM119.228 78.722V76.5631H120.488C121.202 76.5631 121.652 76.9685 121.652 77.6338V77.6426C121.652 78.3255 121.229 78.722 120.51 78.722H119.228ZM126.498 82.1101C127.961 82.1101 129.04 81.2069 129.203 79.9028L129.212 79.8587H128.097L128.084 79.9028C127.877 80.687 127.309 81.1232 126.498 81.1232C125.392 81.1232 124.678 80.2332 124.678 78.819V78.8145C124.678 77.4047 125.388 76.5191 126.498 76.5191C127.326 76.5191 127.886 76.9729 128.071 77.6999L128.093 77.7836H129.208L129.203 77.7395C129.036 76.4442 127.961 75.5322 126.498 75.5322C124.674 75.5322 123.515 76.7834 123.515 78.8145V78.819C123.515 80.8501 124.67 82.1101 126.498 82.1101ZM130.076 82H131.212V75.6423H130.076V82ZM134.565 82.1101C136.116 82.1101 137.05 81.3567 137.05 80.1716V80.1672C137.05 79.1758 136.473 78.6383 135.151 78.3651L134.464 78.2242C133.697 78.0655 133.349 77.8012 133.349 77.3518V77.3474C133.349 76.8407 133.812 76.4926 134.556 76.4882C135.27 76.4882 135.759 76.8187 135.834 77.3738L135.843 77.4267H136.931L136.927 77.3518C136.861 76.2635 135.953 75.5322 134.565 75.5322C133.195 75.5322 132.212 76.29 132.208 77.4091V77.4135C132.208 78.3607 132.825 78.9423 134.076 79.2023L134.759 79.3433C135.579 79.5151 135.909 79.7706 135.909 80.2465V80.2509C135.909 80.7972 135.407 81.1541 134.605 81.1541C133.807 81.1541 133.248 80.8148 133.164 80.2685L133.155 80.2156H132.067L132.071 80.2817C132.146 81.4228 133.107 82.1101 134.565 82.1101ZM137.9 82H142.016V81.0439H139.037V79.2331H141.853V78.3123H139.037V76.5984H142.016V75.6423H137.9V82ZM143.002 82H145.324C147.228 82 148.347 80.8192 148.347 78.8057V78.7969C148.347 76.7878 147.219 75.6423 145.324 75.6423H143.002V82ZM144.139 81.0395V76.6028H145.205C146.47 76.6028 147.188 77.3826 147.188 78.8013V78.8101C147.188 80.2597 146.483 81.0395 145.205 81.0395H144.139Z" fill="black"/>
<path d="M56.8794 73.7491C57.34 73.998 57.7327 74.1418 58.0638 74.2217C58.0108 73.8792 58.0488 73.5529 58.1581 73.2562C58.1701 73.204 58.1859 73.1524 58.2125 73.103C58.2228 73.0808 58.2333 73.0597 58.2436 73.0398C58.2447 73.0373 58.2455 73.0342 58.2467 73.0317C58.268 72.9923 58.2935 72.9568 58.3219 72.9246C58.5053 72.6573 58.7842 72.4611 59.1155 72.3868C59.466 72.3088 59.8412 72.3626 60.1707 72.5411C60.8378 72.9024 61.1258 73.6686 60.8625 74.3043C60.8514 74.3421 60.8361 74.3796 60.8173 74.4156C60.8162 74.4176 60.8156 74.4201 60.8145 74.4223C60.8026 74.4442 60.7895 74.4656 60.7706 74.4958C60.7643 74.5075 60.7551 74.5153 60.7479 74.5261C60.5728 74.8025 60.3275 75.0286 60.0274 75.1929C60.1804 75.3039 60.3477 75.4013 60.5295 75.4774C60.8123 75.5956 61.1342 75.6086 61.4159 75.6098C62.0211 69.8467 67.8083 65.3107 74.8394 65.3107C76.9692 65.3107 79.0728 65.7345 80.9563 66.5404C81.7508 65.5314 83.0243 65.021 84.7501 65.021H87.0268C87.2358 65.021 87.4297 65.1303 87.5377 65.3093C87.6456 65.4883 87.6523 65.7109 87.5549 65.8957L85.5638 69.6796C85.543 69.7193 85.563 69.7634 85.5865 69.7889C86.3364 70.6159 86.9438 71.5222 87.3914 72.4819C87.6609 73.0555 88.1796 73.4124 88.7455 73.4124L90.1474 73.4132C91.0612 73.4124 91.8047 74.1561 91.8047 75.0699V78.1428C91.8047 79.0566 91.0612 79.8001 90.1474 79.8001H88.7446C88.1785 79.8001 87.6601 80.1572 87.3914 80.7325C86.673 82.2755 85.5271 83.6927 84.0799 84.8313C83.6848 85.1441 83.4494 85.6486 83.4494 86.18V89.0969C83.4494 89.4263 83.1825 89.6936 82.8528 89.6936H79.2376C78.908 89.6936 78.641 89.4263 78.641 89.0969V87.4474C76.1323 88.0657 73.3983 88.0526 70.9137 87.416V89.0969C70.9137 89.4263 70.6467 89.6935 70.3171 89.6935L66.7013 89.6941C66.3717 89.6941 66.1047 89.4269 66.1047 89.0975V86.0823C66.1047 85.5592 65.8744 85.0595 65.4906 84.7481C62.8839 82.6498 61.4276 79.8348 61.3673 76.8034C61.0096 76.8003 60.5403 76.7751 60.0717 76.5803C59.4961 76.34 58.9993 75.9573 58.6394 75.4957C57.9265 75.4755 57.1328 75.2432 56.3128 74.7995C56.0228 74.6427 55.9148 74.2808 56.0716 73.9905C56.2281 73.7002 56.5903 73.5912 56.88 73.7491L56.8794 73.7491ZM59.6023 73.5914C59.5273 73.5503 59.4452 73.5361 59.3767 73.552C59.3539 73.5572 59.3137 73.57 59.2948 73.6061C59.2945 73.6069 59.294 73.608 59.2937 73.6088C59.2146 73.762 59.214 73.9821 59.2881 74.2196C59.5068 74.1428 59.6747 74.0204 59.7652 73.8533C59.7654 73.8531 59.766 73.8525 59.766 73.8522C59.7904 73.8042 59.7477 73.6702 59.6023 73.5914Z" fill="#31B047"/>
<path d="M70.7588 81.9637L79.2837 71.7339" stroke="white" stroke-width="0.902326"/>
<circle cx="77.7919" cy="80.2587" r="1.25381" stroke="white" stroke-width="0.902326"/>
<circle cx="72.2509" cy="73.4389" r="1.25381" stroke="white" stroke-width="0.902326"/>
<circle cx="75.0213" cy="63.9031" r="5.59453" fill="#FFD44B"/>
<circle cx="75.0212" cy="63.9031" r="4.35131" fill="url(#paint1_linear_1309_11486)"/>
<rect x="73.2188" y="63.9033" width="2.54862" height="2.54862" transform="rotate(-45 73.2188 63.9033)" fill="white"/>
<circle cx="67.1893" cy="59.4271" r="5.59453" fill="#FFD44B"/>
<circle cx="67.1892" cy="59.427" r="4.35131" fill="url(#paint2_linear_1309_11486)"/>
<rect x="65.3867" y="59.4272" width="2.54862" height="2.54862" transform="rotate(-45 65.3867 59.4272)" fill="white"/>
<circle cx="78.3777" cy="51.5945" r="5.59453" fill="#FFD44B"/>
<circle cx="78.3777" cy="51.5945" r="4.35131" fill="url(#paint3_linear_1309_11486)"/>
<rect x="76.5752" y="51.5947" width="2.54862" height="2.54862" transform="rotate(-45 76.5752 51.5947)" fill="white"/>
<ellipse cx="75.0215" cy="70.0568" rx="4.47563" ry="1.67836" fill="#31B047"/>
<path d="M153.879 73.441C154.34 73.6899 154.733 73.8336 155.064 73.9136C155.011 73.5711 155.049 73.2448 155.158 72.9481C155.17 72.8959 155.186 72.8443 155.213 72.7949C155.223 72.7727 155.233 72.7516 155.244 72.7316C155.245 72.7291 155.246 72.7261 155.247 72.7236C155.268 72.6842 155.294 72.6487 155.322 72.6165C155.505 72.3492 155.784 72.153 156.116 72.0787C156.466 72.0007 156.841 72.0545 157.171 72.233C157.838 72.5943 158.126 73.3605 157.863 73.9962C157.851 74.034 157.836 74.0714 157.817 74.1075C157.816 74.1095 157.816 74.112 157.814 74.1142C157.803 74.1361 157.79 74.1575 157.771 74.1877C157.764 74.1994 157.755 74.2072 157.748 74.218C157.573 74.4944 157.327 74.7205 157.027 74.8848C157.18 74.9958 157.348 75.0932 157.529 75.1693C157.812 75.2875 158.134 75.3005 158.416 75.3017C159.021 69.5386 164.808 65.0026 171.839 65.0026C173.969 65.0026 176.073 65.4264 177.956 66.2323C178.751 65.2233 180.024 64.7129 181.75 64.7129H184.027C184.236 64.7129 184.43 64.8222 184.538 65.0012C184.646 65.1802 184.652 65.4028 184.555 65.5876L182.564 69.3715C182.543 69.4112 182.563 69.4553 182.587 69.4808C183.336 70.3078 183.944 71.2141 184.391 72.1738C184.661 72.7474 185.18 73.1043 185.745 73.1043L187.147 73.1051C188.061 73.1043 188.805 73.848 188.805 74.7618V77.8347C188.805 78.7485 188.061 79.492 187.147 79.492H185.745C185.178 79.492 184.66 79.8491 184.391 80.4244C183.673 81.9674 182.527 83.3846 181.08 84.5232C180.685 84.836 180.449 85.3405 180.449 85.8719V88.7888C180.449 89.1182 180.182 89.3855 179.853 89.3855H176.238C175.908 89.3855 175.641 89.1182 175.641 88.7888V87.1393C173.132 87.7576 170.398 87.7445 167.914 87.1079V88.7888C167.914 89.1182 167.647 89.3854 167.317 89.3854L163.701 89.386C163.372 89.386 163.105 89.1188 163.105 88.7894V85.7742C163.105 85.2511 162.874 84.7514 162.491 84.44C159.884 82.3417 158.428 79.5267 158.367 76.4953C158.01 76.4922 157.54 76.467 157.072 76.2722C156.496 76.0318 155.999 75.6492 155.639 75.1876C154.927 75.1674 154.133 74.9351 153.313 74.4914C153.023 74.3346 152.915 73.9727 153.072 73.6824C153.228 73.3921 153.59 73.2831 153.88 73.441L153.879 73.441ZM156.602 73.2833C156.527 73.2422 156.445 73.228 156.377 73.2438C156.354 73.2491 156.314 73.2619 156.295 73.298C156.295 73.2988 156.294 73.2999 156.294 73.3007C156.215 73.4539 156.214 73.674 156.288 73.9115C156.507 73.8347 156.675 73.7123 156.765 73.5452C156.765 73.545 156.766 73.5444 156.766 73.5441C156.79 73.4961 156.748 73.3621 156.602 73.2833Z" fill="#31B047"/>
<path d="M167.759 81.6561L176.284 71.4263" stroke="white" stroke-width="0.902326"/>
<circle cx="174.792" cy="79.9511" r="1.25381" stroke="white" stroke-width="0.902326"/>
<circle cx="169.251" cy="73.1312" r="1.25381" stroke="white" stroke-width="0.902326"/>
<circle cx="172.021" cy="63.5945" r="5.59453" fill="#FFD44B"/>
<circle cx="172.021" cy="63.5945" r="4.35131" fill="url(#paint4_linear_1309_11486)"/>
<rect x="170.219" y="63.5947" width="2.54862" height="2.54862" transform="rotate(-45 170.219 63.5947)" fill="white"/>
<ellipse cx="172.022" cy="69.7482" rx="4.47563" ry="1.67836" fill="#31B047"/>
<path d="M2.3691 78H6.48419V77.0439H3.50582V75.2331H6.32118V74.3123H3.50582V72.5984H6.48419V71.6423H2.3691V78ZM7.10542 78H8.34348L9.85029 75.6605H9.88994L11.3924 78H12.7009L10.6125 74.8278V74.8145L12.7361 71.6423H11.4628L9.99128 74.0347H9.94282L8.46684 71.6423H7.12305L9.17619 74.7837V74.7969L7.10542 78ZM13.4896 78H17.6047V77.0439H14.6263V75.2331H17.4416V74.3123H14.6263V72.5984H17.6047V71.6423H13.4896V78ZM18.5916 78H19.7283V75.6208H20.9575L22.2088 78H23.5041L22.1163 75.449C22.8565 75.1802 23.3147 74.4885 23.3147 73.6338V73.625C23.3147 72.3957 22.4864 71.6423 21.1294 71.6423H18.5916V78ZM19.7283 74.722V72.5631H20.9884C21.7021 72.5631 22.1515 72.9685 22.1515 73.6338V73.6426C22.1515 74.3255 21.7286 74.722 21.0104 74.722H19.7283ZM26.998 78.1101C28.4608 78.1101 29.5402 77.2069 29.7032 75.9028L29.712 75.8587H28.5973L28.5841 75.9028C28.377 76.687 27.8087 77.1232 26.998 77.1232C25.8921 77.1232 25.1784 76.2332 25.1784 74.819V74.8145C25.1784 73.4047 25.8877 72.5191 26.998 72.5191C27.8263 72.5191 28.3859 72.9729 28.5709 73.6999L28.5929 73.7836H29.7076L29.7032 73.7395C29.5358 72.4442 28.4608 71.5322 26.998 71.5322C25.174 71.5322 24.0152 72.7834 24.0152 74.8145V74.819C24.0152 76.8501 25.1696 78.1101 26.998 78.1101ZM30.5756 78H31.7123V71.6423H30.5756V78ZM35.0652 78.1101C36.6161 78.1101 37.5501 77.3567 37.5501 76.1716V76.1672C37.5501 75.1758 36.9729 74.6383 35.6512 74.3651L34.9638 74.2242C34.1972 74.0655 33.8492 73.8012 33.8492 73.3518V73.3474C33.8492 72.8407 34.3118 72.4926 35.0564 72.4882C35.7701 72.4882 36.2592 72.8187 36.3341 73.3738L36.3429 73.4267H37.4311L37.4267 73.3518C37.3606 72.2635 36.453 71.5322 35.0652 71.5322C33.6949 71.5322 32.7124 72.29 32.708 73.4091V73.4135C32.708 74.3607 33.3249 74.9423 34.5761 75.2023L35.259 75.3433C36.0785 75.5151 36.409 75.7706 36.409 76.2465V76.2509C36.409 76.7972 35.9067 77.1541 35.1048 77.1541C34.3074 77.1541 33.7478 76.8148 33.6641 76.2685L33.6553 76.2156H32.567L32.5714 76.2817C32.6463 77.4228 33.6068 78.1101 35.0652 78.1101ZM38.4004 78H42.5155V77.0439H39.5372V75.2331H42.3525V74.3123H39.5372V72.5984H42.5155V71.6423H38.4004V78ZM43.5024 78H45.8244C47.7277 78 48.8468 76.8192 48.8468 74.8057V74.7969C48.8468 72.7878 47.7189 71.6423 45.8244 71.6423H43.5024V78ZM44.6392 77.0395V72.6028H45.7054C46.9699 72.6028 47.688 73.3826 47.688 74.8013V74.8101C47.688 76.2597 46.9831 77.0395 45.7054 77.0395H44.6392Z" fill="black"/>
<defs>
<linearGradient id="paint0_linear_1309_11486" x1="164" y1="7" x2="164" y2="31" gradientUnits="userSpaceOnUse">
<stop stop-color="#F9AA4B"/>
<stop offset="1" stop-color="#F7931A"/>
</linearGradient>
<linearGradient id="paint1_linear_1309_11486" x1="72.0686" y1="60.6396" x2="78.1293" y2="67.0111" gradientUnits="userSpaceOnUse">
<stop offset="0.133929" stop-color="#FFC200"/>
<stop offset="0.580357" stop-color="#FFC200" stop-opacity="0"/>
<stop offset="1" stop-color="#FFC200"/>
</linearGradient>
<linearGradient id="paint2_linear_1309_11486" x1="64.2365" y1="56.1635" x2="70.2973" y2="62.5351" gradientUnits="userSpaceOnUse">
<stop offset="0.133929" stop-color="#FFC200"/>
<stop offset="0.580357" stop-color="#FFC200" stop-opacity="0"/>
<stop offset="1" stop-color="#FFC200"/>
</linearGradient>
<linearGradient id="paint3_linear_1309_11486" x1="75.425" y1="48.331" x2="81.4857" y2="54.7025" gradientUnits="userSpaceOnUse">
<stop offset="0.133929" stop-color="#FFC200"/>
<stop offset="0.580357" stop-color="#FFC200" stop-opacity="0"/>
<stop offset="1" stop-color="#FFC200"/>
</linearGradient>
<linearGradient id="paint4_linear_1309_11486" x1="169.069" y1="60.331" x2="175.129" y2="66.7025" gradientUnits="userSpaceOnUse">
<stop offset="0.133929" stop-color="#FFC200"/>
<stop offset="0.580357" stop-color="#FFC200" stop-opacity="0"/>
<stop offset="1" stop-color="#FFC200"/>
</linearGradient>
</defs>
</svg>
