<svg width="72" height="73" viewBox="0 0 72 73" fill="none" xmlns="http://www.w3.org/2000/svg">
<g opacity="0.08">
<path fill-rule="evenodd" clip-rule="evenodd" d="M53.3188 59.2212C59.3965 59.2212 64.3235 54.2941 64.3235 48.2162C64.3235 42.1386 59.3965 37.2115 53.3188 37.2115C47.2409 37.2115 42.3138 42.1386 42.3138 48.2162C42.3138 54.2941 47.2409 59.2212 53.3188 59.2212ZM67.9781 48.2162C67.9781 56.3125 61.4149 62.8757 53.3188 62.8757C45.2225 62.8757 38.6593 56.3125 38.6593 48.2162C38.6593 40.1201 45.2225 33.5569 53.3188 33.5569C61.4149 33.5569 67.9781 40.1201 67.9781 48.2162Z" fill="white"/>
<path fill-rule="evenodd" clip-rule="evenodd" d="M44.2934 55.7979C45.0239 56.6947 44.8891 58.0136 43.9923 58.7442C36.38 64.9449 28.4526 69.2718 21.4442 71.1622C14.5351 73.026 7.93669 72.6461 3.76093 68.4704C-0.874974 63.8344 -0.845939 56.2286 1.79394 48.4031C2.16365 47.3073 3.35177 46.7185 4.44767 47.0882C5.5436 47.4579 6.13231 48.6461 5.7626 49.7419C3.25698 57.1693 3.85268 62.6388 6.72257 65.5088C9.29991 68.0861 13.9632 68.8422 20.3535 67.1184C26.6448 65.4212 34.0546 61.437 41.3471 55.4968C42.2439 54.7664 43.563 54.9011 44.2934 55.7979Z" fill="white"/>
<path fill-rule="evenodd" clip-rule="evenodd" d="M29.6794 14.794C28.9766 13.8752 29.1517 12.5609 30.0703 11.8581C37.3741 6.271 44.8774 2.42441 51.4998 0.827534C58.0433 -0.750243 64.2498 -0.228757 68.2391 3.76062C72.8751 8.3965 72.846 16.0025 70.2061 23.8278C69.8365 24.9238 68.6482 25.5126 67.5524 25.1427C66.4564 24.7731 65.8678 23.585 66.2375 22.4892C68.743 15.0617 68.1474 9.59209 65.2774 6.72226C62.817 4.26182 58.461 3.45747 52.4816 4.89923C46.5815 6.32191 39.6019 9.84023 32.6151 15.1848C31.6965 15.8876 30.3822 15.7125 29.6794 14.794Z" fill="white"/>
<path fill-rule="evenodd" clip-rule="evenodd" d="M36.5684 23.0868C36.5684 31.1829 30.0052 37.7461 21.9091 37.7461C13.813 37.7461 7.24976 31.1829 7.24976 23.0868C7.24976 14.9907 13.813 8.42754 21.9091 8.42754C30.0052 8.42754 36.5684 14.9907 36.5684 23.0868ZM20.4427 15.7562H23.3746V21.6194H29.2361V24.5512H23.3746V30.4155H20.4427V24.5512H14.5766V21.6194H20.4427V15.7562Z" fill="white"/>
<path d="M58.5554 49.474V46.5421H48.0844V49.474H58.5554Z" fill="white"/>
</g>
</svg>
