<svg width="150" height="36" viewBox="0 0 150 36" fill="none"
  xmlns="http://www.w3.org/2000/svg">
  <path fill-rule="evenodd" clip-rule="evenodd" d="M42.0813 4.75122C41.3316 4.75122 40.7239 5.35898 40.7239 6.10869V26.4707C40.7239 27.2204 41.3316 27.8281 42.0813 27.8281H85.5203C86.2703 27.8281 86.8777 27.2204 86.8777 26.4707V6.10869C86.8777 5.35898 86.2703 4.75122 85.5203 4.75122H42.0813ZM49.1666 19.5361L47.0947 24.4368H44.8778L52.4622 7.28452L60.0465 24.4368H57.8295L55.7467 19.5361H49.1666ZM54.9646 17.6693H49.966L52.4622 11.7885L54.9646 17.6693ZM68.801 24.4368V17.9026C68.801 17.3114 68.7155 16.8213 68.5445 16.4324C68.3734 16.0279 68.1169 15.7246 67.7744 15.5223C67.4322 15.32 67.0122 15.2189 66.5143 15.2189C65.9698 15.2189 65.4875 15.3356 65.0675 15.5689C64.6629 15.7867 64.344 16.0979 64.1106 16.5024C63.8928 16.9069 63.784 17.3736 63.784 17.9026V24.4368H61.917V13.7021H63.784V15.3823C64.1418 14.7289 64.5851 14.2466 65.1141 13.9354C65.6586 13.6243 66.281 13.4687 66.9811 13.4687C67.7434 13.4687 68.3965 13.6398 68.9415 13.9821C69.4859 14.3243 69.906 14.8067 70.2013 15.429C70.5128 16.0512 70.6682 16.798 70.6682 17.6693V24.4368H68.801ZM72.5442 13.7021V15.4523H74.2947V24.4368H76.1612V15.4523H77.9117V13.7021H76.1612V9.96824H74.2947V13.7021H72.5442ZM80.1576 10.1782C79.9085 9.9138 79.7843 9.61041 79.7843 9.26812C79.7843 8.91029 79.9085 8.60697 80.1576 8.35801C80.4216 8.10912 80.725 7.98464 81.0678 7.98464C81.4255 7.98464 81.7289 8.10912 81.9773 8.35801C82.2264 8.60697 82.3513 8.91029 82.3513 9.26812C82.3513 9.61041 82.2264 9.9138 81.9773 10.1782C81.7289 10.4272 81.4255 10.5516 81.0678 10.5516C80.725 10.5516 80.4216 10.4272 80.1576 10.1782ZM80.1338 24.4368V13.7021H82.001V24.4368H80.1338Z" fill="white"/>
  <path d="M105.652 17.2033C105.652 16.3165 105.512 15.5619 105.232 14.9397C104.967 14.3018 104.578 13.8195 104.065 13.4928C103.552 13.1661 102.93 13.0027 102.198 13.0027C101.483 13.0027 100.845 13.1739 100.285 13.5161C99.7249 13.8428 99.2579 14.3407 98.8846 15.0096C98.7291 14.574 98.4957 14.2085 98.1848 13.9129C97.8889 13.6172 97.5386 13.3917 97.1341 13.2361C96.7296 13.0805 96.2789 13.0027 95.7807 13.0027C95.345 13.0027 94.9405 13.0727 94.5672 13.2128C94.1939 13.3372 93.8592 13.5317 93.564 13.7961C93.2837 14.0606 93.0346 14.3951 92.8174 14.7996V13.2361H90.9502V23.9708H92.8174V17.4366C92.8174 16.8766 92.9185 16.3942 93.1208 15.9898C93.323 15.5853 93.6108 15.2819 93.9841 15.0797C94.3574 14.8619 94.8006 14.7529 95.3138 14.7529C95.7807 14.7529 96.1622 14.8541 96.4574 15.0563C96.769 15.243 96.9943 15.5308 97.1341 15.9197C97.2902 16.3087 97.3676 16.8143 97.3676 17.4366V23.9708H99.2348V17.4366C99.2348 16.8766 99.3359 16.3942 99.5382 15.9898C99.7405 15.5853 100.028 15.2819 100.402 15.0797C100.775 14.8619 101.218 14.7529 101.732 14.7529C102.198 14.7529 102.58 14.8541 102.875 15.0563C103.186 15.243 103.412 15.5308 103.552 15.9197C103.708 16.3087 103.785 16.8143 103.785 17.4366V23.9708H105.652V17.2033Z" fill="white"/>
  <path d="M109.999 20.6571C109.999 20.2681 110.093 19.9336 110.279 19.6536C110.466 19.3735 110.746 19.1557 111.12 19.0002C111.508 18.8446 112.006 18.7668 112.613 18.7668C113.266 18.7668 113.881 18.8524 114.456 19.0235C115.032 19.1791 115.592 19.4436 116.137 19.817V18.7201C116.027 18.5801 115.818 18.4012 115.507 18.1834C115.195 17.95 114.775 17.7478 114.246 17.5767C113.733 17.3899 113.087 17.2966 112.309 17.2966C111.439 17.2966 110.684 17.4444 110.046 17.74C109.423 18.02 108.941 18.4167 108.599 18.9302C108.272 19.4436 108.109 20.0503 108.109 20.7504C108.109 21.4816 108.28 22.1039 108.622 22.6173C108.965 23.1307 109.416 23.5275 109.976 23.8075C110.551 24.0719 111.166 24.2042 111.819 24.2042C112.41 24.2042 113.002 24.0953 113.593 23.8775C114.2 23.6597 114.705 23.3252 115.11 22.874C115.53 22.4228 115.74 21.855 115.74 21.1705L115.366 19.7703C115.366 20.3304 115.227 20.8282 114.946 21.2638C114.682 21.6839 114.316 22.0106 113.849 22.244C113.399 22.4773 112.885 22.594 112.309 22.594C111.859 22.594 111.454 22.5239 111.096 22.3839C110.754 22.2284 110.481 22.0028 110.279 21.7072C110.093 21.4116 109.999 21.0616 109.999 20.6571ZM109.719 15.7097C109.89 15.5853 110.124 15.4375 110.419 15.2663C110.715 15.0952 111.073 14.9474 111.493 14.823C111.929 14.6985 112.41 14.6363 112.94 14.6363C113.266 14.6363 113.577 14.6674 113.873 14.7296C114.168 14.7918 114.426 14.893 114.643 15.033C114.876 15.173 115.055 15.3675 115.18 15.6164C115.305 15.8498 115.366 16.1532 115.366 16.5265V23.9708H117.234V16.2698C117.234 15.5697 117.054 14.9785 116.697 14.4962C116.355 14.0139 115.865 13.6484 115.227 13.3994C114.604 13.135 113.873 13.0027 113.033 13.0027C112.037 13.0027 111.181 13.1505 110.466 13.4461C109.766 13.7417 109.214 14.0373 108.809 14.3329L109.719 15.7097Z" fill="white"/>
  <path d="M118.761 13.236V14.9862H124.128V13.236H118.761ZM120.511 9.5022V23.9708H122.378V9.5022H120.511Z" fill="white"/>
  <path d="M124.367 13.236V14.9862H129.734V13.236H124.367ZM126.117 9.5022V23.9708H127.984V9.5022H126.117Z" fill="white"/>
  <path d="M135.761 24.2042C136.912 24.2042 137.908 23.9786 138.747 23.5275C139.603 23.0607 140.311 22.3762 140.871 21.4738L139.354 20.5171C138.965 21.1705 138.491 21.6605 137.931 21.9872C137.371 22.2984 136.725 22.454 135.994 22.454C135.263 22.454 134.64 22.2984 134.127 21.9872C133.613 21.6761 133.224 21.2249 132.96 20.6337C132.696 20.0425 132.563 19.3269 132.563 18.4868C132.563 17.8801 132.641 17.3355 132.797 16.8532C132.952 16.371 133.178 15.9664 133.474 15.6398C133.769 15.313 134.127 15.0641 134.547 14.893C134.982 14.7218 135.465 14.6363 135.994 14.6363C136.6 14.6363 137.13 14.7685 137.581 15.033C138.032 15.2975 138.382 15.663 138.631 16.1298C138.895 16.5965 139.028 17.1488 139.028 17.7867C139.028 17.8956 139.005 18.0356 138.958 18.2067C138.911 18.3623 138.864 18.479 138.818 18.5568L139.564 17.4833H131.864V19.0702H141.035C141.035 19.0391 141.035 18.9691 141.035 18.8601C141.05 18.7357 141.058 18.619 141.058 18.5101C141.058 17.3744 140.855 16.3942 140.451 15.5697C140.046 14.7452 139.463 14.1151 138.701 13.6794C137.954 13.2283 137.052 13.0027 135.994 13.0027C135.2 13.0027 134.477 13.1427 133.824 13.4228C133.17 13.6873 132.61 14.0684 132.143 14.5663C131.677 15.0485 131.311 15.632 131.046 16.3165C130.798 17.001 130.673 17.7633 130.673 18.6035C130.673 19.708 130.884 20.6804 131.303 21.5205C131.739 22.3606 132.338 23.0218 133.1 23.5041C133.878 23.9708 134.765 24.2042 135.761 24.2042Z" fill="white"/>
  <path d="M145.484 13.2361H143.616V23.9708H145.484V13.2361ZM148.727 15.2897L149.754 13.7495C149.474 13.4539 149.163 13.2595 148.821 13.1661C148.494 13.0572 148.136 13.0027 147.747 13.0027C147.249 13.0027 146.759 13.1972 146.277 13.5861C145.795 13.975 145.398 14.504 145.087 15.173C144.791 15.8264 144.643 16.581 144.643 17.4366H145.484C145.484 16.9233 145.53 16.4643 145.623 16.0598C145.733 15.6553 145.919 15.3364 146.183 15.103C146.448 14.8696 146.814 14.7529 147.28 14.7529C147.592 14.7529 147.848 14.7996 148.051 14.893C148.253 14.9707 148.478 15.103 148.727 15.2897Z" fill="white"/>
  <path fill-rule="evenodd" clip-rule="evenodd" d="M22.5575 26.1903C24.815 26.1903 26.6452 24.3602 26.6452 22.1026C26.6452 19.8451 24.815 18.0149 22.5575 18.0149C20.2999 18.0149 18.4698 19.8451 18.4698 22.1026C18.4698 24.3602 20.2999 26.1903 22.5575 26.1903ZM28.0026 22.1026C28.0026 25.1099 25.5648 27.5478 22.5575 27.5478C19.5502 27.5478 17.1123 25.1099 17.1123 22.1026C17.1123 19.0953 19.5502 16.6575 22.5575 16.6575C25.5648 16.6575 28.0026 19.0953 28.0026 22.1026Z" fill="white"/>
  <path fill-rule="evenodd" clip-rule="evenodd" d="M19.205 24.9188C19.4764 25.2519 19.4263 25.7418 19.0932 26.0132C16.2656 28.3164 13.321 29.9236 10.7178 30.6258C8.15146 31.3181 5.70049 31.177 4.14942 29.6259C2.42744 27.9039 2.43822 25.0787 3.41879 22.172C3.55612 21.765 3.99744 21.5463 4.40451 21.6836C4.81159 21.8209 5.03026 22.2623 4.89293 22.6693C3.96223 25.4282 4.1835 27.4598 5.24951 28.5258C6.20685 29.4832 7.93901 29.764 10.3127 29.1237C12.6496 28.4933 15.4019 27.0134 18.1106 24.8069C18.4438 24.5356 18.9337 24.5857 19.205 24.9188Z" fill="white"/>
  <path fill-rule="evenodd" clip-rule="evenodd" d="M13.7768 9.68803C13.5158 9.34676 13.5808 8.85855 13.922 8.59751C16.6349 6.52221 19.422 5.09341 21.8819 4.50026C24.3124 3.9142 26.6178 4.1079 28.0996 5.58974C29.8216 7.31172 29.8108 10.1369 28.8303 13.0436C28.693 13.4507 28.2516 13.6694 27.8446 13.532C27.4374 13.3947 27.2188 12.9534 27.3561 12.5464C28.2868 9.78746 28.0655 7.75581 26.9995 6.68983C26.0856 5.77591 24.4676 5.47714 22.2466 6.01267C20.055 6.54112 17.4624 7.84798 14.8672 9.83321C14.526 10.0943 14.0378 10.0292 13.7768 9.68803Z" fill="white"/>
  <path fill-rule="evenodd" clip-rule="evenodd" d="M16.3356 12.7684C16.3356 15.7756 13.8977 18.2135 10.8905 18.2135C7.88321 18.2135 5.44531 15.7756 5.44531 12.7684C5.44531 9.76111 7.88321 7.32324 10.8905 7.32324C13.8977 7.32324 16.3356 9.76111 16.3356 12.7684ZM10.3458 10.0454H11.4348V12.2233H13.6121V13.3123H11.4348V15.4906H10.3458V13.3123H8.16686V12.2233H10.3458V10.0454Z" fill="white"/>
  <path d="M24.5027 22.5697V21.4807H20.6133V22.5697H24.5027Z" fill="white"/>
</svg>
