<svg width="66" height="66" viewBox="0 0 66 66" fill="none" xmlns="http://www.w3.org/2000/svg">
<circle cx="33" cy="33" r="32.5" fill="#252525" stroke="white"/>
<path fill-rule="evenodd" clip-rule="evenodd" d="M41.6559 44.5555C44.6331 44.5555 47.0466 42.1419 47.0466 39.1646C47.0466 36.1874 44.6331 33.7739 41.6559 33.7739C38.6786 33.7739 36.265 36.1874 36.265 39.1646C36.265 42.1419 38.6786 44.5555 41.6559 44.5555ZM48.8368 39.1646C48.8368 43.1307 45.6218 46.3457 41.6559 46.3457C37.6898 46.3457 34.4748 43.1307 34.4748 39.1646C34.4748 35.1987 37.6898 31.9836 41.6559 31.9836C45.6218 31.9836 48.8368 35.1987 48.8368 39.1646Z" fill="white"/>
<path fill-rule="evenodd" clip-rule="evenodd" d="M37.2348 42.8785C37.5926 43.3178 37.5266 43.9639 37.0872 44.3217C33.3583 47.3592 29.475 49.4788 26.0419 50.4047C22.6574 51.3177 19.4251 51.1316 17.3796 49.0862C15.1087 46.8152 15.1229 43.0894 16.4161 39.2561C16.5972 38.7193 17.1792 38.4309 17.716 38.6119C18.2529 38.793 18.5413 39.3751 18.3601 39.9119C17.1328 43.5502 17.4246 46.2295 18.8304 47.6354C20.0929 48.8979 22.3773 49.2683 25.5076 48.4239C28.5895 47.5925 32.2192 45.6408 35.7915 42.7309C36.2308 42.3732 36.877 42.4391 37.2348 42.8785Z" fill="white"/>
<path fill-rule="evenodd" clip-rule="evenodd" d="M30.0738 22.7924C29.7295 22.3423 29.8153 21.6985 30.2653 21.3542C33.8431 18.6173 37.5187 16.733 40.7627 15.9508C43.9681 15.1779 47.0084 15.4334 48.9626 17.3876C51.2336 19.6585 51.2194 23.3844 49.9262 27.2177C49.7451 27.7546 49.163 28.043 48.6262 27.8618C48.0893 27.6807 47.801 27.0987 47.9821 26.5619C49.2095 22.9235 48.9177 20.2442 47.5118 18.8384C46.3066 17.6331 44.1727 17.2391 41.2437 17.9453C38.3534 18.6423 34.9344 20.3657 31.5119 22.9838C31.0619 23.3281 30.4181 23.2423 30.0738 22.7924Z" fill="white"/>
<path fill-rule="evenodd" clip-rule="evenodd" d="M33.4519 26.8548C33.4519 30.8207 30.2368 34.0358 26.2709 34.0358C22.3049 34.0358 19.0898 30.8207 19.0898 26.8548C19.0898 22.8889 22.3049 19.6738 26.2709 19.6738C30.2368 19.6738 33.4519 22.8889 33.4519 26.8548ZM25.5526 23.2638H26.9888V26.1359H29.8601V27.5721H26.9888V30.4448H25.5526V27.5721H22.679V26.1359H25.5526V23.2638Z" fill="white"/>
<path d="M44.2228 39.7808V38.3446H39.0934V39.7808H44.2228Z" fill="white"/>
</svg>
