<svg width="122" height="28" viewBox="0 0 122 28" fill="none" xmlns="http://www.w3.org/2000/svg">
<path fill-rule="evenodd" clip-rule="evenodd" d="M34.2261 3.76929C33.6164 3.76929 33.1221 4.25144 33.1221 4.84621V21.0001C33.1221 21.5948 33.6164 22.077 34.2261 22.077H69.5564C70.1665 22.077 70.6605 21.5948 70.6605 21.0001V4.84621C70.6605 4.25144 70.1665 3.76929 69.5564 3.76929H34.2261ZM39.9888 15.4986L38.3037 19.3865H36.5006L42.6692 5.77904L48.8378 19.3865H47.0346L45.3407 15.4986H39.9888ZM44.7045 14.0176H40.639L42.6692 9.35216L44.7045 14.0176ZM55.9581 19.3865V14.2027C55.9581 13.7337 55.8886 13.3449 55.7495 13.0364C55.6104 12.7154 55.4017 12.4748 55.1232 12.3143C54.8449 12.1539 54.5032 12.0737 54.0983 12.0737C53.6554 12.0737 53.2632 12.1662 52.9215 12.3513C52.5925 12.5241 52.3331 12.771 52.1433 13.0919C51.9662 13.4128 51.8776 13.7831 51.8776 14.2027V19.3865H50.3592V10.8703H51.8776V12.2033C52.1686 11.6849 52.5292 11.3023 52.9595 11.0554C53.4023 10.8086 53.9085 10.6851 54.4779 10.6851C55.0979 10.6851 55.6291 10.8209 56.0724 11.0924C56.5151 11.364 56.8569 11.7466 57.097 12.2403C57.3504 12.734 57.4768 13.3264 57.4768 14.0176V19.3865H55.9581ZM59.0026 10.8703V12.2588H60.4263V19.3865H61.9444V12.2588H63.3681V10.8703H61.9444V7.90812H60.4263V10.8703H59.0026ZM65.1948 8.07472C64.9922 7.86493 64.8912 7.62424 64.8912 7.35269C64.8912 7.06882 64.9922 6.82818 65.1948 6.63067C65.4096 6.43322 65.6563 6.33446 65.9351 6.33446C66.226 6.33446 66.4728 6.43322 66.6748 6.63067C66.8774 6.82818 66.979 7.06882 66.979 7.35269C66.979 7.62424 66.8774 7.86493 66.6748 8.07472C66.4728 8.27223 66.226 8.37093 65.9351 8.37093C65.6563 8.37093 65.4096 8.27223 65.1948 8.07472ZM65.1755 19.3865V10.8703H66.6941V19.3865H65.1755Z" fill="#252525"/>
<path d="M85.9306 13.6479C85.9306 12.9444 85.8169 12.3458 85.5889 11.8521C85.3736 11.346 85.0573 10.9634 84.6399 10.7043C84.222 10.445 83.7164 10.3154 83.1213 10.3154C82.5394 10.3154 82.0205 10.4512 81.5651 10.7228C81.1096 10.9819 80.7298 11.3769 80.4262 11.9076C80.2998 11.562 80.1099 11.272 79.8571 11.0375C79.6164 10.803 79.3315 10.624 79.0025 10.5006C78.6735 10.3772 78.3069 10.3154 77.9018 10.3154C77.5473 10.3154 77.2183 10.371 76.9147 10.4821C76.6111 10.5808 76.3389 10.7351 76.0988 10.9449C75.8708 11.1547 75.6682 11.4201 75.4916 11.741V10.5006H73.9729V19.0168H75.4916V13.833C75.4916 13.3887 75.5738 13.0061 75.7383 12.6852C75.9028 12.3643 76.1369 12.1236 76.4405 11.9632C76.7441 11.7904 77.1046 11.704 77.5219 11.704C77.9017 11.704 78.212 11.7842 78.4521 11.9447C78.7055 12.0928 78.8888 12.3211 79.0025 12.6296C79.1295 12.9382 79.1924 13.3393 79.1924 13.833V19.0168H80.7111V13.833C80.7111 13.3887 80.7933 13.0061 80.9578 12.6852C81.1223 12.3643 81.3564 12.1236 81.66 11.9632C81.9636 11.7904 82.3241 11.704 82.742 11.704C83.1213 11.704 83.4315 11.7842 83.6716 11.9447C83.925 12.0928 84.1083 12.3211 84.222 12.6296C84.349 12.9382 84.4119 13.3393 84.4119 13.833V19.0168H85.9306V13.6479Z" fill="#252525"/>
<path d="M89.4659 16.3879C89.4659 16.0793 89.5421 15.814 89.6939 15.5918C89.8457 15.3696 90.0737 15.1969 90.3773 15.0734C90.6936 14.95 91.0983 14.8883 91.5918 14.8883C92.1234 14.8883 92.623 14.9562 93.0911 15.092C93.5592 15.2154 94.0152 15.4252 94.458 15.7214V14.8513C94.3691 14.7402 94.1985 14.5982 93.9457 14.4254C93.6923 14.2403 93.3506 14.0799 92.9205 13.9441C92.5032 13.796 91.9777 13.722 91.345 13.722C90.6368 13.722 90.0229 13.8392 89.504 14.0737C88.9978 14.2958 88.6058 14.6106 88.327 15.0179C88.0615 15.4252 87.9285 15.9065 87.9285 16.462C87.9285 17.042 88.0681 17.5358 88.3464 17.9431C88.6246 18.3503 88.9917 18.6651 89.4471 18.8872C89.9152 19.097 90.4148 19.202 90.9464 19.202C91.4273 19.202 91.9081 19.1156 92.3889 18.9428C92.8824 18.77 93.2937 18.5046 93.6227 18.1467C93.9644 17.7887 94.135 17.3383 94.135 16.7952L93.8314 15.6844C93.8314 16.1287 93.7177 16.5237 93.4897 16.8693C93.2749 17.2025 92.9774 17.4617 92.5976 17.6468C92.231 17.832 91.8131 17.9245 91.345 17.9245C90.9785 17.9245 90.6495 17.869 90.358 17.7579C90.0798 17.6345 89.8584 17.4555 89.6939 17.221C89.5421 16.9865 89.4659 16.7088 89.4659 16.3879ZM89.2384 12.463C89.3776 12.3643 89.5675 12.2471 89.8076 12.1113C90.0483 11.9755 90.3392 11.8582 90.6809 11.7595C91.0353 11.6608 91.4273 11.6114 91.8579 11.6114C92.1234 11.6114 92.3762 11.6361 92.6169 11.6854C92.857 11.7348 93.0663 11.815 93.2429 11.9261C93.4328 12.0372 93.5786 12.1915 93.6796 12.389C93.7812 12.5741 93.8314 12.8148 93.8314 13.111V19.0168H95.35V12.9074C95.35 12.3519 95.2043 11.8829 94.9134 11.5003C94.6352 11.1177 94.2366 10.8277 93.7177 10.6302C93.2115 10.4204 92.6169 10.3154 91.9335 10.3154C91.1237 10.3154 90.4275 10.4327 89.8457 10.6672C89.2765 10.9017 88.8272 11.1362 88.4982 11.3707L89.2384 12.463Z" fill="#252525"/>
<path d="M96.592 10.5006V11.8891H100.958V10.5006H96.592ZM98.0158 7.53845V19.0168H99.5339V7.53845H98.0158Z" fill="#252525"/>
<path d="M101.152 10.5006V11.8891H105.517V10.5006H101.152ZM102.576 7.53845V19.0168H104.094V7.53845H102.576Z" fill="#252525"/>
<path d="M110.419 19.202C111.355 19.202 112.165 19.023 112.848 18.6651C113.544 18.2948 114.12 17.7517 114.575 17.0359L113.341 16.2768C113.025 16.7952 112.639 17.184 112.184 17.4431C111.728 17.69 111.203 17.8134 110.608 17.8134C110.014 17.8134 109.507 17.69 109.09 17.4431C108.672 17.1963 108.356 16.8384 108.141 16.3694C107.926 15.9003 107.818 15.3326 107.818 14.6661C107.818 14.1848 107.882 13.7528 108.008 13.3702C108.134 12.9876 108.318 12.6667 108.558 12.4075C108.799 12.1483 109.09 11.9508 109.432 11.815C109.786 11.6793 110.178 11.6114 110.608 11.6114C111.102 11.6114 111.532 11.7163 111.899 11.9261C112.266 12.136 112.551 12.426 112.753 12.7963C112.968 13.1665 113.076 13.6047 113.076 14.1107C113.076 14.1971 113.057 14.3082 113.019 14.444C112.981 14.5674 112.943 14.6599 112.905 14.7217L113.512 13.8701H107.249V15.129H114.708C114.708 15.1043 114.708 15.0488 114.708 14.9623C114.721 14.8636 114.727 14.771 114.727 14.6847C114.727 13.7837 114.562 13.0061 114.233 12.3519C113.904 11.6978 113.43 11.1979 112.81 10.8523C112.202 10.4944 111.469 10.3154 110.608 10.3154C109.963 10.3154 109.374 10.4265 108.843 10.6487C108.312 10.8585 107.856 11.1609 107.476 11.5559C107.097 11.9385 106.8 12.4013 106.584 12.9444C106.382 13.4875 106.281 14.0922 106.281 14.7587C106.281 15.635 106.452 16.4064 106.793 17.0729C107.147 17.7394 107.635 18.2639 108.255 18.6466C108.887 19.0168 109.609 19.202 110.419 19.202Z" fill="#252525"/>
<path d="M118.327 10.5006H116.808V19.0168H118.327V10.5006ZM120.965 12.1298L121.8 10.9079C121.572 10.6734 121.319 10.5191 121.041 10.445C120.775 10.3587 120.484 10.3154 120.168 10.3154C119.763 10.3154 119.364 10.4698 118.972 10.7783C118.58 11.0868 118.257 11.5065 118.004 12.0372C117.764 12.5556 117.643 13.1542 117.643 13.833H118.327C118.327 13.4257 118.365 13.0616 118.44 12.7407C118.529 12.4198 118.681 12.1668 118.896 11.9817C119.111 11.7965 119.409 11.704 119.788 11.704C120.041 11.704 120.25 11.741 120.415 11.815C120.579 11.8768 120.762 11.9817 120.965 12.1298Z" fill="#252525"/>
<path fill-rule="evenodd" clip-rule="evenodd" d="M18.3462 19.8444C20.1824 19.8444 21.6709 18.3925 21.6709 16.6014C21.6709 14.8104 20.1824 13.3585 18.3462 13.3585C16.5101 13.3585 15.0216 14.8104 15.0216 16.6014C15.0216 18.3925 16.5101 19.8444 18.3462 19.8444ZM22.775 16.6014C22.775 18.9872 20.7922 20.9213 18.3462 20.9213C15.9003 20.9213 13.9175 18.9872 13.9175 16.6014C13.9175 14.2157 15.9003 12.2816 18.3462 12.2816C20.7922 12.2816 22.775 14.2157 22.775 16.6014Z" fill="#252525"/>
<path fill-rule="evenodd" clip-rule="evenodd" d="M15.6204 18.8354C15.8412 19.0997 15.8004 19.4884 15.5295 19.7036C13.2297 21.5309 10.8348 22.8059 8.71751 23.363C6.63021 23.9122 4.63676 23.8003 3.37522 22.5698C1.97468 21.2036 1.98345 18.9623 2.78098 16.6563C2.89267 16.3334 3.25161 16.1599 3.5827 16.2689C3.91379 16.3778 4.09164 16.728 3.97995 17.0509C3.22298 19.2395 3.40294 20.8513 4.26996 21.697C5.0486 22.4565 6.45742 22.6793 8.388 22.1714C10.2887 21.6712 12.5272 20.4972 14.7303 18.7467C15.0013 18.5315 15.3998 18.5712 15.6204 18.8354Z" fill="#252525"/>
<path fill-rule="evenodd" clip-rule="evenodd" d="M11.2052 6.75256C10.9928 6.48182 11.0457 6.09451 11.3232 5.88741C13.5298 4.24101 15.7966 3.10749 17.7973 2.63692C19.7741 2.17198 21.6492 2.32566 22.8544 3.50125C24.255 4.86735 24.2462 7.1087 23.4487 9.41466C23.337 9.73763 22.978 9.91112 22.6469 9.80214C22.3158 9.69321 22.138 9.3431 22.2497 9.02018C23.0066 6.83145 22.8267 5.21967 21.9597 4.37399C21.2163 3.64894 19.9003 3.41192 18.0939 3.83677C16.3114 4.25601 14.2028 5.29279 12.0921 6.86774C11.8146 7.07483 11.4175 7.02325 11.2052 6.75256Z" fill="#252525"/>
<path fill-rule="evenodd" clip-rule="evenodd" d="M13.2857 9.19627C13.2857 11.582 11.3029 13.5161 8.85695 13.5161C6.41105 13.5161 4.42822 11.582 4.42822 9.19627C4.42822 6.81051 6.41105 4.87646 8.85695 4.87646C11.3029 4.87646 13.2857 6.81051 13.2857 9.19627ZM8.41394 7.03607H9.29969V8.76383H11.0705V9.62779H9.29969V11.3559H8.41394V9.62779H6.64174V8.76383H8.41394V7.03607Z" fill="#252525"/>
<path d="M19.9287 16.972V16.108H16.7653V16.972H19.9287Z" fill="#252525"/>
</svg>
