<svg width="14" height="21" viewBox="0 0 14 21" fill="white"
  xmlns="http://www.w3.org/2000/svg">
  <path d="M13.9995 12.8142C14.006 12.6055 13.9499 12.3999 13.8392 12.2263C13.7285 12.0527 13.5688 11.9199 13.3824 11.8465C13.196 11.7731 12.9923 11.7628 12.8001 11.817C12.6078 11.8713 12.4366 11.9873 12.3105 12.1489L8.27593 17.0907L8.27593 1.81093C8.27871 1.67791 8.2562 1.54565 8.20958 1.42191C8.16297 1.29817 8.09321 1.18544 8.0045 1.09033C7.91579 0.99523 7.8099 0.919666 7.69297 0.868078C7.57605 0.81649 7.45052 0.789917 7.32367 0.789917C7.19682 0.789917 7.07118 0.81649 6.95426 0.868078C6.83733 0.919666 6.73144 0.99523 6.64273 1.09033C6.55402 1.18544 6.48426 1.29817 6.43765 1.42191C6.39103 1.54565 6.36852 1.67791 6.3713 1.81093L6.3713 19.7966C6.37256 19.9997 6.43277 20.1976 6.54398 20.3638C6.65519 20.5301 6.81205 20.6568 6.99369 20.7272C7.17533 20.7975 7.37317 20.8082 7.56072 20.7576C7.74826 20.7071 7.91668 20.5978 8.04349 20.4443L13.7595 13.4541C13.9092 13.2773 13.9942 13.0506 13.9995 12.8142Z"/>
  <path d="M8.28271 19.7975C8.28144 20.0006 8.22124 20.1984 8.11003 20.3647C7.99882 20.5309 7.84185 20.6577 7.66021 20.7281C7.47856 20.7984 7.28083 20.809 7.09329 20.7585C6.90575 20.708 6.73733 20.5987 6.61051 20.4452L0.894529 13.4472C0.81331 13.3474 0.751691 13.2318 0.713063 13.107C0.674436 12.9822 0.659608 12.8507 0.669454 12.7199C0.679299 12.5891 0.713584 12.4616 0.770403 12.3447C0.827222 12.2278 0.90539 12.1238 1.00053 12.0386C1.09567 11.9534 1.20593 11.8887 1.32491 11.8482C1.44389 11.8077 1.56929 11.7922 1.69399 11.8025C1.8187 11.8128 1.94032 11.8488 2.05176 11.9084C2.16321 11.968 2.2623 12.05 2.34352 12.1498L6.37808 17.0896L6.37808 1.8118C6.37519 1.67871 6.39765 1.54636 6.44421 1.42253C6.49077 1.29869 6.56046 1.18586 6.64918 1.09066C6.7379 0.995466 6.84384 0.919828 6.96082 0.868187C7.0778 0.816545 7.20342 0.789942 7.33034 0.789942C7.45726 0.789942 7.583 0.816545 7.69998 0.868187C7.81696 0.919828 7.92289 0.995466 8.01161 1.09066C8.10033 1.18586 8.17002 1.29869 8.21659 1.42253C8.26315 1.54636 8.2856 1.67871 8.28271 1.8118L8.28271 19.7975Z" />
</svg>
