<svg width="582" height="285" viewBox="0 0 582 285" fill="none" xmlns="http://www.w3.org/2000/svg">
<path d="M191.468 110.342L150.946 113.025L155.017 119.296L82.2646 166.481L95.7116 187.164L168.433 139.979L172.504 146.25L191.468 110.342Z" fill="#E48D88"/>
<path d="M89.8623 183.727C89.8322 183.727 89.802 183.727 89.7718 183.727C89.6512 183.697 89.5608 183.636 89.5005 183.516L76.0837 162.833C75.933 162.622 75.9933 162.35 76.2043 162.2L148.564 115.256L144.735 109.377C144.645 109.256 144.645 109.075 144.705 108.925C144.765 108.774 144.916 108.683 145.067 108.683L185.589 106C185.769 106 185.92 106.06 186.011 106.211C186.101 106.362 186.101 106.513 186.041 106.663L167.107 142.572C167.046 142.723 166.896 142.813 166.715 142.813C166.564 142.813 166.413 142.753 166.323 142.602L162.494 136.723L90.1337 183.666C90.0432 183.697 89.9528 183.727 89.8623 183.727ZM77.0486 162.712L89.9829 182.641L162.343 135.698C162.433 135.637 162.554 135.607 162.675 135.637C162.795 135.668 162.886 135.728 162.946 135.849L166.624 141.456L184.835 106.935L145.911 109.497L149.559 115.135C149.62 115.226 149.65 115.347 149.62 115.467C149.589 115.588 149.529 115.678 149.409 115.738L77.0486 162.712Z" fill="#121127"/>
<path d="M496.57 265.52C495.503 265.51 494.438 265.322 493.392 264.973C488.73 263.398 484.26 258.553 480.106 250.598C477.016 244.681 475.274 239.168 475.257 239.115L475.774 238.96C475.843 239.174 482.762 260.832 493.575 264.495C496.783 265.576 500.061 264.968 503.302 262.687C508.908 258.741 511.69 250.641 512.272 242.128C509.212 240.391 506.176 238.12 503.409 235.479C498.476 230.771 495.078 225.491 494.318 221.322C493.761 218.258 494.603 215.847 496.752 214.339C500.638 211.62 504.47 212.512 507.522 216.881C511.135 222.02 513.231 231.324 512.874 240.604C512.852 241.031 512.83 241.44 512.808 241.849C515.161 243.152 517.605 244.172 520.035 244.801C524.275 245.891 530.213 246.092 534.39 240.904C537.882 236.581 539.577 230.569 539.308 223.577C537.834 223.332 536.469 222.945 535.264 222.488C530.71 220.808 526.296 217.527 522.816 213.278C519.583 209.352 517.474 204.956 517.012 201.235C516.617 197.977 517.478 195.513 519.536 194.11C522.509 192.059 526.18 193.144 529.875 197.146C534.274 201.902 537.86 209.887 539.256 217.975C539.559 219.738 539.756 221.448 539.828 223.12C544.694 223.826 550.733 222.854 556.923 217.259C565.285 209.694 567.381 200.929 566.265 193.199C562.733 194.267 558.979 194.426 555.27 193.643C547.39 191.965 540.707 186.173 540.051 180.458C539.658 177.057 541.535 174.212 545.323 172.435C550.308 170.101 557.192 173.565 562.064 180.887C564.43 184.431 565.991 188.43 566.663 192.492C571.409 190.902 576.691 187.291 581.194 179.67L581.654 179.941C578.164 185.847 573.855 189.984 568.835 192.229C568.156 192.542 567.46 192.802 566.747 193.044C566.996 194.825 567.085 196.604 566.996 198.382C566.606 205.581 563.25 212.252 557.275 217.654C550.977 223.354 544.814 224.36 539.859 223.672C540.109 230.734 538.378 236.853 534.831 241.247C531.375 245.516 526.221 246.924 519.923 245.315C517.617 244.723 515.208 243.739 512.785 242.417C512.086 251.979 508.776 259.451 503.583 263.117C501.273 264.731 498.917 265.543 496.57 265.52ZM501.173 213.297C499.946 213.285 498.572 213.699 497.068 214.751C495.062 216.154 494.33 218.317 494.853 221.203C496 227.492 503.489 236.44 512.313 241.524C512.867 232.192 510.829 222.462 507.11 217.161C505.742 215.21 503.751 213.323 501.173 213.297ZM522.742 193.626C521.782 193.617 520.801 193.874 519.852 194.54C517.471 196.171 517.283 199.05 517.547 201.169C518.437 208.327 525.843 218.394 535.465 221.975C536.616 222.413 537.911 222.781 539.314 223.008C539.223 221.407 539.043 219.751 538.758 218.041C537.378 210.042 533.845 202.165 529.516 197.481C528.002 195.865 525.463 193.653 522.742 193.626ZM548.758 172.202C547.62 172.191 546.55 172.412 545.568 172.882C541.941 174.572 540.226 177.169 540.586 180.374C541.207 185.875 547.715 191.452 555.382 193.093C557.671 193.577 561.669 194.008 566.182 192.612C565.477 188.319 563.773 184.372 561.635 181.132C559.409 177.784 556.608 175.107 553.724 173.585C552.007 172.696 550.322 172.218 548.758 172.202Z" fill="#121127"/>
<path d="M267.06 129.591L257.02 138.63L261.371 140.903C260.36 142.848 252.703 157.023 236.751 173.012C220.989 188.824 193.649 209.683 153.004 219.3C112.346 228.911 76.3766 219.703 53.3552 210.281C32.0438 201.574 17.6129 191.081 13.7531 188.125C14.2157 187.6 14.614 186.982 14.8927 186.282C16.1814 183.047 14.6003 179.377 11.3617 178.087C8.12298 176.797 4.45212 178.375 3.16342 181.611C1.87471 184.847 3.45578 188.516 6.69446 189.806C9.0724 190.753 11.6983 190.144 13.4301 188.469C17.2607 191.413 31.7587 201.95 53.1665 210.712C53.7063 210.927 54.2549 211.163 54.7946 211.378C68.9602 217.019 83.4402 220.81 97.8292 222.623C116.514 224.982 135.12 224.015 153.122 219.769C171.13 215.508 188.049 208.72 203.421 199.576C215.715 192.262 227.055 183.438 237.125 173.347C253.088 157.329 260.777 143.115 261.806 141.127L265.795 143.206L267.06 129.591Z" fill="#121127"/>
<mask id="path-5-inside-1_2402_13704" fill="white">
<path fill-rule="evenodd" clip-rule="evenodd" d="M330 285C420.575 285 494 211.575 494 121C494 30.4254 420.575 -43 330 -43C239.425 -43 166 30.4254 166 121C166 211.575 239.425 285 330 285ZM280.447 195.299H241.974C232.852 195.299 228.291 195.299 225.559 193.533C222.607 191.624 220.745 188.42 220.548 184.913C220.365 181.667 222.624 177.709 227.142 169.794L227.144 169.791L311.378 22.2223C315.962 14.1901 318.255 10.174 321.172 8.67901C324.323 7.06395 328.059 7.06117 331.213 8.67192C334.132 10.1624 336.43 14.1754 341.026 22.2005L360.453 56.1199L360.454 56.1209C363.796 61.9559 365.467 64.874 366.202 67.9522C367.002 71.3037 367.004 74.7951 366.207 78.1466C365.475 81.2258 363.806 84.1459 360.468 89.9845L310.097 178.103C306.711 184.027 305.018 186.989 302.698 189.203C300.173 191.613 297.111 193.39 293.764 194.385C290.689 195.299 287.275 195.299 280.447 195.299ZM417.706 195.299H373.101C363.897 195.299 359.294 195.299 356.554 193.517C353.594 191.592 351.737 188.365 351.562 184.84C351.4 181.579 353.716 177.604 358.348 169.657L380.614 131.457C385.188 123.61 387.475 119.687 390.371 118.217C393.5 116.629 397.2 116.627 400.332 118.21C403.231 119.675 405.523 123.595 410.107 131.434L410.108 131.437L432.448 169.636C437.098 177.588 439.423 181.564 439.264 184.829C439.092 188.356 437.236 191.587 434.274 193.515C431.534 195.299 426.925 195.299 417.706 195.299Z"/>
</mask>
<path d="M225.559 193.533L226.646 191.853L226.645 191.853L225.559 193.533ZM220.548 184.913L222.545 184.801L222.545 184.8L220.548 184.913ZM227.142 169.794L225.478 168.684L225.439 168.742L225.405 168.803L227.142 169.794ZM227.144 169.791L228.807 170.901L228.846 170.843L228.881 170.783L227.144 169.791ZM311.378 22.2223L313.115 23.2138L313.115 23.2137L311.378 22.2223ZM321.172 8.67901L322.084 10.4589L322.084 10.4588L321.172 8.67901ZM331.213 8.67192L330.303 10.453L330.303 10.4532L331.213 8.67192ZM341.026 22.2005L339.29 23.1945L339.29 23.1945L341.026 22.2005ZM360.453 56.1199L362.234 55.2097L362.212 55.1672L362.189 55.1259L360.453 56.1199ZM360.454 56.1209L358.673 57.0311L358.695 57.0736L358.718 57.115L360.454 56.1209ZM366.202 67.9522L368.147 67.4879L368.147 67.4877L366.202 67.9522ZM366.207 78.1466L364.261 77.6839L364.261 77.684L366.207 78.1466ZM360.468 89.9845L358.732 88.9919L358.732 88.9919L360.468 89.9845ZM310.097 178.103L308.361 177.11L308.36 177.111L310.097 178.103ZM302.698 189.203L301.317 187.756L301.317 187.756L302.698 189.203ZM293.764 194.385L294.334 196.302L294.334 196.302L293.764 194.385ZM356.554 193.517L355.464 195.194L355.464 195.194L356.554 193.517ZM351.562 184.84L353.559 184.741L353.559 184.741L351.562 184.84ZM358.348 169.657L360.076 170.664L360.076 170.664L358.348 169.657ZM380.614 131.457L378.886 130.45L378.886 130.45L380.614 131.457ZM390.371 118.217L389.466 116.434L389.465 116.434L390.371 118.217ZM400.332 118.21L401.235 116.425H401.235L400.332 118.21ZM410.107 131.434L411.961 130.683L411.906 130.549L411.833 130.424L410.107 131.434ZM410.108 131.437L408.254 132.188L408.309 132.322L408.382 132.446L410.108 131.437ZM432.448 169.636L434.174 168.626L434.174 168.626L432.448 169.636ZM439.264 184.829L441.262 184.926L441.262 184.926L439.264 184.829ZM434.274 193.515L433.183 191.839L433.183 191.839L434.274 193.515ZM330 287C421.679 287 496 212.679 496 121H492C492 210.47 419.47 283 330 283V287ZM496 121C496 29.3208 421.679 -45 330 -45V-41C419.47 -41 492 31.5299 492 121H496ZM330 -45C238.321 -45 164 29.3208 164 121H168C168 31.5299 240.53 -41 330 -41V-45ZM164 121C164 212.679 238.321 287 330 287V283C240.53 283 168 210.47 168 121H164ZM280.447 193.299H241.974V197.299H280.447V193.299ZM241.974 193.299C237.377 193.299 234.056 193.298 231.538 193.086C229.01 192.873 227.59 192.464 226.646 191.853L224.473 195.212C226.261 196.368 228.487 196.843 231.202 197.071C233.928 197.301 237.449 197.299 241.974 197.299V193.299ZM226.645 191.853C224.23 190.291 222.706 187.67 222.545 184.801L218.551 185.025C218.784 189.171 220.985 192.957 224.474 195.212L226.645 191.853ZM222.545 184.8C222.481 183.679 222.829 182.246 223.896 179.946C224.959 177.656 226.602 174.775 228.879 170.786L225.405 168.803C223.164 172.729 221.418 175.783 220.268 178.262C219.121 180.732 218.431 182.9 218.551 185.025L222.545 184.8ZM228.805 170.905L228.807 170.901L225.48 168.681L225.478 168.684L228.805 170.905ZM228.881 170.783L313.115 23.2138L309.641 21.2309L225.407 168.8L228.881 170.783ZM313.115 23.2137C315.425 19.1663 317.096 16.2421 318.548 14.1332C320.006 12.0143 321.077 10.9747 322.084 10.4589L320.26 6.89915C318.349 7.8783 316.816 9.59425 315.253 11.8653C313.683 14.1462 311.915 17.2462 309.641 21.2309L313.115 23.2137ZM322.084 10.4588C324.663 9.13689 327.722 9.13461 330.303 10.453L332.122 6.89084C328.397 4.98773 323.982 4.99102 320.259 6.89922L322.084 10.4588ZM330.303 10.4532C331.31 10.9674 332.383 12.0053 333.844 14.122C335.299 16.2288 336.974 19.1506 339.29 23.1945L342.761 21.2066C340.481 17.2254 338.709 14.128 337.136 11.8494C335.57 9.58075 334.034 7.86691 332.122 6.89067L330.303 10.4532ZM339.29 23.1945L358.718 57.1139L362.189 55.1259L342.761 21.2065L339.29 23.1945ZM358.672 57.0301L358.673 57.0311L362.235 55.2107L362.234 55.2097L358.672 57.0301ZM358.718 57.115C362.121 63.0556 363.604 65.6847 364.257 68.4168L368.147 67.4877C367.33 64.0632 365.471 60.8562 362.189 55.1268L358.718 57.115ZM364.257 68.4166C364.984 71.4634 364.985 74.6372 364.261 77.6839L368.152 78.6092C369.022 74.9529 369.02 71.144 368.147 67.4879L364.257 68.4166ZM364.261 77.684C363.611 80.4167 362.13 83.0475 358.732 88.9919L362.204 90.9771C365.482 85.2443 367.338 82.0349 368.152 78.6092L364.261 77.684ZM358.732 88.9919L308.361 177.11L311.833 179.095L362.204 90.977L358.732 88.9919ZM308.36 177.111C304.913 183.142 303.376 185.792 301.317 187.756L304.079 190.65C306.659 188.187 308.509 184.912 311.833 179.095L308.36 177.111ZM301.317 187.756C299.021 189.948 296.237 191.563 293.193 192.468L294.334 196.302C297.985 195.216 301.324 193.279 304.079 190.65L301.317 187.756ZM293.194 192.468C290.464 193.28 287.398 193.299 280.447 193.299V197.299C287.151 197.299 290.913 197.319 294.334 196.302L293.194 192.468ZM417.706 193.299H373.101V197.299H417.706V193.299ZM373.101 193.299C368.463 193.299 365.111 193.298 362.572 193.084C360.02 192.869 358.591 192.456 357.645 191.841L355.464 195.194C357.258 196.361 359.5 196.839 362.236 197.07C364.983 197.301 368.535 197.299 373.101 197.299V193.299ZM357.645 191.841C355.221 190.265 353.702 187.624 353.559 184.741L349.564 184.939C349.771 189.105 351.966 192.919 355.464 195.194L357.645 191.841ZM353.559 184.741C353.503 183.616 353.865 182.175 354.963 179.864C356.057 177.564 357.742 174.669 360.076 170.664L356.621 168.65C354.322 172.592 352.533 175.658 351.351 178.147C350.173 180.626 349.458 182.803 349.564 184.94L353.559 184.741ZM360.076 170.664L382.342 132.464L378.886 130.45L356.62 168.65L360.076 170.664ZM382.342 132.464C384.647 128.51 386.313 125.655 387.759 123.595C389.21 121.527 390.275 120.509 391.276 120.001L389.465 116.434C387.571 117.395 386.045 119.074 384.485 121.297C382.919 123.528 381.155 126.557 378.886 130.45L382.342 132.464ZM391.276 120.001C393.837 118.701 396.866 118.699 399.43 119.995L401.235 116.425C397.535 114.554 393.163 114.557 389.466 116.434L391.276 120.001ZM399.43 119.995C400.432 120.501 401.498 121.517 402.952 123.583C404.4 125.641 406.07 128.493 408.381 132.444L411.833 130.424C409.559 126.536 407.791 123.509 406.223 121.281C404.66 119.06 403.131 117.383 401.235 116.425L399.43 119.995ZM408.253 132.185L408.254 132.188L411.962 130.685L411.961 130.683L408.253 132.185ZM408.382 132.446L430.721 170.645L434.174 168.626L411.834 130.427L408.382 132.446ZM430.721 170.645C433.064 174.653 434.756 177.549 435.854 179.851C436.957 182.164 437.321 183.606 437.266 184.732L441.262 184.926C441.366 182.787 440.647 180.609 439.464 178.129C438.277 175.639 436.481 172.571 434.174 168.626L430.721 170.645ZM437.266 184.731C437.126 187.617 435.608 190.261 433.183 191.839L435.365 195.191C438.865 192.913 441.059 189.095 441.262 184.926L437.266 184.731ZM433.183 191.839C432.237 192.455 430.807 192.868 428.252 193.083C425.708 193.298 422.352 193.299 417.706 193.299V197.299C422.279 197.299 425.836 197.301 428.587 197.069C431.327 196.839 433.571 196.36 435.365 195.191L433.183 191.839Z" fill="#D65049" fill-opacity="0.7" mask="url(#path-5-inside-1_2402_13704)"/>
<path fill-rule="evenodd" clip-rule="evenodd" d="M339.5 264C418.201 264 482 199.977 482 121C482 42.0233 418.201 -22 339.5 -22C260.799 -22 197 42.0233 197 121C197 199.977 260.799 264 339.5 264ZM296.443 185.785H263.014C255.088 185.785 251.125 185.785 248.751 184.245C246.186 182.581 244.568 179.787 244.397 176.729C244.238 173.899 246.2 170.447 250.126 163.546L250.128 163.544L323.319 34.8707C327.303 27.867 329.295 24.3652 331.829 23.0616C334.567 21.6533 337.814 21.6509 340.554 23.0554C343.09 24.355 345.087 27.8542 349.08 34.8517L365.961 64.4277L365.961 64.4286C368.866 69.5165 370.317 72.0609 370.956 74.7449C371.651 77.6672 371.653 80.7116 370.96 83.6339C370.324 86.3189 368.874 88.865 365.974 93.956L322.206 170.791C319.264 175.957 317.793 178.539 315.777 180.47C313.583 182.571 310.922 184.12 308.014 184.988C305.342 185.785 302.376 185.785 296.443 185.785ZM415.708 185.785H376.951C368.953 185.785 364.954 185.785 362.573 184.232C360.001 182.553 358.387 179.739 358.235 176.666C358.094 173.822 360.107 170.356 364.132 163.427L383.478 130.118C387.453 123.276 389.441 119.855 391.956 118.574C394.675 117.189 397.891 117.187 400.612 118.567C403.13 119.845 405.122 123.263 409.105 130.098L409.106 130.1L428.517 163.408C432.558 170.342 434.578 173.809 434.44 176.656C434.29 179.731 432.678 182.548 430.104 184.23C427.723 185.785 423.718 185.785 415.708 185.785Z" fill="#D65049" fill-opacity="0.1"/>
</svg>
