<svg width="210" height="220" viewBox="0 0 210 220" fill="none" xmlns="http://www.w3.org/2000/svg">
<path d="M128.795 81.3316C128.307 83.4818 127.199 85.5108 125.115 89.3259L125.06 89.4276L92.8099 148.484L92.7493 148.595C90.6395 152.46 89.5151 154.519 87.9651 156.067C86.2777 157.753 84.2292 158.998 81.9872 159.696L81.9871 159.696C79.9264 160.337 77.6519 160.337 73.4059 160.337H73.2737H48.6417H48.6085C45.7166 160.337 43.504 160.337 41.7976 160.187C40.0869 160.036 38.7888 159.728 37.7795 159.045C35.7204 157.651 34.4314 155.321 34.295 152.78C34.2282 151.542 34.6098 150.224 35.3303 148.598C36.0495 146.976 37.1447 144.968 38.5791 142.338L38.5927 142.313L38.594 142.311L38.603 142.294L38.6042 142.292L92.5244 43.4103L92.5385 43.3844C93.9938 40.7154 95.1049 38.6776 96.0867 37.1845C97.0684 35.6914 97.9733 34.6578 99.0501 34.0801C101.253 32.8981 103.869 32.8961 106.073 34.0749C107.151 34.6509 108.057 35.6831 109.041 37.1747C110.024 38.6656 111.137 40.7003 112.595 43.365L112.612 43.3949L125.05 66.1275L125.05 66.1282L125.057 66.1404L125.057 66.1411L125.105 66.2282C127.192 70.0421 128.302 72.0699 128.792 74.2197L128.178 74.3598L128.792 74.2198C129.325 76.5579 129.326 78.9934 128.795 81.3316ZM128.795 81.3316L128.181 81.192L128.795 81.3316ZM156.86 116.638L156.859 116.637L156.838 116.598L156.819 116.565C155.366 113.964 154.256 111.977 153.277 110.52C152.296 109.062 151.394 108.051 150.324 107.486C148.135 106.327 145.545 106.329 143.356 107.491L143.637 108.02L143.356 107.491C142.288 108.059 141.388 109.07 140.409 110.531C139.43 111.99 138.321 113.981 136.87 116.588L136.855 116.614L122.6 142.216L122.587 142.239C121.115 144.881 119.992 146.898 119.253 148.527C118.512 150.159 118.117 151.483 118.176 152.728C118.297 155.28 119.582 157.628 121.647 159.034C122.66 159.723 123.967 160.033 125.691 160.186C127.411 160.337 129.644 160.337 132.562 160.337H132.595H161.153H161.187C164.11 160.337 166.345 160.337 168.068 160.185C169.794 160.033 171.103 159.723 172.115 159.032C174.181 157.624 175.466 155.274 175.585 152.719C175.643 151.473 175.245 150.149 174.501 148.516C173.759 146.886 172.631 144.868 171.154 142.224L171.141 142.201L156.86 116.638ZM209.37 109.912C209.37 170.295 162.615 219.195 105 219.195C47.3847 219.195 0.629796 170.295 0.629796 109.912C0.629796 49.5298 47.3847 0.629796 105 0.629796C162.615 0.629796 209.37 49.5298 209.37 109.912Z" stroke="#D65049" stroke-opacity="0.7" stroke-width="1.25959"/>
</svg>
