<svg width="69" height="69" viewBox="0 0 69 69" fill="none" xmlns="http://www.w3.org/2000/svg">
<path fill-rule="evenodd" clip-rule="evenodd" d="M68.977 34.5C68.977 53.5287 53.5413 68.9542 34.5 68.9542C15.4588 68.9542 0.0229492 53.5287 0.0229492 34.5C0.0229492 15.4715 15.4588 0.0458984 34.5 0.0458984C53.5413 0.0458984 68.977 15.4715 68.977 34.5ZM24.7302 48.211H18.0392C16.6332 48.211 15.9387 48.211 15.5152 47.9404C15.0578 47.644 14.7783 47.1531 14.7445 46.6113C14.719 46.1121 15.0663 45.5025 15.7608 44.2837L32.2818 15.1825C32.9848 13.9468 33.3405 13.3289 33.7894 13.1004C34.2722 12.8549 34.8481 12.8549 35.3309 13.1004C35.7798 13.3289 36.1355 13.9468 36.8385 15.1825L40.2348 21.1074L40.2522 21.1376C41.0114 22.4633 41.3965 23.1356 41.5646 23.8412C41.7509 24.6115 41.7509 25.424 41.5646 26.1942C41.3952 26.9052 41.014 27.5824 40.2433 28.9281L31.5652 44.2583L31.5428 44.2976C30.7785 45.6342 30.3912 46.3117 29.8544 46.8228C29.27 47.3816 28.567 47.7876 27.7962 48.0165C27.0932 48.211 26.3056 48.211 24.7302 48.211ZM41.6272 48.211H51.2147C52.6291 48.211 53.3407 48.211 53.7644 47.9321C54.2217 47.6357 54.5095 47.1361 54.5353 46.5948C54.5596 46.1117 54.2199 45.5258 53.5542 44.3778C53.5312 44.3387 53.5083 44.299 53.4849 44.2585L48.6824 36.0484L48.6278 35.956C47.9529 34.8155 47.6123 34.2396 47.1748 34.017C46.6923 33.7715 46.1244 33.7715 45.6419 34.017C45.2014 34.2455 44.8457 34.8465 44.1427 36.0568L39.3574 44.267L39.341 44.2952C38.6405 45.5037 38.2904 46.1075 38.3156 46.603C38.3495 47.1448 38.629 47.644 39.0863 47.9404C39.5014 48.211 40.2128 48.211 41.6272 48.211Z" fill="#E84142"/>
</svg>
