<svg width="494" height="328" viewBox="0 0 494 328" fill="none" xmlns="http://www.w3.org/2000/svg">
<path d="M191.468 153.342L150.946 156.025L155.017 162.296L82.2646 209.481L95.7116 230.164L168.433 182.979L172.504 189.25L191.468 153.342Z" fill="#E48D88"/>
<path d="M89.8623 226.727C89.8322 226.727 89.802 226.727 89.7718 226.727C89.6512 226.697 89.5608 226.636 89.5005 226.516L76.0837 205.833C75.933 205.622 75.9933 205.35 76.2043 205.2L148.564 158.256L144.735 152.377C144.645 152.256 144.645 152.075 144.705 151.925C144.765 151.774 144.916 151.683 145.067 151.683L185.589 149C185.769 149 185.92 149.06 186.011 149.211C186.101 149.362 186.101 149.513 186.041 149.663L167.107 185.572C167.046 185.723 166.896 185.813 166.715 185.813C166.564 185.813 166.413 185.753 166.323 185.602L162.494 179.723L90.1337 226.666C90.0432 226.697 89.9528 226.727 89.8623 226.727ZM77.0486 205.712L89.9829 225.641L162.343 178.698C162.433 178.637 162.554 178.607 162.675 178.637C162.795 178.668 162.886 178.728 162.946 178.849L166.624 184.456L184.835 149.935L145.911 152.497L149.559 158.135C149.62 158.226 149.65 158.347 149.62 158.467C149.589 158.588 149.529 158.678 149.409 158.738L77.0486 205.712Z" fill="#121127"/>
<path d="M267.06 172.591L257.02 181.63L261.371 183.903C260.36 185.848 252.703 200.023 236.751 216.012C220.989 231.824 193.649 252.683 153.004 262.3C112.346 271.911 76.3766 262.703 53.3552 253.281C32.0438 244.574 17.6129 234.081 13.7531 231.125C14.2157 230.6 14.614 229.982 14.8927 229.282C16.1814 226.047 14.6003 222.377 11.3617 221.087C8.12298 219.797 4.45212 221.375 3.16342 224.611C1.87471 227.847 3.45578 231.516 6.69446 232.806C9.0724 233.753 11.6983 233.144 13.4301 231.469C17.2607 234.413 31.7587 244.95 53.1665 253.712C53.7063 253.927 54.2549 254.163 54.7946 254.378C68.9602 260.019 83.4402 263.81 97.8292 265.623C116.514 267.982 135.12 267.015 153.122 262.769C171.13 258.508 188.049 251.72 203.421 242.576C215.715 235.262 227.055 226.438 237.125 216.347C253.088 200.329 260.777 186.115 261.806 184.127L265.795 186.206L267.06 172.591Z" fill="#121127"/>
<mask id="path-4-inside-1_2403_14594" fill="white">
<path fill-rule="evenodd" clip-rule="evenodd" d="M330 328C420.575 328 494 254.575 494 164C494 73.4254 420.575 0 330 0C239.425 0 166 73.4254 166 164C166 254.575 239.425 328 330 328ZM280.447 238.299H241.974C232.852 238.299 228.291 238.299 225.559 236.533C222.607 234.624 220.745 231.42 220.548 227.913C220.365 224.667 222.624 220.709 227.142 212.794L227.144 212.791L311.378 65.2223C315.962 57.1901 318.255 53.174 321.172 51.679C324.323 50.064 328.059 50.0612 331.213 51.6719C334.132 53.1624 336.43 57.1754 341.026 65.2005L360.453 99.1199L360.454 99.1209C363.796 104.956 365.467 107.874 366.202 110.952C367.002 114.304 367.004 117.795 366.207 121.147C365.475 124.226 363.806 127.146 360.468 132.984L310.097 221.103C306.711 227.027 305.018 229.989 302.698 232.203C300.173 234.613 297.111 236.39 293.764 237.385C290.689 238.299 287.275 238.299 280.447 238.299ZM417.706 238.299H373.101C363.897 238.299 359.294 238.299 356.554 236.517C353.594 234.592 351.737 231.365 351.562 227.84C351.4 224.579 353.716 220.604 358.348 212.657L380.614 174.457C385.188 166.61 387.475 162.687 390.371 161.217C393.5 159.629 397.2 159.627 400.332 161.21C403.231 162.675 405.523 166.595 410.107 174.434L410.108 174.437L432.448 212.636C437.098 220.588 439.423 224.564 439.264 227.829C439.092 231.356 437.236 234.587 434.274 236.515C431.534 238.299 426.925 238.299 417.706 238.299Z"/>
</mask>
<path d="M225.559 236.533L226.646 234.853L226.645 234.853L225.559 236.533ZM220.548 227.913L222.545 227.801L222.545 227.8L220.548 227.913ZM227.142 212.794L225.478 211.684L225.439 211.742L225.405 211.803L227.142 212.794ZM227.144 212.791L228.807 213.901L228.846 213.843L228.881 213.783L227.144 212.791ZM311.378 65.2223L313.115 66.2138L313.115 66.2137L311.378 65.2223ZM321.172 51.679L322.084 53.4589L322.084 53.4588L321.172 51.679ZM331.213 51.6719L330.303 53.453L330.303 53.4532L331.213 51.6719ZM341.026 65.2005L339.29 66.1945L339.29 66.1945L341.026 65.2005ZM360.453 99.1199L362.234 98.2097L362.212 98.1672L362.189 98.1259L360.453 99.1199ZM360.454 99.1209L358.673 100.031L358.695 100.074L358.718 100.115L360.454 99.1209ZM366.202 110.952L368.147 110.488L368.147 110.488L366.202 110.952ZM366.207 121.147L364.261 120.684L364.261 120.684L366.207 121.147ZM360.468 132.984L358.732 131.992L358.732 131.992L360.468 132.984ZM310.097 221.103L308.361 220.11L308.36 220.111L310.097 221.103ZM302.698 232.203L301.317 230.756L301.317 230.756L302.698 232.203ZM293.764 237.385L294.334 239.302L294.334 239.302L293.764 237.385ZM356.554 236.517L355.464 238.194L355.464 238.194L356.554 236.517ZM351.562 227.84L353.559 227.741L353.559 227.741L351.562 227.84ZM358.348 212.657L360.076 213.664L360.076 213.664L358.348 212.657ZM380.614 174.457L378.886 173.45L378.886 173.45L380.614 174.457ZM390.371 161.217L389.466 159.434L389.465 159.434L390.371 161.217ZM400.332 161.21L401.235 159.425H401.235L400.332 161.21ZM410.107 174.434L411.961 173.683L411.906 173.549L411.833 173.424L410.107 174.434ZM410.108 174.437L408.254 175.188L408.309 175.322L408.382 175.446L410.108 174.437ZM432.448 212.636L434.174 211.626L434.174 211.626L432.448 212.636ZM439.264 227.829L441.262 227.926L441.262 227.926L439.264 227.829ZM434.274 236.515L433.183 234.839L433.183 234.839L434.274 236.515ZM330 330C421.679 330 496 255.679 496 164H492C492 253.47 419.47 326 330 326V330ZM496 164C496 72.3208 421.679 -2 330 -2V2C419.47 2 492 74.5299 492 164H496ZM330 -2C238.321 -2 164 72.3208 164 164H168C168 74.5299 240.53 2 330 2V-2ZM164 164C164 255.679 238.321 330 330 330V326C240.53 326 168 253.47 168 164H164ZM280.447 236.299H241.974V240.299H280.447V236.299ZM241.974 236.299C237.377 236.299 234.056 236.298 231.538 236.086C229.01 235.873 227.59 235.464 226.646 234.853L224.473 238.212C226.261 239.368 228.487 239.843 231.202 240.071C233.928 240.301 237.449 240.299 241.974 240.299V236.299ZM226.645 234.853C224.23 233.291 222.706 230.67 222.545 227.801L218.551 228.025C218.784 232.171 220.985 235.957 224.474 238.212L226.645 234.853ZM222.545 227.8C222.481 226.679 222.829 225.246 223.896 222.946C224.959 220.656 226.602 217.775 228.879 213.786L225.405 211.803C223.164 215.729 221.418 218.783 220.268 221.262C219.121 223.732 218.431 225.9 218.551 228.025L222.545 227.8ZM228.805 213.905L228.807 213.901L225.48 211.681L225.478 211.684L228.805 213.905ZM228.881 213.783L313.115 66.2138L309.641 64.2309L225.407 211.8L228.881 213.783ZM313.115 66.2137C315.425 62.1663 317.096 59.2421 318.548 57.1332C320.006 55.0143 321.077 53.9747 322.084 53.4589L320.26 49.8992C318.349 50.8783 316.816 52.5942 315.253 54.8653C313.683 57.1462 311.915 60.2462 309.641 64.2309L313.115 66.2137ZM322.084 53.4588C324.663 52.1369 327.722 52.1346 330.303 53.453L332.122 49.8908C328.397 47.9877 323.982 47.991 320.259 49.8992L322.084 53.4588ZM330.303 53.4532C331.31 53.9674 332.383 55.0053 333.844 57.122C335.299 59.2288 336.974 62.1506 339.29 66.1945L342.761 64.2066C340.481 60.2254 338.709 57.128 337.136 54.8494C335.57 52.5807 334.034 50.8669 332.122 49.8907L330.303 53.4532ZM339.29 66.1945L358.718 100.114L362.189 98.1259L342.761 64.2065L339.29 66.1945ZM358.672 100.03L358.673 100.031L362.235 98.2107L362.234 98.2097L358.672 100.03ZM358.718 100.115C362.121 106.056 363.604 108.685 364.257 111.417L368.147 110.488C367.33 107.063 365.471 103.856 362.189 98.1268L358.718 100.115ZM364.257 111.417C364.984 114.463 364.985 117.637 364.261 120.684L368.152 121.609C369.022 117.953 369.02 114.144 368.147 110.488L364.257 111.417ZM364.261 120.684C363.611 123.417 362.13 126.047 358.732 131.992L362.204 133.977C365.482 128.244 367.338 125.035 368.152 121.609L364.261 120.684ZM358.732 131.992L308.361 220.11L311.833 222.095L362.204 133.977L358.732 131.992ZM308.36 220.111C304.913 226.142 303.376 228.792 301.317 230.756L304.079 233.65C306.659 231.187 308.509 227.912 311.833 222.095L308.36 220.111ZM301.317 230.756C299.021 232.948 296.237 234.563 293.193 235.468L294.334 239.302C297.985 238.216 301.324 236.279 304.079 233.65L301.317 230.756ZM293.194 235.468C290.464 236.28 287.398 236.299 280.447 236.299V240.299C287.151 240.299 290.913 240.319 294.334 239.302L293.194 235.468ZM417.706 236.299H373.101V240.299H417.706V236.299ZM373.101 236.299C368.463 236.299 365.111 236.298 362.572 236.084C360.02 235.869 358.591 235.456 357.645 234.841L355.464 238.194C357.258 239.361 359.5 239.839 362.236 240.07C364.983 240.301 368.535 240.299 373.101 240.299V236.299ZM357.645 234.841C355.221 233.265 353.702 230.624 353.559 227.741L349.564 227.939C349.771 232.105 351.966 235.919 355.464 238.194L357.645 234.841ZM353.559 227.741C353.503 226.616 353.865 225.175 354.963 222.864C356.057 220.564 357.742 217.669 360.076 213.664L356.621 211.65C354.322 215.592 352.533 218.658 351.351 221.147C350.173 223.626 349.458 225.803 349.564 227.94L353.559 227.741ZM360.076 213.664L382.342 175.464L378.886 173.45L356.62 211.65L360.076 213.664ZM382.342 175.464C384.647 171.51 386.313 168.655 387.759 166.595C389.21 164.527 390.275 163.509 391.276 163.001L389.465 159.434C387.571 160.395 386.045 162.074 384.485 164.297C382.919 166.528 381.155 169.557 378.886 173.45L382.342 175.464ZM391.276 163.001C393.837 161.701 396.866 161.699 399.43 162.995L401.235 159.425C397.535 157.554 393.163 157.557 389.466 159.434L391.276 163.001ZM399.43 162.995C400.432 163.501 401.498 164.517 402.952 166.583C404.4 168.641 406.07 171.493 408.381 175.444L411.833 173.424C409.559 169.536 407.791 166.509 406.223 164.281C404.66 162.06 403.131 160.383 401.235 159.425L399.43 162.995ZM408.253 175.185L408.254 175.188L411.962 173.685L411.961 173.683L408.253 175.185ZM408.382 175.446L430.721 213.645L434.174 211.626L411.834 173.427L408.382 175.446ZM430.721 213.645C433.064 217.653 434.756 220.549 435.854 222.851C436.957 225.164 437.321 226.606 437.266 227.732L441.262 227.926C441.366 225.787 440.647 223.609 439.464 221.129C438.277 218.639 436.481 215.571 434.174 211.626L430.721 213.645ZM437.266 227.731C437.126 230.617 435.608 233.261 433.183 234.839L435.365 238.191C438.865 235.913 441.059 232.095 441.262 227.926L437.266 227.731ZM433.183 234.839C432.237 235.455 430.807 235.868 428.252 236.083C425.708 236.298 422.352 236.299 417.706 236.299V240.299C422.279 240.299 425.836 240.301 428.587 240.069C431.327 239.839 433.571 239.36 435.365 238.191L433.183 234.839Z" fill="#D65049" fill-opacity="0.7" mask="url(#path-4-inside-1_2403_14594)"/>
<path fill-rule="evenodd" clip-rule="evenodd" d="M339.5 307C418.201 307 482 242.977 482 164C482 85.0233 418.201 21 339.5 21C260.799 21 197 85.0233 197 164C197 242.977 260.799 307 339.5 307ZM296.443 228.785H263.014C255.088 228.785 251.125 228.785 248.751 227.245C246.186 225.581 244.568 222.787 244.397 219.729C244.238 216.899 246.2 213.447 250.126 206.546L250.128 206.544L323.319 77.8707C327.303 70.867 329.295 67.3652 331.829 66.0616C334.567 64.6533 337.814 64.6509 340.554 66.0554C343.09 67.355 345.087 70.8542 349.08 77.8517L365.961 107.428L365.961 107.429C368.866 112.516 370.317 115.061 370.956 117.745C371.651 120.667 371.653 123.712 370.96 126.634C370.324 129.319 368.874 131.865 365.974 136.956L322.206 213.791C319.264 218.957 317.793 221.539 315.777 223.47C313.583 225.571 310.922 227.12 308.014 227.988C305.342 228.785 302.376 228.785 296.443 228.785ZM415.708 228.785H376.951C368.953 228.785 364.954 228.785 362.573 227.232C360.001 225.553 358.387 222.739 358.235 219.666C358.094 216.822 360.107 213.356 364.132 206.427L383.478 173.118C387.453 166.276 389.441 162.855 391.956 161.574C394.675 160.189 397.891 160.187 400.612 161.567C403.13 162.845 405.122 166.263 409.105 173.098L409.106 173.1L428.517 206.408C432.558 213.342 434.578 216.809 434.44 219.656C434.29 222.731 432.678 225.548 430.104 227.23C427.723 228.785 423.718 228.785 415.708 228.785Z" fill="#D65049" fill-opacity="0.1"/>
</svg>
