<svg width="314" height="328" viewBox="0 0 314 328" fill="none" xmlns="http://www.w3.org/2000/svg">
<path d="M57.5491 212.283L57.5471 212.286L57.5312 212.316L57.5093 212.356C55.3704 216.278 53.7353 219.276 52.6612 221.699C51.585 224.127 51.011 226.104 51.1113 227.967C51.3159 231.775 53.2484 235.27 56.337 237.361C57.8559 238.389 59.8053 238.849 62.3609 239.075C64.9094 239.299 68.2129 239.299 72.525 239.299H72.5782H109.332H109.54C115.865 239.299 119.267 239.3 122.351 238.34L122.351 238.34C125.706 237.295 128.771 235.433 131.295 232.911C133.614 230.594 135.296 227.514 138.438 221.758L138.534 221.582L186.654 133.464L186.743 133.302C189.846 127.619 191.504 124.585 192.234 121.368C193.029 117.87 193.027 114.227 192.23 110.73L191.255 110.952L192.229 110.73C191.496 107.514 189.836 104.481 186.727 98.7995L186.649 98.6573L186.649 98.6561L186.64 98.6409L186.64 98.6399L168.081 64.7206L168.055 64.6729C165.881 60.6993 164.219 57.6617 162.75 55.4351C161.281 53.2075 159.922 51.6568 158.3 50.7901C154.993 49.0215 151.069 49.0246 147.764 50.7978C146.144 51.6671 144.787 53.2198 143.32 55.4498C141.854 57.6798 140.195 60.722 138.025 64.7023L138.003 64.7436L57.5491 212.283ZM255.412 212.148L234.106 174.011L234.105 174.008L234.07 173.946L234.041 173.894C231.874 170.016 230.217 167.05 228.754 164.874C227.289 162.695 225.936 161.177 224.327 160.326C221.042 158.588 217.156 158.59 213.874 160.334L214.343 161.217L213.874 160.334C212.266 161.188 210.916 162.708 209.453 164.889C207.992 167.069 206.337 170.042 204.172 173.929L204.149 173.97L205.022 174.457L204.148 173.97L182.878 212.171L182.858 212.207C180.664 216.147 178.987 219.159 177.882 221.592C176.776 224.029 176.181 226.015 176.27 227.888C176.451 231.714 178.378 235.235 181.475 237.344C182.999 238.382 184.962 238.846 187.538 239.073C190.108 239.299 193.441 239.299 197.793 239.299H197.845H240.457H240.509C244.868 239.299 248.206 239.299 250.779 239.072C253.358 238.845 255.323 238.381 256.847 237.342C259.946 235.23 261.872 231.705 262.05 227.875C262.137 226.001 261.539 224.014 260.428 221.576C259.319 219.141 257.635 216.128 255.433 212.185L255.412 212.148ZM312.341 164C312.341 254.066 242.602 327 156.67 327C70.7385 327 1 254.066 1 164C1 73.9341 70.7385 1 156.67 1C242.602 1 312.341 73.9341 312.341 164Z" stroke="#D65049" stroke-opacity="0.7" stroke-width="2"/>
</svg>
