<svg width="329" height="329" viewBox="0 0 329 329" fill="none" xmlns="http://www.w3.org/2000/svg">
<path d="M165.207 73.5831L164.5 72.8761L163.793 73.5832L100.823 136.553L65.0937 100.823L164.5 1.41422L263.909 100.823L228.179 136.553L165.207 73.5831ZM163.793 255.417L164.5 256.124L165.207 255.417L228.179 192.447L263.909 228.177L164.5 327.586L65.0937 228.177L100.823 192.447L163.793 255.417ZM37.1461 128.769L72.8781 164.5L37.1461 200.231L1.41423 164.5L37.1461 128.769ZM256.125 164.5L291.856 128.769L327.586 164.5L291.856 200.231L256.125 164.5ZM200.232 164.5L164.5 200.231L128.771 164.5L164.5 128.769L200.232 164.5Z" stroke="#FFC200" stroke-width="2"/>
</svg>
