<svg width="210" height="210" viewBox="0 0 210 210" fill="none" xmlns="http://www.w3.org/2000/svg">
<path d="M105.408 47.0109L105 46.6026L104.592 47.011L64.3552 87.2478L41.4632 64.3548L105 0.816721L168.538 64.3548L145.646 87.2478L105.408 47.0109ZM104.592 162.989L105 163.397L105.408 162.989L145.646 122.752L168.538 145.645L105 209.183L41.4632 145.645L64.3552 122.752L104.592 162.989ZM23.7103 82.107L46.6039 105L23.7103 127.893L0.816728 105L23.7103 82.107ZM163.398 105L186.291 82.1071L209.183 105L186.291 127.893L163.398 105ZM127.894 105L105 127.893L82.108 105L105 82.1071L127.894 105Z" stroke="#FFC200" stroke-width="1.15502"/>
</svg>
