<svg width="475" height="286" viewBox="0 0 475 286" fill="none" xmlns="http://www.w3.org/2000/svg">
<path opacity="0.1" d="M225.357 104.5L193.178 136.678L161 104.5L193.178 72.3226L225.357 104.5ZM303.5 26.3548L358.663 81.5161L390.839 49.3387L303.5 -38L216.163 49.3387L248.339 81.5161L303.5 26.3548ZM413.824 72.3226L381.646 104.5L413.824 136.677L446 104.5L413.824 72.3226ZM303.5 182.645L248.339 127.484L216.163 159.661L303.5 247L390.839 159.661L358.663 127.484L303.5 182.645ZM303.5 136.678L335.678 104.5L303.5 72.3226L271.324 104.5L303.5 136.678Z" fill="#F0B90B"/>
<path d="M311.207 30.5831L310.5 29.8761L309.793 30.5832L246.823 93.5535L211.094 57.8226L310.5 -41.5858L409.909 57.8226L374.179 93.5535L311.207 30.5831ZM309.793 212.417L310.5 213.124L311.207 212.417L374.179 149.447L409.909 185.177L310.5 284.586L211.094 185.177L246.823 149.447L309.793 212.417ZM183.146 85.7691L218.878 121.5L183.146 157.231L147.414 121.5L183.146 85.7691ZM402.125 121.5L437.856 85.7691L473.586 121.5L437.856 157.231L402.125 121.5ZM346.232 121.5L310.5 157.231L274.771 121.5L310.5 85.7691L346.232 121.5Z" stroke="#FFC200" stroke-width="2"/>
<path d="M191.468 110.342L150.946 113.025L155.017 119.296L82.2646 166.481L95.7116 187.164L168.433 139.979L172.504 146.25L191.468 110.342Z" fill="#F9A541"/>
<path d="M89.8623 183.727C89.8322 183.727 89.802 183.727 89.7718 183.727C89.6512 183.697 89.5608 183.636 89.5005 183.516L76.0837 162.833C75.933 162.622 75.9933 162.35 76.2043 162.2L148.564 115.256L144.735 109.377C144.645 109.256 144.645 109.075 144.705 108.925C144.765 108.774 144.916 108.683 145.067 108.683L185.589 106C185.769 106 185.92 106.06 186.011 106.211C186.101 106.362 186.101 106.513 186.041 106.663L167.107 142.572C167.046 142.723 166.896 142.813 166.715 142.813C166.564 142.813 166.413 142.753 166.323 142.602L162.494 136.723L90.1337 183.666C90.0432 183.697 89.9528 183.727 89.8623 183.727ZM77.0486 162.712L89.9829 182.641L162.343 135.698C162.433 135.637 162.554 135.607 162.675 135.637C162.795 135.668 162.886 135.728 162.946 135.849L166.624 141.456L184.835 106.935L145.911 109.497L149.559 115.135C149.62 115.226 149.65 115.347 149.62 115.467C149.589 115.588 149.529 115.678 149.409 115.738L77.0486 162.712Z" fill="#121127"/>
<path d="M267.06 129.591L257.02 138.63L261.371 140.903C260.36 142.848 252.703 157.023 236.751 173.012C220.989 188.824 193.649 209.683 153.004 219.3C112.346 228.911 76.3766 219.703 53.3552 210.281C32.0438 201.574 17.6129 191.081 13.7531 188.125C14.2157 187.6 14.614 186.982 14.8927 186.282C16.1814 183.046 14.6003 179.377 11.3617 178.087C8.12298 176.797 4.45212 178.375 3.16342 181.611C1.87472 184.847 3.45578 188.516 6.69445 189.806C9.0724 190.753 11.6983 190.144 13.4301 188.469C17.2607 191.413 31.7587 201.95 53.1665 210.712C53.7063 210.927 54.2549 211.163 54.7946 211.378C68.9602 217.019 83.4402 220.81 97.8292 222.623C116.514 224.982 135.12 224.015 153.122 219.769C171.13 215.508 188.049 208.72 203.421 199.576C215.715 192.262 227.055 183.438 237.125 173.347C253.088 157.329 260.777 143.115 261.806 141.127L265.795 143.206L267.06 129.591Z" fill="#121127"/>
</svg>
