<svg width="32" height="32" viewBox="0 0 32 32" fill="none" xmlns="http://www.w3.org/2000/svg">
<path d="M31.5174 19.8706C29.3804 28.442 20.699 33.6585 12.1266 31.521C3.5577 29.384 -1.65875 20.7021 0.479226 12.1312C2.6152 3.55876 11.2966 -1.65819 19.8665 0.478793C28.4385 2.61577 33.6544 11.2987 31.5174 19.8706Z" fill="url(#paint0_linear_120_1880)"/>
<path d="M23.0364 13.7395C23.3549 11.6105 21.7339 10.466 19.5174 9.70251L20.2364 6.81854L18.4809 6.38105L17.7809 9.18902C17.3194 9.07402 16.8454 8.96552 16.3744 8.85802L17.0794 6.03155L15.325 5.59406L14.6055 8.47702C14.2235 8.39003 13.8485 8.30403 13.4845 8.21353L13.4865 8.20453L11.0655 7.60003L10.5985 9.47501C10.5985 9.47501 11.901 9.77351 11.8735 9.79201C12.5845 9.96951 12.713 10.44 12.6915 10.813C10.7215 18.7134 12.6915 10.813 10.7215 18.7134C10.6345 18.9294 10.414 19.2534 9.91701 19.1304C9.93451 19.1559 8.64102 18.8119 8.64102 18.8119L7.76953 20.8214L10.054 21.3909C10.479 21.4974 10.8955 21.6089 11.3055 21.7139L10.579 24.6308L12.3325 25.0683L13.052 22.1824C13.531 22.3124 13.996 22.4324 14.451 22.5454L13.734 25.4178L15.4895 25.8553L16.2159 22.9439C19.2094 23.5104 21.4604 23.2819 22.4079 20.5744C23.1714 18.3944 22.3699 17.1369 20.7949 16.3169C21.9419 16.0524 22.8059 15.298 23.0364 13.7395ZM19.0254 19.3639C18.4829 21.5439 14.8125 20.3654 13.6225 20.0699L14.5865 16.2054C15.7765 16.5024 19.5924 17.0904 19.0254 19.3639ZM19.5684 13.708C19.0734 15.6909 16.0184 14.6835 15.0275 14.4365L15.9015 10.9315C16.8924 11.1785 20.0839 11.6395 19.5684 13.708Z" fill="white"/>
<defs>
<linearGradient id="paint0_linear_120_1880" x1="0" y1="0" x2="0" y2="32" gradientUnits="userSpaceOnUse">
<stop stop-color="#F9AA4B"/>
<stop offset="1" stop-color="#F7931A"/>
</linearGradient>
</defs>
</svg>
