<svg width="68" height="68" viewBox="0 0 68 68" fill="none" xmlns="http://www.w3.org/2000/svg">
<path d="M34 68C52.7777 68 68 52.7777 68 34C68 15.2223 52.7777 0 34 0C15.2223 0 0 15.2223 0 34C0 52.7777 15.2223 68 34 68Z" fill="url(#paint0_linear_750_1388)"/>
<path fill-rule="evenodd" clip-rule="evenodd" d="M33.8994 56.5782C27.2824 56.5732 21.9522 54.9854 18.228 52.1334C14.4591 49.2471 12.4597 45.1514 12.4597 40.5169C12.4597 36.0512 14.4547 32.8312 16.7121 30.6546C18.4811 28.9489 20.4333 27.8564 21.7926 27.228C21.4852 26.2847 21.1017 25.0496 20.7585 23.7741C20.2995 22.0671 19.849 20.0644 19.849 18.5969C19.849 16.8599 20.2278 15.1154 21.2489 13.7599C22.3278 12.3277 23.9519 11.5605 25.9059 11.5605C27.4329 11.5605 28.7294 12.1269 29.7444 13.1041C30.7146 14.0382 31.3603 15.2787 31.8061 16.5717C32.5896 18.8438 32.8946 21.6985 32.9802 24.5473H34.8518C34.9373 21.6985 35.2423 18.8438 36.0258 16.5717C36.4716 15.2787 37.1174 14.0382 38.0876 13.1041C39.1025 12.1269 40.399 11.5605 41.9261 11.5605C43.88 11.5605 45.5042 12.3277 46.583 13.7599C47.6042 15.1154 47.9829 16.8599 47.9829 18.5969C47.9829 20.0644 47.5325 22.0671 47.0733 23.7741C46.7302 25.0496 46.3467 26.2847 46.0393 27.228C47.3987 27.8564 49.3508 28.9489 51.1198 30.6546C53.3772 32.8312 55.3722 36.0512 55.3722 40.5169C55.3722 45.1514 53.3728 49.2471 49.6039 52.1334C45.8797 54.9854 40.5496 56.5732 33.9326 56.5782H33.8994Z" fill="#633001"/>
<path d="M25.9059 13.2124C23.044 13.2124 21.7267 15.3692 21.7267 18.3521C21.7267 20.7229 23.2574 25.4712 23.8854 27.3197C24.0266 27.7354 23.8046 28.191 23.3999 28.3522C21.1062 29.2658 14.3374 32.611 14.3374 40.272C14.3374 48.3421 21.216 54.4269 33.9009 54.4366C33.9059 54.4366 33.9109 54.4366 33.916 54.4366C33.9211 54.4366 33.9261 54.4366 33.9312 54.4366C46.6159 54.4269 53.4946 48.3421 53.4946 40.272C53.4946 32.611 46.7258 29.2658 44.4322 28.3522C44.0273 28.191 43.8054 27.7354 43.9467 27.3197C44.5747 25.4712 46.1053 20.7229 46.1053 18.3521C46.1053 15.3692 44.7879 13.2124 41.9261 13.2124C37.8066 13.2124 36.7797 19.1074 36.7065 25.4341C36.7016 25.8565 36.3636 26.1992 35.9455 26.1992H31.8866C31.4684 26.1992 31.1304 25.8565 31.1255 25.4341C31.0523 19.1074 30.0254 13.2124 25.9059 13.2124Z" fill="#D1884F"/>
<path d="M33.9312 51.8515C24.611 51.8515 14.3535 46.8115 14.3374 40.2874C14.3374 40.2976 14.3374 40.3078 14.3374 40.3179C14.3374 48.3945 21.227 54.4825 33.9312 54.4825C46.6353 54.4825 53.5249 48.3945 53.5249 40.3179C53.5249 40.3078 53.5249 40.2976 53.5249 40.2874C53.5088 46.8115 43.2514 51.8515 33.9312 51.8515Z" fill="#FEDC90"/>
<path d="M28.7526 38.2835C28.7526 40.4862 27.7221 41.6334 26.451 41.6334C25.1798 41.6334 24.1494 40.4862 24.1494 38.2835C24.1494 36.0808 25.1798 34.9336 26.451 34.9336C27.7221 34.9336 28.7526 36.0808 28.7526 38.2835Z" fill="#633001"/>
<path d="M43.7128 38.2835C43.7128 40.4862 42.6824 41.6334 41.4112 41.6334C40.1401 41.6334 39.1096 40.4862 39.1096 38.2835C39.1096 36.0808 40.1401 34.9336 41.4112 34.9336C42.6824 34.9336 43.7128 36.0808 43.7128 38.2835Z" fill="#633001"/>
<defs>
<linearGradient id="paint0_linear_750_1388" x1="34" y1="0" x2="34" y2="68" gradientUnits="userSpaceOnUse">
<stop stop-color="#53DEE9"/>
<stop offset="1" stop-color="#1FC7D4"/>
</linearGradient>
</defs>
</svg>
