<svg width="19" height="24" viewBox="0 0 19 24" fill="none" xmlns="http://www.w3.org/2000/svg">
<path d="M7.3664 0L7.20551 0.546885V16.4162L7.3664 16.5768L14.7328 12.2226L7.3664 0Z" fill="#343434"/>
<path d="M7.36637 0L0 12.2226L7.36637 16.5769V8.87439V0Z" fill="#8C8C8C"/>
<path d="M7.366 17.9715L7.27533 18.0821V23.7351L7.366 23.9999L14.7367 13.6195L7.366 17.9715Z" fill="#3C3C3B"/>
<path d="M7.36637 23.9999V17.9715L0 13.6194L7.36637 23.9999Z" fill="#8C8C8C"/>
<path d="M7.36615 16.5769L14.7324 12.2228L7.36615 8.87455V16.5769Z" fill="#141414"/>
<path d="M0 12.2228L7.36626 16.5769V8.87455L0 12.2228Z" fill="#393939"/>
<path d="M18.8571 18.8572C18.8571 21.6975 16.5545 24.0001 13.7142 24.0001C10.8739 24.0001 8.57135 21.6975 8.57135 18.8572C8.57135 16.0169 10.8739 13.7143 13.7142 13.7143C16.5545 13.7143 18.8571 16.0169 18.8571 18.8572Z" fill="#030303"/>
<path fill-rule="evenodd" clip-rule="evenodd" d="M13.7142 23.4858C16.2705 23.4858 18.3428 21.4135 18.3428 18.8572C18.3428 16.3009 16.2705 14.2286 13.7142 14.2286C11.1579 14.2286 9.08564 16.3009 9.08564 18.8572C9.08564 21.4135 11.1579 23.4858 13.7142 23.4858ZM13.7142 24.0001C16.5545 24.0001 18.8571 21.6975 18.8571 18.8572C18.8571 16.0169 16.5545 13.7143 13.7142 13.7143C10.8739 13.7143 8.57135 16.0169 8.57135 18.8572C8.57135 21.6975 10.8739 24.0001 13.7142 24.0001Z" fill="white"/>
<path fill-rule="evenodd" clip-rule="evenodd" d="M13.7999 16.2857C13.6105 16.2857 13.457 16.4392 13.457 16.6286V18.6258H11.4857C11.2963 18.6258 11.1428 18.7793 11.1428 18.9686C11.1428 19.158 11.2963 19.3115 11.4857 19.3115H13.457V21.0857C13.457 21.2751 13.6105 21.4286 13.7999 21.4286C13.9892 21.4286 14.1427 21.2751 14.1427 21.0857V19.3115H15.9428C16.1322 19.3115 16.2857 19.158 16.2857 18.9686C16.2857 18.7793 16.1322 18.6258 15.9428 18.6258H14.1427V16.6286C14.1427 16.4392 13.9892 16.2857 13.7999 16.2857Z" fill="white"/>
</svg>
