<svg width="12" height="12" viewBox="0 0 12 12" fill="none" xmlns="http://www.w3.org/2000/svg">
    <circle cx="6" cy="6" r="5.7" fill="#030303" stroke="white" stroke-width="0.6"/>
    <path fill-rule="evenodd" clip-rule="evenodd" d="M6.09971 3C5.87879 3 5.69971 3.17909 5.69971 3.4V5.72999H3.4C3.17909 5.72999 3 5.90907 3 6.12999C3 6.3509 3.17909 6.52999 3.4 6.52999H5.69971V8.6C5.69971 8.82091 5.87879 9 6.09971 9C6.32062 9 6.49971 8.82091 6.49971 8.6V6.52999H8.6C8.82091 6.52999 9 6.3509 9 6.12999C9 5.90907 8.82091 5.72999 8.6 5.72999H6.49971V3.4C6.49971 3.17909 6.32062 3 6.09971 3Z" fill="white"/>
</svg>
