<svg width="95" height="95" viewBox="0 0 95 95" fill="none"
  xmlns="http://www.w3.org/2000/svg">
  <path d="M94.857 47.8572C94.857 73.8935 73.7504 95.0001 47.7141 95.0001C21.6779 95.0001 0.571289 73.8935 0.571289 47.8572C0.571289 21.8209 21.6779 0.714355 47.7141 0.714355C73.7504 0.714355 94.857 21.8209 94.857 47.8572Z" fill="#030303"/>
  <path fill-rule="evenodd" clip-rule="evenodd" d="M47.7141 90.2858C71.1468 90.2858 90.1427 71.2899 90.1427 47.8572C90.1427 24.4246 71.1468 5.42864 47.7141 5.42864C24.2815 5.42864 5.28557 24.4246 5.28557 47.8572C5.28557 71.2899 24.2815 90.2858 47.7141 90.2858ZM47.7141 95.0001C73.7504 95.0001 94.857 73.8935 94.857 47.8572C94.857 21.8209 73.7504 0.714355 47.7141 0.714355C21.6779 0.714355 0.571289 21.8209 0.571289 47.8572C0.571289 73.8935 21.6779 95.0001 47.7141 95.0001Z" fill="#B2F355"/>
  <path fill-rule="evenodd" clip-rule="evenodd" d="M48.3548 24.2856C46.698 24.2856 45.3548 25.6288 45.3548 27.2856V45.7355H27.1426C25.4857 45.7355 24.1426 47.0786 24.1426 48.7355V49.0212C24.1426 50.6781 25.4857 52.0212 27.1426 52.0212H45.3548V68.4285C45.3548 70.0854 46.698 71.4285 48.3548 71.4285H48.6405C50.2974 71.4285 51.6405 70.0854 51.6405 68.4285V52.0212H68.2854C69.9423 52.0212 71.2854 50.6781 71.2854 49.0212V48.7355C71.2854 47.0786 69.9423 45.7355 68.2854 45.7355H51.6405V27.2856C51.6405 25.6288 50.2974 24.2856 48.6405 24.2856H48.3548Z" fill="#B2F355"/>
</svg>
