<svg width="182" height="36" viewBox="0 0 182 36" fill="none" xmlns="http://www.w3.org/2000/svg">
<path d="M19.3306 1.86574C19.2301 1.29603 18.6869 0.915635 18.1172 1.01609C17.5475 1.11654 17.1671 1.65981 17.2675 2.22951L17.7468 4.94762C16.8998 4.29941 15.982 3.8305 14.9933 3.55754C13.5937 3.15862 12.1837 3.17867 10.7889 3.61442C9.3925 4.01604 8.13405 4.79921 7.01313 5.92013L4.09084 8.84242C2.34928 10.584 1.29067 12.4978 1.04983 14.5823C0.804464 16.6707 1.46801 18.5108 2.97882 20.0216L4.40118 21.4439C5.67607 22.7188 7.21926 23.3748 8.98158 23.354L8.99361 23.3538C10.7476 23.313 12.4918 22.6105 14.2106 21.3721C14.68 21.034 14.7864 20.3794 14.4482 19.91C14.1101 19.4406 13.4555 19.3342 12.9861 19.6724C11.5007 20.7425 10.1607 21.2297 8.95093 21.2594C7.78489 21.2716 6.77838 20.8585 5.88249 19.9626L4.46014 18.5403C3.38513 17.4653 2.96249 16.2542 3.13052 14.8259L3.13078 14.8236C3.30398 13.3225 4.0728 11.8231 5.57216 10.3237L8.49444 7.40145C9.40438 6.49152 10.3656 5.91408 11.3776 5.62492L11.3908 5.62115L11.4039 5.61704C12.4169 5.29867 13.4145 5.28516 14.4226 5.57321L14.4323 5.57592C15.1429 5.77161 15.8279 6.11447 16.4872 6.62154L13.8689 7.0832C13.2992 7.18365 12.9188 7.72692 13.0193 8.29662C13.1198 8.86632 13.663 9.24672 14.2327 9.14627L20.4219 8.05494L19.3306 1.86574Z" fill="white"/>
<path d="M21.1777 21.4294C21.0045 22.9304 20.2357 24.4299 18.7364 25.9292L15.8141 28.8515C14.9042 29.7615 13.943 30.3389 12.9309 30.628L12.9177 30.6318L12.9046 30.6359C11.8917 30.9543 10.8941 30.9678 9.88591 30.6798L9.87623 30.677C9.09967 30.4632 8.35379 30.0736 7.63859 29.4861L10.4524 28.9899C11.0221 28.8895 11.4025 28.3462 11.3021 27.7765C11.2016 27.2068 10.6584 26.8264 10.0887 26.9269L3.89947 28.0182L4.99079 34.2074C5.09124 34.7771 5.63451 35.1575 6.20421 35.057C6.77391 34.9566 7.15431 34.4133 7.05386 33.8436L6.61319 31.3444C7.44584 31.9724 8.34651 32.428 9.3152 32.6954C10.7148 33.0943 12.1248 33.0743 13.5197 32.6385C14.916 32.2369 16.1745 31.4538 17.2954 30.3328L20.2177 27.4105C21.9592 25.669 23.0179 23.7552 23.2587 21.6707C23.5041 19.5823 22.8405 17.7422 21.3297 16.2314L19.9074 14.809C18.6325 13.5341 17.0893 12.8782 15.327 12.8989L15.3149 12.8991C13.5609 12.9399 11.8168 13.6425 10.0979 14.8808C9.62853 15.219 9.52215 15.8736 9.8603 16.343C10.1984 16.8123 10.8531 16.9187 11.3224 16.5806C12.8079 15.5104 14.1478 15.0233 15.3576 14.9936C16.5236 14.9813 17.5301 15.3945 18.426 16.2903L19.8484 17.7127C20.9234 18.7877 21.346 19.9988 21.178 21.427L21.1777 21.4294Z" fill="white"/>
<path d="M19.3306 1.86574C19.2301 1.29603 18.6869 0.915635 18.1172 1.01609C17.5475 1.11654 17.1671 1.65981 17.2675 2.22951L17.7468 4.94762C16.8998 4.29941 15.982 3.8305 14.9933 3.55754C13.5937 3.15862 12.1837 3.17867 10.7889 3.61442C9.3925 4.01604 8.13405 4.79921 7.01313 5.92013L4.09084 8.84242C2.34928 10.584 1.29067 12.4978 1.04983 14.5823C0.804464 16.6707 1.46801 18.5108 2.97882 20.0216L4.40118 21.4439C5.67607 22.7188 7.21926 23.3748 8.98158 23.354L8.99361 23.3538C10.7476 23.313 12.4918 22.6105 14.2106 21.3721C14.68 21.034 14.7864 20.3794 14.4482 19.91C14.1101 19.4406 13.4555 19.3342 12.9861 19.6724C11.5007 20.7425 10.1607 21.2297 8.95093 21.2594C7.78489 21.2716 6.77838 20.8585 5.88249 19.9626L4.46014 18.5403C3.38513 17.4653 2.96249 16.2542 3.13052 14.8259L3.13078 14.8236C3.30398 13.3225 4.0728 11.8231 5.57216 10.3237L8.49444 7.40145C9.40438 6.49152 10.3656 5.91408 11.3776 5.62492L11.3908 5.62115L11.4039 5.61704C12.4169 5.29867 13.4145 5.28516 14.4226 5.57321L14.4323 5.57592C15.1429 5.77161 15.8279 6.11447 16.4872 6.62154L13.8689 7.0832C13.2992 7.18365 12.9188 7.72692 13.0193 8.29662C13.1198 8.86632 13.663 9.24672 14.2327 9.14627L20.4219 8.05494L19.3306 1.86574Z" stroke="white" stroke-width="0.3" stroke-linecap="round"/>
<path d="M21.1777 21.4294C21.0045 22.9304 20.2357 24.4299 18.7364 25.9292L15.8141 28.8515C14.9042 29.7615 13.943 30.3389 12.9309 30.628L12.9177 30.6318L12.9046 30.6359C11.8917 30.9543 10.8941 30.9678 9.88591 30.6798L9.87623 30.677C9.09967 30.4632 8.35379 30.0736 7.63859 29.4861L10.4524 28.9899C11.0221 28.8895 11.4025 28.3462 11.3021 27.7765C11.2016 27.2068 10.6584 26.8264 10.0887 26.9269L3.89947 28.0182L4.99079 34.2074C5.09124 34.7771 5.63451 35.1575 6.20421 35.057C6.77391 34.9566 7.15431 34.4133 7.05386 33.8436L6.61319 31.3444C7.44584 31.9724 8.34651 32.428 9.3152 32.6954C10.7148 33.0943 12.1248 33.0743 13.5197 32.6385C14.916 32.2369 16.1745 31.4538 17.2954 30.3328L20.2177 27.4105C21.9592 25.669 23.0179 23.7552 23.2587 21.6707C23.5041 19.5823 22.8405 17.7422 21.3297 16.2314L19.9074 14.809C18.6325 13.5341 17.0893 12.8782 15.327 12.8989L15.3149 12.8991C13.5609 12.9399 11.8168 13.6425 10.0979 14.8808C9.62853 15.219 9.52215 15.8736 9.8603 16.343C10.1984 16.8123 10.8531 16.9187 11.3224 16.5806C12.8079 15.5104 14.1478 15.0233 15.3576 14.9936C16.5236 14.9813 17.5301 15.3945 18.426 16.2903L19.8484 17.7127C20.9234 18.7877 21.346 19.9988 21.178 21.427L21.1777 21.4294Z" stroke="white" stroke-width="0.3" stroke-linecap="round"/>
<path d="M50.4218 21.9169C49.041 25.4456 46.1479 27.2319 41.7424 27.2757C39.8356 27.2757 38.148 26.8702 36.6795 26.0593C35.211 25.2264 34.0713 24.0867 33.2604 22.6402C32.4494 21.1936 32.0439 19.5279 32.0439 17.643C32.0439 15.8019 32.4385 14.1581 33.2275 12.7115C34.0384 11.265 35.1781 10.1362 36.6466 9.3253C38.137 8.49243 39.8466 8.076 41.7753 8.076C43.1561 8.076 44.3945 8.33901 45.4903 8.86503C46.5862 9.36913 47.441 10.0705 48.0547 10.9691V8.40476H50.0273V13.9937L48.2519 14.0595C47.5725 12.6568 46.7177 11.6376 45.6876 11.002C44.6575 10.3664 43.3972 10.0486 41.9068 10.0486C40.4822 10.0486 39.2219 10.3883 38.126 11.0677C37.0521 11.7253 36.2192 12.6239 35.6275 13.7636C35.0357 14.9033 34.7398 16.1855 34.7398 17.6101C34.7398 19.1443 35.0466 20.4923 35.6603 21.6539C36.274 22.8155 37.1288 23.7141 38.2247 24.3497C39.3206 24.9853 40.5479 25.3031 41.9068 25.3031C43.3972 25.3031 44.7232 24.9525 45.8848 24.2511C47.0684 23.5497 47.9232 22.4429 48.4492 20.9306L50.4218 21.9169Z" fill="white"/>
<path d="M69.031 25.1716V26.9141H62.0941V25.1716H64.2311V18.432C64.2311 17.5334 64.0119 16.832 63.5735 16.3279C63.1571 15.8238 62.5653 15.5718 61.7982 15.5718C60.4832 15.5718 59.0585 16.0759 57.5243 17.0841V25.1716H59.6284V26.9141H52.6915V25.1716H55.0915V9.78556H52.7244V8.076H57.5243V15.4403C59.2996 14.2567 60.9215 13.665 62.39 13.665C63.6174 13.665 64.6365 14.0485 65.4475 14.8156C66.2584 15.5608 66.6639 16.6129 66.6639 17.9717V25.1716H69.031Z" fill="white"/>
<path d="M83.9399 25.1716V26.9141H79.7646L79.6331 25.7634C78.9317 26.2894 78.2304 26.673 77.529 26.9141C76.8276 27.1552 76.0386 27.2757 75.1619 27.2757C73.8469 27.2757 72.7729 26.9141 71.94 26.1908C71.1291 25.4456 70.7236 24.5251 70.7236 23.4292C70.7236 22.0265 71.1948 21.0073 72.1373 20.3717C73.1017 19.7142 74.3619 19.3854 75.9181 19.3854C77.0359 19.3854 78.2304 19.5279 79.5016 19.8128V18.4649C79.5016 17.4786 79.2276 16.7334 78.6797 16.2293C78.1536 15.7252 77.4085 15.4732 76.4441 15.4732C75.8085 15.4732 75.0742 15.5827 74.2414 15.8019C73.4304 15.9992 72.6852 16.2841 72.0058 16.6567L71.2825 15.0786C72.0058 14.6184 72.8386 14.2677 73.7811 14.0266C74.7455 13.7855 75.6441 13.665 76.477 13.665C78.1646 13.665 79.4906 14.0814 80.455 14.9143C81.4194 15.7252 81.9015 16.832 81.9015 18.2348V25.1716H83.9399ZM73.0249 23.2977C73.0249 23.9771 73.2441 24.536 73.6825 24.9744C74.1427 25.3908 74.7564 25.599 75.5235 25.599C76.8167 25.599 78.1427 25.1278 79.5016 24.1854V21.2265C78.3399 20.9635 77.2002 20.832 76.0824 20.832C75.2057 20.832 74.4715 21.0292 73.8797 21.4237C73.3099 21.7963 73.0249 22.421 73.0249 23.2977Z" fill="white"/>
<path d="M88.5443 11.1664C88.0402 11.1664 87.6128 11.0129 87.2622 10.7061C86.9334 10.3773 86.769 9.97186 86.769 9.48968C86.769 9.00749 86.9334 8.61298 87.2622 8.30613C87.6128 7.97737 88.0402 7.81299 88.5443 7.81299C89.0484 7.81299 89.4649 7.97737 89.7936 8.30613C90.1443 8.61298 90.3197 9.00749 90.3197 9.48968C90.3197 9.97186 90.1443 10.3773 89.7936 10.7061C89.4649 11.0129 89.0484 11.1664 88.5443 11.1664ZM85.1581 25.1716H87.6567V15.7362H85.191V13.9937H90.0566V25.1716H92.3909V26.9141H85.1581V25.1716Z" fill="white"/>
<path d="M110.131 25.1716V26.9141H103.194V25.1716H105.331V18.432C105.331 17.5334 105.112 16.832 104.673 16.3279C104.235 15.8238 103.632 15.5718 102.865 15.5718C102.23 15.5718 101.583 15.6923 100.926 15.9334C100.29 16.1526 99.5886 16.4923 98.8215 16.9526V25.1716H101.156V26.9141H93.9229V25.1716H96.4215V15.7362H93.9229V13.9937H98.8215V15.2759C100.531 14.2019 102.087 13.665 103.49 13.665C104.717 13.665 105.726 14.0485 106.515 14.8156C107.325 15.5608 107.731 16.6129 107.731 17.9717V25.1716H110.131Z" fill="white"/>
<path d="M119.553 16.2622C121.833 16.6567 123.466 17.2594 124.452 18.0704C125.46 18.8594 125.964 20.1087 125.964 21.8183C125.964 22.8046 125.734 23.7141 125.274 24.547C124.813 25.3579 124.134 26.0155 123.235 26.5196C122.337 27.0017 121.274 27.2428 120.046 27.2428C118.907 27.2428 117.866 27.0127 116.923 26.5524C116.003 26.0922 115.247 25.4566 114.655 24.6456V26.9141H112.518V20.6676H114.49C114.622 22.0484 115.17 23.1771 116.134 24.0538C117.12 24.9086 118.392 25.336 119.948 25.336C121.088 25.336 121.975 25.062 122.611 24.5141C123.246 23.9662 123.564 23.1991 123.564 22.2128C123.564 21.4237 123.422 20.8101 123.137 20.3717C122.852 19.9114 122.392 19.5608 121.756 19.3197C121.142 19.0567 120.255 18.8265 119.093 18.6293L118.304 18.4978C116.441 18.1909 114.994 17.5991 113.964 16.7224C112.934 15.8238 112.419 14.6184 112.419 13.1061C112.419 11.5061 112.945 10.2677 113.997 9.39105C115.049 8.49243 116.463 8.04312 118.238 8.04312C119.246 8.04312 120.156 8.21846 120.967 8.56914C121.8 8.8979 122.468 9.38009 122.972 10.0157V8.40476H125.077V13.6321H123.137C122.72 11.1773 121.131 9.94994 118.37 9.94994C117.252 9.94994 116.375 10.213 115.74 10.739C115.126 11.265 114.819 11.9664 114.819 12.8431C114.819 13.7636 115.148 14.4869 115.805 15.0129C116.463 15.517 117.46 15.8896 118.797 16.1307L119.553 16.2622Z" fill="white"/>
<path d="M129.366 15.7362H127.656V13.9937H133.508V15.7362H131.733L134.79 24.5141L137.848 15.7362H136.007V13.9937H142.352V15.7362H140.478L143.667 24.547L146.494 15.7362H144.686V13.9937H150.505V15.7362H148.697L144.817 26.9141H142.45L139.13 17.7416L135.809 26.9141H133.442L129.366 15.7362Z" fill="white"/>
<path d="M165.36 25.1716V26.9141H161.185L161.053 25.7634C160.352 26.2894 159.65 26.673 158.949 26.9141C158.248 27.1552 157.459 27.2757 156.582 27.2757C155.267 27.2757 154.193 26.9141 153.36 26.1908C152.549 25.4456 152.144 24.5251 152.144 23.4292C152.144 22.0265 152.615 21.0073 153.557 20.3717C154.522 19.7142 155.782 19.3854 157.338 19.3854C158.456 19.3854 159.65 19.5279 160.922 19.8128V18.4649C160.922 17.4786 160.648 16.7334 160.1 16.2293C159.574 15.7252 158.829 15.4732 157.864 15.4732C157.229 15.4732 156.494 15.5827 155.661 15.8019C154.85 15.9992 154.105 16.2841 153.426 16.6567L152.703 15.0786C153.426 14.6184 154.259 14.2677 155.201 14.0266C156.166 13.7855 157.064 13.665 157.897 13.665C159.585 13.665 160.911 14.0814 161.875 14.9143C162.839 15.7252 163.322 16.832 163.322 18.2348V25.1716H165.36ZM154.445 23.2977C154.445 23.9771 154.664 24.536 155.103 24.9744C155.563 25.3908 156.176 25.599 156.944 25.599C158.237 25.599 159.563 25.1278 160.922 24.1854V21.2265C159.76 20.9635 158.62 20.832 157.503 20.832C156.626 20.832 155.892 21.0292 155.3 21.4237C154.73 21.7963 154.445 22.421 154.445 23.2977Z" fill="white"/>
<path d="M175.52 13.665C176.704 13.665 177.767 13.928 178.709 14.454C179.674 14.9581 180.43 15.7142 180.978 16.7224C181.526 17.7087 181.8 18.8923 181.8 20.2731C181.8 21.6977 181.493 22.9361 180.879 23.9881C180.288 25.0401 179.477 25.8511 178.446 26.4209C177.438 26.9689 176.331 27.2428 175.126 27.2428C174.359 27.2428 173.625 27.1223 172.923 26.8812C172.244 26.6401 171.685 26.3223 171.247 25.9278L171.214 30.3003H173.745V32.0428H166.48V30.3003H168.814V15.7362H166.545V13.9937H171.082L171.115 15.2101C171.751 14.706 172.441 14.3225 173.186 14.0595C173.953 13.7965 174.731 13.665 175.52 13.665ZM174.699 25.4346C176.057 25.4346 177.153 25.0073 177.986 24.1525C178.841 23.2758 179.268 22.0484 179.268 20.4703C179.268 18.9361 178.852 17.7307 178.019 16.854C177.208 15.9773 176.156 15.5389 174.863 15.5389C174.337 15.5389 173.723 15.6485 173.022 15.8677C172.342 16.0868 171.74 16.4156 171.214 16.854L171.247 24.1854C171.751 24.5799 172.299 24.8867 172.89 25.1059C173.504 25.3251 174.107 25.4346 174.699 25.4346Z" fill="white"/>
</svg>
