<svg width="18" height="18" viewBox="0 0 18 18" fill="white"
  xmlns="http://www.w3.org/2000/svg">
  <path fill-rule="evenodd" clip-rule="evenodd" d="M8.90938 0C8.46203 0 8.09938 0.362649 8.09938 0.809999V8.18985H0.81C0.362649 8.18985 0 8.5525 0 8.99986C0 9.44721 0.362649 9.80985 0.809999 9.80985H8.09938V17.19C8.09938 17.6374 8.46203 18 8.90938 18C9.35673 18 9.71938 17.6374 9.71938 17.19V9.80986H17.19C17.6374 9.80986 18 9.44721 18 8.99986C18 8.55251 17.6374 8.18986 17.19 8.18986H9.71938V0.81C9.71938 0.362649 9.35673 0 8.90938 0Z"/>
</svg>
