<svg width="32" height="32" viewBox="0 0 32 32" fill="none"
  xmlns="http://www.w3.org/2000/svg" fill="#FF0000">
  <path fill-rule="evenodd" clip-rule="evenodd" d="M21.4807 10.8751C21.203 10.5974 20.7527 10.5974 20.475 10.8751L10.875 20.4752C10.5973 20.7529 10.5973 21.2031 10.875 21.4808C11.1527 21.7585 11.603 21.7585 11.8807 21.4808L21.4807 11.8808C21.7584 11.6031 21.7584 11.1529 21.4807 10.8751Z" />
  <path fill-rule="evenodd" clip-rule="evenodd" d="M10.5193 10.875C10.797 10.5973 11.2473 10.5973 11.525 10.875L21.125 20.475C21.4027 20.7527 21.4027 21.2029 21.125 21.4806C20.8473 21.7583 20.397 21.7583 20.1193 21.4806L10.5193 11.8806C10.2416 11.6029 10.2416 11.1527 10.5193 10.875Z"/>
  <path fill-rule="evenodd" clip-rule="evenodd" d="M16 30.5778C24.0511 30.5778 30.5778 24.0511 30.5778 16C30.5778 7.94892 24.0511 1.42222 16 1.42222C7.94892 1.42222 1.42222 7.94892 1.42222 16C1.42222 24.0511 7.94892 30.5778 16 30.5778ZM16 32C24.8366 32 32 24.8366 32 16C32 7.16344 24.8366 0 16 0C7.16344 0 0 7.16344 0 16C0 24.8366 7.16344 32 16 32Z" />
</svg>
