<svg width="381" height="235" viewBox="0 0 381 235" fill="none" xmlns="http://www.w3.org/2000/svg">
<path d="M138.468 98.8089L153.535 111.134L170.876 99.361L168.83 69.8085L140.395 77.6587L140.247 79.2407L139.02 92.733L138.468 98.8089Z" fill="#FFBA9A"/>
<path d="M139.018 92.7336C147.493 90.365 155.844 86.3543 161.604 75.4512L140.246 79.2413L139.018 92.7336Z" fill="#013D55"/>
<path d="M128.819 70.971C128.864 76.8497 130.739 81.5944 137.384 83.9125C147.375 87.4074 159.638 78.3944 168.709 69.8085L165.283 46.7599L153.016 37.9312L131.439 44.7956C131.682 49.8278 130.762 55.1618 129.946 60.253C129.343 64.0334 128.798 67.6835 128.819 70.971" fill="#FFBA9A"/>
<path d="M166.139 58.2841C163.817 51.7355 160.122 46.7187 153.877 44.5518C140.458 49.7858 130.089 51.7852 119.789 40.8734C119.789 40.8734 126.779 43.5705 137.323 31.7989C146.335 21.7413 165.649 29.8382 167.733 34.8642C167.733 34.8642 183.305 38.1763 174.109 55.8318L166.139 58.2841" fill="#232323"/>
<path d="M162.405 59.5843C166.451 54.9863 174.176 52.7799 177.12 58.1133C180.062 63.4467 174.483 70.7432 167.8 70.498C161.118 70.2529 162.405 59.5843 162.405 59.5843" fill="#FFBA9A"/>
<path d="M174.113 61.2739C171.606 61.1099 169.412 62.4592 168.52 64.8207C168.354 65.2599 167.643 65.0694 167.811 64.625C168.815 61.9688 171.264 60.3515 174.113 60.5385C174.582 60.5685 174.585 61.3039 174.113 61.2739" fill="#013D55"/>
<path d="M145.846 59.4505C145.846 60.2971 146.532 60.9832 147.378 60.9832C148.225 60.9832 148.911 60.2971 148.911 59.4505C148.911 58.6039 148.225 57.9179 147.378 57.9179C146.532 57.9179 145.846 58.6039 145.846 59.4505Z" fill="#013D55"/>
<path d="M135.944 59.2969C135.944 60.1435 136.63 60.8296 137.477 60.8296C138.323 60.8296 139.009 60.1435 139.009 59.2969C139.009 58.4504 138.323 57.7643 137.477 57.7643C136.63 57.7643 135.944 58.4504 135.944 59.2969Z" fill="#013D55"/>
<path d="M142.111 61.5425C141.367 62.3221 140.61 63.091 139.877 63.8812C139.288 64.5179 138.554 65.0523 139.127 66.1334C139.529 66.8883 140.557 67.167 141.291 67.4068C141.739 67.5532 141.547 68.264 141.095 68.1176C139.815 67.6978 138.076 66.9588 138.159 65.3168C138.194 64.6431 138.614 64.1704 139.039 63.696C139.857 62.7771 140.743 61.9111 141.593 61.0222C141.919 60.6801 142.439 61.2004 142.111 61.5425" fill="#013D55"/>
<path d="M147.319 71.0381L137.755 71.5884C137.755 71.5884 142.077 80.8778 147.319 71.0381Z" fill="white"/>
<path d="M145.571 54.9961C146.326 55.1848 147.113 55.1372 147.869 55.3436C148.481 55.5093 149.097 55.6663 149.723 55.7633C150.238 55.8427 152.097 56.1566 151.832 54.8568C151.689 54.1513 150.661 53.691 150.13 53.6046C148.915 53.4088 147.707 53.2253 146.493 53.0172C145.762 52.8902 144.28 53.5904 145.112 54.7104C145.229 54.8656 145.389 54.9502 145.571 54.9961" fill="#013D55"/>
<path d="M139.544 55.2298C138.81 55.3762 138.087 55.3109 137.346 55.4714C136.75 55.6002 136.149 55.7201 135.549 55.7889C135.057 55.8436 133.272 56.0676 133.741 54.9247C133.995 54.3056 135.032 53.9282 135.54 53.8682C136.706 53.7289 137.861 53.6019 139.027 53.452C139.729 53.3621 140.988 54.0234 140.022 54.9899C139.888 55.124 139.722 55.1945 139.544 55.2298" fill="#013D55"/>
<path d="M153.987 71.4348C156.975 71.4348 159.397 69.0132 159.397 66.0238C159.397 63.0361 156.975 60.6145 153.987 60.6145C151 60.6145 148.578 63.0361 148.578 66.0238C148.578 69.0132 151 71.4348 153.987 71.4348Z" fill="#FFAB99"/>
<path d="M129.828 71.0665C132.813 71.0665 135.235 68.647 135.235 65.6597C135.235 62.7098 132.881 60.3099 129.946 60.251C129.353 63.9598 128.819 67.5399 128.819 70.7773C128.819 70.8415 128.819 70.9076 128.819 70.9701C129.144 71.038 129.481 71.0665 129.828 71.0665" fill="#FFAB99"/>
<path d="M137.081 98.2601C124.422 102.093 115.831 104.188 104.39 111.029C92.305 118.257 83.8891 132.447 78.3472 145.343C71.2324 161.903 62.8275 184.746 65.1034 196.108L71.3595 227.496H216.782L207.953 203.219L223.893 192.674L198.879 123.763L165.527 98.5052L151.917 102.673L137.081 98.2601" fill="url(#paint0_linear_0_1)"/>
<path d="M96.3476 173.426L108.117 141.547L107.429 141.293L95.6573 173.172L96.3476 173.426" fill="black"/>
<path d="M147.253 111.134L151.913 102.672L138.992 92.7405C137.395 94.1779 133.057 97.9046 131.037 100.051C135.471 105.005 140.654 108.986 147.253 111.134Z" fill="#F2F5FA"/>
<path d="M177.026 189.365C196.695 182.191 218.571 182.191 218.571 182.191L199.955 143.627L165.331 101.936L176.958 97.8903L196.695 104.458C216.33 110.993 231.777 125.587 238.74 144.154C246.755 165.519 255.256 192.218 251.961 201.993C247.313 215.779 233.137 219.832 184.573 210.585C187.275 204.074 184.162 193.708 177.026 189.365Z" fill="#31B047"/>
<path d="M171.675 189.975C173.532 189.751 175.306 189.552 177.027 189.365C184.163 193.709 187.276 204.074 184.574 210.585C184.084 210.492 183.597 210.399 183.1 210.303C179.248 209.559 175.272 209.547 171.415 210.266C164.867 211.485 154.888 213.365 152.117 214.009C147.888 214.989 143.66 214.989 141.81 213.273C139.96 211.556 140.686 193.716 171.675 189.975" fill="#FFBA9A"/>
<path d="M151.914 102.672C157.735 99.2659 165.04 93.7561 170.858 90.3486L177.664 97.8902C173.495 103.285 166.015 109.171 159.763 111.991L151.914 102.672Z" fill="#F2F5FA"/>
<path d="M148.368 214.312C153.087 211.74 157.798 209.151 162.52 206.578C162.936 206.352 163.306 206.987 162.89 207.215C158.17 209.786 153.46 212.375 148.738 214.947C148.322 215.174 147.952 214.538 148.368 214.312Z" fill="#BF643A"/>
<path d="M143.628 213.945C147.469 208.416 153.596 204.924 159.332 201.675C159.744 201.441 160.117 202.076 159.704 202.31C154.083 205.494 148.027 208.899 144.263 214.317C143.995 214.704 143.358 214.335 143.628 213.945Z" fill="#BF643A"/>
<path d="M141.086 211.182C145.425 205.381 150.984 200.691 157.449 197.42C157.871 197.206 158.243 197.839 157.822 198.055C151.474 201.266 145.982 205.855 141.721 211.554C141.44 211.928 140.802 211.561 141.086 211.182" fill="#BF643A"/>
<path d="M105.015 149.952L105.245 149.33C104.994 149.372 104.791 149.705 105.015 149.952Z" fill="#006286"/>
<path d="M202.787 150.809C202.79 150.804 202.794 150.8 202.796 150.797L202.7 150.584L202.787 150.809Z" fill="#0091C5"/>
<path d="M177.417 189.61C177.288 189.525 177.159 189.444 177.027 189.365C177.519 189.312 178.006 189.259 178.487 189.21C193.706 183.624 209.655 182.522 215.216 182.305L214.931 181.58C208.925 181.83 192.364 183.056 176.895 189.021L177.027 189.365C177.159 189.444 177.288 189.525 177.417 189.61V189.61ZM202.572 150.26L199.955 143.627L199.62 143.778L202.551 150.255C202.558 150.256 202.565 150.258 202.572 150.26" fill="#0A0A0A"/>
<path d="M177.415 189.61C177.771 189.474 178.127 189.34 178.485 189.21C178.004 189.259 177.517 189.312 177.025 189.365C177.157 189.444 177.286 189.525 177.415 189.61V189.61ZM215.214 182.305C216.5 182.253 217.23 182.252 217.269 182.252H217.838L200.288 143.475L199.953 143.627L202.57 150.26C202.784 150.331 202.937 150.586 202.794 150.796L216.701 181.523C216.304 181.532 215.704 181.548 214.928 181.58L215.214 182.305" fill="#0A0A0A"/>
<path d="M177.159 189.708C177.244 189.674 177.33 189.641 177.417 189.609C177.288 189.525 177.159 189.443 177.027 189.364L177.159 189.708Z" fill="#345663"/>
<path d="M202.698 150.581L202.571 150.26C202.564 150.258 202.557 150.256 202.55 150.254L202.698 150.581" fill="#014E6B"/>
<path d="M202.795 150.796C202.938 150.586 202.785 150.331 202.571 150.26L202.698 150.581L202.795 150.796Z" fill="#014E6B"/>
<path d="M212.024 214.608L212.218 213.899C206.855 212.435 185.516 210.308 184.609 210.216L184.537 210.95C184.759 210.971 206.721 213.162 212.024 214.608Z" fill="black"/>
<path d="M113.107 221.244H171.228V214.997H113.107V221.244Z" fill="#DADADA"/>
<path d="M61.9674 221.244H131.791L108.074 161.015H38.2503L61.9674 221.244Z" fill="#F2F5FA"/>
<path d="M87.3302 189.911C88.369 192.648 86.3468 195.578 83.419 195.578H82.9687C80.8833 195.578 79.0151 194.289 78.2752 192.339V192.339C77.2365 189.602 79.2586 186.672 82.1865 186.672H82.6367C84.7221 186.672 86.5904 187.961 87.3302 189.911V189.911ZM77.5151 192.273C78.4274 194.677 80.7307 196.266 83.3017 196.266H83.7534C87.0013 196.266 89.245 193.016 88.0937 189.979V189.979C87.182 187.574 84.8783 185.984 82.3066 185.984H81.855C78.6062 185.984 76.3624 189.235 77.5151 192.273V192.273Z" fill="#251930"/>
<path d="M-0.000177318 235H299.606V221.12H-0.000177318V235Z" fill="#515151"/>
<path d="M0.242369 221.71H299.606V221.022H0.242369V221.71Z" fill="#DADADA"/>
<g opacity="0.8" id='dualInvestGuide' fill='transparent'>
<path d="M218 42.3097C218 16.7345 252.5 2.28882e-05 299.248 2.28882e-05C345.995 2.28882e-05 380.495 16.7345 380.495 42.3097C380.495 67.8888 355.495 86.6232 299.248 86.6232C285 86.6232 256.722 83.777 253 83C245.335 89.251 225.5 93.5 225.5 93.5L238 77.5C223.21 69.3764 218 59.0969 218 42.3097Z" fill="#F2F5FA"/>
<path d="M253.102 82.5106L252.869 82.4618L252.684 82.6125C248.935 85.6697 242.148 88.2718 236.227 90.1168C233.28 91.0351 230.57 91.759 228.597 92.2534C227.878 92.4336 227.258 92.5832 226.759 92.7006L238.394 77.8078L238.756 77.3447L238.241 77.0618C230.903 73.0317 225.984 68.4907 222.891 62.9113C219.795 57.3277 218.5 50.6543 218.5 42.3097C218.5 29.785 226.94 19.3451 241.321 12.0096C255.698 4.67577 275.925 0.500023 299.248 0.500023C322.57 0.500023 342.798 4.67577 357.174 12.0096C371.555 19.3451 379.995 29.785 379.995 42.3097C379.995 54.9045 373.855 65.828 360.709 73.6286C347.537 81.4448 327.328 86.1232 299.248 86.1232C292.147 86.1232 281.534 85.4134 272.22 84.6049C262.893 83.7952 254.927 82.8916 253.102 82.5106Z" stroke="black" stroke-opacity="0.1"/>
<path d="M245.291 44.9189C245.291 46.2542 244.922 47.2956 244.184 48.043C243.45 48.7904 242.424 49.1641 241.107 49.1641C239.731 49.1641 238.633 48.6992 237.812 47.7695C236.997 46.8353 236.589 45.5843 236.589 44.0166C236.589 42.4762 236.997 41.2503 237.812 40.3389C238.628 39.4274 239.727 38.9717 241.107 38.9717C242.174 38.9717 243.081 39.2656 243.828 39.8535C244.58 40.4368 245.047 41.2184 245.229 42.1982H243.938C243.732 41.5329 243.382 41.0179 242.885 40.6533C242.393 40.2887 241.8 40.1064 241.107 40.1064C240.091 40.1064 239.294 40.4528 238.715 41.1455C238.141 41.8337 237.854 42.7884 237.854 44.0098C237.854 45.2493 238.145 46.2292 238.729 46.9492C239.312 47.6693 240.105 48.0293 241.107 48.0293C241.982 48.0293 242.693 47.7718 243.24 47.2568C243.787 46.7373 244.061 46.0651 244.061 45.2402V45.0625H241.278V43.9824H245.291V44.9189ZM249.536 42.7998C248.985 42.7998 248.527 42.9912 248.162 43.374C247.802 43.7523 247.604 44.2399 247.567 44.8369H251.43C251.416 44.2354 251.236 43.7454 250.89 43.3672C250.543 42.9889 250.092 42.7998 249.536 42.7998ZM251.402 46.9629H252.571C252.466 47.5918 252.138 48.109 251.587 48.5146C251.04 48.9202 250.382 49.123 249.611 49.123C248.595 49.123 247.795 48.7949 247.212 48.1387C246.629 47.4824 246.337 46.5938 246.337 45.4727C246.337 44.3607 246.629 43.4652 247.212 42.7861C247.8 42.1071 248.581 41.7676 249.557 41.7676C250.514 41.7676 251.27 42.0889 251.826 42.7314C252.382 43.374 252.66 44.2354 252.66 45.3154V45.7666H247.561V45.835C247.561 46.5186 247.747 47.0654 248.121 47.4756C248.495 47.8857 249.001 48.0908 249.639 48.0908C250.085 48.0908 250.466 47.9883 250.78 47.7832C251.095 47.5781 251.302 47.3047 251.402 46.9629ZM254.246 40.1748H255.436V41.8906H256.816V42.8682H255.436V47.0928C255.436 47.4163 255.506 47.6556 255.647 47.8105C255.789 47.9609 256.012 48.0361 256.317 48.0361C256.509 48.0361 256.673 48.0247 256.81 48.002V49C256.655 49.0365 256.404 49.0547 256.058 49.0547C255.406 49.0547 254.941 48.9089 254.663 48.6172C254.385 48.3255 254.246 47.8379 254.246 47.1543V42.8682H253.187V41.8906H254.246V40.1748ZM258.471 40.1748H259.66V41.8906H261.041V42.8682H259.66V47.0928C259.66 47.4163 259.731 47.6556 259.872 47.8105C260.013 47.9609 260.237 48.0361 260.542 48.0361C260.733 48.0361 260.897 48.0247 261.034 48.002V49C260.879 49.0365 260.629 49.0547 260.282 49.0547C259.631 49.0547 259.166 48.9089 258.888 48.6172C258.61 48.3255 258.471 47.8379 258.471 47.1543V42.8682H257.411V41.8906H258.471V40.1748ZM262.374 49V41.8906H263.563V49H262.374ZM262.969 40.6943C262.768 40.6943 262.595 40.6214 262.449 40.4756C262.303 40.3298 262.23 40.1566 262.23 39.9561C262.23 39.751 262.303 39.5778 262.449 39.4365C262.595 39.2907 262.768 39.2178 262.969 39.2178C263.174 39.2178 263.349 39.2907 263.495 39.4365C263.641 39.5778 263.714 39.751 263.714 39.9561C263.714 40.1566 263.641 40.3298 263.495 40.4756C263.349 40.6214 263.174 40.6943 262.969 40.6943ZM265.17 49V41.8906H266.291V43.0254H266.318C266.523 42.6289 266.817 42.3213 267.2 42.1025C267.583 41.8792 268.041 41.7676 268.574 41.7676C269.349 41.7676 269.953 42.0023 270.386 42.4717C270.819 42.9365 271.035 43.5745 271.035 44.3857V49H269.846V44.5977C269.846 44.0189 269.709 43.5791 269.436 43.2783C269.162 42.973 268.754 42.8203 268.212 42.8203C267.651 42.8203 267.202 43.0026 266.865 43.3672C266.528 43.7318 266.359 44.2148 266.359 44.8164V49H265.17ZM275.444 48.0088C276.064 48.0088 276.563 47.7718 276.941 47.2979C277.32 46.8239 277.509 46.1973 277.509 45.418C277.509 44.6341 277.32 44.0052 276.941 43.5312C276.563 43.0527 276.064 42.8135 275.444 42.8135C274.829 42.8135 274.337 43.0505 273.968 43.5244C273.603 43.9938 273.421 44.625 273.421 45.418C273.421 46.2109 273.603 46.8421 273.968 47.3115C274.337 47.7764 274.829 48.0088 275.444 48.0088ZM275.485 51.6797C274.706 51.6797 274.036 51.4814 273.476 51.085C272.915 50.693 272.585 50.194 272.484 49.5879H273.708C273.826 49.916 274.05 50.1781 274.378 50.374C274.706 50.57 275.091 50.668 275.533 50.668C276.144 50.668 276.625 50.5062 276.976 50.1826C277.331 49.859 277.509 49.4307 277.509 48.8975V47.7764H277.481C277.258 48.1683 276.946 48.4805 276.545 48.7129C276.144 48.9408 275.697 49.0547 275.205 49.0547C274.298 49.0547 273.571 48.7243 273.024 48.0635C272.478 47.4027 272.204 46.5208 272.204 45.418C272.204 44.306 272.478 43.4196 273.024 42.7588C273.576 42.098 274.312 41.7676 275.232 41.7676C275.734 41.7676 276.185 41.8838 276.586 42.1162C276.987 42.3486 277.306 42.6722 277.543 43.0869H277.563V41.8906H278.698V48.8564C278.698 49.7087 278.407 50.3923 277.823 50.9072C277.24 51.4222 276.461 51.6797 275.485 51.6797ZM282.834 46.2861H284.071C284.131 46.8193 284.39 47.2477 284.851 47.5713C285.315 47.8949 285.901 48.0566 286.607 48.0566C287.273 48.0566 287.822 47.8994 288.255 47.585C288.692 47.266 288.911 46.8649 288.911 46.3818C288.911 45.9671 288.758 45.6253 288.453 45.3564C288.152 45.0876 287.669 44.8665 287.004 44.6934L285.739 44.3652C284.828 44.1328 284.162 43.8092 283.743 43.3945C283.324 42.9753 283.114 42.4307 283.114 41.7607C283.114 40.9404 283.438 40.2705 284.085 39.751C284.737 39.2314 285.575 38.9717 286.601 38.9717C287.58 38.9717 288.392 39.236 289.034 39.7646C289.677 40.2887 290.012 40.9632 290.039 41.7881H288.809C288.754 41.2594 288.526 40.8424 288.125 40.5371C287.724 40.2318 287.202 40.0791 286.56 40.0791C285.922 40.0791 285.4 40.2295 284.994 40.5303C284.593 40.8311 284.393 41.223 284.393 41.7061C284.393 42.0798 284.538 42.3874 284.83 42.6289C285.126 42.8659 285.609 43.071 286.279 43.2441L287.312 43.5176C288.332 43.7728 289.066 44.1123 289.513 44.5361C289.959 44.96 290.183 45.5251 290.183 46.2314C290.183 47.1338 289.85 47.8493 289.185 48.3779C288.524 48.902 287.626 49.1641 286.491 49.1641C285.443 49.1641 284.586 48.902 283.921 48.3779C283.256 47.8538 282.893 47.1566 282.834 46.2861ZM291.816 40.1748H293.006V41.8906H294.387V42.8682H293.006V47.0928C293.006 47.4163 293.076 47.6556 293.218 47.8105C293.359 47.9609 293.582 48.0361 293.888 48.0361C294.079 48.0361 294.243 48.0247 294.38 48.002V49C294.225 49.0365 293.974 49.0547 293.628 49.0547C292.976 49.0547 292.511 48.9089 292.233 48.6172C291.955 48.3255 291.816 47.8379 291.816 47.1543V42.8682H290.757V41.8906H291.816V40.1748ZM297.866 48.1113C298.427 48.1113 298.896 47.9382 299.274 47.5918C299.657 47.2409 299.849 46.8102 299.849 46.2998V45.7188L297.948 45.835C297.47 45.8669 297.098 45.9831 296.834 46.1836C296.574 46.3841 296.444 46.653 296.444 46.9902C296.444 47.3275 296.574 47.5986 296.834 47.8037C297.094 48.0088 297.438 48.1113 297.866 48.1113ZM297.6 49.123C296.893 49.123 296.321 48.9271 295.884 48.5352C295.451 48.1432 295.234 47.6283 295.234 46.9902C295.234 46.3796 295.458 45.8919 295.904 45.5273C296.355 45.1628 296.991 44.9577 297.812 44.9121L299.849 44.7959V44.2012C299.849 43.7682 299.712 43.4287 299.438 43.1826C299.165 42.9365 298.782 42.8135 298.29 42.8135C297.839 42.8135 297.472 42.9137 297.189 43.1143C296.907 43.3102 296.727 43.5859 296.649 43.9414H295.501C295.542 43.3079 295.815 42.7884 296.321 42.3828C296.832 41.9727 297.497 41.7676 298.317 41.7676C299.151 41.7676 299.812 41.9772 300.3 42.3965C300.792 42.8158 301.038 43.3786 301.038 44.085V49H299.91V47.7764H299.883C299.669 48.182 299.354 48.5078 298.939 48.7539C298.525 49 298.078 49.123 297.6 49.123ZM302.549 49V41.8906H303.67V43.0527H303.697C303.816 42.6562 304.028 42.3441 304.333 42.1162C304.643 41.8838 305.005 41.7676 305.42 41.7676C305.516 41.7676 305.675 41.7835 305.898 41.8154V42.9707C305.771 42.9251 305.559 42.9023 305.263 42.9023C304.802 42.9023 304.433 43.055 304.155 43.3604C303.877 43.6657 303.738 44.069 303.738 44.5703V49H302.549ZM307.252 40.1748H308.441V41.8906H309.822V42.8682H308.441V47.0928C308.441 47.4163 308.512 47.6556 308.653 47.8105C308.795 47.9609 309.018 48.0361 309.323 48.0361C309.515 48.0361 309.679 48.0247 309.815 48.002V49C309.66 49.0365 309.41 49.0547 309.063 49.0547C308.412 49.0547 307.947 48.9089 307.669 48.6172C307.391 48.3255 307.252 47.8379 307.252 47.1543V42.8682H306.192V41.8906H307.252V40.1748ZM313.739 42.7998C313.188 42.7998 312.73 42.9912 312.365 43.374C312.005 43.7523 311.807 44.2399 311.771 44.8369H315.633C315.619 44.2354 315.439 43.7454 315.093 43.3672C314.746 42.9889 314.295 42.7998 313.739 42.7998ZM315.605 46.9629H316.774C316.67 47.5918 316.341 48.109 315.79 48.5146C315.243 48.9202 314.585 49.123 313.814 49.123C312.798 49.123 311.998 48.7949 311.415 48.1387C310.832 47.4824 310.54 46.5938 310.54 45.4727C310.54 44.3607 310.832 43.4652 311.415 42.7861C312.003 42.1071 312.785 41.7676 313.76 41.7676C314.717 41.7676 315.473 42.0889 316.029 42.7314C316.585 43.374 316.863 44.2354 316.863 45.3154V45.7666H311.764V45.835C311.764 46.5186 311.951 47.0654 312.324 47.4756C312.698 47.8857 313.204 48.0908 313.842 48.0908C314.288 48.0908 314.669 47.9883 314.983 47.7832C315.298 47.5781 315.505 47.3047 315.605 46.9629ZM320.76 49.123C319.848 49.123 319.112 48.7881 318.552 48.1182C317.996 47.4482 317.718 46.5573 317.718 45.4453C317.718 44.3379 317.996 43.4492 318.552 42.7793C319.108 42.1048 319.835 41.7676 320.732 41.7676C321.234 41.7676 321.683 41.8815 322.079 42.1094C322.476 42.3372 322.781 42.6494 322.995 43.0459H323.022V39.1357H324.212V49H323.077V47.7969H323.057C322.824 48.2116 322.51 48.5374 322.113 48.7744C321.717 49.0068 321.266 49.123 320.76 49.123ZM320.985 42.8135C320.356 42.8135 319.857 43.0527 319.488 43.5312C319.119 44.0052 318.935 44.6432 318.935 45.4453C318.935 46.252 319.119 46.8923 319.488 47.3662C319.857 47.8402 320.356 48.0771 320.985 48.0771C321.601 48.0771 322.095 47.8379 322.469 47.3594C322.842 46.8763 323.029 46.2383 323.029 45.4453C323.029 44.6523 322.84 44.0166 322.462 43.5381C322.088 43.055 321.596 42.8135 320.985 42.8135ZM337.193 44.9189C337.193 46.2542 336.824 47.2956 336.086 48.043C335.352 48.7904 334.327 49.1641 333.01 49.1641C331.633 49.1641 330.535 48.6992 329.715 47.7695C328.899 46.8353 328.491 45.5843 328.491 44.0166C328.491 42.4762 328.899 41.2503 329.715 40.3389C330.531 39.4274 331.629 38.9717 333.01 38.9717C334.076 38.9717 334.983 39.2656 335.73 39.8535C336.482 40.4368 336.95 41.2184 337.132 42.1982H335.84C335.635 41.5329 335.284 41.0179 334.787 40.6533C334.295 40.2887 333.702 40.1064 333.01 40.1064C331.993 40.1064 331.196 40.4528 330.617 41.1455C330.043 41.8337 329.756 42.7884 329.756 44.0098C329.756 45.2493 330.048 46.2292 330.631 46.9492C331.214 47.6693 332.007 48.0293 333.01 48.0293C333.885 48.0293 334.596 47.7718 335.143 47.2568C335.689 46.7373 335.963 46.0651 335.963 45.2402V45.0625H333.181V43.9824H337.193V44.9189ZM344.426 41.8906V49H343.298V47.8447H343.271C342.828 48.6969 342.076 49.123 341.015 49.123C340.244 49.123 339.641 48.8906 339.203 48.4258C338.77 47.9564 338.554 47.3161 338.554 46.5049V41.8906H339.743V46.293C339.743 47.4779 340.29 48.0703 341.384 48.0703C341.958 48.0703 342.409 47.8903 342.737 47.5303C343.07 47.1657 343.236 46.6781 343.236 46.0674V41.8906H344.426ZM346.032 49V41.8906H347.222V49H346.032ZM346.627 40.6943C346.426 40.6943 346.253 40.6214 346.107 40.4756C345.962 40.3298 345.889 40.1566 345.889 39.9561C345.889 39.751 345.962 39.5778 346.107 39.4365C346.253 39.2907 346.426 39.2178 346.627 39.2178C346.832 39.2178 347.007 39.2907 347.153 39.4365C347.299 39.5778 347.372 39.751 347.372 39.9561C347.372 40.1566 347.299 40.3298 347.153 40.4756C347.007 40.6214 346.832 40.6943 346.627 40.6943ZM351.521 49.123C350.61 49.123 349.874 48.7881 349.313 48.1182C348.757 47.4482 348.479 46.5573 348.479 45.4453C348.479 44.3379 348.757 43.4492 349.313 42.7793C349.869 42.1048 350.596 41.7676 351.494 41.7676C351.995 41.7676 352.444 41.8815 352.841 42.1094C353.237 42.3372 353.543 42.6494 353.757 43.0459H353.784V39.1357H354.974V49H353.839V47.7969H353.818C353.586 48.2116 353.271 48.5374 352.875 48.7744C352.479 49.0068 352.027 49.123 351.521 49.123ZM351.747 42.8135C351.118 42.8135 350.619 43.0527 350.25 43.5312C349.881 44.0052 349.696 44.6432 349.696 45.4453C349.696 46.252 349.881 46.8923 350.25 47.3662C350.619 47.8402 351.118 48.0771 351.747 48.0771C352.362 48.0771 352.857 47.8379 353.23 47.3594C353.604 46.8763 353.791 46.2383 353.791 45.4453C353.791 44.6523 353.602 44.0166 353.224 43.5381C352.85 43.055 352.358 42.8135 351.747 42.8135ZM359.431 42.7998C358.879 42.7998 358.421 42.9912 358.057 43.374C357.697 43.7523 357.498 44.2399 357.462 44.8369H361.324C361.311 44.2354 361.131 43.7454 360.784 43.3672C360.438 42.9889 359.987 42.7998 359.431 42.7998ZM361.297 46.9629H362.466C362.361 47.5918 362.033 48.109 361.481 48.5146C360.935 48.9202 360.276 49.123 359.506 49.123C358.49 49.123 357.69 48.7949 357.106 48.1387C356.523 47.4824 356.231 46.5938 356.231 45.4727C356.231 44.3607 356.523 43.4652 357.106 42.7861C357.694 42.1071 358.476 41.7676 359.451 41.7676C360.408 41.7676 361.165 42.0889 361.721 42.7314C362.277 43.374 362.555 44.2354 362.555 45.3154V45.7666H357.455V45.835C357.455 46.5186 357.642 47.0654 358.016 47.4756C358.389 47.8857 358.895 48.0908 359.533 48.0908C359.98 48.0908 360.36 47.9883 360.675 47.7832C360.989 47.5781 361.197 47.3047 361.297 46.9629Z" fill="#252525"/>
<path d="M236.015 53.1699H362.979V53.9902H236.015V53.1699Z" fill="#252525"/>
</g>
<defs>
<linearGradient id="paint0_linear_0_1" x1="74.0542" y1="202.799" x2="169.427" y2="9.5802" gradientUnits="userSpaceOnUse">
<stop stop-color="#0E6F1F"/>
<stop offset="0.53307" stop-color="#31B047"/>
</linearGradient>
</defs>
</svg>
