<svg width="52" height="42" viewBox="0 0 52 42" fill="none" xmlns="http://www.w3.org/2000/svg">
<circle cx="36" cy="26" r="16" fill="#50AF95"/>
<path fill-rule="evenodd" clip-rule="evenodd" d="M38.0347 27.9029C37.921 27.9115 37.3339 27.9465 36.0242 27.9465C34.9824 27.9465 34.2428 27.9153 33.9833 27.9029C29.9576 27.7259 26.9527 27.0251 26.9527 26.186C26.9527 25.347 29.9576 24.6471 33.9833 24.4672V27.205C34.2466 27.2239 35.0004 27.2684 36.0421 27.2684C37.2922 27.2684 37.9182 27.2164 38.0309 27.2059V24.4691C42.0481 24.6481 45.0464 25.3488 45.0464 26.186C45.0464 27.0232 42.0491 27.724 38.0309 27.902L38.0347 27.9029ZM38.0347 24.1859V21.736H43.641V18H28.377V21.736H33.9824V24.185C29.4263 24.3943 26 25.2968 26 26.3783C26 27.4597 29.4263 28.3613 33.9824 28.5715V36.4223H38.0337V28.5687C42.5794 28.3594 46 27.4578 46 26.3773C46 25.2968 42.5822 24.3952 38.0337 24.185L38.0347 24.1859Z" fill="white"/>
<g filter="url(#filter0_i)">
<circle cx="16" cy="16" r="16" fill="black"/>
</g>
<path d="M15.752 5L15.6045 5.50131V20.0482L15.752 20.1954L22.5045 16.204L15.752 5Z" fill="#343434"/>
<path d="M15.7525 5L9 16.204L15.7525 20.1955V13.1349V5Z" fill="#8C8C8C"/>
<path d="M15.7516 21.4739L15.6685 21.5753V26.7572L15.7516 27L22.5081 17.4846L15.7516 21.4739Z" fill="#3C3C3B"/>
<path d="M15.7525 26.9999V21.4738L9 17.4845L15.7525 26.9999Z" fill="#8C8C8C"/>
<path d="M15.7515 20.1955L22.5039 16.2042L15.7515 13.135V20.1955Z" fill="#141414"/>
<path d="M9 16.2042L15.7524 20.1955V13.135L9 16.2042Z" fill="#393939"/>
<path d="M26.2865 22.2857C26.2865 24.8893 24.1758 27 21.5722 27C18.9686 27 16.8579 24.8893 16.8579 22.2857C16.8579 19.6821 18.9686 17.5714 21.5722 17.5714C24.1758 17.5714 26.2865 19.6821 26.2865 22.2857Z" fill="#030303"/>
<path fill-rule="evenodd" clip-rule="evenodd" d="M21.5722 26.5286C23.9155 26.5286 25.815 24.629 25.815 22.2857C25.815 19.9425 23.9155 18.0429 21.5722 18.0429C19.2289 18.0429 17.3293 19.9425 17.3293 22.2857C17.3293 24.629 19.2289 26.5286 21.5722 26.5286ZM21.5722 27C24.1758 27 26.2865 24.8893 26.2865 22.2857C26.2865 19.6821 24.1758 17.5714 21.5722 17.5714C18.9686 17.5714 16.8579 19.6821 16.8579 22.2857C16.8579 24.8893 18.9686 27 21.5722 27Z" fill="white"/>
<path fill-rule="evenodd" clip-rule="evenodd" d="M21.6504 19.9285C21.4768 19.9285 21.3361 20.0693 21.3361 20.2428V22.0735H19.5296C19.356 22.0735 19.2153 22.2142 19.2153 22.3878C19.2153 22.5614 19.356 22.7021 19.5296 22.7021H21.3361V24.3285C21.3361 24.5021 21.4768 24.6428 21.6504 24.6428C21.8239 24.6428 21.9646 24.5021 21.9646 24.3285V22.7021H23.6153C23.7889 22.7021 23.9296 22.5614 23.9296 22.3878C23.9296 22.2142 23.7889 22.0735 23.6153 22.0735H21.9646V20.2428C21.9646 20.0693 21.8239 19.9285 21.6504 19.9285Z" fill="white"/>
<defs>
<filter id="filter0_i" x="0" y="0" width="32" height="32" filterUnits="userSpaceOnUse" color-interpolation-filters="sRGB">
<feFlood flood-opacity="0" result="BackgroundImageFix"/>
<feBlend mode="normal" in="SourceGraphic" in2="BackgroundImageFix" result="shape"/>
<feColorMatrix in="SourceAlpha" type="matrix" values="0 0 0 0 0 0 0 0 0 0 0 0 0 0 0 0 0 0 127 0" result="hardAlpha"/>
<feOffset/>
<feGaussianBlur stdDeviation="6"/>
<feComposite in2="hardAlpha" operator="arithmetic" k2="-1" k3="1"/>
<feColorMatrix type="matrix" values="0 0 0 0 1 0 0 0 0 1 0 0 0 0 1 0 0 0 0.2 0"/>
<feBlend mode="normal" in2="shape" result="effect1_innerShadow"/>
</filter>
</defs>
</svg>
