<svg width="418" height="282" viewBox="0 0 418 282" fill="none" xmlns="http://www.w3.org/2000/svg">
<path d="M284.731 188.976V-4.8483L286.304 -10.1934L375.443 137.71L286.212 190.454L284.731 188.976Z" stroke="#8C8C8C" stroke-width="1.16"/>
<path d="M285.542 190.166L196.799 137.71L285.542 -9.53657V96.9487V190.166Z" stroke="#8C8C8C" stroke-width="1.16"/>
<path d="M285.582 278.663V209.807L286.495 208.694L374.238 156.886L286.293 280.741L285.582 278.663Z" stroke="#8C8C8C" stroke-width="1.16"/>
<path d="M198.048 156.887L285.542 208.578V280.18L198.048 156.887Z" stroke="#8C8C8C" stroke-width="1.16"/>
<path d="M286.699 97.8519L374.986 137.981L286.699 190.167V97.8519Z" stroke="#8C8C8C" stroke-width="1.16"/>
<path d="M285.54 97.8519V190.167L197.254 137.981L285.54 97.8519Z" stroke="#8C8C8C" stroke-width="1.16"/>
<g opacity="0.1">
<path d="M327.12 -19L325.151 -12.3093V181.84L327.12 183.805L417.242 130.534L327.12 -19Z" fill="#343434"/>
<path d="M327.122 -19L237 130.534L327.122 183.805V89.5712V-19Z" fill="#8C8C8C"/>
<path d="M327.111 200.87L326.002 202.222V271.382L327.111 274.622L417.286 147.626L327.111 200.87Z" fill="#3C3C3B"/>
<path d="M327.122 274.622V200.87L237 147.626L327.122 274.622Z" fill="#8C8C8C"/>
<path d="M327.119 183.806L417.239 130.536L327.119 89.5737V183.806Z" fill="#141414"/>
<path d="M237 130.536L327.12 183.806V89.5737L237 130.536Z" fill="#393939"/>
</g>
<path d="M191.468 110.342L150.946 113.025L155.017 119.296L82.2646 166.481L95.7116 187.164L168.433 139.979L172.504 146.25L191.468 110.342Z" fill="#E7E7E7"/>
<path d="M89.8623 183.727C89.8322 183.727 89.802 183.727 89.7718 183.727C89.6512 183.697 89.5608 183.636 89.5005 183.516L76.0837 162.833C75.933 162.622 75.9933 162.35 76.2043 162.2L148.564 115.256L144.735 109.377C144.645 109.256 144.645 109.075 144.705 108.925C144.765 108.774 144.916 108.683 145.067 108.683L185.589 106C185.769 106 185.92 106.06 186.011 106.211C186.101 106.362 186.101 106.513 186.041 106.663L167.107 142.572C167.046 142.723 166.896 142.813 166.715 142.813C166.564 142.813 166.413 142.753 166.323 142.602L162.494 136.723L90.1337 183.666C90.0432 183.697 89.9528 183.727 89.8623 183.727ZM77.0486 162.712L89.9829 182.641L162.343 135.698C162.433 135.637 162.554 135.607 162.675 135.637C162.795 135.668 162.886 135.728 162.946 135.849L166.624 141.456L184.835 106.935L145.911 109.497L149.559 115.135C149.62 115.226 149.65 115.347 149.62 115.467C149.589 115.588 149.529 115.678 149.409 115.738L77.0486 162.712Z" fill="#121127"/>
<path d="M267.06 129.591L257.02 138.63L261.371 140.903C260.36 142.848 252.703 157.023 236.751 173.012C220.989 188.824 193.649 209.683 153.004 219.3C112.346 228.911 76.3766 219.703 53.3552 210.281C32.0438 201.574 17.6129 191.081 13.7531 188.125C14.2157 187.6 14.614 186.982 14.8927 186.282C16.1814 183.046 14.6003 179.377 11.3617 178.087C8.12298 176.797 4.45212 178.375 3.16342 181.611C1.87472 184.847 3.45578 188.516 6.69445 189.806C9.0724 190.753 11.6983 190.144 13.4301 188.469C17.2607 191.413 31.7587 201.95 53.1665 210.712C53.7063 210.927 54.2549 211.163 54.7946 211.378C68.9602 217.019 83.4402 220.81 97.8292 222.623C116.514 224.982 135.12 224.015 153.122 219.769C171.13 215.508 188.049 208.72 203.421 199.576C215.715 192.262 227.055 183.438 237.125 173.347C253.088 157.329 260.777 143.115 261.806 141.127L265.795 143.206L267.06 129.591Z" fill="#121127"/>
</svg>
