<svg width="64" height="64" viewBox="0 0 64 64" fill="none" xmlns="http://www.w3.org/2000/svg">
<path d="M32 64C49.6731 64 64 49.6731 64 32C64 14.3269 49.6731 0 32 0C14.3269 0 0 14.3269 0 32C0 49.6731 14.3269 64 32 64Z" fill="white"/>
<path d="M63.7946 32C63.7946 49.5597 49.5597 63.7946 32 63.7946C14.4403 63.7946 0.205357 49.5597 0.205357 32C0.205357 14.4403 14.4403 0.205357 32 0.205357C49.5597 0.205357 63.7946 14.4403 63.7946 32Z" stroke="black" stroke-opacity="0.4" stroke-width="0.410714"/>
<path d="M32.9062 10V25.9923L46.8092 32.0323L32.9062 10Z" fill="black" fill-opacity="0.602"/>
<path d="M32.9048 10L19 32.0323L32.9048 25.9923V10Z" fill="black"/>
<path d="M32.9062 42.3966V53.263L46.8185 34.55L32.9062 42.3966Z" fill="black" fill-opacity="0.602"/>
<path d="M32.9048 53.263V42.3948L19 34.55L32.9048 53.263Z" fill="black"/>
<path d="M32.9062 39.881L46.8092 32.0327L32.9062 25.9963V39.881Z" fill="black" fill-opacity="0.2"/>
<path d="M19 32.0327L32.9048 39.881V25.9963L19 32.0327Z" fill="black" fill-opacity="0.602"/>
</svg>
