<svg width="296" height="200" viewBox="0 0 296 200" fill="none" xmlns="http://www.w3.org/2000/svg">
<line x1="296" y1="191.211" y2="191.211" stroke="#ADB9D8"/>
<path d="M180.026 193.157H179.899C175.377 192.179 171.338 189.776 168.439 186.339C165.54 182.903 163.953 178.635 163.937 174.232V125.975H149.057V174.206C149.043 178.605 147.461 182.87 144.568 186.307C141.674 189.743 137.64 192.148 133.123 193.13H132.996C130.729 193.643 126.89 194.902 123.169 196.202C122.718 196.36 122.34 196.663 122.101 197.058C121.861 197.454 121.776 197.917 121.859 198.366C121.943 198.815 122.19 199.223 122.558 199.516C122.926 199.81 123.391 199.972 123.871 199.973H189.151C189.631 199.972 190.096 199.81 190.464 199.516C190.832 199.223 191.079 198.815 191.163 198.366C191.246 197.917 191.161 197.454 190.921 197.058C190.682 196.663 190.304 196.36 189.853 196.202C186.132 194.929 182.293 193.67 180.026 193.157Z" fill="#263238"/>
<path opacity="0.2" d="M180.026 193.157H179.899C175.377 192.179 171.338 189.776 168.439 186.339C165.54 182.903 163.953 178.635 163.937 174.232V125.975H149.057V174.206C149.043 178.605 147.461 182.87 144.568 186.307C141.674 189.743 137.64 192.148 133.123 193.13H132.996C130.729 193.643 126.89 194.902 123.169 196.202C122.718 196.36 122.34 196.663 122.101 197.058C121.861 197.454 121.776 197.917 121.859 198.366C121.943 198.815 122.19 199.223 122.558 199.516C122.926 199.81 123.391 199.972 123.871 199.973H189.151C189.631 199.972 190.096 199.81 190.464 199.516C190.832 199.223 191.079 198.815 191.163 198.366C191.246 197.917 191.161 197.454 190.921 197.058C190.682 196.663 190.304 196.36 189.853 196.202C186.132 194.929 182.293 193.67 180.026 193.157Z" fill="white"/>
<path opacity="0.4" d="M180.026 193.157H179.899C175.377 192.179 171.338 189.776 168.439 186.339C165.54 182.903 163.953 178.635 163.938 174.232V125.975H149.057V132.905H154.518C156.091 132.905 157.599 133.498 158.712 134.554C159.824 135.61 160.449 137.042 160.449 138.536V172.833C160.451 176.109 161.135 179.353 162.46 182.379C163.785 185.404 165.725 188.152 168.17 190.465L178.215 200H189.179C189.66 199.999 190.124 199.837 190.492 199.543C190.86 199.249 191.107 198.842 191.191 198.393C191.274 197.943 191.189 197.481 190.95 197.085C190.71 196.689 190.332 196.386 189.881 196.228C186.133 194.929 182.293 193.67 180.026 193.157Z" fill="black"/>
<path d="M91.9685 128.94H210.188C211.364 128.92 212.491 128.491 213.357 127.734C214.222 126.978 214.765 125.947 214.884 124.836L222.359 43.7406C222.42 43.218 222.363 42.689 222.192 42.189C222.02 41.689 221.738 41.2294 221.365 40.8409C220.992 40.4525 220.535 40.1441 220.027 39.9363C219.518 39.7285 218.968 39.6261 218.414 39.6359H100.202C99.0248 39.6547 97.8956 40.083 97.0288 40.8396C96.1619 41.5962 95.6177 42.6284 95.4992 43.7406L88.0237 124.836C87.9627 125.358 88.0198 125.887 88.1912 126.387C88.3627 126.887 88.6444 127.347 89.0178 127.735C89.3911 128.124 89.8474 128.432 90.3562 128.64C90.8651 128.848 91.4147 128.95 91.9685 128.94Z" fill="#263238"/>
<g opacity="0.5">
<path opacity="0.5" d="M91.9685 128.94H210.188C211.364 128.92 212.491 128.491 213.357 127.734C214.222 126.978 214.765 125.947 214.884 124.836L222.359 43.7406C222.42 43.218 222.363 42.689 222.192 42.189C222.02 41.689 221.738 41.2294 221.365 40.8409C220.992 40.4525 220.535 40.1441 220.027 39.9363C219.518 39.7285 218.968 39.6261 218.414 39.6359H100.202C99.0248 39.6547 97.8956 40.083 97.0288 40.8396C96.1619 41.5962 95.6177 42.6284 95.4992 43.7406L88.0237 124.836C87.9627 125.358 88.0198 125.887 88.1912 126.387C88.3627 126.887 88.6444 127.347 89.0178 127.735C89.3911 128.124 89.8474 128.432 90.3562 128.64C90.8651 128.848 91.4147 128.95 91.9685 128.94Z" fill="white"/>
</g>
<path d="M88.8309 116.066L88.0237 124.836C87.9627 125.358 88.0198 125.887 88.1912 126.387C88.3627 126.887 88.6444 127.347 89.0178 127.735C89.3911 128.124 89.8474 128.432 90.3562 128.64C90.8651 128.848 91.4147 128.95 91.9685 128.94H210.188C211.364 128.92 212.491 128.491 213.357 127.734C214.222 126.978 214.765 125.947 214.884 124.836L215.698 116.066H88.8309Z" fill="#263238"/>
<path d="M90.6213 116.084L89.8242 122.823C89.7639 123.224 89.8204 123.631 89.9896 124.015C90.1589 124.399 90.4372 124.752 90.8059 125.051C91.1745 125.349 91.6252 125.586 92.1276 125.746C92.6301 125.906 93.1729 125.984 93.7198 125.977H210.466C211.627 125.961 212.741 125.631 213.595 125.05C214.45 124.469 214.986 123.676 215.103 122.823L215.907 116.084H90.6213Z" fill="#87ACFF"/>
<path d="M211.521 113.587H93.4631C93.1624 113.593 92.8636 113.539 92.587 113.426C92.3103 113.314 92.0623 113.147 91.8594 112.936C91.6565 112.725 91.5036 112.475 91.411 112.204C91.3183 111.932 91.2881 111.645 91.3222 111.361L97.4992 44.3394C97.5628 43.7365 97.8574 43.1767 98.3272 42.7664C98.7969 42.3561 99.409 42.1239 100.047 42.1138H218.112C218.41 42.112 218.705 42.1702 218.977 42.2845C219.249 42.3988 219.493 42.5667 219.692 42.777C219.891 42.9873 220.041 43.2354 220.132 43.5047C220.222 43.774 220.252 44.0585 220.218 44.3394L214.041 111.361C213.978 111.959 213.687 112.516 213.223 112.925C212.76 113.335 212.154 113.57 211.521 113.587Z" fill="#4CCA62"/>
<path opacity="0.7" d="M211.521 113.587H93.4631C93.1624 113.593 92.8636 113.539 92.587 113.426C92.3103 113.314 92.0623 113.147 91.8594 112.936C91.6565 112.725 91.5036 112.475 91.411 112.204C91.3183 111.932 91.2881 111.645 91.3222 111.361L97.4992 44.3394C97.5628 43.7365 97.8574 43.1767 98.3272 42.7664C98.7969 42.3561 99.409 42.1239 100.047 42.1138H218.112C218.41 42.112 218.705 42.1702 218.977 42.2845C219.249 42.3988 219.493 42.5667 219.692 42.777C219.891 42.9873 220.041 43.2354 220.132 43.5047C220.222 43.774 220.252 44.0585 220.218 44.3394L214.041 111.361C213.978 111.959 213.687 112.516 213.223 112.925C212.76 113.335 212.154 113.57 211.521 113.587Z" fill="white"/>
<path d="M221.032 39.6359H218.414C218.968 39.6261 219.518 39.7285 220.026 39.9363C220.535 40.1441 220.992 40.4525 221.365 40.8409C221.738 41.2294 222.02 41.689 222.191 42.189C222.363 42.689 222.42 43.218 222.359 43.7406L214.883 124.835C214.765 125.947 214.222 126.978 213.356 127.734C212.491 128.491 211.364 128.92 210.188 128.94H212.799C213.976 128.92 215.104 128.491 215.97 127.735C216.837 126.979 217.382 125.947 217.502 124.835L224.977 43.7406C225.037 43.2182 224.979 42.6897 224.807 42.1901C224.635 41.6906 224.354 41.2315 223.98 40.8432C223.607 40.455 223.152 40.1466 222.643 39.9384C222.135 39.7303 221.586 39.6272 221.032 39.6359Z" fill="#263238"/>
<path opacity="0.3" d="M221.032 39.6359H218.414C218.968 39.6261 219.518 39.7285 220.026 39.9363C220.535 40.1441 220.992 40.4525 221.365 40.8409C221.738 41.2294 222.02 41.689 222.191 42.189C222.363 42.689 222.42 43.218 222.359 43.7406L214.883 124.835C214.765 125.947 214.222 126.978 213.356 127.734C212.491 128.491 211.364 128.92 210.188 128.94H212.799C213.976 128.92 215.104 128.491 215.97 127.735C216.837 126.979 217.382 125.947 217.502 124.835L224.977 43.7406C225.037 43.2182 224.979 42.6897 224.807 42.1901C224.635 41.6906 224.354 41.2315 223.98 40.8432C223.607 40.455 223.152 40.1466 222.643 39.9384C222.135 39.7303 221.586 39.6272 221.032 39.6359Z" fill="#263238"/>
<g opacity="0.3">
<path opacity="0.3" d="M169.441 42.1162H173.983L189.987 113.589H185.445L169.441 42.1162Z" fill="white"/>
<path opacity="0.3" d="M194.578 113.589L178.574 42.1162H195.631L211.635 113.589H194.578Z" fill="white"/>
</g>
<path d="M174.994 100.587H112.318L115.449 66.6431H178.124L174.994 100.587Z" fill="#4CCA62"/>
<path opacity="0.9" d="M174.994 100.587H112.318L115.449 66.6431H178.124L174.994 100.587Z" fill="white"/>
<path d="M115.806 88.4252H114.83L115.715 78.7964H116.697L115.806 88.4252Z" fill="#4CCA62"/>
<path d="M117.905 85.5272H116.922L117.813 75.8984H118.789L117.905 85.5272Z" fill="#263238"/>
<path d="M119.991 82.7347H119.008L119.899 73.106H120.882L119.991 82.7347Z" fill="#4CCA62"/>
<path d="M121.651 84.5213H120.676L121.56 74.8926H122.543L121.651 84.5213Z" fill="#263238"/>
<path d="M122.854 91.3504H121.871L122.763 81.7217H123.745L122.854 91.3504Z" fill="#4CCA62"/>
<path d="M124.51 93.2373H123.527L124.419 83.6152H125.394L124.51 93.2373Z" fill="#263238"/>
<path d="M126.069 96.1693H125.086L125.977 86.5405H126.953L126.069 96.1693Z" fill="#4CCA62"/>
<path d="M128.608 88.4252H127.633L128.517 78.7964H129.5L128.608 88.4252Z" fill="#263238"/>
<path d="M130.616 86.5394H129.633L130.517 76.9106H131.5L130.616 86.5394Z" fill="#4CCA62"/>
<path d="M132.539 85.5272H131.557L132.441 75.8984H133.424L132.539 85.5272Z" fill="#263238"/>
<path d="M133.958 89.9056H132.982L133.867 80.2769H134.85L133.958 89.9056Z" fill="#4CCA62"/>
<path d="M135.657 91.3504H134.674L135.565 81.7217H136.548L135.657 91.3504Z" fill="#263238"/>
<path d="M137.623 89.9056H136.641L137.525 80.2769H138.508L137.623 89.9056Z" fill="#4CCA62"/>
<path d="M139.588 88.4252H138.605L139.49 78.7964H140.473L139.588 88.4252Z" fill="#263238"/>
<path d="M141.638 85.9673H140.662L141.547 76.3452H142.529L141.638 85.9673Z" fill="#4CCA62"/>
<path d="M143.553 85.0879H142.57L143.455 75.4658H144.437L143.553 85.0879Z" fill="#263238"/>
<path d="M145.069 88.4252H144.086L144.977 78.7964H145.96L145.069 88.4252Z" fill="#4CCA62"/>
<path d="M147.076 86.5394H146.094L146.978 76.9106H147.961L147.076 86.5394Z" fill="#263238"/>
<path d="M149.035 85.0879H148.053L148.944 75.4658H149.927L149.035 85.0879Z" fill="#4CCA62"/>
<path d="M151 83.6141H150.018L150.909 73.9854H151.892L151 83.6141Z" fill="#263238"/>
<path d="M152.651 85.5272H151.676L152.56 75.8984H153.543L152.651 85.5272Z" fill="#4CCA62"/>
<path d="M154.393 86.5394H153.41L154.295 76.9106H155.277L154.393 86.5394Z" fill="#263238"/>
<path d="M156.042 88.4252H155.066L155.951 78.7964H156.934L156.042 88.4252Z" fill="#4CCA62"/>
<path d="M157.739 89.9056H156.756L157.64 80.2769H158.623L157.739 89.9056Z" fill="#263238"/>
<path d="M159.338 92.3579H158.355L159.24 82.7358H160.223L159.338 92.3579Z" fill="#4CCA62"/>
<path d="M160.948 94.7167H159.973L160.857 85.0879H161.84L160.948 94.7167Z" fill="#263238"/>
<path d="M163.038 91.8714H162.062L162.947 82.2427H163.93L163.038 91.8714Z" fill="#4CCA62"/>
<path d="M165.362 86.5394H164.379L165.27 76.9106H166.246L165.362 86.5394Z" fill="#263238"/>
<path d="M167.377 84.5213H166.395L167.286 74.8926H168.262L167.377 84.5213Z" fill="#4CCA62"/>
<path d="M169.518 81.1571H168.535L169.42 71.5283H170.402L169.518 81.1571Z" fill="#263238"/>
<path d="M171.033 84.5213H170.051L170.942 74.8926H171.918L171.033 84.5213Z" fill="#4CCA62"/>
<path d="M172.235 91.3504H171.252L172.136 81.7217H173.119L172.235 91.3504Z" fill="#263238"/>
<path d="M174.557 85.9673H173.574L174.466 76.3452H175.448L174.557 85.9673Z" fill="#4CCA62"/>
<path d="M110.857 68.9023H107.565C107.412 68.9053 107.261 68.8771 107.121 68.8197C106.981 68.7623 106.855 68.6771 106.753 68.5697C106.65 68.4623 106.573 68.3353 106.527 68.1973C106.481 68.0593 106.466 67.9134 106.484 67.7695C106.517 67.4642 106.666 67.1809 106.904 66.9734C107.142 66.7658 107.452 66.6484 107.776 66.6434H111.061C111.213 66.6396 111.365 66.667 111.505 66.7235C111.646 66.7801 111.772 66.8646 111.875 66.9713C111.978 67.078 112.056 67.2045 112.103 67.3422C112.15 67.4799 112.166 67.6256 112.149 67.7695C112.116 68.0755 111.967 68.3596 111.729 68.5683C111.491 68.7769 111.181 68.8958 110.857 68.9023Z" fill="#263238"/>
<path d="M110.438 73.4266H107.152C107 73.4293 106.849 73.4012 106.709 73.3443C106.57 73.2874 106.444 73.2029 106.341 73.0964C106.238 72.9899 106.16 72.8639 106.113 72.7266C106.065 72.5894 106.049 72.4442 106.065 72.3005C106.097 71.9934 106.247 71.7084 106.487 71.4996C106.726 71.2908 107.038 71.1726 107.363 71.1677H110.662C110.815 71.1649 110.967 71.1931 111.107 71.2504C111.248 71.3077 111.373 71.3929 111.476 71.5001C111.579 71.6073 111.657 71.7342 111.704 71.8722C111.752 72.0102 111.767 72.1563 111.75 72.3005C111.716 72.6086 111.563 72.8938 111.32 73.1016C111.078 73.3093 110.764 73.4251 110.438 73.4266Z" fill="#4CCA62"/>
<path d="M110.022 77.9576H106.737C106.584 77.9604 106.433 77.9321 106.292 77.8748C106.152 77.8175 106.026 77.7324 105.923 77.6251C105.82 77.5179 105.742 77.391 105.695 77.253C105.648 77.115 105.632 76.969 105.649 76.8248C105.682 76.5188 105.831 76.2347 106.069 76.0261C106.307 75.8174 106.617 75.6986 106.941 75.692H110.233C110.385 75.6902 110.537 75.7192 110.676 75.7769C110.816 75.8346 110.942 75.9197 111.045 76.0267C111.147 76.1337 111.225 76.2601 111.273 76.3976C111.32 76.5352 111.337 76.6808 111.321 76.8248C111.287 77.1313 111.136 77.4155 110.897 77.624C110.658 77.8326 110.347 77.9512 110.022 77.9576Z" fill="#4CCA62"/>
<path d="M109.602 82.4821H106.317C106.164 82.4849 106.013 82.4567 105.872 82.3994C105.732 82.342 105.606 82.2569 105.503 82.1497C105.4 82.0424 105.322 81.9156 105.275 81.7775C105.228 81.6395 105.212 81.4935 105.229 81.3493C105.262 81.0422 105.412 80.7572 105.652 80.5484C105.891 80.3396 106.203 80.2215 106.528 80.2165H109.813C109.966 80.2137 110.117 80.2419 110.258 80.2992C110.398 80.3566 110.524 80.4417 110.627 80.5489C110.73 80.6562 110.808 80.783 110.855 80.9211C110.902 81.0591 110.918 81.2051 110.901 81.3493C110.868 81.6564 110.718 81.9414 110.479 82.1502C110.239 82.359 109.927 82.4771 109.602 82.4821Z" fill="#4CCA62"/>
<path d="M109.188 87.0065H105.903C105.75 87.0093 105.599 86.9811 105.458 86.9238C105.318 86.8664 105.192 86.7813 105.089 86.6741C104.986 86.5668 104.908 86.44 104.861 86.3019C104.814 86.1639 104.798 86.0179 104.815 85.8737C104.848 85.5678 104.997 85.2837 105.235 85.075C105.473 84.8663 105.783 84.7475 106.107 84.7409H109.399C109.552 84.7381 109.703 84.7663 109.844 84.8236C109.984 84.881 110.11 84.9661 110.213 85.0733C110.316 85.1806 110.394 85.3074 110.441 85.4455C110.488 85.5835 110.504 85.7295 110.487 85.8737C110.453 86.1802 110.302 86.4644 110.063 86.6729C109.824 86.8815 109.513 87.0001 109.188 87.0065Z" fill="#4CCA62"/>
<path d="M108.773 91.532H105.481C105.328 91.5338 105.177 91.5048 105.037 91.4471C104.897 91.3895 104.772 91.3043 104.669 91.1973C104.566 91.0903 104.488 90.9639 104.441 90.8264C104.393 90.6888 104.377 90.5433 104.393 90.3993C104.428 90.0939 104.58 89.8114 104.819 89.6042C105.058 89.397 105.368 89.2793 105.691 89.2731H108.976C109.128 89.2704 109.279 89.2985 109.419 89.3554C109.559 89.4124 109.685 89.4969 109.788 89.6034C109.89 89.7098 109.968 89.8359 110.016 89.9731C110.064 90.1103 110.08 90.2556 110.064 90.3993C110.032 90.7052 109.882 90.9893 109.644 91.198C109.407 91.4066 109.096 91.5255 108.773 91.532Z" fill="#4CCA62"/>
<path d="M108.351 96.0565H105.045C104.893 96.0592 104.742 96.0311 104.602 95.9742C104.462 95.9172 104.337 95.8327 104.234 95.7263C104.131 95.6198 104.053 95.4937 104.005 95.3565C103.958 95.2193 103.941 95.074 103.957 94.9303C103.99 94.6233 104.14 94.3383 104.379 94.1295C104.619 93.9206 104.931 93.8025 105.256 93.7976H108.555C108.708 93.7948 108.859 93.823 109 93.8803C109.14 93.9376 109.266 94.0227 109.369 94.13C109.472 94.2372 109.55 94.3641 109.597 94.5021C109.644 94.6401 109.66 94.7861 109.643 94.9303C109.609 95.2351 109.459 95.5176 109.221 95.7249C108.983 95.9322 108.674 96.0501 108.351 96.0565Z" fill="#4CCA62"/>
<path d="M107.938 100.588H104.653C104.5 100.59 104.349 100.562 104.208 100.505C104.068 100.447 103.942 100.362 103.839 100.255C103.736 100.148 103.658 100.021 103.611 99.883C103.564 99.745 103.548 99.599 103.565 99.4547C103.596 99.1483 103.745 98.8633 103.983 98.6544C104.222 98.4454 104.533 98.3271 104.857 98.322H108.142C108.295 98.3192 108.446 98.3474 108.587 98.4047C108.727 98.462 108.853 98.5472 108.956 98.6544C109.059 98.7616 109.137 98.8885 109.184 99.0265C109.231 99.1646 109.247 99.3105 109.23 99.4547C109.199 99.7612 109.05 100.046 108.812 100.255C108.574 100.464 108.263 100.582 107.938 100.588Z" fill="#4CCA62"/>
<path d="M207.753 68.8628L206.124 67.137C206.101 67.1146 206.073 67.0968 206.042 67.0847C206.011 67.0726 205.978 67.0664 205.945 67.0664C205.912 67.0664 205.879 67.0726 205.848 67.0847C205.818 67.0968 205.79 67.1146 205.766 67.137L205.029 67.8033C205.006 67.8257 204.978 67.8434 204.947 67.8555C204.916 67.8676 204.883 67.8739 204.85 67.8739C204.817 67.8739 204.784 67.8676 204.753 67.8555C204.723 67.8434 204.695 67.8257 204.671 67.8033L204.053 67.137C204.031 67.1148 204.003 67.0972 203.973 67.0852C203.943 67.0731 203.911 67.067 203.878 67.067C203.845 67.067 203.813 67.0731 203.783 67.0852C203.753 67.0972 203.725 67.1148 203.703 67.137L202.958 67.8033C202.936 67.8255 202.908 67.8431 202.878 67.8551C202.848 67.8671 202.816 67.8733 202.783 67.8733C202.75 67.8733 202.718 67.8671 202.688 67.8551C202.658 67.8431 202.63 67.8255 202.608 67.8033L201.99 67.137C201.966 67.1146 201.938 67.0968 201.908 67.0847C201.877 67.0726 201.844 67.0664 201.811 67.0664C201.778 67.0664 201.745 67.0726 201.714 67.0847C201.683 67.0968 201.655 67.1146 201.632 67.137L200.895 67.8033C200.871 67.8257 200.843 67.8434 200.813 67.8555C200.782 67.8676 200.749 67.8739 200.716 67.8739C200.683 67.8739 200.65 67.8676 200.619 67.8555C200.588 67.8434 200.56 67.8257 200.537 67.8033L199.919 67.137C199.896 67.1146 199.868 67.0968 199.837 67.0847C199.806 67.0726 199.773 67.0664 199.74 67.0664C199.707 67.0664 199.674 67.0726 199.643 67.0847C199.612 67.0968 199.585 67.1146 199.561 67.137L198.824 67.8033C198.801 67.8255 198.774 67.8431 198.744 67.8551C198.714 67.8671 198.681 67.8733 198.649 67.8733C198.616 67.8733 198.584 67.8671 198.553 67.8551C198.523 67.8431 198.496 67.8255 198.473 67.8033L197.855 67.137C197.832 67.1146 197.804 67.0968 197.773 67.0847C197.743 67.0726 197.71 67.0664 197.676 67.0664C197.643 67.0664 197.61 67.0726 197.58 67.0847C197.549 67.0968 197.521 67.1146 197.497 67.137L196.76 67.8033C196.737 67.8257 196.709 67.8434 196.678 67.8555C196.648 67.8676 196.615 67.8739 196.581 67.8739C196.548 67.8739 196.515 67.8676 196.485 67.8555C196.454 67.8434 196.426 67.8257 196.402 67.8033L195.785 67.137C195.761 67.1146 195.733 67.0968 195.703 67.0847C195.672 67.0726 195.639 67.0664 195.606 67.0664C195.573 67.0664 195.54 67.0726 195.509 67.0847C195.478 67.0968 195.45 67.1146 195.427 67.137L194.69 67.8033C194.667 67.8255 194.64 67.8431 194.609 67.8551C194.579 67.8671 194.547 67.8733 194.514 67.8733C194.482 67.8733 194.449 67.8671 194.419 67.8551C194.389 67.8431 194.362 67.8255 194.339 67.8033L193.714 67.137C193.691 67.1148 193.664 67.0972 193.634 67.0852C193.604 67.0731 193.571 67.067 193.539 67.067C193.506 67.067 193.474 67.0731 193.443 67.0852C193.413 67.0972 193.386 67.1148 193.363 67.137L192.661 67.8033C192.638 67.8257 192.61 67.8434 192.579 67.8555C192.548 67.8676 192.515 67.8739 192.482 67.8739C192.449 67.8739 192.416 67.8676 192.385 67.8555C192.355 67.8434 192.327 67.8257 192.303 67.8033L191.685 67.137C191.662 67.1146 191.634 67.0968 191.603 67.0847C191.573 67.0726 191.54 67.0664 191.506 67.0664C191.473 67.0664 191.44 67.0726 191.41 67.0847C191.379 67.0968 191.351 67.1146 191.327 67.137L190.59 67.8033C190.568 67.8255 190.54 67.8431 190.51 67.8551C190.48 67.8671 190.448 67.8733 190.415 67.8733C190.382 67.8733 190.35 67.8671 190.32 67.8551C190.29 67.8431 190.262 67.8255 190.239 67.8033L189.615 67.137C189.592 67.1148 189.565 67.0972 189.534 67.0852C189.504 67.0731 189.472 67.067 189.439 67.067C189.407 67.067 189.374 67.0731 189.344 67.0852C189.314 67.0972 189.287 67.1148 189.264 67.137L188.527 67.8033C188.503 67.8257 188.475 67.8434 188.445 67.8555C188.414 67.8676 188.381 67.8739 188.348 67.8739C188.315 67.8739 188.282 67.8676 188.251 67.8555C188.22 67.8434 188.192 67.8257 188.169 67.8033L187.551 67.137C187.528 67.1146 187.5 67.0968 187.469 67.0847C187.438 67.0726 187.405 67.0664 187.372 67.0664C187.339 67.0664 187.306 67.0726 187.275 67.0847C187.244 67.0968 187.217 67.1146 187.193 67.137L186.456 67.8033C186.433 67.8257 186.405 67.8434 186.374 67.8555C186.343 67.8676 186.31 67.8739 186.277 67.8739C186.244 67.8739 186.211 67.8676 186.18 67.8555C186.149 67.8434 186.122 67.8257 186.098 67.8033L185.48 67.137C185.458 67.1148 185.43 67.0972 185.4 67.0852C185.37 67.0731 185.338 67.067 185.305 67.067C185.272 67.067 185.24 67.0731 185.21 67.0852C185.18 67.0972 185.152 67.1148 185.129 67.137L184.385 67.8033C184.363 67.8255 184.335 67.8431 184.305 67.8551C184.275 67.8671 184.243 67.8733 184.21 67.8733C184.177 67.8733 184.145 67.8671 184.115 67.8551C184.085 67.8431 184.057 67.8255 184.034 67.8033L183.417 67.137C183.393 67.1146 183.365 67.0968 183.335 67.0847C183.304 67.0726 183.271 67.0664 183.238 67.0664C183.204 67.0664 183.172 67.0726 183.141 67.0847C183.11 67.0968 183.082 67.1146 183.059 67.137L181.079 68.8628L177.633 106.232L179.296 107.958C179.32 107.98 179.348 107.998 179.378 108.01C179.409 108.022 179.442 108.028 179.475 108.028C179.509 108.028 179.542 108.022 179.572 108.01C179.603 107.998 179.631 107.98 179.654 107.958L180.391 107.291C180.414 107.269 180.442 107.251 180.472 107.239C180.502 107.227 180.534 107.221 180.567 107.221C180.6 107.221 180.632 107.227 180.662 107.239C180.692 107.251 180.719 107.269 180.742 107.291L181.367 107.958C181.39 107.98 181.417 107.997 181.447 108.009C181.478 108.021 181.51 108.028 181.543 108.028C181.575 108.028 181.608 108.021 181.638 108.009C181.668 107.997 181.695 107.98 181.718 107.958L182.455 107.291C182.479 107.269 182.506 107.251 182.537 107.239C182.568 107.227 182.601 107.221 182.634 107.221C182.667 107.221 182.7 107.227 182.731 107.239C182.762 107.251 182.79 107.269 182.813 107.291L183.431 107.958C183.454 107.98 183.482 107.998 183.513 108.01C183.544 108.022 183.576 108.028 183.61 108.028C183.643 108.028 183.676 108.022 183.707 108.01C183.737 107.998 183.765 107.98 183.789 107.958L184.526 107.291C184.549 107.269 184.576 107.251 184.606 107.239C184.636 107.227 184.669 107.221 184.701 107.221C184.734 107.221 184.766 107.227 184.796 107.239C184.827 107.251 184.854 107.269 184.877 107.291L185.501 107.958C185.524 107.98 185.552 107.997 185.582 108.009C185.612 108.021 185.644 108.028 185.677 108.028C185.71 108.028 185.742 108.021 185.772 108.009C185.802 107.997 185.83 107.98 185.852 107.958L186.589 107.291C186.613 107.269 186.641 107.251 186.672 107.239C186.702 107.227 186.735 107.221 186.768 107.221C186.802 107.221 186.835 107.227 186.865 107.239C186.896 107.251 186.924 107.269 186.947 107.291L187.565 107.958C187.589 107.98 187.616 107.998 187.647 108.01C187.678 108.022 187.711 108.028 187.744 108.028C187.777 108.028 187.81 108.022 187.841 108.01C187.872 107.998 187.9 107.98 187.923 107.958L188.625 107.291C188.649 107.269 188.676 107.251 188.707 107.239C188.738 107.227 188.771 107.221 188.804 107.221C188.837 107.221 188.87 107.227 188.901 107.239C188.932 107.251 188.96 107.269 188.983 107.291L189.601 107.958C189.624 107.98 189.651 107.997 189.681 108.009C189.711 108.021 189.744 108.028 189.776 108.028C189.809 108.028 189.841 108.021 189.871 108.009C189.902 107.997 189.929 107.98 189.952 107.958L190.696 107.291C190.719 107.269 190.746 107.251 190.776 107.239C190.806 107.227 190.839 107.221 190.871 107.221C190.904 107.221 190.936 107.227 190.966 107.239C190.997 107.251 191.024 107.269 191.047 107.291L191.664 107.958C191.688 107.98 191.716 107.998 191.746 108.01C191.777 108.022 191.81 108.028 191.843 108.028C191.877 108.028 191.91 108.022 191.94 108.01C191.971 107.998 191.999 107.98 192.022 107.958L192.759 107.291C192.783 107.269 192.811 107.251 192.841 107.239C192.872 107.227 192.905 107.221 192.938 107.221C192.972 107.221 193.005 107.227 193.035 107.239C193.066 107.251 193.094 107.269 193.117 107.291L193.735 107.958C193.759 107.98 193.786 107.998 193.817 108.01C193.848 108.022 193.881 108.028 193.914 108.028C193.947 108.028 193.98 108.022 194.011 108.01C194.042 107.998 194.07 107.98 194.093 107.958L194.83 107.291C194.853 107.269 194.88 107.251 194.91 107.239C194.941 107.227 194.973 107.221 195.006 107.221C195.038 107.221 195.071 107.227 195.101 107.239C195.131 107.251 195.158 107.269 195.181 107.291L195.799 107.958C195.822 107.98 195.85 107.998 195.881 108.01C195.912 108.022 195.945 108.028 195.978 108.028C196.011 108.028 196.044 108.022 196.075 108.01C196.105 107.998 196.133 107.98 196.157 107.958L196.894 107.291C196.917 107.269 196.945 107.251 196.976 107.239C197.007 107.227 197.04 107.221 197.073 107.221C197.106 107.221 197.139 107.227 197.17 107.239C197.2 107.251 197.228 107.269 197.252 107.291L197.869 107.958C197.893 107.98 197.921 107.998 197.952 108.01C197.982 108.022 198.015 108.028 198.048 108.028C198.082 108.028 198.115 108.022 198.145 108.01C198.176 107.998 198.204 107.98 198.227 107.958L198.964 107.291C198.987 107.269 199.015 107.251 199.045 107.239C199.075 107.227 199.107 107.221 199.14 107.221C199.173 107.221 199.205 107.227 199.235 107.239C199.265 107.251 199.293 107.269 199.315 107.291L199.94 107.958C199.963 107.98 199.99 107.997 200.02 108.009C200.051 108.021 200.083 108.028 200.116 108.028C200.148 108.028 200.181 108.021 200.211 108.009C200.241 107.997 200.268 107.98 200.291 107.958L201.028 107.291C201.052 107.269 201.08 107.251 201.11 107.239C201.141 107.227 201.174 107.221 201.207 107.221C201.24 107.221 201.273 107.227 201.304 107.239C201.335 107.251 201.363 107.269 201.386 107.291L202.004 107.958C202.027 107.98 202.055 107.998 202.086 108.01C202.117 108.022 202.15 108.028 202.183 108.028C202.216 108.028 202.249 108.022 202.28 108.01C202.31 107.998 202.338 107.98 202.362 107.958L204.341 106.232L207.753 68.8628Z" fill="#4CCA62"/>
<path opacity="0.9" d="M207.753 68.8628L206.124 67.137C206.101 67.1146 206.073 67.0968 206.042 67.0847C206.011 67.0726 205.978 67.0664 205.945 67.0664C205.912 67.0664 205.879 67.0726 205.848 67.0847C205.818 67.0968 205.79 67.1146 205.766 67.137L205.029 67.8033C205.006 67.8257 204.978 67.8434 204.947 67.8555C204.916 67.8676 204.883 67.8739 204.85 67.8739C204.817 67.8739 204.784 67.8676 204.753 67.8555C204.723 67.8434 204.695 67.8257 204.671 67.8033L204.053 67.137C204.031 67.1148 204.003 67.0972 203.973 67.0852C203.943 67.0731 203.911 67.067 203.878 67.067C203.845 67.067 203.813 67.0731 203.783 67.0852C203.753 67.0972 203.725 67.1148 203.703 67.137L202.958 67.8033C202.936 67.8255 202.908 67.8431 202.878 67.8551C202.848 67.8671 202.816 67.8733 202.783 67.8733C202.75 67.8733 202.718 67.8671 202.688 67.8551C202.658 67.8431 202.63 67.8255 202.608 67.8033L201.99 67.137C201.966 67.1146 201.938 67.0968 201.908 67.0847C201.877 67.0726 201.844 67.0664 201.811 67.0664C201.778 67.0664 201.745 67.0726 201.714 67.0847C201.683 67.0968 201.655 67.1146 201.632 67.137L200.895 67.8033C200.871 67.8257 200.843 67.8434 200.813 67.8555C200.782 67.8676 200.749 67.8739 200.716 67.8739C200.683 67.8739 200.65 67.8676 200.619 67.8555C200.588 67.8434 200.56 67.8257 200.537 67.8033L199.919 67.137C199.896 67.1146 199.868 67.0968 199.837 67.0847C199.806 67.0726 199.773 67.0664 199.74 67.0664C199.707 67.0664 199.674 67.0726 199.643 67.0847C199.612 67.0968 199.585 67.1146 199.561 67.137L198.824 67.8033C198.801 67.8255 198.774 67.8431 198.744 67.8551C198.714 67.8671 198.681 67.8733 198.649 67.8733C198.616 67.8733 198.584 67.8671 198.553 67.8551C198.523 67.8431 198.496 67.8255 198.473 67.8033L197.855 67.137C197.832 67.1146 197.804 67.0968 197.773 67.0847C197.743 67.0726 197.71 67.0664 197.676 67.0664C197.643 67.0664 197.61 67.0726 197.58 67.0847C197.549 67.0968 197.521 67.1146 197.497 67.137L196.76 67.8033C196.737 67.8257 196.709 67.8434 196.678 67.8555C196.648 67.8676 196.615 67.8739 196.581 67.8739C196.548 67.8739 196.515 67.8676 196.485 67.8555C196.454 67.8434 196.426 67.8257 196.402 67.8033L195.785 67.137C195.761 67.1146 195.733 67.0968 195.703 67.0847C195.672 67.0726 195.639 67.0664 195.606 67.0664C195.573 67.0664 195.54 67.0726 195.509 67.0847C195.478 67.0968 195.45 67.1146 195.427 67.137L194.69 67.8033C194.667 67.8255 194.64 67.8431 194.609 67.8551C194.579 67.8671 194.547 67.8733 194.514 67.8733C194.482 67.8733 194.449 67.8671 194.419 67.8551C194.389 67.8431 194.362 67.8255 194.339 67.8033L193.714 67.137C193.691 67.1148 193.664 67.0972 193.634 67.0852C193.604 67.0731 193.571 67.067 193.539 67.067C193.506 67.067 193.474 67.0731 193.443 67.0852C193.413 67.0972 193.386 67.1148 193.363 67.137L192.661 67.8033C192.638 67.8257 192.61 67.8434 192.579 67.8555C192.548 67.8676 192.515 67.8739 192.482 67.8739C192.449 67.8739 192.416 67.8676 192.385 67.8555C192.355 67.8434 192.327 67.8257 192.303 67.8033L191.685 67.137C191.662 67.1146 191.634 67.0968 191.603 67.0847C191.573 67.0726 191.54 67.0664 191.506 67.0664C191.473 67.0664 191.44 67.0726 191.41 67.0847C191.379 67.0968 191.351 67.1146 191.327 67.137L190.59 67.8033C190.568 67.8255 190.54 67.8431 190.51 67.8551C190.48 67.8671 190.448 67.8733 190.415 67.8733C190.382 67.8733 190.35 67.8671 190.32 67.8551C190.29 67.8431 190.262 67.8255 190.239 67.8033L189.615 67.137C189.592 67.1148 189.565 67.0972 189.534 67.0852C189.504 67.0731 189.472 67.067 189.439 67.067C189.407 67.067 189.374 67.0731 189.344 67.0852C189.314 67.0972 189.287 67.1148 189.264 67.137L188.527 67.8033C188.503 67.8257 188.475 67.8434 188.445 67.8555C188.414 67.8676 188.381 67.8739 188.348 67.8739C188.315 67.8739 188.282 67.8676 188.251 67.8555C188.22 67.8434 188.192 67.8257 188.169 67.8033L187.551 67.137C187.528 67.1146 187.5 67.0968 187.469 67.0847C187.438 67.0726 187.405 67.0664 187.372 67.0664C187.339 67.0664 187.306 67.0726 187.275 67.0847C187.244 67.0968 187.217 67.1146 187.193 67.137L186.456 67.8033C186.433 67.8257 186.405 67.8434 186.374 67.8555C186.343 67.8676 186.31 67.8739 186.277 67.8739C186.244 67.8739 186.211 67.8676 186.18 67.8555C186.149 67.8434 186.122 67.8257 186.098 67.8033L185.48 67.137C185.458 67.1148 185.43 67.0972 185.4 67.0852C185.37 67.0731 185.338 67.067 185.305 67.067C185.272 67.067 185.24 67.0731 185.21 67.0852C185.18 67.0972 185.152 67.1148 185.129 67.137L184.385 67.8033C184.363 67.8255 184.335 67.8431 184.305 67.8551C184.275 67.8671 184.243 67.8733 184.21 67.8733C184.177 67.8733 184.145 67.8671 184.115 67.8551C184.085 67.8431 184.057 67.8255 184.034 67.8033L183.417 67.137C183.393 67.1146 183.365 67.0968 183.335 67.0847C183.304 67.0726 183.271 67.0664 183.238 67.0664C183.204 67.0664 183.172 67.0726 183.141 67.0847C183.11 67.0968 183.082 67.1146 183.059 67.137L181.079 68.8628L177.633 106.232L179.296 107.958C179.32 107.98 179.348 107.998 179.378 108.01C179.409 108.022 179.442 108.028 179.475 108.028C179.509 108.028 179.542 108.022 179.572 108.01C179.603 107.998 179.631 107.98 179.654 107.958L180.391 107.291C180.414 107.269 180.442 107.251 180.472 107.239C180.502 107.227 180.534 107.221 180.567 107.221C180.6 107.221 180.632 107.227 180.662 107.239C180.692 107.251 180.719 107.269 180.742 107.291L181.367 107.958C181.39 107.98 181.417 107.997 181.447 108.009C181.478 108.021 181.51 108.028 181.543 108.028C181.575 108.028 181.608 108.021 181.638 108.009C181.668 107.997 181.695 107.98 181.718 107.958L182.455 107.291C182.479 107.269 182.506 107.251 182.537 107.239C182.568 107.227 182.601 107.221 182.634 107.221C182.667 107.221 182.7 107.227 182.731 107.239C182.762 107.251 182.79 107.269 182.813 107.291L183.431 107.958C183.454 107.98 183.482 107.998 183.513 108.01C183.544 108.022 183.576 108.028 183.61 108.028C183.643 108.028 183.676 108.022 183.707 108.01C183.737 107.998 183.765 107.98 183.789 107.958L184.526 107.291C184.549 107.269 184.576 107.251 184.606 107.239C184.636 107.227 184.669 107.221 184.701 107.221C184.734 107.221 184.766 107.227 184.796 107.239C184.827 107.251 184.854 107.269 184.877 107.291L185.501 107.958C185.524 107.98 185.552 107.997 185.582 108.009C185.612 108.021 185.644 108.028 185.677 108.028C185.71 108.028 185.742 108.021 185.772 108.009C185.802 107.997 185.83 107.98 185.852 107.958L186.589 107.291C186.613 107.269 186.641 107.251 186.672 107.239C186.702 107.227 186.735 107.221 186.768 107.221C186.802 107.221 186.835 107.227 186.865 107.239C186.896 107.251 186.924 107.269 186.947 107.291L187.565 107.958C187.589 107.98 187.616 107.998 187.647 108.01C187.678 108.022 187.711 108.028 187.744 108.028C187.777 108.028 187.81 108.022 187.841 108.01C187.872 107.998 187.9 107.98 187.923 107.958L188.625 107.291C188.649 107.269 188.676 107.251 188.707 107.239C188.738 107.227 188.771 107.221 188.804 107.221C188.837 107.221 188.87 107.227 188.901 107.239C188.932 107.251 188.96 107.269 188.983 107.291L189.601 107.958C189.624 107.98 189.651 107.997 189.681 108.009C189.711 108.021 189.744 108.028 189.776 108.028C189.809 108.028 189.841 108.021 189.871 108.009C189.902 107.997 189.929 107.98 189.952 107.958L190.696 107.291C190.719 107.269 190.746 107.251 190.776 107.239C190.806 107.227 190.839 107.221 190.871 107.221C190.904 107.221 190.936 107.227 190.966 107.239C190.997 107.251 191.024 107.269 191.047 107.291L191.664 107.958C191.688 107.98 191.716 107.998 191.746 108.01C191.777 108.022 191.81 108.028 191.843 108.028C191.877 108.028 191.91 108.022 191.94 108.01C191.971 107.998 191.999 107.98 192.022 107.958L192.759 107.291C192.783 107.269 192.811 107.251 192.841 107.239C192.872 107.227 192.905 107.221 192.938 107.221C192.972 107.221 193.005 107.227 193.035 107.239C193.066 107.251 193.094 107.269 193.117 107.291L193.735 107.958C193.759 107.98 193.786 107.998 193.817 108.01C193.848 108.022 193.881 108.028 193.914 108.028C193.947 108.028 193.98 108.022 194.011 108.01C194.042 107.998 194.07 107.98 194.093 107.958L194.83 107.291C194.853 107.269 194.88 107.251 194.91 107.239C194.941 107.227 194.973 107.221 195.006 107.221C195.038 107.221 195.071 107.227 195.101 107.239C195.131 107.251 195.158 107.269 195.181 107.291L195.799 107.958C195.822 107.98 195.85 107.998 195.881 108.01C195.912 108.022 195.945 108.028 195.978 108.028C196.011 108.028 196.044 108.022 196.075 108.01C196.105 107.998 196.133 107.98 196.157 107.958L196.894 107.291C196.917 107.269 196.945 107.251 196.976 107.239C197.007 107.227 197.04 107.221 197.073 107.221C197.106 107.221 197.139 107.227 197.17 107.239C197.2 107.251 197.228 107.269 197.252 107.291L197.869 107.958C197.893 107.98 197.921 107.998 197.952 108.01C197.982 108.022 198.015 108.028 198.048 108.028C198.082 108.028 198.115 108.022 198.145 108.01C198.176 107.998 198.204 107.98 198.227 107.958L198.964 107.291C198.987 107.269 199.015 107.251 199.045 107.239C199.075 107.227 199.107 107.221 199.14 107.221C199.173 107.221 199.205 107.227 199.235 107.239C199.265 107.251 199.293 107.269 199.315 107.291L199.94 107.958C199.963 107.98 199.99 107.997 200.02 108.009C200.051 108.021 200.083 108.028 200.116 108.028C200.148 108.028 200.181 108.021 200.211 108.009C200.241 107.997 200.268 107.98 200.291 107.958L201.028 107.291C201.052 107.269 201.08 107.251 201.11 107.239C201.141 107.227 201.174 107.221 201.207 107.221C201.24 107.221 201.273 107.227 201.304 107.239C201.335 107.251 201.363 107.269 201.386 107.291L202.004 107.958C202.027 107.98 202.055 107.998 202.086 108.01C202.117 108.022 202.15 108.028 202.183 108.028C202.216 108.028 202.249 108.022 202.28 108.01C202.31 107.998 202.338 107.98 202.362 107.958L204.341 106.232L207.753 68.8628Z" fill="white"/>
<path d="M190.64 73.4529H185.291C185.131 73.4547 184.971 73.4242 184.824 73.3634C184.677 73.3027 184.545 73.213 184.437 73.1003C184.329 72.9877 184.247 72.8545 184.197 72.7097C184.147 72.5649 184.13 72.4117 184.147 72.2602C184.184 71.9384 184.344 71.6405 184.596 71.4222C184.848 71.204 185.175 71.0802 185.516 71.0741H190.857C191.018 71.0702 191.177 71.0991 191.325 71.1588C191.473 71.2184 191.605 71.3075 191.714 71.4199C191.822 71.5323 191.904 71.6654 191.954 71.8104C192.003 71.9553 192.02 72.1087 192.001 72.2602C191.966 72.5821 191.808 72.8806 191.557 73.1001C191.307 73.3196 190.981 73.445 190.64 73.4529Z" fill="#263238"/>
<path d="M202.614 73.4527H201.21C201.049 73.4555 200.889 73.4257 200.742 73.3653C200.594 73.3049 200.461 73.2153 200.353 73.1023C200.245 72.9894 200.163 72.8559 200.114 72.7106C200.064 72.5653 200.048 72.4117 200.066 72.2599C200.103 71.9392 200.262 71.6422 200.512 71.4241C200.762 71.206 201.088 71.0815 201.427 71.0738H202.831C202.991 71.0721 203.15 71.1024 203.296 71.1628C203.443 71.2232 203.575 71.3123 203.683 71.4242C203.79 71.5361 203.872 71.6684 203.923 71.8124C203.973 71.9564 203.991 72.1089 203.975 72.2599C203.94 72.5818 203.782 72.8803 203.531 73.0998C203.281 73.3193 202.955 73.4447 202.614 73.4527Z" fill="#263238"/>
<path d="M192.845 77.878H184.885C184.724 77.8797 184.565 77.8492 184.418 77.7885C184.271 77.7277 184.139 77.638 184.031 77.5254C183.923 77.4127 183.841 77.2796 183.791 77.1348C183.741 76.99 183.724 76.8367 183.741 76.6852C183.778 76.3634 183.938 76.0655 184.19 75.8473C184.441 75.629 184.768 75.5052 185.109 75.4991H193.069C193.229 75.4974 193.388 75.5277 193.534 75.5881C193.681 75.6485 193.813 75.7376 193.921 75.8495C194.029 75.9614 194.11 76.0937 194.161 76.2377C194.211 76.3817 194.229 76.5342 194.213 76.6852C194.178 77.0082 194.019 77.3077 193.767 77.5273C193.515 77.7469 193.187 77.8716 192.845 77.878Z" fill="#263238"/>
<path d="M202.222 77.878H200.818C200.658 77.8797 200.499 77.8492 200.352 77.7885C200.204 77.7277 200.072 77.638 199.964 77.5254C199.856 77.4127 199.775 77.2796 199.725 77.1348C199.675 76.99 199.657 76.8367 199.674 76.6852C199.712 76.3634 199.871 76.0655 200.123 75.8473C200.375 75.629 200.702 75.5052 201.043 75.4991H202.447C202.607 75.4974 202.765 75.5277 202.912 75.5881C203.059 75.6485 203.19 75.7376 203.298 75.8495C203.406 75.9614 203.488 76.0937 203.538 76.2377C203.589 76.3817 203.607 76.5342 203.591 76.6852C203.555 77.0082 203.396 77.3077 203.144 77.5273C202.892 77.7469 202.564 77.8716 202.222 77.878Z" fill="#263238"/>
<path d="M189.817 82.3028H184.476C184.315 82.3066 184.156 82.2777 184.008 82.2181C183.86 82.1584 183.727 82.0694 183.619 81.957C183.511 81.8446 183.429 81.7114 183.379 81.5664C183.33 81.4215 183.313 81.2681 183.331 81.1167C183.367 80.7948 183.525 80.4962 183.776 80.2767C184.026 80.0572 184.352 79.9318 184.693 79.9239H190.042C190.202 79.9221 190.361 79.9526 190.509 80.0134C190.656 80.0742 190.788 80.1638 190.896 80.2765C191.004 80.3892 191.086 80.5223 191.136 80.6671C191.186 80.8119 191.203 80.9651 191.186 81.1167C191.149 81.4385 190.989 81.7363 190.737 81.9546C190.485 82.1729 190.158 82.2966 189.817 82.3028Z" fill="#263238"/>
<path d="M201.815 82.3028H200.411C200.252 82.3045 200.093 82.2741 199.946 82.2137C199.8 82.1534 199.668 82.0643 199.56 81.9524C199.452 81.8405 199.37 81.7082 199.32 81.5642C199.269 81.4202 199.251 81.2677 199.267 81.1167C199.304 80.788 199.468 80.4839 199.727 80.2635C199.987 80.0431 200.323 79.9221 200.671 79.9239H202.075C202.236 79.9221 202.395 79.9526 202.542 80.0134C202.689 80.0742 202.821 80.1638 202.929 80.2765C203.037 80.3892 203.119 80.5223 203.169 80.6671C203.219 80.8119 203.236 80.9651 203.219 81.1167C203.181 81.4441 203.016 81.7466 202.757 81.9656C202.498 82.1847 202.162 82.3048 201.815 82.3028Z" fill="#263238"/>
<path d="M190.724 86.7277H184.069C183.909 86.7315 183.749 86.7026 183.602 86.643C183.454 86.5833 183.321 86.4943 183.213 86.3819C183.104 86.2695 183.023 86.1363 182.973 85.9914C182.923 85.8464 182.907 85.693 182.925 85.5416C182.961 85.2197 183.119 84.9211 183.369 84.7017C183.62 84.4822 183.946 84.3568 184.287 84.3488H190.941C191.102 84.346 191.262 84.3757 191.409 84.4362C191.557 84.4966 191.69 84.5862 191.798 84.6991C191.906 84.812 191.988 84.9456 192.037 85.0909C192.087 85.2362 192.103 85.3898 192.085 85.5416C192.048 85.8623 191.889 86.1592 191.639 86.3774C191.389 86.5955 191.063 86.72 190.724 86.7277Z" fill="#263238"/>
<path d="M201.407 86.7277H200.003C199.843 86.7294 199.685 86.699 199.538 86.6387C199.392 86.5783 199.26 86.4892 199.152 86.3773C199.044 86.2654 198.962 86.1331 198.912 85.9891C198.861 85.8451 198.843 85.6926 198.859 85.5416C198.895 85.2197 199.053 84.9211 199.303 84.7017C199.554 84.4822 199.88 84.3568 200.221 84.3488H201.625C201.786 84.346 201.945 84.3757 202.093 84.4362C202.241 84.4966 202.373 84.5862 202.481 84.6991C202.59 84.812 202.671 84.9456 202.721 85.0909C202.771 85.2362 202.787 85.3898 202.769 85.5416C202.732 85.8623 202.573 86.1592 202.323 86.3774C202.072 86.5955 201.747 86.72 201.407 86.7277Z" fill="#263238"/>
<path d="M192.927 91.1504H183.661C183.501 91.1543 183.341 91.1254 183.193 91.0657C183.046 91.0061 182.913 90.917 182.805 90.8046C182.696 90.6922 182.614 90.5591 182.565 90.4141C182.515 90.2691 182.499 90.1158 182.517 89.9643C182.553 89.6424 182.711 89.3439 182.961 89.1244C183.212 88.9049 183.538 88.7795 183.879 88.7716H193.151C193.312 88.7698 193.471 88.8003 193.618 88.861C193.765 88.9218 193.897 89.0115 194.005 89.1242C194.113 89.2368 194.195 89.3699 194.245 89.5148C194.295 89.6596 194.312 89.8128 194.295 89.9643C194.258 90.2861 194.098 90.584 193.846 90.8022C193.595 91.0205 193.268 91.1443 192.927 91.1504Z" fill="#263238"/>
<path d="M201 91.1505H199.597C199.436 91.1544 199.277 91.1255 199.129 91.0658C198.981 91.0062 198.849 90.9172 198.74 90.8047C198.632 90.6923 198.55 90.5592 198.5 90.4142C198.451 90.2693 198.434 90.1159 198.452 89.9644C198.488 89.6425 198.646 89.344 198.897 89.1245C199.147 88.905 199.473 88.7796 199.814 88.7717H201.218C201.379 88.7688 201.539 88.7986 201.686 88.859C201.834 88.9194 201.967 89.0091 202.075 89.122C202.183 89.2349 202.265 89.3685 202.314 89.5137C202.364 89.659 202.38 89.8127 202.362 89.9644C202.325 90.2851 202.166 90.5821 201.916 90.8002C201.666 91.0183 201.34 91.1428 201 91.1505Z" fill="#263238"/>
<path d="M189.907 95.5824H183.253C183.092 95.5852 182.932 95.5555 182.785 95.4951C182.637 95.4346 182.504 95.345 182.396 95.2321C182.288 95.1191 182.206 94.9856 182.157 94.8403C182.107 94.695 182.091 94.5414 182.109 94.3896C182.144 94.0677 182.302 93.7692 182.553 93.5497C182.803 93.3302 183.13 93.2048 183.47 93.1969H190.125C190.285 93.1951 190.444 93.2256 190.592 93.2863C190.739 93.3471 190.871 93.4368 190.979 93.5495C191.087 93.6621 191.169 93.7952 191.219 93.9401C191.269 94.0849 191.286 94.2381 191.269 94.3896C191.233 94.7115 191.075 95.0101 190.825 95.2296C190.574 95.449 190.248 95.5744 189.907 95.5824Z" fill="#263238"/>
<path d="M198.874 99.7532H182.87C182.709 99.7561 182.55 99.7263 182.402 99.6659C182.254 99.6055 182.122 99.5158 182.013 99.4029C181.905 99.29 181.823 99.1564 181.774 99.0112C181.724 98.8659 181.708 98.7122 181.726 98.5605C181.763 98.2398 181.922 97.9428 182.172 97.7247C182.423 97.5066 182.748 97.3821 183.088 97.3744H199.106C199.266 97.3705 199.426 97.3994 199.573 97.4591C199.721 97.5187 199.854 97.6078 199.962 97.7202C200.071 97.8326 200.152 97.9657 200.202 98.1107C200.252 98.2557 200.268 98.409 200.25 98.5605C200.214 98.8846 200.054 99.185 199.8 99.4048C199.547 99.6245 199.217 99.7485 198.874 99.7532Z" fill="#263238"/>
<path d="M200.592 95.5825H199.188C199.028 95.5853 198.868 95.5556 198.72 95.4952C198.572 95.4348 198.44 95.3451 198.332 95.2322C198.223 95.1193 198.142 94.9857 198.092 94.8404C198.043 94.6951 198.026 94.5415 198.044 94.3897C198.08 94.0678 198.238 93.7693 198.488 93.5498C198.739 93.3303 199.065 93.2049 199.406 93.197H200.81C200.971 93.1941 201.13 93.2239 201.278 93.2843C201.426 93.3447 201.558 93.4344 201.667 93.5473C201.775 93.6602 201.857 93.7938 201.906 93.939C201.956 94.0843 201.972 94.238 201.954 94.3897C201.918 94.7116 201.76 95.0102 201.51 95.2297C201.259 95.4492 200.933 95.5746 200.592 95.5825Z" fill="#263238"/>
<path d="M199.805 103.952H198.401C198.241 103.956 198.081 103.927 197.934 103.867C197.786 103.807 197.653 103.718 197.545 103.606C197.436 103.494 197.355 103.36 197.305 103.215C197.255 103.071 197.239 102.917 197.257 102.766C197.293 102.444 197.451 102.145 197.701 101.926C197.952 101.706 198.278 101.581 198.619 101.573H200.023C200.184 101.57 200.343 101.6 200.491 101.66C200.639 101.721 200.771 101.81 200.88 101.923C200.988 102.036 201.07 102.17 201.119 102.315C201.169 102.46 201.185 102.614 201.167 102.766C201.13 103.086 200.971 103.383 200.721 103.601C200.47 103.82 200.145 103.944 199.805 103.952Z" fill="#263238"/>
<g opacity="0.3">
<path opacity="0.3" d="M190.64 73.4534H185.291C185.131 73.4552 184.971 73.4247 184.824 73.3639C184.677 73.3032 184.545 73.2135 184.437 73.1008C184.329 72.9881 184.247 72.855 184.197 72.7102C184.147 72.5654 184.13 72.4122 184.147 72.2607C184.184 71.9389 184.344 71.641 184.596 71.4227C184.848 71.2045 185.175 71.0807 185.516 71.0746H190.857C191.018 71.0707 191.177 71.0996 191.325 71.1593C191.473 71.2189 191.605 71.3079 191.714 71.4203C191.822 71.5328 191.904 71.6659 191.954 71.8109C192.003 71.9558 192.02 72.1092 192.002 72.2607C191.966 72.5825 191.808 72.8811 191.557 73.1006C191.307 73.3201 190.981 73.4455 190.64 73.4534Z" fill="white"/>
<path opacity="0.3" d="M202.616 73.4532H201.212C201.051 73.456 200.891 73.4262 200.744 73.3658C200.596 73.3054 200.463 73.2157 200.355 73.1028C200.247 72.9899 200.165 72.8564 200.116 72.7111C200.066 72.5658 200.05 72.4121 200.068 72.2604C200.105 71.9397 200.264 71.6427 200.514 71.4246C200.764 71.2065 201.09 71.082 201.429 71.0743H202.833C202.993 71.0726 203.152 71.1029 203.298 71.1633C203.445 71.2237 203.577 71.3127 203.684 71.4247C203.792 71.5366 203.874 71.6689 203.925 71.8129C203.975 71.9569 203.993 72.1094 203.977 72.2604C203.942 72.5823 203.784 72.8808 203.533 73.1003C203.283 73.3198 202.957 73.4452 202.616 73.4532Z" fill="white"/>
<path opacity="0.3" d="M192.845 77.878H184.885C184.724 77.8797 184.565 77.8492 184.418 77.7885C184.271 77.7277 184.139 77.638 184.031 77.5254C183.923 77.4127 183.841 77.2796 183.791 77.1348C183.741 76.99 183.724 76.8367 183.741 76.6852C183.778 76.3634 183.938 76.0655 184.19 75.8473C184.441 75.629 184.768 75.5052 185.109 75.4991H193.069C193.229 75.4974 193.388 75.5277 193.534 75.5881C193.681 75.6485 193.813 75.7376 193.921 75.8495C194.029 75.9614 194.11 76.0937 194.161 76.2377C194.211 76.3817 194.229 76.5342 194.213 76.6852C194.178 77.0082 194.019 77.3077 193.767 77.5273C193.515 77.7469 193.187 77.8716 192.845 77.878Z" fill="white"/>
<path opacity="0.3" d="M202.222 77.878H200.818C200.658 77.8797 200.499 77.8492 200.352 77.7885C200.204 77.7277 200.072 77.638 199.964 77.5254C199.856 77.4127 199.775 77.2796 199.725 77.1348C199.675 76.99 199.657 76.8367 199.674 76.6852C199.712 76.3634 199.871 76.0655 200.123 75.8473C200.375 75.629 200.702 75.5052 201.043 75.4991H202.447C202.607 75.4974 202.765 75.5277 202.912 75.5881C203.059 75.6485 203.19 75.7376 203.298 75.8495C203.406 75.9614 203.488 76.0937 203.538 76.2377C203.589 76.3817 203.607 76.5342 203.591 76.6852C203.555 77.0082 203.396 77.3077 203.144 77.5273C202.892 77.7469 202.564 77.8716 202.222 77.878Z" fill="white"/>
<path opacity="0.3" d="M189.819 82.3033H184.477C184.317 82.3071 184.157 82.2782 184.01 82.2186C183.862 82.1589 183.729 82.0699 183.621 81.9575C183.513 81.8451 183.431 81.7119 183.381 81.5669C183.332 81.422 183.315 81.2686 183.333 81.1172C183.369 80.7953 183.527 80.4967 183.777 80.2772C184.028 80.0577 184.354 79.9323 184.695 79.9244H190.044C190.204 79.9226 190.363 79.9531 190.511 80.0139C190.658 80.0746 190.79 80.1643 190.898 80.277C191.006 80.3897 191.088 80.5228 191.138 80.6676C191.188 80.8124 191.205 80.9656 191.188 81.1172C191.151 81.439 190.991 81.7368 190.739 81.9551C190.487 82.1734 190.16 82.2971 189.819 82.3033Z" fill="white"/>
<path opacity="0.3" d="M201.815 82.3033H200.411C200.252 82.3049 200.093 82.2746 199.946 82.2142C199.8 82.1539 199.668 82.0648 199.56 81.9529C199.452 81.8409 199.37 81.7087 199.32 81.5647C199.269 81.4207 199.251 81.2682 199.267 81.1172C199.304 80.7885 199.468 80.4844 199.727 80.264C199.987 80.0436 200.323 79.9226 200.671 79.9244H202.075C202.236 79.9226 202.395 79.9531 202.542 80.0139C202.689 80.0747 202.821 80.1643 202.929 80.277C203.037 80.3897 203.119 80.5228 203.169 80.6676C203.219 80.8124 203.236 80.9656 203.219 81.1172C203.181 81.4446 203.016 81.7471 202.757 81.9661C202.498 82.1851 202.162 82.3053 201.815 82.3033Z" fill="white"/>
<path opacity="0.3" d="M190.724 86.7282H184.069C183.909 86.732 183.749 86.7031 183.602 86.6435C183.454 86.5838 183.321 86.4948 183.213 86.3824C183.104 86.27 183.023 86.1368 182.973 85.9919C182.923 85.8469 182.907 85.6935 182.925 85.5421C182.961 85.2202 183.119 84.9216 183.369 84.7021C183.62 84.4827 183.946 84.3572 184.287 84.3493H190.941C191.102 84.3465 191.262 84.3762 191.409 84.4366C191.557 84.4971 191.69 84.5867 191.798 84.6996C191.906 84.8125 191.988 84.9461 192.037 85.0914C192.087 85.2367 192.103 85.3903 192.085 85.5421C192.048 85.8628 191.889 86.1597 191.639 86.3779C191.389 86.596 191.063 86.7204 190.724 86.7282Z" fill="white"/>
<path opacity="0.3" d="M201.409 86.7282H200.005C199.845 86.7299 199.687 86.6995 199.54 86.6391C199.394 86.5788 199.262 86.4897 199.154 86.3778C199.046 86.2659 198.964 86.1336 198.914 85.9896C198.863 85.8456 198.845 85.6931 198.861 85.5421C198.897 85.2202 199.055 84.9216 199.305 84.7021C199.556 84.4827 199.882 84.3572 200.223 84.3493H201.627C201.787 84.3465 201.947 84.3762 202.095 84.4366C202.243 84.4971 202.375 84.5867 202.483 84.6996C202.592 84.8125 202.673 84.9461 202.723 85.0914C202.773 85.2367 202.789 85.3903 202.771 85.5421C202.734 85.8628 202.575 86.1597 202.325 86.3778C202.074 86.596 201.749 86.7204 201.409 86.7282Z" fill="white"/>
<path opacity="0.3" d="M192.929 91.1509H183.663C183.503 91.1547 183.343 91.1259 183.195 91.0662C183.048 91.0066 182.915 90.9175 182.807 90.8051C182.698 90.6927 182.616 90.5595 182.567 90.4146C182.517 90.2696 182.501 90.1163 182.519 89.9648C182.555 89.6429 182.712 89.3444 182.963 89.1249C183.214 88.9054 183.54 88.78 183.881 88.772H193.153C193.314 88.7703 193.473 88.8008 193.62 88.8615C193.767 88.9223 193.899 89.012 194.007 89.1247C194.115 89.2373 194.197 89.3704 194.247 89.5152C194.297 89.6601 194.314 89.8133 194.297 89.9648C194.26 90.2866 194.1 90.5845 193.848 90.8027C193.597 91.021 193.27 91.1448 192.929 91.1509Z" fill="white"/>
<path opacity="0.3" d="M201 91.151H199.597C199.436 91.1549 199.277 91.126 199.129 91.0663C198.981 91.0067 198.849 90.9176 198.74 90.8052C198.632 90.6928 198.55 90.5597 198.5 90.4147C198.451 90.2697 198.434 90.1164 198.452 89.9649C198.488 89.643 198.646 89.3445 198.897 89.125C199.147 88.9055 199.473 88.7801 199.814 88.7722H201.218C201.379 88.7693 201.539 88.7991 201.686 88.8595C201.834 88.9199 201.967 89.0096 202.075 89.1225C202.183 89.2354 202.265 89.3689 202.314 89.5142C202.364 89.6595 202.38 89.8132 202.362 89.9649C202.325 90.2856 202.166 90.5826 201.916 90.8007C201.666 91.0188 201.34 91.1433 201 91.151Z" fill="white"/>
<path opacity="0.3" d="M189.911 95.5824H183.257C183.096 95.5852 182.936 95.5555 182.789 95.4951C182.641 95.4346 182.508 95.345 182.4 95.2321C182.292 95.1191 182.21 94.9856 182.16 94.8403C182.111 94.695 182.095 94.5414 182.113 94.3896C182.148 94.0677 182.306 93.7692 182.557 93.5497C182.807 93.3302 183.133 93.2048 183.474 93.1969H190.129C190.289 93.1951 190.448 93.2256 190.595 93.2863C190.743 93.3471 190.875 93.4368 190.983 93.5495C191.091 93.6621 191.172 93.7952 191.222 93.9401C191.272 94.0849 191.29 94.2381 191.273 94.3896C191.237 94.7115 191.079 95.0101 190.829 95.2296C190.578 95.449 190.252 95.5744 189.911 95.5824Z" fill="white"/>
<path opacity="0.3" d="M198.874 99.7552H182.87C182.709 99.7581 182.55 99.7283 182.402 99.6679C182.254 99.6075 182.122 99.5178 182.013 99.4049C181.905 99.292 181.823 99.1584 181.774 99.0131C181.724 98.8678 181.708 98.7142 181.726 98.5624C181.763 98.2417 181.922 97.9448 182.172 97.7267C182.423 97.5085 182.748 97.384 183.088 97.3763H199.106C199.266 97.3725 199.426 97.4014 199.573 97.461C199.721 97.5207 199.854 97.6097 199.962 97.7221C200.071 97.8345 200.152 97.9677 200.202 98.1127C200.252 98.2576 200.268 98.411 200.25 98.5624C200.214 98.8865 200.054 99.1869 199.8 99.4067C199.547 99.6265 199.217 99.7505 198.874 99.7552Z" fill="white"/>
<path opacity="0.3" d="M200.594 95.5825H199.19C199.029 95.5853 198.87 95.5556 198.722 95.4952C198.574 95.4348 198.442 95.3451 198.334 95.2322C198.225 95.1193 198.144 94.9857 198.094 94.8404C198.044 94.6951 198.028 94.5415 198.046 94.3897C198.082 94.0678 198.24 93.7693 198.49 93.5498C198.741 93.3303 199.067 93.2049 199.408 93.197H200.812C200.973 93.1941 201.132 93.2239 201.28 93.2843C201.428 93.3447 201.56 93.4344 201.669 93.5473C201.777 93.6602 201.859 93.7938 201.908 93.939C201.958 94.0843 201.974 94.238 201.956 94.3897C201.92 94.7116 201.762 95.0102 201.512 95.2297C201.261 95.4492 200.935 95.5746 200.594 95.5825Z" fill="white"/>
<path opacity="0.3" d="M199.809 103.952H198.405C198.245 103.956 198.085 103.927 197.937 103.867C197.79 103.807 197.657 103.718 197.549 103.606C197.44 103.494 197.359 103.36 197.309 103.215C197.259 103.071 197.243 102.917 197.261 102.766C197.297 102.444 197.455 102.145 197.705 101.926C197.956 101.706 198.282 101.581 198.623 101.573H200.027C200.188 101.57 200.347 101.6 200.495 101.66C200.643 101.721 200.775 101.81 200.883 101.923C200.992 102.036 201.073 102.17 201.123 102.315C201.173 102.46 201.189 102.614 201.171 102.766C201.134 103.086 200.975 103.383 200.725 103.601C200.474 103.82 200.149 103.944 199.809 103.952Z" fill="white"/>
</g>
<path d="M236.445 0.0296255H231.193L227.062 44.852H232.315C233.134 44.838 233.919 44.5398 234.522 44.0136C235.125 43.4875 235.504 42.77 235.588 41.9965L239.196 2.85553C239.232 2.49404 239.187 2.12935 239.065 1.7853C238.943 1.44125 238.745 1.12557 238.486 0.858882C238.226 0.592189 237.91 0.380486 237.558 0.237594C237.207 0.0947026 236.827 0.0238322 236.445 0.0296255Z" fill="#455A64"/>
<path d="M230.864 44.8524H201.766C201.381 44.8586 200.998 44.7871 200.644 44.6424C200.29 44.4978 199.973 44.2833 199.713 44.0133C199.453 43.7433 199.256 43.4239 199.136 43.0763C199.015 42.7286 198.974 42.3607 199.015 41.9969L202.623 2.85589C202.707 2.08245 203.086 1.36489 203.689 0.838771C204.292 0.312651 205.077 0.0144072 205.896 0.000393837H234.994C235.379 -0.0060011 235.761 0.0655475 236.115 0.21027C236.469 0.354993 236.786 0.569575 237.045 0.83973C237.305 1.10988 237.501 1.42942 237.62 1.77706C237.739 2.1247 237.779 2.49246 237.737 2.85589L234.137 41.9673C234.06 42.746 233.684 43.4708 233.081 44.003C232.477 44.5352 231.688 44.8376 230.864 44.8524Z" fill="#455A64"/>
<path opacity="0.2" d="M230.864 44.8524H201.766C201.381 44.8586 200.998 44.7871 200.644 44.6424C200.29 44.4978 199.973 44.2833 199.713 44.0133C199.453 43.7433 199.256 43.4239 199.136 43.0763C199.015 42.7286 198.974 42.3607 199.015 41.9969L202.623 2.85589C202.707 2.08245 203.086 1.36489 203.689 0.838771C204.292 0.312651 205.077 0.0144072 205.896 0.000393837H234.994C235.379 -0.0060011 235.761 0.0655475 236.115 0.21027C236.469 0.354993 236.786 0.569575 237.045 0.83973C237.305 1.10988 237.501 1.42942 237.62 1.77706C237.739 2.1247 237.779 2.49246 237.737 2.85589L234.137 41.9673C234.06 42.746 233.684 43.4708 233.081 44.003C232.477 44.5352 231.688 44.8376 230.864 44.8524Z" fill="white"/>
<path d="M233.227 12.2659H205.625L206.272 5.20117H233.873L233.227 12.2659Z" fill="#263238"/>
<path d="M233.14 18.7448C233.073 19.3678 232.768 19.9459 232.283 20.3699C231.798 20.7938 231.165 21.0342 230.506 21.0455C230.196 21.0505 229.888 20.9927 229.604 20.8759C229.319 20.7592 229.064 20.5862 228.855 20.3685C228.647 20.1508 228.489 19.8934 228.394 19.6134C228.298 19.3335 228.266 19.0373 228.301 18.7448C228.367 18.1219 228.672 17.5437 229.157 17.1197C229.643 16.6958 230.275 16.4554 230.934 16.4441C231.244 16.4392 231.552 16.497 231.837 16.6137C232.121 16.7305 232.376 16.9034 232.585 17.1211C232.794 17.3388 232.951 17.5962 233.047 17.8762C233.142 18.1562 233.174 18.4523 233.14 18.7448Z" fill="white"/>
<path d="M232.485 25.8924C232.416 26.5147 232.111 27.092 231.626 27.5156C231.141 27.9393 230.51 28.1802 229.851 28.1931C229.54 28.1979 229.233 28.1401 228.948 28.0234C228.663 27.9067 228.407 27.7339 228.198 27.5164C227.988 27.2988 227.83 27.0415 227.734 26.7616C227.637 26.4816 227.604 26.1853 227.638 25.8924C227.704 25.2695 228.009 24.6913 228.494 24.2673C228.98 23.8434 229.612 23.603 230.271 23.5917C230.582 23.5857 230.891 23.6427 231.176 23.759C231.462 23.8753 231.718 24.0481 231.927 24.2659C232.137 24.4837 232.295 24.7415 232.391 25.022C232.487 25.3025 232.519 25.5993 232.485 25.8924Z" fill="white"/>
<path d="M231.823 33.0378C231.754 33.6594 231.449 34.2358 230.963 34.6582C230.478 35.0807 229.847 35.32 229.189 35.331C228.879 35.3359 228.573 35.2783 228.288 35.162C228.004 35.0457 227.75 34.8734 227.541 34.6565C227.333 34.4397 227.175 34.1832 227.079 33.9041C226.983 33.625 226.95 33.3297 226.983 33.0378C227.05 32.4148 227.355 31.8367 227.84 31.4127C228.325 30.9888 228.958 30.7484 229.617 30.7371C229.927 30.7321 230.235 30.7899 230.519 30.9067C230.804 31.0234 231.059 31.1964 231.268 31.4141C231.477 31.6318 231.634 31.8892 231.73 32.1692C231.825 32.4491 231.857 32.7453 231.823 33.0378Z" fill="white"/>
<path d="M209.138 18.7448C209.071 19.3678 208.766 19.9459 208.281 20.3699C207.796 20.7938 207.163 21.0342 206.504 21.0455C206.194 21.0505 205.886 20.9927 205.602 20.8759C205.317 20.7592 205.062 20.5862 204.853 20.3685C204.645 20.1508 204.487 19.8934 204.392 19.6134C204.296 19.3335 204.264 19.0373 204.299 18.7448C204.365 18.1219 204.67 17.5437 205.155 17.1197C205.641 16.6958 206.273 16.4554 206.933 16.4441C207.243 16.4392 207.55 16.497 207.835 16.6137C208.119 16.7305 208.374 16.9034 208.583 17.1211C208.792 17.3388 208.949 17.5962 209.045 17.8762C209.141 18.1562 209.172 18.4523 209.138 18.7448Z" fill="#455A64"/>
<path d="M217.165 18.745C217.099 19.3679 216.794 19.9461 216.308 20.37C215.823 20.794 215.191 21.0343 214.531 21.0456C214.221 21.0517 213.912 20.9946 213.627 20.8784C213.341 20.7621 213.085 20.5893 212.875 20.3715C212.666 20.1537 212.508 19.8959 212.412 19.6154C212.316 19.3349 212.284 19.0381 212.318 18.745C212.385 18.122 212.69 17.5439 213.175 17.1199C213.66 16.6959 214.293 16.4556 214.952 16.4443C215.263 16.4382 215.571 16.4953 215.857 16.6115C216.142 16.7278 216.398 16.9006 216.608 17.1184C216.817 17.3362 216.976 17.594 217.072 17.8745C217.168 18.155 217.2 18.4518 217.165 18.745Z" fill="#455A64"/>
<path d="M225.136 18.745C225.071 19.3673 224.768 19.9453 224.284 20.3695C223.8 20.7936 223.168 21.0342 222.51 21.0456C222.199 21.0517 221.891 20.9947 221.605 20.8784C221.32 20.7621 221.063 20.5893 220.854 20.3715C220.644 20.1537 220.486 19.8959 220.39 19.6154C220.294 19.3349 220.262 19.0381 220.297 18.745C220.363 18.122 220.668 17.5439 221.154 17.1199C221.639 16.6959 222.271 16.4556 222.931 16.4443C223.241 16.4381 223.549 16.4951 223.834 16.6114C224.12 16.7278 224.375 16.9007 224.584 17.1187C224.793 17.3367 224.95 17.5946 225.046 17.8751C225.141 18.1556 225.172 18.4522 225.136 18.745Z" fill="#455A64"/>
<path d="M208.485 25.8916C208.416 26.5139 208.111 27.0912 207.626 27.5148C207.141 27.9385 206.51 28.1794 205.851 28.1923C205.54 28.1971 205.233 28.1393 204.948 28.0226C204.663 27.9059 204.407 27.7331 204.198 27.5156C203.988 27.298 203.83 27.0407 203.734 26.7607C203.637 26.4808 203.604 26.1845 203.638 25.8916C203.698 25.2671 203.999 24.6856 204.481 24.2575C204.964 23.8293 205.595 23.5842 206.256 23.5687C206.57 23.5601 206.882 23.616 207.172 23.7326C207.461 23.8493 207.72 24.0238 207.932 24.2444C208.144 24.465 208.303 24.7264 208.398 25.0107C208.493 25.295 208.523 25.5955 208.485 25.8916Z" fill="#455A64"/>
<path d="M216.479 25.8923C216.412 26.5152 216.107 27.0934 215.622 27.5173C215.137 27.9413 214.504 28.1817 213.845 28.1929C213.535 28.1967 213.228 28.1381 212.944 28.021C212.66 27.9038 212.406 27.7309 212.197 27.5134C211.989 27.296 211.831 27.0391 211.735 26.7596C211.639 26.4802 211.606 26.1846 211.639 25.8923C211.706 25.2693 212.011 24.6912 212.496 24.2672C212.982 23.8432 213.614 23.6029 214.273 23.5916C214.583 23.5866 214.891 23.6444 215.176 23.7612C215.46 23.8779 215.715 24.0509 215.924 24.2686C216.133 24.4863 216.29 24.7437 216.386 25.0237C216.481 25.3036 216.513 25.5998 216.479 25.8923Z" fill="#455A64"/>
<path d="M224.483 25.8924C224.416 26.5154 224.111 27.0935 223.626 27.5175C223.14 27.9414 222.508 28.1818 221.849 28.1931C221.539 28.1969 221.232 28.1382 220.948 28.0211C220.664 27.904 220.409 27.731 220.201 27.5136C219.993 27.2961 219.835 27.0392 219.739 26.7598C219.643 26.4803 219.61 26.1847 219.643 25.8924C219.708 25.2701 220.011 24.692 220.496 24.2679C220.98 23.8438 221.611 23.6032 222.27 23.5917C222.58 23.5857 222.889 23.6427 223.174 23.759C223.46 23.8753 223.716 24.0481 223.925 24.2659C224.135 24.4837 224.293 24.7415 224.389 25.022C224.485 25.3025 224.517 25.5993 224.483 25.8924Z" fill="#455A64"/>
<path d="M207.813 33.0378C207.744 33.6594 207.439 34.2358 206.954 34.6582C206.468 35.0807 205.837 35.32 205.179 35.331C204.87 35.3359 204.563 35.2783 204.279 35.162C203.995 35.0457 203.74 34.8734 203.531 34.6565C203.323 34.4397 203.165 34.1832 203.069 33.9041C202.973 33.625 202.94 33.3297 202.974 33.0378C203.04 32.4148 203.345 31.8367 203.83 31.4127C204.316 30.9888 204.948 30.7484 205.607 30.7371C205.917 30.7321 206.225 30.7899 206.51 30.9067C206.794 31.0234 207.049 31.1964 207.258 31.4141C207.467 31.6318 207.624 31.8892 207.72 32.1692C207.815 32.4491 207.847 32.7453 207.813 33.0378Z" fill="#455A64"/>
<path d="M215.824 33.0379C215.756 33.6595 215.45 34.2359 214.965 34.6583C214.48 35.0808 213.849 35.3201 213.191 35.3312C212.881 35.3371 212.573 35.2802 212.288 35.1644C212.003 35.0486 211.747 34.8765 211.538 34.6595C211.329 34.4425 211.17 34.1856 211.074 33.906C210.977 33.6264 210.944 33.3305 210.977 33.0379C211.044 32.415 211.349 31.8368 211.834 31.4129C212.32 30.9889 212.952 30.7485 213.611 30.7372C213.922 30.7312 214.23 30.7882 214.516 30.9045C214.802 31.0208 215.058 31.1936 215.267 31.4114C215.477 31.6292 215.635 31.887 215.731 32.1675C215.827 32.448 215.859 32.7448 215.824 33.0379Z" fill="#455A64"/>
<path d="M223.821 33.0378C223.754 33.6588 223.45 34.235 222.966 34.6576C222.482 35.0802 221.852 35.3198 221.194 35.331C220.885 35.337 220.577 35.2801 220.292 35.1643C220.007 35.0485 219.751 34.8763 219.542 34.6593C219.332 34.4424 219.174 34.1855 219.078 33.9059C218.981 33.6263 218.948 33.3304 218.981 33.0378C219.048 32.4148 219.353 31.8367 219.838 31.4127C220.324 30.9888 220.956 30.7484 221.615 30.7371C221.925 30.7321 222.233 30.7899 222.517 30.9067C222.802 31.0234 223.057 31.1964 223.266 31.4141C223.475 31.6318 223.632 31.8892 223.728 32.1692C223.823 32.4491 223.855 32.7453 223.821 33.0378Z" fill="#455A64"/>
<path d="M207.166 40.1849C207.098 40.8065 206.792 41.3829 206.307 41.8053C205.822 42.2278 205.191 42.4671 204.532 42.4782C204.222 42.4841 203.915 42.4272 203.63 42.3114C203.345 42.1956 203.089 42.0234 202.88 41.8065C202.67 41.5895 202.512 41.3326 202.415 41.053C202.319 40.7734 202.286 40.4775 202.319 40.1849C202.386 39.5619 202.691 38.9838 203.176 38.5598C203.661 38.1359 204.294 37.8955 204.953 37.8842C205.264 37.8782 205.572 37.9352 205.858 38.0515C206.143 38.1677 206.399 38.3406 206.609 38.5584C206.819 38.7762 206.977 39.034 207.073 39.3145C207.169 39.595 207.201 39.8917 207.166 40.1849Z" fill="#455A64"/>
<path d="M215.16 40.1848C215.092 40.8064 214.786 41.3827 214.301 41.8052C213.816 42.2276 213.185 42.467 212.526 42.478C212.217 42.4829 211.91 42.4252 211.626 42.3089C211.342 42.1926 211.088 42.0203 210.879 41.8035C210.671 41.5866 210.513 41.3301 210.417 41.0511C210.321 40.772 210.288 40.4767 210.321 40.1848C210.388 39.5618 210.693 38.9837 211.178 38.5597C211.663 38.1357 212.296 37.8954 212.955 37.8841C213.265 37.8791 213.573 37.9369 213.857 38.0537C214.142 38.1704 214.397 38.3434 214.606 38.5611C214.814 38.7787 214.972 39.0362 215.067 39.3161C215.163 39.5961 215.195 39.8922 215.16 40.1848Z" fill="#455A64"/>
<path d="M223.164 40.1849C223.096 40.8065 222.79 41.3829 222.305 41.8053C221.82 42.2278 221.189 42.4671 220.53 42.4782C220.221 42.483 219.914 42.4254 219.63 42.3091C219.346 42.1928 219.092 42.0205 218.883 41.8036C218.674 41.5868 218.517 41.3303 218.421 41.0512C218.325 40.7721 218.292 40.4768 218.325 40.1849C218.39 39.5626 218.693 38.9845 219.177 38.5604C219.661 38.1363 220.293 37.8957 220.951 37.8842C221.262 37.8782 221.57 37.9352 221.856 38.0515C222.141 38.1677 222.398 38.3406 222.607 38.5584C222.817 38.7762 222.975 39.034 223.071 39.3145C223.167 39.595 223.199 39.8917 223.164 40.1849Z" fill="#455A64"/>
<g opacity="0.3">
<path opacity="0.3" d="M209.138 18.7448C209.071 19.3678 208.766 19.9459 208.281 20.3699C207.796 20.7938 207.163 21.0342 206.504 21.0455C206.194 21.0505 205.886 20.9927 205.602 20.8759C205.317 20.7592 205.062 20.5862 204.853 20.3685C204.645 20.1508 204.487 19.8934 204.392 19.6134C204.296 19.3335 204.264 19.0373 204.299 18.7448C204.365 18.1219 204.67 17.5437 205.155 17.1197C205.641 16.6958 206.273 16.4554 206.933 16.4441C207.243 16.4392 207.55 16.497 207.835 16.6137C208.119 16.7305 208.374 16.9034 208.583 17.1211C208.792 17.3388 208.949 17.5962 209.045 17.8762C209.141 18.1562 209.172 18.4523 209.138 18.7448Z" fill="black"/>
<path opacity="0.3" d="M217.165 18.745C217.099 19.3679 216.794 19.9461 216.308 20.37C215.823 20.794 215.191 21.0343 214.531 21.0456C214.221 21.0517 213.912 20.9946 213.627 20.8784C213.341 20.7621 213.085 20.5893 212.875 20.3715C212.666 20.1537 212.508 19.8959 212.412 19.6154C212.316 19.3349 212.284 19.0381 212.318 18.745C212.385 18.122 212.69 17.5439 213.175 17.1199C213.66 16.6959 214.293 16.4556 214.952 16.4443C215.263 16.4382 215.571 16.4953 215.857 16.6115C216.142 16.7278 216.398 16.9006 216.608 17.1184C216.817 17.3362 216.976 17.594 217.072 17.8745C217.168 18.155 217.2 18.4518 217.165 18.745Z" fill="black"/>
<path opacity="0.3" d="M225.136 18.745C225.071 19.3673 224.768 19.9453 224.284 20.3695C223.8 20.7936 223.168 21.0342 222.51 21.0456C222.199 21.0517 221.891 20.9947 221.605 20.8784C221.32 20.7621 221.063 20.5893 220.854 20.3715C220.644 20.1537 220.486 19.8959 220.39 19.6154C220.294 19.3349 220.262 19.0381 220.297 18.745C220.363 18.122 220.668 17.5439 221.154 17.1199C221.639 16.6959 222.271 16.4556 222.931 16.4443C223.241 16.4381 223.549 16.4951 223.834 16.6114C224.12 16.7278 224.375 16.9007 224.584 17.1187C224.793 17.3367 224.95 17.5946 225.046 17.8751C225.141 18.1556 225.172 18.4522 225.136 18.745Z" fill="black"/>
<path opacity="0.3" d="M208.485 25.8916C208.416 26.5139 208.111 27.0912 207.626 27.5148C207.141 27.9385 206.51 28.1794 205.851 28.1923C205.54 28.1971 205.233 28.1393 204.948 28.0226C204.663 27.9059 204.407 27.7331 204.198 27.5156C203.988 27.298 203.83 27.0407 203.734 26.7607C203.637 26.4808 203.604 26.1845 203.638 25.8916C203.698 25.2671 203.999 24.6856 204.481 24.2575C204.964 23.8293 205.595 23.5842 206.256 23.5687C206.57 23.5601 206.882 23.616 207.172 23.7326C207.461 23.8493 207.72 24.0238 207.932 24.2444C208.144 24.465 208.303 24.7264 208.398 25.0107C208.493 25.295 208.523 25.5955 208.485 25.8916Z" fill="black"/>
<path opacity="0.3" d="M216.479 25.8903C216.412 26.5133 216.107 27.0914 215.622 27.5154C215.137 27.9394 214.504 28.1797 213.845 28.191C213.535 28.1948 213.228 28.1362 212.944 28.019C212.66 27.9019 212.406 27.7289 212.197 27.5115C211.989 27.294 211.831 27.0371 211.735 26.7577C211.639 26.4782 211.606 26.1826 211.639 25.8903C211.706 25.2674 212.011 24.6892 212.496 24.2653C212.982 23.8413 213.614 23.6009 214.273 23.5897C214.583 23.5847 214.891 23.6425 215.176 23.7592C215.46 23.876 215.715 24.0489 215.924 24.2666C216.133 24.4843 216.29 24.7417 216.386 25.0217C216.481 25.3017 216.513 25.5978 216.479 25.8903Z" fill="black"/>
<path opacity="0.3" d="M224.481 25.8905C224.414 26.5134 224.109 27.0916 223.624 27.5155C223.138 27.9395 222.506 28.1799 221.847 28.1911C221.537 28.1949 221.23 28.1363 220.946 28.0192C220.662 27.902 220.408 27.729 220.199 27.5116C219.991 27.2942 219.833 27.0373 219.737 26.7578C219.641 26.4784 219.608 26.1827 219.641 25.8905C219.706 25.2681 220.009 24.6901 220.494 24.266C220.978 23.8419 221.609 23.6013 222.268 23.5898C222.578 23.5838 222.887 23.6408 223.172 23.757C223.458 23.8733 223.714 24.0461 223.923 24.2639C224.133 24.4818 224.291 24.7395 224.387 25.02C224.483 25.3006 224.515 25.5973 224.481 25.8905Z" fill="black"/>
<path opacity="0.3" d="M207.813 33.0378C207.744 33.6594 207.439 34.2358 206.954 34.6582C206.468 35.0807 205.837 35.32 205.179 35.331C204.87 35.3359 204.563 35.2783 204.279 35.162C203.995 35.0457 203.74 34.8734 203.531 34.6565C203.323 34.4397 203.165 34.1832 203.069 33.9041C202.973 33.625 202.94 33.3297 202.974 33.0378C203.04 32.4148 203.345 31.8367 203.83 31.4127C204.316 30.9888 204.948 30.7484 205.607 30.7371C205.917 30.7321 206.225 30.7899 206.51 30.9067C206.794 31.0234 207.049 31.1964 207.258 31.4141C207.467 31.6318 207.624 31.8892 207.72 32.1692C207.815 32.4491 207.847 32.7453 207.813 33.0378Z" fill="black"/>
<path opacity="0.3" d="M215.824 33.0379C215.756 33.6595 215.45 34.2359 214.965 34.6583C214.48 35.0808 213.849 35.3201 213.191 35.3312C212.881 35.3371 212.573 35.2802 212.288 35.1644C212.003 35.0486 211.747 34.8765 211.538 34.6595C211.329 34.4425 211.17 34.1856 211.074 33.906C210.977 33.6264 210.944 33.3305 210.977 33.0379C211.044 32.415 211.349 31.8368 211.834 31.4129C212.32 30.9889 212.952 30.7485 213.611 30.7372C213.922 30.7312 214.23 30.7882 214.516 30.9045C214.802 31.0208 215.058 31.1936 215.267 31.4114C215.477 31.6292 215.635 31.887 215.731 32.1675C215.827 32.448 215.859 32.7448 215.824 33.0379Z" fill="black"/>
<path opacity="0.3" d="M223.821 33.0378C223.754 33.6588 223.45 34.235 222.966 34.6576C222.482 35.0802 221.852 35.3198 221.194 35.331C220.885 35.337 220.577 35.2801 220.292 35.1643C220.007 35.0485 219.751 34.8763 219.542 34.6593C219.332 34.4424 219.174 34.1855 219.078 33.9059C218.981 33.6263 218.948 33.3304 218.981 33.0378C219.048 32.4148 219.353 31.8367 219.838 31.4127C220.324 30.9888 220.956 30.7484 221.615 30.7371C221.925 30.7321 222.233 30.7899 222.517 30.9067C222.802 31.0234 223.057 31.1964 223.266 31.4141C223.475 31.6318 223.632 31.8892 223.728 32.1692C223.823 32.4491 223.855 32.7453 223.821 33.0378Z" fill="black"/>
<path opacity="0.3" d="M207.166 40.1829C207.098 40.8046 206.792 41.3809 206.307 41.8034C205.822 42.2258 205.191 42.4651 204.532 42.4762C204.222 42.4821 203.915 42.4253 203.63 42.3094C203.345 42.1936 203.089 42.0215 202.88 41.8045C202.67 41.5875 202.512 41.3307 202.415 41.0511C202.319 40.7715 202.286 40.4755 202.319 40.1829C202.386 39.56 202.691 38.9818 203.176 38.5579C203.661 38.1339 204.294 37.8935 204.953 37.8823C205.264 37.8762 205.572 37.9332 205.858 38.0495C206.143 38.1658 206.399 38.3386 206.609 38.5564C206.819 38.7742 206.977 39.032 207.073 39.3125C207.169 39.593 207.201 39.8898 207.166 40.1829Z" fill="black"/>
<path opacity="0.3" d="M215.16 40.1828C215.092 40.8044 214.786 41.3808 214.301 41.8032C213.816 42.2257 213.185 42.465 212.526 42.4761C212.217 42.4809 211.91 42.4233 211.626 42.307C211.342 42.1907 211.088 42.0184 210.879 41.8015C210.671 41.5847 210.513 41.3282 210.417 41.0491C210.321 40.77 210.288 40.4747 210.321 40.1828C210.388 39.5599 210.693 38.9817 211.178 38.5577C211.663 38.1338 212.296 37.8934 212.955 37.8821C213.265 37.8772 213.573 37.935 213.857 38.0517C214.142 38.1684 214.397 38.3414 214.606 38.5591C214.814 38.7768 214.972 39.0342 215.067 39.3142C215.163 39.5942 215.195 39.8903 215.16 40.1828Z" fill="black"/>
<path opacity="0.3" d="M223.164 40.1829C223.096 40.8046 222.79 41.3809 222.305 41.8034C221.82 42.2258 221.189 42.4651 220.53 42.4762C220.221 42.481 219.914 42.4234 219.63 42.3071C219.346 42.1908 219.092 42.0185 218.883 41.8017C218.674 41.5848 218.517 41.3283 218.421 41.0493C218.325 40.7702 218.292 40.4749 218.325 40.1829C218.39 39.5606 218.693 38.9826 219.177 38.5585C219.661 38.1343 220.293 37.8937 220.951 37.8823C221.262 37.8762 221.57 37.9332 221.856 38.0495C222.141 38.1658 222.398 38.3386 222.607 38.5564C222.817 38.7742 222.975 39.032 223.071 39.3125C223.167 39.593 223.199 39.8898 223.164 40.1829Z" fill="black"/>
</g>
<path d="M231.192 40.1849C231.123 40.8065 230.818 41.3829 230.332 41.8053C229.847 42.2278 229.216 42.4671 228.558 42.4782C228.248 42.4841 227.94 42.4272 227.655 42.3114C227.37 42.1956 227.115 42.0234 226.905 41.8065C226.696 41.5895 226.537 41.3326 226.441 41.053C226.344 40.7734 226.311 40.4775 226.345 40.1849C226.411 39.5619 226.716 38.9838 227.201 38.5598C227.687 38.1359 228.319 37.8955 228.979 37.8842C229.289 37.8782 229.598 37.9352 229.883 38.0515C230.169 38.1677 230.425 38.3406 230.634 38.5584C230.844 38.7762 231.002 39.034 231.098 39.3145C231.194 39.595 231.226 39.8917 231.192 40.1849Z" fill="white"/>
<path d="M177.212 26.0957L174.594 54.5027C175.939 54.218 177.155 53.539 178.071 52.5619C178.987 51.5848 179.556 50.3591 179.698 49.058L181.311 31.5478C181.456 30.3192 181.117 29.0832 180.361 28.077C179.604 27.0708 178.483 26.3652 177.212 26.0957Z" fill="#FFC200"/>
<path d="M172.574 54.6424H136.401C135.647 54.6551 134.9 54.5153 134.208 54.2323C133.516 53.9493 132.895 53.5297 132.387 53.0013C131.879 52.4729 131.495 51.8479 131.262 51.1679C131.028 50.4878 130.95 49.7683 131.032 49.0572L132.645 31.547C132.806 30.0366 133.544 28.6346 134.72 27.6057C135.896 26.5767 137.428 25.9919 139.027 25.9617H175.2C175.954 25.9491 176.701 26.0889 177.393 26.3718C178.085 26.6548 178.706 27.0745 179.214 27.6028C179.722 28.1312 180.106 28.7562 180.339 29.4363C180.573 30.1164 180.651 30.8359 180.569 31.547L178.956 49.0572C178.795 50.5676 178.057 51.9695 176.881 52.9985C175.705 54.0275 174.173 54.6122 172.574 54.6424Z" fill="#FFC200"/>
<path opacity="0.2" d="M172.574 54.6424H136.401C135.647 54.6551 134.9 54.5153 134.208 54.2323C133.516 53.9493 132.895 53.5297 132.387 53.0013C131.879 52.4729 131.495 51.8479 131.262 51.1679C131.028 50.4878 130.95 49.7683 131.032 49.0572L132.645 31.547C132.806 30.0366 133.544 28.6346 134.72 27.6057C135.896 26.5767 137.428 25.9919 139.027 25.9617H175.2C175.954 25.9491 176.701 26.0889 177.393 26.3718C178.085 26.6548 178.706 27.0745 179.214 27.6028C179.722 28.1312 180.106 28.7562 180.339 29.4363C180.573 30.1164 180.651 30.8359 180.569 31.547L178.956 49.0572C178.795 50.5676 178.057 51.9695 176.881 52.9985C175.705 54.0275 174.173 54.6122 172.574 54.6424Z" fill="white"/>
<path d="M132.184 36.5335H180.124L180.553 31.9321H132.604L132.184 36.5335Z" fill="#263238"/>
<path d="M139.588 50.7812H134.99L135.177 48.7173H139.775L139.588 50.7812Z" fill="white"/>
<path d="M147.092 50.7812H142.494L142.681 48.7173H147.287L147.092 50.7812Z" fill="white"/>
</svg>
