<svg width="183" height="133" viewBox="0 0 183 133" fill="none" xmlns="http://www.w3.org/2000/svg">
<rect opacity="0.2" x="25" y="81.5" width="46" height="36" fill="#31B047"/>
<rect opacity="0.2" x="71" y="46" width="46" height="36" fill="#31B047"/>
<rect opacity="0.2" x="117" y="9" width="46" height="37" fill="#31B047"/>
<path d="M0 117.652H182.217" stroke="#31B047"/>
<path d="M71 82H182.217" stroke="#31B047"/>
<path d="M117 46H182.217" stroke="#31B047"/>
<path d="M25.1094 0L25.1094 132" stroke="black" stroke-dasharray="4 4"/>
<path d="M71.0234 0L71.0234 132" stroke="black" stroke-dasharray="4 4"/>
<path d="M116.934 0L116.934 132" stroke="black" stroke-dasharray="4 4"/>
<path d="M162.848 0L162.848 118" stroke="black" stroke-dasharray="4 4"/>
<path d="M46.6303 96.1522L46.5864 95.6541L46.4115 95.6695L46.2846 95.7909L46.6303 96.1522ZM62.4129 94.7609L62.4568 95.2589L62.667 95.2404L62.8003 95.0769L62.4129 94.7609ZM78.1955 75.413L77.8335 75.0681L77.8202 75.0821L77.808 75.097L78.1955 75.413ZM91.8259 61.1087L91.9359 60.6209L91.6594 60.5586L91.4639 60.7638L91.8259 61.1087ZM109.761 65.1522L109.651 65.6399L109.947 65.7066L110.142 65.4751L109.761 65.1522ZM125.543 46.5L125.434 46.0121L125.27 46.0489L125.162 46.177L125.543 46.5ZM141.326 42.9565L141.435 43.4444L141.644 43.3976L141.754 43.2148L141.326 42.9565ZM160 12L154.946 14.7902L159.889 17.7724L160 12ZM28.8457 113.861L46.9759 96.5134L46.2846 95.7909L28.1543 113.139L28.8457 113.861ZM46.6742 96.6502L62.4568 95.2589L62.369 94.2628L46.5864 95.6541L46.6742 96.6502ZM62.8003 95.0769L78.5829 75.7291L77.808 75.097L62.0254 94.4448L62.8003 95.0769ZM78.5575 75.758L92.1879 61.4536L91.4639 60.7638L77.8335 75.0681L78.5575 75.758ZM91.716 61.5965L109.651 65.6399L109.871 64.6644L91.9359 60.6209L91.716 61.5965ZM110.142 65.4751L125.925 46.823L125.162 46.177L109.379 64.8292L110.142 65.4751ZM125.653 46.9879L141.435 43.4444L141.216 42.4687L125.434 46.0121L125.653 46.9879ZM141.754 43.2148L158.104 16.1115L157.247 15.5949L140.898 42.6983L141.754 43.2148Z" fill="#31B047"/>
<circle cx="48.0657" cy="99.6956" r="8.6087" fill="#FFD44B"/>
<circle cx="48.0628" cy="99.6957" r="6.69565" fill="url(#paint0_linear_1636_10691)"/>
<rect x="45.2891" y="99.6953" width="3.92174" height="3.92174" transform="rotate(-45 45.2891 99.6953)" fill="white"/>
<circle cx="88.2376" cy="63.6087" r="8.6087" fill="#FFD44B"/>
<circle cx="88.2347" cy="63.6087" r="6.69565" fill="url(#paint1_linear_1636_10691)"/>
<rect x="85.4609" y="63.6084" width="3.92174" height="3.92174" transform="rotate(-45 85.4609 63.6084)" fill="white"/>
<circle cx="134.152" cy="33.0872" r="8.6087" fill="#FFD44B"/>
<circle cx="134.149" cy="33.0873" r="6.69565" fill="url(#paint2_linear_1636_10691)"/>
<rect x="131.375" y="33.0869" width="3.92174" height="3.92174" transform="rotate(-45 131.375 33.0869)" fill="white"/>
<circle cx="99.7181" cy="63.6087" r="8.6087" fill="#FFD44B"/>
<circle cx="99.7191" cy="63.6087" r="6.69565" fill="url(#paint3_linear_1636_10691)"/>
<rect x="96.9453" y="63.6084" width="3.92174" height="3.92174" transform="rotate(-45 96.9453 63.6084)" fill="white"/>
<circle cx="145.632" cy="33.0872" r="8.6087" fill="#FFD44B"/>
<circle cx="145.633" cy="33.0873" r="6.69565" fill="url(#paint4_linear_1636_10691)"/>
<rect x="142.859" y="33.0869" width="3.92174" height="3.92174" transform="rotate(-45 142.859 33.0869)" fill="white"/>
<circle cx="139.89" cy="21.6087" r="8.6087" fill="#FFD44B"/>
<circle cx="139.891" cy="21.6087" r="6.69565" fill="url(#paint5_linear_1636_10691)"/>
<rect x="137.117" y="21.6084" width="3.92174" height="3.92174" transform="rotate(-45 137.117 21.6084)" fill="white"/>
<path d="M137.742 132H136.734V126.363H137.742V129H137.777L140.027 126.363H141.188L139.016 128.863L141.355 132H140.129L138.297 129.539L137.742 130.188V132Z" fill="black"/>
<path d="M142.863 132H141.891V126.363H142.766L145.562 130.312H145.598V126.363H146.566V132H145.699L142.898 128.047H142.863V132Z" fill="black"/>
<path d="M150.047 126.27C150.867 126.27 151.517 126.531 151.996 127.055C152.478 127.578 152.719 128.288 152.719 129.184C152.719 130.079 152.478 130.789 151.996 131.312C151.517 131.833 150.867 132.094 150.047 132.094C149.224 132.094 148.572 131.833 148.09 131.312C147.611 130.789 147.371 130.079 147.371 129.184C147.371 128.288 147.611 127.578 148.09 127.055C148.572 126.531 149.224 126.27 150.047 126.27ZM151.246 127.688C150.949 127.315 150.549 127.129 150.047 127.129C149.544 127.129 149.145 127.314 148.848 127.684C148.551 128.053 148.402 128.553 148.402 129.184C148.402 129.811 148.551 130.31 148.848 130.68C149.145 131.049 149.544 131.234 150.047 131.234C150.549 131.234 150.949 131.049 151.246 130.68C151.543 130.31 151.691 129.811 151.691 129.184C151.691 128.556 151.543 128.057 151.246 127.688Z" fill="black"/>
<path d="M155.953 132.094C155.146 132.094 154.507 131.833 154.035 131.312C153.566 130.792 153.332 130.081 153.332 129.18C153.332 128.284 153.568 127.576 154.039 127.055C154.513 126.531 155.151 126.27 155.953 126.27C156.609 126.27 157.163 126.457 157.613 126.832C158.064 127.204 158.32 127.693 158.383 128.297H157.391C157.326 127.943 157.16 127.659 156.895 127.445C156.632 127.232 156.318 127.125 155.953 127.125C155.469 127.125 155.082 127.311 154.793 127.684C154.507 128.053 154.363 128.552 154.363 129.18C154.363 129.812 154.507 130.314 154.793 130.684C155.079 131.053 155.467 131.238 155.957 131.238C156.329 131.238 156.642 131.143 156.895 130.953C157.15 130.76 157.316 130.495 157.395 130.156H158.383C158.294 130.76 158.034 131.234 157.602 131.578C157.169 131.922 156.62 132.094 155.953 132.094Z" fill="black"/>
<path d="M160.156 132H159.148V126.363H160.156V129H160.191L162.441 126.363H163.602L161.43 128.863L163.77 132H162.543L160.711 129.539L160.156 130.188V132Z" fill="black"/>
<path d="M168.391 126.27C169.211 126.27 169.861 126.531 170.34 127.055C170.822 127.578 171.062 128.288 171.062 129.184C171.062 130.079 170.822 130.789 170.34 131.312C169.861 131.833 169.211 132.094 168.391 132.094C167.568 132.094 166.915 131.833 166.434 131.312C165.954 130.789 165.715 130.079 165.715 129.184C165.715 128.288 165.954 127.578 166.434 127.055C166.915 126.531 167.568 126.27 168.391 126.27ZM169.59 127.688C169.293 127.315 168.893 127.129 168.391 127.129C167.888 127.129 167.488 127.314 167.191 127.684C166.895 128.053 166.746 128.553 166.746 129.184C166.746 129.811 166.895 130.31 167.191 130.68C167.488 131.049 167.888 131.234 168.391 131.234C168.893 131.234 169.293 131.049 169.59 130.68C169.887 130.31 170.035 129.811 170.035 129.184C170.035 128.556 169.887 128.057 169.59 127.688Z" fill="black"/>
<path d="M172.875 126.363V129.922C172.875 130.312 172.99 130.626 173.219 130.863C173.451 131.098 173.772 131.215 174.184 131.215C174.595 131.215 174.917 131.098 175.148 130.863C175.38 130.626 175.496 130.312 175.496 129.922V126.363H176.5V130.012C176.5 130.634 176.29 131.137 175.871 131.52C175.454 131.902 174.892 132.094 174.184 132.094C173.478 132.094 172.915 131.902 172.496 131.52C172.077 131.137 171.867 130.634 171.867 130.012V126.363H172.875Z" fill="black"/>
<path d="M179.883 132H178.879V127.215H177.191V126.363H181.566V127.215H179.883V132Z" fill="black"/>
<g opacity="0.6">
<path d="M137.742 96H136.734V90.3633H137.742V93H137.777L140.027 90.3633H141.188L139.016 92.8633L141.355 96H140.129L138.297 93.5391L137.742 94.1875V96Z" fill="black"/>
<path d="M142.863 96H141.891V90.3633H142.766L145.562 94.3125H145.598V90.3633H146.566V96H145.699L142.898 92.0469H142.863V96Z" fill="black"/>
<path d="M150.047 90.2695C150.867 90.2695 151.517 90.5312 151.996 91.0547C152.478 91.5781 152.719 92.2878 152.719 93.1836C152.719 94.0794 152.478 94.7891 151.996 95.3125C151.517 95.8333 150.867 96.0938 150.047 96.0938C149.224 96.0938 148.572 95.8333 148.09 95.3125C147.611 94.7891 147.371 94.0794 147.371 93.1836C147.371 92.2878 147.611 91.5781 148.09 91.0547C148.572 90.5312 149.224 90.2695 150.047 90.2695ZM151.246 91.6875C150.949 91.3151 150.549 91.1289 150.047 91.1289C149.544 91.1289 149.145 91.3138 148.848 91.6836C148.551 92.0534 148.402 92.5534 148.402 93.1836C148.402 93.8112 148.551 94.3099 148.848 94.6797C149.145 95.0495 149.544 95.2344 150.047 95.2344C150.549 95.2344 150.949 95.0495 151.246 94.6797C151.543 94.3099 151.691 93.8112 151.691 93.1836C151.691 92.556 151.543 92.0573 151.246 91.6875Z" fill="black"/>
<path d="M155.953 96.0938C155.146 96.0938 154.507 95.8333 154.035 95.3125C153.566 94.7917 153.332 94.0807 153.332 93.1797C153.332 92.2839 153.568 91.5755 154.039 91.0547C154.513 90.5312 155.151 90.2695 155.953 90.2695C156.609 90.2695 157.163 90.457 157.613 90.832C158.064 91.2044 158.32 91.6927 158.383 92.2969H157.391C157.326 91.9427 157.16 91.6589 156.895 91.4453C156.632 91.2318 156.318 91.125 155.953 91.125C155.469 91.125 155.082 91.3112 154.793 91.6836C154.507 92.0534 154.363 92.5521 154.363 93.1797C154.363 93.8125 154.507 94.3138 154.793 94.6836C155.079 95.0534 155.467 95.2383 155.957 95.2383C156.329 95.2383 156.642 95.1432 156.895 94.9531C157.15 94.7604 157.316 94.4948 157.395 94.1562H158.383C158.294 94.7604 158.034 95.2344 157.602 95.5781C157.169 95.9219 156.62 96.0938 155.953 96.0938Z" fill="black"/>
<path d="M160.156 96H159.148V90.3633H160.156V93H160.191L162.441 90.3633H163.602L161.43 92.8633L163.77 96H162.543L160.711 93.5391L160.156 94.1875V96Z" fill="black"/>
<path d="M168.391 90.2695C169.211 90.2695 169.861 90.5312 170.34 91.0547C170.822 91.5781 171.062 92.2878 171.062 93.1836C171.062 94.0794 170.822 94.7891 170.34 95.3125C169.861 95.8333 169.211 96.0938 168.391 96.0938C167.568 96.0938 166.915 95.8333 166.434 95.3125C165.954 94.7891 165.715 94.0794 165.715 93.1836C165.715 92.2878 165.954 91.5781 166.434 91.0547C166.915 90.5312 167.568 90.2695 168.391 90.2695ZM169.59 91.6875C169.293 91.3151 168.893 91.1289 168.391 91.1289C167.888 91.1289 167.488 91.3138 167.191 91.6836C166.895 92.0534 166.746 92.5534 166.746 93.1836C166.746 93.8112 166.895 94.3099 167.191 94.6797C167.488 95.0495 167.888 95.2344 168.391 95.2344C168.893 95.2344 169.293 95.0495 169.59 94.6797C169.887 94.3099 170.035 93.8112 170.035 93.1836C170.035 92.556 169.887 92.0573 169.59 91.6875Z" fill="black"/>
<path d="M172.875 90.3633V93.9219C172.875 94.3125 172.99 94.6263 173.219 94.8633C173.451 95.0977 173.772 95.2148 174.184 95.2148C174.595 95.2148 174.917 95.0977 175.148 94.8633C175.38 94.6263 175.496 94.3125 175.496 93.9219V90.3633H176.5V94.0117C176.5 94.6341 176.29 95.1367 175.871 95.5195C175.454 95.9023 174.892 96.0938 174.184 96.0938C173.478 96.0938 172.915 95.9023 172.496 95.5195C172.077 95.1367 171.867 94.6341 171.867 94.0117V90.3633H172.875Z" fill="black"/>
<path d="M179.883 96H178.879V91.2148H177.191V90.3633H181.566V91.2148H179.883V96Z" fill="black"/>
</g>
<g opacity="0.4">
<path d="M137.742 60H136.734V54.3633H137.742V57H137.777L140.027 54.3633H141.188L139.016 56.8633L141.355 60H140.129L138.297 57.5391L137.742 58.1875V60Z" fill="black"/>
<path d="M142.863 60H141.891V54.3633H142.766L145.562 58.3125H145.598V54.3633H146.566V60H145.699L142.898 56.0469H142.863V60Z" fill="black"/>
<path d="M150.047 54.2695C150.867 54.2695 151.517 54.5312 151.996 55.0547C152.478 55.5781 152.719 56.2878 152.719 57.1836C152.719 58.0794 152.478 58.7891 151.996 59.3125C151.517 59.8333 150.867 60.0938 150.047 60.0938C149.224 60.0938 148.572 59.8333 148.09 59.3125C147.611 58.7891 147.371 58.0794 147.371 57.1836C147.371 56.2878 147.611 55.5781 148.09 55.0547C148.572 54.5312 149.224 54.2695 150.047 54.2695ZM151.246 55.6875C150.949 55.3151 150.549 55.1289 150.047 55.1289C149.544 55.1289 149.145 55.3138 148.848 55.6836C148.551 56.0534 148.402 56.5534 148.402 57.1836C148.402 57.8112 148.551 58.3099 148.848 58.6797C149.145 59.0495 149.544 59.2344 150.047 59.2344C150.549 59.2344 150.949 59.0495 151.246 58.6797C151.543 58.3099 151.691 57.8112 151.691 57.1836C151.691 56.556 151.543 56.0573 151.246 55.6875Z" fill="black"/>
<path d="M155.953 60.0938C155.146 60.0938 154.507 59.8333 154.035 59.3125C153.566 58.7917 153.332 58.0807 153.332 57.1797C153.332 56.2839 153.568 55.5755 154.039 55.0547C154.513 54.5312 155.151 54.2695 155.953 54.2695C156.609 54.2695 157.163 54.457 157.613 54.832C158.064 55.2044 158.32 55.6927 158.383 56.2969H157.391C157.326 55.9427 157.16 55.6589 156.895 55.4453C156.632 55.2318 156.318 55.125 155.953 55.125C155.469 55.125 155.082 55.3112 154.793 55.6836C154.507 56.0534 154.363 56.5521 154.363 57.1797C154.363 57.8125 154.507 58.3138 154.793 58.6836C155.079 59.0534 155.467 59.2383 155.957 59.2383C156.329 59.2383 156.642 59.1432 156.895 58.9531C157.15 58.7604 157.316 58.4948 157.395 58.1562H158.383C158.294 58.7604 158.034 59.2344 157.602 59.5781C157.169 59.9219 156.62 60.0938 155.953 60.0938Z" fill="black"/>
<path d="M160.156 60H159.148V54.3633H160.156V57H160.191L162.441 54.3633H163.602L161.43 56.8633L163.77 60H162.543L160.711 57.5391L160.156 58.1875V60Z" fill="black"/>
<path d="M168.391 54.2695C169.211 54.2695 169.861 54.5312 170.34 55.0547C170.822 55.5781 171.062 56.2878 171.062 57.1836C171.062 58.0794 170.822 58.7891 170.34 59.3125C169.861 59.8333 169.211 60.0938 168.391 60.0938C167.568 60.0938 166.915 59.8333 166.434 59.3125C165.954 58.7891 165.715 58.0794 165.715 57.1836C165.715 56.2878 165.954 55.5781 166.434 55.0547C166.915 54.5312 167.568 54.2695 168.391 54.2695ZM169.59 55.6875C169.293 55.3151 168.893 55.1289 168.391 55.1289C167.888 55.1289 167.488 55.3138 167.191 55.6836C166.895 56.0534 166.746 56.5534 166.746 57.1836C166.746 57.8112 166.895 58.3099 167.191 58.6797C167.488 59.0495 167.888 59.2344 168.391 59.2344C168.893 59.2344 169.293 59.0495 169.59 58.6797C169.887 58.3099 170.035 57.8112 170.035 57.1836C170.035 56.556 169.887 56.0573 169.59 55.6875Z" fill="black"/>
<path d="M172.875 54.3633V57.9219C172.875 58.3125 172.99 58.6263 173.219 58.8633C173.451 59.0977 173.772 59.2148 174.184 59.2148C174.595 59.2148 174.917 59.0977 175.148 58.8633C175.38 58.6263 175.496 58.3125 175.496 57.9219V54.3633H176.5V58.0117C176.5 58.6341 176.29 59.1367 175.871 59.5195C175.454 59.9023 174.892 60.0938 174.184 60.0938C173.478 60.0938 172.915 59.9023 172.496 59.5195C172.077 59.1367 171.867 58.6341 171.867 58.0117V54.3633H172.875Z" fill="black"/>
<path d="M179.883 60H178.879V55.2148H177.191V54.3633H181.566V55.2148H179.883V60Z" fill="black"/>
</g>
<defs>
<linearGradient id="paint0_linear_1636_10691" x1="43.5194" y1="94.6739" x2="52.8455" y2="104.478" gradientUnits="userSpaceOnUse">
<stop offset="0.133929" stop-color="#FFC200"/>
<stop offset="0.580357" stop-color="#FFC200" stop-opacity="0"/>
<stop offset="1" stop-color="#FFC200"/>
</linearGradient>
<linearGradient id="paint1_linear_1636_10691" x1="83.6912" y1="58.587" x2="93.0173" y2="68.3913" gradientUnits="userSpaceOnUse">
<stop offset="0.133929" stop-color="#FFC200"/>
<stop offset="0.580357" stop-color="#FFC200" stop-opacity="0"/>
<stop offset="1" stop-color="#FFC200"/>
</linearGradient>
<linearGradient id="paint2_linear_1636_10691" x1="129.605" y1="28.0655" x2="138.931" y2="37.8699" gradientUnits="userSpaceOnUse">
<stop offset="0.133929" stop-color="#FFC200"/>
<stop offset="0.580357" stop-color="#FFC200" stop-opacity="0"/>
<stop offset="1" stop-color="#FFC200"/>
</linearGradient>
<linearGradient id="paint3_linear_1636_10691" x1="95.1756" y1="58.587" x2="104.502" y2="68.3913" gradientUnits="userSpaceOnUse">
<stop offset="0.133929" stop-color="#FFC200"/>
<stop offset="0.580357" stop-color="#FFC200" stop-opacity="0"/>
<stop offset="1" stop-color="#FFC200"/>
</linearGradient>
<linearGradient id="paint4_linear_1636_10691" x1="141.09" y1="28.0655" x2="150.416" y2="37.8699" gradientUnits="userSpaceOnUse">
<stop offset="0.133929" stop-color="#FFC200"/>
<stop offset="0.580357" stop-color="#FFC200" stop-opacity="0"/>
<stop offset="1" stop-color="#FFC200"/>
</linearGradient>
<linearGradient id="paint5_linear_1636_10691" x1="135.347" y1="16.587" x2="144.674" y2="26.3913" gradientUnits="userSpaceOnUse">
<stop offset="0.133929" stop-color="#FFC200"/>
<stop offset="0.580357" stop-color="#FFC200" stop-opacity="0"/>
<stop offset="1" stop-color="#FFC200"/>
</linearGradient>
</defs>
</svg>
