<svg width="502" height="227" viewBox="0 0 502 227" fill="none" xmlns="http://www.w3.org/2000/svg">
<path d="M243 34C243 72.6599 196.438 104 139 104C81.5624 104 35 72.6599 35 34C35 22.0672 39.4361 10.8317 47.2588 1C102 1.0001 185 1.00003 230.741 1C238.564 10.8317 243 22.0672 243 34Z" fill="#F2F5FA" stroke="#DEE0E5"/>
<path d="M501 198.75C501 208.305 498.504 217.477 493.916 226C408.171 226 332.816 226 259.084 226C254.496 217.477 252 208.305 252 198.75C252 153.601 307.741 117 376.5 117C445.259 117 501 153.601 501 198.75Z" fill="#F2F5FA" stroke="#DEE0E5"/>
<path d="M327.812 155.1C329.055 155.772 330.115 156.16 331.009 156.376C330.866 155.452 330.969 154.571 331.264 153.77C331.296 153.629 331.339 153.49 331.411 153.356C331.438 153.296 331.467 153.239 331.495 153.185C331.498 153.179 331.5 153.17 331.503 153.164C331.561 153.057 331.629 152.961 331.706 152.875C332.201 152.153 332.954 151.623 333.848 151.423C334.795 151.212 335.808 151.357 336.697 151.839C338.498 152.815 339.275 154.883 338.565 156.599C338.535 156.701 338.493 156.802 338.442 156.9C338.439 156.905 338.438 156.912 338.435 156.918C338.403 156.977 338.368 157.035 338.317 157.116C338.299 157.148 338.275 157.169 338.255 157.198C337.782 157.944 337.12 158.555 336.31 158.998C336.723 159.298 337.175 159.561 337.666 159.766C338.429 160.085 339.298 160.12 340.058 160.123C341.692 144.566 357.315 132.32 376.296 132.32C382.046 132.32 387.725 133.464 392.809 135.64C394.954 132.916 398.392 131.538 403.051 131.538H409.197C409.761 131.538 410.285 131.833 410.577 132.316C410.868 132.8 410.886 133.4 410.623 133.899L405.248 144.114C405.192 144.221 405.246 144.341 405.309 144.41C407.334 146.642 408.973 149.089 410.182 151.679C410.909 153.228 412.309 154.191 413.837 154.191L417.622 154.194C420.089 154.191 422.096 156.199 422.096 158.666V166.962C422.096 169.428 420.089 171.436 417.622 171.436H413.835C412.306 171.436 410.907 172.4 410.182 173.953C408.242 178.118 405.149 181.944 401.242 185.018C400.175 185.862 399.54 187.224 399.54 188.659V196.533C399.54 197.422 398.819 198.144 397.929 198.144H388.17C387.28 198.144 386.559 197.422 386.559 196.533V192.08C379.787 193.749 372.406 193.714 365.699 191.995V196.533C365.699 197.422 364.978 198.144 364.088 198.144L354.327 198.145C353.437 198.145 352.716 197.424 352.716 196.535V188.395C352.716 186.983 352.095 185.634 351.058 184.793C344.022 179.129 340.09 171.529 339.927 163.346C338.962 163.337 337.695 163.269 336.43 162.743C334.876 162.095 333.535 161.062 332.563 159.816C330.639 159.761 328.496 159.134 326.282 157.936C325.499 157.513 325.208 156.536 325.631 155.752C326.054 154.968 327.031 154.674 327.814 155.1L327.812 155.1ZM335.162 154.675C334.96 154.564 334.738 154.525 334.553 154.568C334.492 154.582 334.383 154.617 334.332 154.714C334.332 154.716 334.33 154.719 334.329 154.722C334.116 155.135 334.114 155.729 334.314 156.371C334.905 156.163 335.358 155.833 335.602 155.382C335.603 155.381 335.604 155.38 335.604 155.379C335.67 155.249 335.555 154.887 335.162 154.675Z" fill="#31B047"/>
<path d="M365.278 177.278L388.292 149.662" stroke="white" stroke-width="3"/>
<circle cx="384.266" cy="172.675" r="4.60273" stroke="white" stroke-width="3"/>
<circle cx="369.308" cy="154.264" r="4.60273" stroke="white" stroke-width="3"/>
<circle cx="376.787" cy="128.517" r="15.1029" fill="#FFD44B"/>
<circle cx="376.788" cy="128.518" r="11.7467" fill="url(#paint0_linear_1501_9724)"/>
<rect x="371.92" y="128.517" width="6.88022" height="6.88022" transform="rotate(-45 371.92 128.517)" fill="white"/>
<circle cx="355.643" cy="116.435" r="15.1029" fill="#FFD44B"/>
<circle cx="355.644" cy="116.436" r="11.7467" fill="url(#paint1_linear_1501_9724)"/>
<rect x="350.776" y="116.435" width="6.88022" height="6.88022" transform="rotate(-45 350.776 116.435)" fill="white"/>
<circle cx="385.848" cy="95.2909" r="15.1029" fill="#FFD44B"/>
<circle cx="385.849" cy="95.2914" r="11.7467" fill="url(#paint2_linear_1501_9724)"/>
<rect x="380.981" y="95.291" width="6.88022" height="6.88022" transform="rotate(-45 380.981 95.291)" fill="white"/>
<ellipse cx="376.786" cy="145.13" rx="12.0823" ry="4.53088" fill="#31B047"/>
<circle cx="109.859" cy="66.8058" r="15.1029" fill="#FFD44B"/>
<circle cx="109.86" cy="66.8063" r="11.7467" fill="url(#paint3_linear_1501_9724)"/>
<rect x="104.992" y="66.8059" width="6.88022" height="6.88022" transform="rotate(-45 104.992 66.8059)" fill="white"/>
<path d="M138.691 117.607C154.221 117.607 166.81 105.017 166.81 89.4876C166.81 73.9579 154.221 61.3687 138.691 61.3687C123.162 61.3687 110.572 73.9579 110.572 89.4876C110.572 105.017 123.162 117.607 138.691 117.607Z" fill="#252525"/>
<path fill-rule="evenodd" clip-rule="evenodd" d="M145.147 100.057C147.781 100.057 149.917 97.9208 149.917 95.2861C149.917 92.6515 147.781 90.5156 145.147 90.5156C142.512 90.5156 140.376 92.6515 140.376 95.2861C140.376 97.9208 142.512 100.057 145.147 100.057ZM151.501 95.2861C151.501 98.7958 148.656 101.641 145.147 101.641C141.637 101.641 138.792 98.7958 138.792 95.2861C138.792 91.7765 141.637 88.9314 145.147 88.9314C148.656 88.9314 151.501 91.7765 151.501 95.2861Z" fill="white"/>
<path fill-rule="evenodd" clip-rule="evenodd" d="M141.234 98.5727C141.551 98.9615 141.492 99.5332 141.104 99.8499C137.804 102.538 134.367 104.414 131.329 105.233C128.334 106.041 125.474 105.876 123.664 104.066C121.654 102.056 121.666 98.7594 122.811 95.3671C122.971 94.8921 123.486 94.6369 123.961 94.7971C124.436 94.9574 124.692 95.4725 124.531 95.9475C123.445 99.1672 123.703 101.538 124.947 102.782C126.065 103.9 128.086 104.227 130.856 103.48C133.584 102.744 136.796 101.017 139.957 98.4422C140.346 98.1256 140.917 98.184 141.234 98.5727Z" fill="white"/>
<path fill-rule="evenodd" clip-rule="evenodd" d="M134.898 80.7984C134.593 80.4001 134.669 79.8303 135.067 79.5257C138.233 77.1037 141.486 75.4362 144.357 74.744C147.193 74.06 149.884 74.2861 151.613 76.0155C153.623 78.0251 153.61 81.3223 152.466 84.7145C152.306 85.1896 151.791 85.4448 151.315 85.2845C150.84 85.1243 150.585 84.6092 150.745 84.1342C151.832 80.9144 151.573 78.5434 150.329 77.2993C149.263 76.2327 147.374 75.8841 144.782 76.509C142.225 77.1258 139.199 78.6509 136.17 80.9678C135.772 81.2724 135.202 81.1966 134.898 80.7984Z" fill="white"/>
<path fill-rule="evenodd" clip-rule="evenodd" d="M137.888 84.393C137.888 87.9026 135.043 90.7477 131.533 90.7477C128.024 90.7477 125.179 87.9026 125.179 84.393C125.179 80.8834 128.024 78.0383 131.533 78.0383C135.043 78.0383 137.888 80.8834 137.888 84.393ZM130.898 81.2152H132.169V83.7569H134.71V85.0278H132.169V87.5699H130.898V85.0278H128.355V83.7569H130.898V81.2152Z" fill="white"/>
<path d="M147.417 95.8317V94.5608H142.878V95.8317H147.417Z" fill="white"/>
<path d="M445.459 50.2242C445.248 50.2242 445.046 50.1404 444.897 49.9913C444.748 49.8422 444.664 49.64 444.664 49.4291V32.0039H446.254V49.4291C446.254 49.64 446.17 49.8422 446.021 49.9913C445.872 50.1404 445.67 50.2242 445.459 50.2242Z" fill="#252525"/>
<path d="M445.469 34.6876H451.2L448.329 31.4742L445.469 28.2498L442.609 31.4742L439.738 34.6876H445.469Z" fill="#252525"/>
<path d="M148.721 36.9744C148.51 36.9744 148.308 36.8906 148.159 36.7415C148.01 36.5924 147.926 36.3902 147.926 36.1794V18.7542H149.516V36.1794C149.516 36.3902 149.432 36.5924 149.283 36.7415C149.134 36.8906 148.932 36.9744 148.721 36.9744Z" fill="#252525"/>
<path d="M148.731 21.4378H154.462L151.591 18.2244L148.731 15L145.871 18.2244L143 21.4378H148.731Z" fill="#252525"/>
<path d="M463.682 166.483V175.67" stroke="#31B047" stroke-width="1.5" stroke-miterlimit="10" stroke-linecap="round"/>
<path d="M458.668 171.077H468.43" stroke="#31B047" stroke-width="1.5" stroke-miterlimit="10" stroke-linecap="round"/>
<path d="M197.822 122.741V131.94" stroke="#31B047" stroke-width="1.5" stroke-miterlimit="10" stroke-linecap="round"/>
<path d="M192.808 127.335H202.569" stroke="#31B047" stroke-width="1.5" stroke-miterlimit="10" stroke-linecap="round"/>
<path d="M65.0146 122V131.198" stroke="#31B047" stroke-width="1.5" stroke-miterlimit="10" stroke-linecap="round"/>
<path d="M60 126.594H69.7616" stroke="#31B047" stroke-width="1.5" stroke-miterlimit="10" stroke-linecap="round"/>
<path d="M213.31 98.8031C215.078 98.8031 216.512 97.3694 216.512 95.6008C216.512 93.8322 215.078 92.3984 213.31 92.3984C211.541 92.3984 210.107 93.8322 210.107 95.6008C210.107 97.3694 211.541 98.8031 213.31 98.8031Z" stroke="#31B047" stroke-width="1.5" stroke-miterlimit="10" stroke-linecap="round"/>
<path d="M310.065 132.737C311.833 132.737 313.267 131.303 313.267 129.534C313.267 127.766 311.833 126.332 310.065 126.332C308.296 126.332 306.862 127.766 306.862 129.534C306.862 131.303 308.296 132.737 310.065 132.737Z" stroke="#31B047" stroke-width="1.5" stroke-miterlimit="10" stroke-linecap="round"/>
<path d="M104.987 184.583C106.755 184.583 108.189 183.149 108.189 181.381C108.189 179.612 106.755 178.178 104.987 178.178C103.218 178.178 101.784 179.612 101.784 181.381C101.784 183.149 103.218 184.583 104.987 184.583Z" stroke="#252525" stroke-width="1.5" stroke-miterlimit="10" stroke-linecap="round"/>
<path d="M320.366 179.971L309.375 176.43L311.804 187.719L320.366 179.971ZM250.721 180.722C212.491 174.081 180.531 156.514 161.773 134.625L160.254 135.927C179.372 158.235 211.785 175.989 250.379 182.692L250.721 180.722ZM311.387 180.881C292.883 184.271 272.145 184.443 250.721 180.722L250.379 182.692C272.023 186.452 293 186.283 311.747 182.848L311.387 180.881Z" fill="black"/>
<path d="M178.826 65.1654L189.952 68.2531L187.063 57.0734L178.826 65.1654ZM284.252 72.452C302.161 78.9184 318.321 87.4924 332.18 97.4331L333.346 95.808C319.333 85.7568 303.008 77.0979 284.932 70.5709L284.252 72.452ZM187.751 63.891C215.711 57.7346 249.977 60.0759 284.252 72.452L284.932 70.5709C250.35 58.0841 215.698 55.6896 187.321 61.9378L187.751 63.891Z" fill="black"/>
<path d="M18.9601 158.572L14.2118 153.028L9.47454 147.485L4.73727 153.028L0 158.572H3.92011V186.504H15.04V158.572H18.9601Z" fill="#31B047"/>
<path d="M486.538 66.6978L481.79 61.1545L477.053 55.6111L472.315 61.1545L467.578 66.6978H471.498V110.932H482.618V66.6978H486.538Z" fill="#31B047"/>
<circle cx="188.733" cy="163.677" r="15.1029" fill="#FFD44B"/>
<circle cx="188.734" cy="163.678" r="11.7467" fill="url(#paint4_linear_1501_9724)"/>
<rect x="183.866" y="163.677" width="6.88022" height="6.88022" transform="rotate(-45 183.866 163.677)" fill="white"/>
<path d="M133.96 12.0868L129.212 6.54337L124.475 1L119.737 6.54337L115 12.0868H118.92V44.0189H130.04V12.0868H133.96Z" fill="#31B047"/>
<defs>
<linearGradient id="paint0_linear_1501_9724" x1="368.817" y1="119.708" x2="385.178" y2="136.908" gradientUnits="userSpaceOnUse">
<stop offset="0.133929" stop-color="#FFC200"/>
<stop offset="0.580357" stop-color="#FFC200" stop-opacity="0"/>
<stop offset="1" stop-color="#FFC200"/>
</linearGradient>
<linearGradient id="paint1_linear_1501_9724" x1="347.673" y1="107.626" x2="364.035" y2="124.826" gradientUnits="userSpaceOnUse">
<stop offset="0.133929" stop-color="#FFC200"/>
<stop offset="0.580357" stop-color="#FFC200" stop-opacity="0"/>
<stop offset="1" stop-color="#FFC200"/>
</linearGradient>
<linearGradient id="paint2_linear_1501_9724" x1="377.878" y1="86.4814" x2="394.24" y2="103.682" gradientUnits="userSpaceOnUse">
<stop offset="0.133929" stop-color="#FFC200"/>
<stop offset="0.580357" stop-color="#FFC200" stop-opacity="0"/>
<stop offset="1" stop-color="#FFC200"/>
</linearGradient>
<linearGradient id="paint3_linear_1501_9724" x1="101.889" y1="57.9963" x2="118.251" y2="75.1968" gradientUnits="userSpaceOnUse">
<stop offset="0.133929" stop-color="#FFC200"/>
<stop offset="0.580357" stop-color="#FFC200" stop-opacity="0"/>
<stop offset="1" stop-color="#FFC200"/>
</linearGradient>
<linearGradient id="paint4_linear_1501_9724" x1="180.763" y1="154.868" x2="197.125" y2="172.068" gradientUnits="userSpaceOnUse">
<stop offset="0.133929" stop-color="#FFC200"/>
<stop offset="0.580357" stop-color="#FFC200" stop-opacity="0"/>
<stop offset="1" stop-color="#FFC200"/>
</linearGradient>
</defs>
</svg>
