<svg width="183" height="133" viewBox="0 0 183 133" fill="none" xmlns="http://www.w3.org/2000/svg">
<path d="M0 117.652H182.217" stroke="#31B047"/>
<path d="M0 14.3477H182.217" stroke="#31B047"/>
<path d="M25.1094 0L25.1094 132" stroke="black" stroke-dasharray="4 4"/>
<path d="M71.0234 0L71.0234 132" stroke="black" stroke-dasharray="4 4"/>
<path d="M116.934 0L116.934 132" stroke="black" stroke-dasharray="4 4"/>
<path d="M162.848 0L162.848 118" stroke="black" stroke-dasharray="4 4"/>
<path d="M46.6303 63.8475L46.8697 63.4085L46.583 63.2521L46.3245 63.4518L46.6303 63.8475ZM62.4129 72.4562L62.1734 72.8951L62.4859 73.0655L62.7492 72.8262L62.4129 72.4562ZM78.1955 58.1084L78.0449 57.6316L77.9403 57.6646L77.8591 57.7384L78.1955 58.1084ZM91.8259 53.804L92.0702 53.3678L91.8815 53.2621L91.6754 53.3272L91.8259 53.804ZM109.761 63.8475L109.516 64.2837L109.876 64.4852L110.142 64.1705L109.761 63.8475ZM125.543 45.1953L125.733 44.7325L125.396 44.595L125.162 44.8723L125.543 45.1953ZM141.326 51.6518L141.137 52.1146L141.51 52.2672L141.738 51.9351L141.326 51.6518ZM157.109 28.6953L151.897 31.1801L156.655 34.451L157.109 28.6953ZM31.1534 76.4388L46.936 64.2431L46.3245 63.4518L30.5419 75.6475L31.1534 76.4388ZM46.3908 64.2864L62.1734 72.8951L62.6523 72.0172L46.8697 63.4085L46.3908 64.2864ZM62.7492 72.8262L78.5318 58.4783L77.8591 57.7384L62.0765 72.0862L62.7492 72.8262ZM78.3461 58.5851L91.9765 54.2808L91.6754 53.3272L78.0449 57.6316L78.3461 58.5851ZM91.5816 54.2403L109.516 64.2837L110.005 63.4112L92.0702 53.3678L91.5816 54.2403ZM110.142 64.1705L125.925 45.5183L125.162 44.8723L109.379 63.5245L110.142 64.1705ZM125.354 45.6581L141.137 52.1146L141.515 51.1891L125.733 44.7325L125.354 45.6581ZM141.738 51.9351L154.971 32.6868L154.147 32.1202L140.914 51.3686L141.738 51.9351Z" fill="#31B047"/>
<circle cx="48.0657" cy="94.6956" r="8.6087" fill="#FFD44B"/>
<circle cx="48.0628" cy="94.6957" r="6.69565" fill="url(#paint0_linear_1636_10657)"/>
<rect x="45.2891" y="94.6953" width="3.92174" height="3.92174" transform="rotate(-45 45.2891 94.6953)" fill="white"/>
<circle cx="88.2376" cy="94.6956" r="8.6087" fill="#FFD44B"/>
<circle cx="88.2347" cy="94.6957" r="6.69565" fill="url(#paint1_linear_1636_10657)"/>
<rect x="85.4609" y="94.6953" width="3.92174" height="3.92174" transform="rotate(-45 85.4609 94.6953)" fill="white"/>
<circle cx="134.152" cy="94.6956" r="8.6087" fill="#FFD44B"/>
<circle cx="134.149" cy="94.6957" r="6.69565" fill="url(#paint2_linear_1636_10657)"/>
<rect x="131.375" y="94.6953" width="3.92174" height="3.92174" transform="rotate(-45 131.375 94.6953)" fill="white"/>
<circle cx="99.7181" cy="94.6956" r="8.6087" fill="#FFD44B"/>
<circle cx="99.7191" cy="94.6957" r="6.69565" fill="url(#paint3_linear_1636_10657)"/>
<rect x="96.9453" y="94.6953" width="3.92174" height="3.92174" transform="rotate(-45 96.9453 94.6953)" fill="white"/>
<circle cx="145.632" cy="94.6956" r="8.6087" fill="#FFD44B"/>
<circle cx="145.633" cy="94.6957" r="6.69565" fill="url(#paint4_linear_1636_10657)"/>
<rect x="142.859" y="94.6953" width="3.92174" height="3.92174" transform="rotate(-45 142.859 94.6953)" fill="white"/>
<circle cx="139.89" cy="83.2171" r="8.6087" fill="#FFD44B"/>
<circle cx="139.891" cy="83.2171" r="6.69565" fill="url(#paint5_linear_1636_10657)"/>
<rect x="137.117" y="83.2168" width="3.92174" height="3.92174" transform="rotate(-45 137.117 83.2168)" fill="white"/>
<path d="M137.742 132H136.734V126.363H137.742V129H137.777L140.027 126.363H141.188L139.016 128.863L141.355 132H140.129L138.297 129.539L137.742 130.188V132Z" fill="black"/>
<path d="M142.863 132H141.891V126.363H142.766L145.562 130.312H145.598V126.363H146.566V132H145.699L142.898 128.047H142.863V132Z" fill="black"/>
<path d="M150.047 126.27C150.867 126.27 151.517 126.531 151.996 127.055C152.478 127.578 152.719 128.288 152.719 129.184C152.719 130.079 152.478 130.789 151.996 131.312C151.517 131.833 150.867 132.094 150.047 132.094C149.224 132.094 148.572 131.833 148.09 131.312C147.611 130.789 147.371 130.079 147.371 129.184C147.371 128.288 147.611 127.578 148.09 127.055C148.572 126.531 149.224 126.27 150.047 126.27ZM151.246 127.688C150.949 127.315 150.549 127.129 150.047 127.129C149.544 127.129 149.145 127.314 148.848 127.684C148.551 128.053 148.402 128.553 148.402 129.184C148.402 129.811 148.551 130.31 148.848 130.68C149.145 131.049 149.544 131.234 150.047 131.234C150.549 131.234 150.949 131.049 151.246 130.68C151.543 130.31 151.691 129.811 151.691 129.184C151.691 128.556 151.543 128.057 151.246 127.688Z" fill="black"/>
<path d="M155.953 132.094C155.146 132.094 154.507 131.833 154.035 131.312C153.566 130.792 153.332 130.081 153.332 129.18C153.332 128.284 153.568 127.576 154.039 127.055C154.513 126.531 155.151 126.27 155.953 126.27C156.609 126.27 157.163 126.457 157.613 126.832C158.064 127.204 158.32 127.693 158.383 128.297H157.391C157.326 127.943 157.16 127.659 156.895 127.445C156.632 127.232 156.318 127.125 155.953 127.125C155.469 127.125 155.082 127.311 154.793 127.684C154.507 128.053 154.363 128.552 154.363 129.18C154.363 129.812 154.507 130.314 154.793 130.684C155.079 131.053 155.467 131.238 155.957 131.238C156.329 131.238 156.642 131.143 156.895 130.953C157.15 130.76 157.316 130.495 157.395 130.156H158.383C158.294 130.76 158.034 131.234 157.602 131.578C157.169 131.922 156.62 132.094 155.953 132.094Z" fill="black"/>
<path d="M160.156 132H159.148V126.363H160.156V129H160.191L162.441 126.363H163.602L161.43 128.863L163.77 132H162.543L160.711 129.539L160.156 130.188V132Z" fill="black"/>
<path d="M168.391 126.27C169.211 126.27 169.861 126.531 170.34 127.055C170.822 127.578 171.062 128.288 171.062 129.184C171.062 130.079 170.822 130.789 170.34 131.312C169.861 131.833 169.211 132.094 168.391 132.094C167.568 132.094 166.915 131.833 166.434 131.312C165.954 130.789 165.715 130.079 165.715 129.184C165.715 128.288 165.954 127.578 166.434 127.055C166.915 126.531 167.568 126.27 168.391 126.27ZM169.59 127.688C169.293 127.315 168.893 127.129 168.391 127.129C167.888 127.129 167.488 127.314 167.191 127.684C166.895 128.053 166.746 128.553 166.746 129.184C166.746 129.811 166.895 130.31 167.191 130.68C167.488 131.049 167.888 131.234 168.391 131.234C168.893 131.234 169.293 131.049 169.59 130.68C169.887 130.31 170.035 129.811 170.035 129.184C170.035 128.556 169.887 128.057 169.59 127.688Z" fill="black"/>
<path d="M172.875 126.363V129.922C172.875 130.312 172.99 130.626 173.219 130.863C173.451 131.098 173.772 131.215 174.184 131.215C174.595 131.215 174.917 131.098 175.148 130.863C175.38 130.626 175.496 130.312 175.496 129.922V126.363H176.5V130.012C176.5 130.634 176.29 131.137 175.871 131.52C175.454 131.902 174.892 132.094 174.184 132.094C173.478 132.094 172.915 131.902 172.496 131.52C172.077 131.137 171.867 130.634 171.867 130.012V126.363H172.875Z" fill="black"/>
<path d="M179.883 132H178.879V127.215H177.191V126.363H181.566V127.215H179.883V132Z" fill="black"/>
<defs>
<linearGradient id="paint0_linear_1636_10657" x1="43.5194" y1="89.6739" x2="52.8455" y2="99.4783" gradientUnits="userSpaceOnUse">
<stop offset="0.133929" stop-color="#FFC200"/>
<stop offset="0.580357" stop-color="#FFC200" stop-opacity="0"/>
<stop offset="1" stop-color="#FFC200"/>
</linearGradient>
<linearGradient id="paint1_linear_1636_10657" x1="83.6912" y1="89.6739" x2="93.0173" y2="99.4783" gradientUnits="userSpaceOnUse">
<stop offset="0.133929" stop-color="#FFC200"/>
<stop offset="0.580357" stop-color="#FFC200" stop-opacity="0"/>
<stop offset="1" stop-color="#FFC200"/>
</linearGradient>
<linearGradient id="paint2_linear_1636_10657" x1="129.605" y1="89.6739" x2="138.931" y2="99.4783" gradientUnits="userSpaceOnUse">
<stop offset="0.133929" stop-color="#FFC200"/>
<stop offset="0.580357" stop-color="#FFC200" stop-opacity="0"/>
<stop offset="1" stop-color="#FFC200"/>
</linearGradient>
<linearGradient id="paint3_linear_1636_10657" x1="95.1756" y1="89.6739" x2="104.502" y2="99.4783" gradientUnits="userSpaceOnUse">
<stop offset="0.133929" stop-color="#FFC200"/>
<stop offset="0.580357" stop-color="#FFC200" stop-opacity="0"/>
<stop offset="1" stop-color="#FFC200"/>
</linearGradient>
<linearGradient id="paint4_linear_1636_10657" x1="141.09" y1="89.6739" x2="150.416" y2="99.4783" gradientUnits="userSpaceOnUse">
<stop offset="0.133929" stop-color="#FFC200"/>
<stop offset="0.580357" stop-color="#FFC200" stop-opacity="0"/>
<stop offset="1" stop-color="#FFC200"/>
</linearGradient>
<linearGradient id="paint5_linear_1636_10657" x1="135.347" y1="78.1954" x2="144.674" y2="87.9997" gradientUnits="userSpaceOnUse">
<stop offset="0.133929" stop-color="#FFC200"/>
<stop offset="0.580357" stop-color="#FFC200" stop-opacity="0"/>
<stop offset="1" stop-color="#FFC200"/>
</linearGradient>
</defs>
</svg>
