<svg width="741" height="234" viewBox="0 0 741 234" fill="none" xmlns="http://www.w3.org/2000/svg">
<line x1="741" y1="217.5" y2="217.5" stroke="#ADB9D8"/>
<path d="M430.912 98.7712V90.9669" stroke="#AEC0B1" stroke-width="1.5" stroke-miterlimit="10" stroke-linecap="round"/>
<path d="M426.652 94.8689H434.944" stroke="#AEC0B1" stroke-width="1.5" stroke-miterlimit="10" stroke-linecap="round"/>
<path d="M472.535 163.33V155.526" stroke="#AEC0B1" stroke-width="1.5" stroke-miterlimit="10" stroke-linecap="round"/>
<path d="M468.275 159.427H476.567" stroke="#AEC0B1" stroke-width="1.5" stroke-miterlimit="10" stroke-linecap="round"/>
<path d="M337.26 78.9998V86.8041" stroke="#AEC0B1" stroke-width="1.5" stroke-miterlimit="10" stroke-linecap="round"/>
<path d="M333 82.9021H341.292" stroke="#AEC0B1" stroke-width="1.5" stroke-miterlimit="10" stroke-linecap="round"/>
<path d="M363.805 102.172V94.3673" stroke="#AEC0B1" stroke-width="1.5" stroke-miterlimit="10" stroke-linecap="round"/>
<path d="M359.545 98.2693H367.837" stroke="#AEC0B1" stroke-width="1.5" stroke-miterlimit="10" stroke-linecap="round"/>
<path d="M338.09 192.67V200.474" stroke="#AEC0B1" stroke-width="1.5" stroke-miterlimit="10" stroke-linecap="round"/>
<path d="M333.83 196.572H342.122" stroke="#AEC0B1" stroke-width="1.5" stroke-miterlimit="10" stroke-linecap="round"/>
<path d="M702.002 185.767V193.572" stroke="#AEC0B1" stroke-width="1.5" stroke-miterlimit="10" stroke-linecap="round"/>
<path d="M697.742 189.67H706.034" stroke="#AEC0B1" stroke-width="1.5" stroke-miterlimit="10" stroke-linecap="round"/>
<path d="M402.982 208.767V200.963" stroke="#AEC0B1" stroke-width="1.5" stroke-miterlimit="10" stroke-linecap="round"/>
<path d="M398.723 204.865H407.015" stroke="#AEC0B1" stroke-width="1.5" stroke-miterlimit="10" stroke-linecap="round"/>
<path d="M701.891 126.824V119.02" stroke="#AEC0B1" stroke-width="1.5" stroke-miterlimit="10" stroke-linecap="round"/>
<path d="M697.631 122.922H705.923" stroke="#AEC0B1" stroke-width="1.5" stroke-miterlimit="10" stroke-linecap="round"/>
<path d="M301.797 139.388V147.193" stroke="#AEC0B1" stroke-width="1.5" stroke-miterlimit="10" stroke-linecap="round"/>
<path d="M297.537 143.291H305.829" stroke="#AEC0B1" stroke-width="1.5" stroke-miterlimit="10" stroke-linecap="round"/>
<path d="M536.812 141.213V149.017" stroke="#AEC0B1" stroke-width="1.5" stroke-miterlimit="10" stroke-linecap="round"/>
<path d="M532.553 145.115H540.845" stroke="#AEC0B1" stroke-width="1.5" stroke-miterlimit="10" stroke-linecap="round"/>
<path d="M554.934 80.7732V88.5775" stroke="#AEC0B1" stroke-width="1.5" stroke-miterlimit="10" stroke-linecap="round"/>
<path d="M550.674 84.6755H558.966" stroke="#AEC0B1" stroke-width="1.5" stroke-miterlimit="10" stroke-linecap="round"/>
<path d="M242.861 160.386C244.363 160.386 245.581 159.168 245.581 157.665C245.581 156.163 244.363 154.945 242.861 154.945C241.359 154.945 240.141 156.163 240.141 157.665C240.141 159.168 241.359 160.386 242.861 160.386Z" stroke="#AEC0B1" stroke-width="1.5" stroke-miterlimit="10" stroke-linecap="round"/>
<path d="M340.72 129.44C342.223 129.44 343.441 128.222 343.441 126.72C343.441 125.218 342.223 124 340.72 124C339.218 124 338 125.218 338 126.72C338 128.222 339.218 129.44 340.72 129.44Z" stroke="#AEC0B1" stroke-width="1.5" stroke-miterlimit="10" stroke-linecap="round"/>
<path d="M647.72 52.0007C649.223 52.0007 650.441 53.2185 650.441 54.7209C650.441 56.2233 649.223 57.4412 647.72 57.4412C646.218 57.4412 645 56.2233 645 54.7209C645 53.2185 646.218 52.0007 647.72 52.0007Z" stroke="#AEC0B1" stroke-width="1.5" stroke-miterlimit="10" stroke-linecap="round"/>
<path d="M252.685 96.409C254.187 96.409 255.405 95.1911 255.405 93.6888C255.405 92.1864 254.187 90.9685 252.685 90.9685C251.183 90.9685 249.965 92.1864 249.965 93.6888C249.965 95.1911 251.183 96.409 252.685 96.409Z" stroke="#AEC0B1" stroke-width="1.5" stroke-miterlimit="10" stroke-linecap="round"/>
<path d="M655.72 187.001C657.223 187.001 658.441 188.219 658.441 189.721C658.441 191.223 657.223 192.441 655.72 192.441C654.218 192.441 653 191.223 653 189.721C653 188.219 654.218 187.001 655.72 187.001Z" stroke="#AEC0B1" stroke-width="1.5" stroke-miterlimit="10" stroke-linecap="round"/>
<path d="M488.836 112.548C490.338 112.548 491.556 111.33 491.556 109.827C491.556 108.325 490.338 107.107 488.836 107.107C487.333 107.107 486.115 108.325 486.115 109.827C486.115 111.33 487.333 112.548 488.836 112.548Z" stroke="#AEC0B1" stroke-width="1.5" stroke-miterlimit="10" stroke-linecap="round"/>
<path d="M587.373 128.688C588.875 128.688 590.093 127.47 590.093 125.968C590.093 124.466 588.875 123.248 587.373 123.248C585.87 123.248 584.652 124.466 584.652 125.968C584.652 127.47 585.87 128.688 587.373 128.688Z" stroke="#AEC0B1" stroke-width="1.5" stroke-miterlimit="10" stroke-linecap="round"/>
<path d="M664.673 88.7625C666.176 88.7625 667.394 87.5446 667.394 86.0423C667.394 84.5399 666.176 83.322 664.673 83.322C663.171 83.322 661.953 84.5399 661.953 86.0423C661.953 87.5446 663.171 88.7625 664.673 88.7625Z" stroke="#AEC0B1" stroke-width="1.5" stroke-miterlimit="10" stroke-linecap="round"/>
<path d="M660.253 170.108C661.756 170.108 662.974 168.89 662.974 167.388C662.974 165.886 661.756 164.668 660.253 164.668C658.751 164.668 657.533 165.886 657.533 167.388C657.533 168.89 658.751 170.108 660.253 170.108Z" stroke="#AEC0B1" stroke-width="1.5" stroke-miterlimit="10" stroke-linecap="round"/>
<path d="M437.303 117.531L438.005 116.206L437.164 115.76L436.402 116.332L437.303 117.531ZM475.883 137.969L475.18 139.294L476.097 139.78L476.875 139.093L475.883 137.969ZM514.463 103.906L514.023 102.472L513.713 102.567L513.47 102.782L514.463 103.906ZM547.782 93.6875L548.498 92.3698L547.944 92.0686L547.342 92.2534L547.782 93.6875ZM591.622 117.531L590.906 118.849L591.963 119.424L592.753 118.517L591.622 117.531ZM630.202 73.2499L630.756 71.8559L629.769 71.4637L629.071 72.2645L630.202 73.2499ZM668.782 88.5781L668.228 89.9721L669.325 90.4077L670.007 89.4447L668.782 88.5781ZM707.362 34.0779L691.627 41.3172L705.764 51.3245L707.362 34.0779ZM399.623 147.684L438.203 118.731L436.402 116.332L397.822 145.285L399.623 147.684ZM436.6 118.857L475.18 139.294L476.585 136.643L438.005 116.206L436.6 118.857ZM476.875 139.093L515.455 105.031L513.47 102.782L474.89 136.844L476.875 139.093ZM514.902 105.34L548.221 95.1215L547.342 92.2534L514.023 102.472L514.902 105.34ZM547.065 95.0052L590.906 118.849L592.339 116.214L548.498 92.3698L547.065 95.0052ZM592.753 118.517L631.333 74.2352L629.071 72.2645L590.491 116.546L592.753 118.517ZM629.649 74.6439L668.228 89.9721L669.336 87.1841L630.756 71.8559L629.649 74.6439ZM670.007 89.4447L700.787 45.9632L698.338 44.2299L667.558 87.7114L670.007 89.4447Z" fill="#6CBD7A"/>
<path d="M329.234 177.41L329.759 176.005L329.128 175.769L328.531 176.085L329.234 177.41ZM383.868 197.848L383.342 199.253L384.035 199.512L384.662 199.121L383.868 197.848ZM438.502 163.785L438.185 162.319L437.93 162.374L437.709 162.512L438.502 163.785ZM485.686 153.566L486.224 152.166L485.806 152.006L485.369 152.1L485.686 153.566ZM547.771 177.41L547.233 178.81L548.042 179.121L548.715 178.576L547.771 177.41ZM602.405 133.129L602.81 131.685L602.063 131.475L601.46 131.963L602.405 133.129ZM657.039 148.457L656.634 149.901L657.478 150.138L658.098 149.519L657.039 148.457ZM711.673 93.9568L694.938 98.4191L707.17 110.682L711.673 93.9568ZM275.302 207.689L329.936 178.736L328.531 176.085L273.897 205.038L275.302 207.689ZM328.708 178.815L383.342 199.253L384.394 196.443L329.759 176.005L328.708 178.815ZM384.662 199.121L439.296 165.058L437.709 162.512L383.074 196.575L384.662 199.121ZM438.82 165.251L486.004 155.032L485.369 152.1L438.185 162.319L438.82 165.251ZM485.149 154.967L547.233 178.81L548.308 176.01L486.224 152.166L485.149 154.967ZM548.715 178.576L603.349 134.294L601.46 131.963L546.826 176.245L548.715 178.576ZM602 134.573L656.634 149.901L657.444 147.013L602.81 131.685L602 134.573ZM658.098 149.519L703.175 104.553L701.056 102.429L655.98 147.395L658.098 149.519Z" fill="#6CBD7A"/>
<path d="M461.698 86.6183L461.137 86.3283C466.034 76.7666 472.611 68.1634 480.553 60.9294L480.982 61.3959C473.094 68.5795 466.562 77.1229 461.698 86.6183V86.6183Z" fill="#A0ECAD"/>
<path d="M453.804 109.123L453.174 108.996C454.086 104.539 455.338 100.157 456.918 95.8904L457.511 96.111C455.943 100.347 454.704 104.697 453.804 109.123V109.123Z" fill="#A0ECAD"/>
<path opacity="0.9" d="M590.974 177.233C618.815 149.392 618.815 104.252 590.974 76.4109C563.132 48.5696 517.993 48.5696 490.151 76.4109C462.31 104.252 462.31 149.392 490.151 177.233C517.993 205.074 563.132 205.074 590.974 177.233Z" fill="#FAFAFA"/>
<g opacity="0.4">
<path opacity="0.4" d="M490.114 166.698H473.352L476.592 158.742H486.874L490.114 166.698Z" fill="#407BFF"/>
<path opacity="0.2" d="M490.114 166.698H473.352L476.592 158.742H486.874L490.114 166.698Z" fill="#FAFAFA"/>
<path opacity="0.4" d="M515.59 166.698H490.115L486.875 158.742H512.35L515.59 166.698Z" fill="#407BFF"/>
<path opacity="0.3" d="M515.59 166.698H490.115L486.875 158.742H512.35L515.59 166.698Z" fill="black"/>
<path opacity="0.4" d="M511.511 166.698H494.742L497.982 158.742H508.271L511.511 166.698Z" fill="#407BFF"/>
<path opacity="0.2" d="M511.511 166.698H494.742L497.982 158.742H508.271L511.511 166.698Z" fill="#FAFAFA"/>
<path opacity="0.4" d="M536.98 166.698H511.512L508.271 158.742H533.74L536.98 166.698Z" fill="#407BFF"/>
<path opacity="0.3" d="M536.98 166.698H511.512L508.271 158.742H533.74L536.98 166.698Z" fill="black"/>
<path opacity="0.4" d="M532.901 166.698H516.139L519.379 158.742H529.661L532.901 166.698Z" fill="#407BFF"/>
<path opacity="0.2" d="M532.901 166.698H516.139L519.379 158.742H529.661L532.901 166.698Z" fill="#FAFAFA"/>
<path opacity="0.4" d="M558.369 166.698H532.9L529.66 158.742H555.135L558.369 166.698Z" fill="#407BFF"/>
<path opacity="0.3" d="M558.369 166.698H532.9L529.66 158.742H555.135L558.369 166.698Z" fill="black"/>
<path opacity="0.4" d="M554.29 166.698H537.527L540.768 158.742H551.049L554.29 166.698Z" fill="#407BFF"/>
<path opacity="0.2" d="M554.29 166.698H537.527L540.768 158.742H551.049L554.29 166.698Z" fill="#FAFAFA"/>
<path opacity="0.4" d="M579.764 166.698H554.289L551.049 158.742H576.523L579.764 166.698Z" fill="#407BFF"/>
<path opacity="0.3" d="M579.764 166.698H554.289L551.049 158.742H576.523L579.764 166.698Z" fill="black"/>
<path opacity="0.4" d="M575.685 166.698H558.916L562.156 158.742H572.444L575.685 166.698Z" fill="#407BFF"/>
<path opacity="0.2" d="M575.685 166.698H558.916L562.156 158.742H572.444L575.685 166.698Z" fill="#FAFAFA"/>
<path opacity="0.4" d="M589.277 166.698C590.088 164.063 590.824 161.411 591.483 158.742H572.445L575.686 166.698H589.277Z" fill="#407BFF"/>
<path opacity="0.3" d="M589.277 166.698C590.088 164.063 590.824 161.411 591.483 158.742H572.445L575.686 166.698H589.277Z" fill="black"/>
<path opacity="0.4" d="M591.483 158.742H583.553L580.312 166.698H589.277C590.092 164.063 590.828 161.411 591.483 158.742Z" fill="#407BFF"/>
<path opacity="0.2" d="M591.483 158.742H583.553L580.312 166.698H589.277C590.092 164.063 590.828 161.411 591.483 158.742Z" fill="#FAFAFA"/>
<path opacity="0.4" d="M496.651 158.741H479.883L483.123 150.779H493.411L496.651 158.741Z" fill="#407BFF"/>
<path opacity="0.2" d="M496.651 158.741H479.883L483.123 150.779H493.411L496.651 158.741Z" fill="#FAFAFA"/>
<path opacity="0.4" d="M522.121 158.741H496.652L493.412 150.779H518.88L522.121 158.741Z" fill="#407BFF"/>
<path opacity="0.3" d="M522.121 158.741H496.652L493.412 150.779H518.88L522.121 158.741Z" fill="black"/>
<path opacity="0.4" d="M518.042 158.741H501.279L504.52 150.779H514.801L518.042 158.741Z" fill="#407BFF"/>
<path opacity="0.2" d="M518.042 158.741H501.279L504.52 150.779H514.801L518.042 158.741Z" fill="#FAFAFA"/>
<path opacity="0.4" d="M543.509 158.741H518.041L514.801 150.779H540.275L543.509 158.741Z" fill="#407BFF"/>
<path opacity="0.3" d="M543.509 158.741H518.041L514.801 150.779H540.275L543.509 158.741Z" fill="black"/>
<path opacity="0.4" d="M539.43 158.741H522.668L525.908 150.779H536.19L539.43 158.741Z" fill="#407BFF"/>
<path opacity="0.2" d="M539.43 158.741H522.668L525.908 150.779H536.19L539.43 158.741Z" fill="#FAFAFA"/>
<path opacity="0.4" d="M564.904 158.741H539.43L536.189 150.779H561.664L564.904 158.741Z" fill="#407BFF"/>
<path opacity="0.3" d="M564.904 158.741H539.43L536.189 150.779H561.664L564.904 158.741Z" fill="black"/>
<path opacity="0.4" d="M560.825 158.741H544.057L547.297 150.779H557.585L560.825 158.741Z" fill="#407BFF"/>
<path opacity="0.2" d="M560.825 158.741H544.057L547.297 150.779H557.585L560.825 158.741Z" fill="#FAFAFA"/>
<path opacity="0.4" d="M586.294 158.741H560.826L557.586 150.779H583.054L586.294 158.741Z" fill="#407BFF"/>
<path opacity="0.3" d="M586.294 158.741H560.826L557.586 150.779H583.054L586.294 158.741Z" fill="black"/>
<path opacity="0.4" d="M582.215 158.741H565.453L568.693 150.779H578.975L582.215 158.741Z" fill="#407BFF"/>
<path opacity="0.2" d="M582.215 158.741H565.453L568.693 150.779H578.975L582.215 158.741Z" fill="#FAFAFA"/>
<path opacity="0.4" d="M591.483 158.741C592.114 156.1 592.713 153.452 593.204 150.779H579.008L582.248 158.741H591.483Z" fill="#407BFF"/>
<path opacity="0.3" d="M591.483 158.741C592.114 156.1 592.713 153.452 593.204 150.779H579.008L582.248 158.741H591.483Z" fill="black"/>
<path opacity="0.4" d="M593.203 150.779H590.082L586.842 158.741H591.482C592.131 156.1 592.711 153.452 593.203 150.779Z" fill="#407BFF"/>
<path opacity="0.2" d="M593.203 150.779H590.082L586.842 158.741H591.482C592.131 156.1 592.711 153.452 593.203 150.779Z" fill="#FAFAFA"/>
<path opacity="0.4" d="M502.251 150.78H485.488L488.729 142.824H499.01L502.251 150.78Z" fill="#407BFF"/>
<path opacity="0.2" d="M502.251 150.78H485.488L488.729 142.824H499.01L502.251 150.78Z" fill="#FAFAFA"/>
<path opacity="0.4" d="M527.725 150.78H502.25L499.01 142.824H524.484L527.725 150.78Z" fill="#407BFF"/>
<path opacity="0.3" d="M527.725 150.78H502.25L499.01 142.824H524.484L527.725 150.78Z" fill="black"/>
<path opacity="0.4" d="M523.646 150.78H506.877L510.117 142.824H520.399L523.646 150.78Z" fill="#407BFF"/>
<path opacity="0.2" d="M523.646 150.78H506.877L510.117 142.824H520.399L523.646 150.78Z" fill="#FAFAFA"/>
<path opacity="0.4" d="M549.113 150.78H523.645L520.398 142.824H545.873L549.113 150.78Z" fill="#407BFF"/>
<path opacity="0.3" d="M549.113 150.78H523.645L520.398 142.824H545.873L549.113 150.78Z" fill="black"/>
<path opacity="0.4" d="M545.036 150.78H528.273L531.514 142.824H541.796L545.036 150.78Z" fill="#407BFF"/>
<path opacity="0.2" d="M545.036 150.78H528.273L531.514 142.824H541.796L545.036 150.78Z" fill="#FAFAFA"/>
<path opacity="0.4" d="M570.503 150.78H545.035L541.795 142.824H567.263L570.503 150.78Z" fill="#407BFF"/>
<path opacity="0.3" d="M570.503 150.78H545.035L541.795 142.824H567.263L570.503 150.78Z" fill="black"/>
<path opacity="0.4" d="M566.424 150.78H549.662L552.902 142.824H563.184L566.424 150.78Z" fill="#407BFF"/>
<path opacity="0.2" d="M566.424 150.78H549.662L552.902 142.824H563.184L566.424 150.78Z" fill="#FAFAFA"/>
<path opacity="0.4" d="M591.898 150.78H566.424L563.184 142.824H588.658L591.898 150.78Z" fill="#407BFF"/>
<path opacity="0.3" d="M591.898 150.78H566.424L563.184 142.824H588.658L591.898 150.78Z" fill="black"/>
<path opacity="0.4" d="M587.819 150.78H571.051L574.291 142.824H584.579L587.819 150.78Z" fill="#407BFF"/>
<path opacity="0.2" d="M587.819 150.78H571.051L574.291 142.824H584.579L587.819 150.78Z" fill="#FAFAFA"/>
<path opacity="0.4" d="M593.204 150.78C593.696 148.145 594.116 145.493 594.465 142.824H584.58L587.833 150.78H593.204Z" fill="#407BFF"/>
<path opacity="0.3" d="M593.204 150.78C593.696 148.145 594.116 145.493 594.465 142.824H584.58L587.833 150.78H593.204Z" fill="black"/>
<path opacity="0.4" d="M593.765 147.539L592.447 150.779H593.204C593.405 149.703 593.592 148.623 593.765 147.539Z" fill="#407BFF"/>
<path opacity="0.2" d="M593.765 147.539L592.447 150.779H593.204C593.405 149.703 593.592 148.623 593.765 147.539Z" fill="#FAFAFA"/>
<path opacity="0.4" d="M508.78 142.825H492.018L495.258 134.869H505.546L508.78 142.825Z" fill="#407BFF"/>
<path opacity="0.2" d="M508.78 142.825H492.018L495.258 134.869H505.546L508.78 142.825Z" fill="#FAFAFA"/>
<path opacity="0.4" d="M534.255 142.825H508.781L505.547 134.869H531.015L534.255 142.825Z" fill="#407BFF"/>
<path opacity="0.3" d="M534.255 142.825H508.781L505.547 134.869H531.015L534.255 142.825Z" fill="black"/>
<path opacity="0.4" d="M530.176 142.825H513.414L516.654 134.869H526.936L530.176 142.825Z" fill="#407BFF"/>
<path opacity="0.2" d="M530.176 142.825H513.414L516.654 134.869H526.936L530.176 142.825Z" fill="#FAFAFA"/>
<path opacity="0.4" d="M555.644 142.825H530.176L526.936 134.869H552.41L555.644 142.825Z" fill="#407BFF"/>
<path opacity="0.3" d="M555.644 142.825H530.176L526.936 134.869H552.41L555.644 142.825Z" fill="black"/>
<path opacity="0.4" d="M551.565 142.825H534.803L538.043 134.869H548.325L551.565 142.825Z" fill="#407BFF"/>
<path opacity="0.2" d="M551.565 142.825H534.803L538.043 134.869H548.325L551.565 142.825Z" fill="#FAFAFA"/>
<path opacity="0.4" d="M577.039 142.825H551.564L548.324 134.869H573.799L577.039 142.825Z" fill="#407BFF"/>
<path opacity="0.3" d="M577.039 142.825H551.564L548.324 134.869H573.799L577.039 142.825Z" fill="black"/>
<path opacity="0.4" d="M572.96 142.825H556.191L559.432 134.869H569.72L572.96 142.825Z" fill="#407BFF"/>
<path opacity="0.2" d="M572.96 142.825H556.191L559.432 134.869H569.72L572.96 142.825Z" fill="#FAFAFA"/>
<path opacity="0.4" d="M594.439 142.825C594.767 140.181 595.008 137.529 595.164 134.869H569.721L572.961 142.825H594.439Z" fill="#407BFF"/>
<path opacity="0.3" d="M594.439 142.825C594.767 140.181 595.008 137.529 595.164 134.869H569.721L572.961 142.825H594.439Z" fill="black"/>
<path opacity="0.4" d="M594.35 142.825H577.588L580.828 134.869H591.11L594.35 142.825Z" fill="#407BFF"/>
<path opacity="0.2" d="M594.35 142.825H577.588L580.828 134.869H591.11L594.35 142.825Z" fill="#FAFAFA"/>
<path opacity="0.4" d="M594.44 142.825C594.768 140.181 595.009 137.529 595.165 134.869H591.111L594.352 142.825H594.44Z" fill="#407BFF"/>
<path opacity="0.3" d="M594.44 142.825C594.768 140.181 595.009 137.529 595.165 134.869H591.111L594.352 142.825H594.44Z" fill="black"/>
<path opacity="0.4" d="M505.068 198.528H510.792L507.552 190.572H494.855C498.46 192.956 501.874 195.616 505.068 198.528Z" fill="#407BFF"/>
<path opacity="0.3" d="M505.068 198.528H510.792L507.552 190.572H494.855C498.46 192.956 501.874 195.616 505.068 198.528Z" fill="black"/>
<path opacity="0.4" d="M505.068 198.528H506.713L503.473 190.572H494.855C498.46 192.956 501.874 195.616 505.068 198.528Z" fill="#407BFF"/>
<path opacity="0.2" d="M505.068 198.528H506.713L503.473 190.572H494.855C498.46 192.956 501.874 195.616 505.068 198.528Z" fill="#FAFAFA"/>
<path opacity="0.4" d="M532.181 198.528H506.713L503.473 190.572H528.941L532.181 198.528Z" fill="#407BFF"/>
<path opacity="0.3" d="M532.181 198.528H506.713L503.473 190.572H528.941L532.181 198.528Z" fill="black"/>
<path opacity="0.4" d="M528.102 198.528H511.34L514.58 190.572H524.862L528.102 198.528Z" fill="#407BFF"/>
<path opacity="0.2" d="M528.102 198.528H511.34L514.58 190.572H524.862L528.102 198.528Z" fill="#FAFAFA"/>
<path opacity="0.4" d="M553.57 198.528H528.102L524.861 190.572H550.33L553.57 198.528Z" fill="#407BFF"/>
<path opacity="0.3" d="M553.57 198.528H528.102L524.861 190.572H550.33L553.57 198.528Z" fill="black"/>
<path opacity="0.4" d="M549.491 198.528H532.729L535.969 190.572H546.251L549.491 198.528Z" fill="#407BFF"/>
<path opacity="0.2" d="M549.491 198.528H532.729L535.969 190.572H546.251L549.491 198.528Z" fill="#FAFAFA"/>
<path opacity="0.4" d="M574.828 198.187L571.726 190.572H546.227L549.467 198.528H574.45C574.595 198.421 574.708 198.301 574.828 198.187Z" fill="#407BFF"/>
<path opacity="0.3" d="M574.828 198.187L571.726 190.572H546.227L549.467 198.528H574.45C574.595 198.421 574.708 198.301 574.828 198.187Z" fill="black"/>
<path opacity="0.4" d="M570.888 198.528H554.119L557.359 190.572H567.648L570.888 198.528Z" fill="#407BFF"/>
<path opacity="0.2" d="M570.888 198.528H554.119L557.359 190.572H567.648L570.888 198.528Z" fill="#FAFAFA"/>
<path opacity="0.4" d="M574.475 198.528C576.822 196.214 578.767 193.525 580.23 190.572H567.66L570.9 198.528H574.475Z" fill="#407BFF"/>
<path opacity="0.3" d="M574.475 198.528C576.822 196.214 578.767 193.525 580.23 190.572H567.66L570.9 198.528H574.475Z" fill="black"/>
<path opacity="0.4" d="M580.23 190.572H578.755L576.309 196.573C577.827 194.719 579.141 192.707 580.23 190.572V190.572Z" fill="#407BFF"/>
<path opacity="0.2" d="M580.23 190.572H578.755L576.309 196.573C577.827 194.719 579.141 192.707 580.23 190.572V190.572Z" fill="#FAFAFA"/>
<path opacity="0.4" d="M485.278 183.506C488.31 186.072 491.582 188.309 494.853 190.573H495.931L492.691 182.617H484.25C484.59 182.913 484.931 183.216 485.278 183.506Z" fill="#407BFF"/>
<path opacity="0.3" d="M485.278 183.506C488.31 186.072 491.582 188.309 494.853 190.573H495.931L492.691 182.617H484.25C484.59 182.913 484.931 183.216 485.278 183.506Z" fill="black"/>
<path opacity="0.4" d="M485.278 183.504C487.005 184.966 488.814 186.322 490.655 187.633L488.612 182.59H484.25C484.59 182.911 484.931 183.214 485.278 183.504Z" fill="#407BFF"/>
<path opacity="0.2" d="M485.278 183.504C487.005 184.966 488.814 186.322 490.655 187.633L488.612 182.59H484.25C484.59 182.911 484.931 183.214 485.278 183.504Z" fill="#FAFAFA"/>
<path opacity="0.4" d="M494.855 190.573H517.322L514.076 182.617H488.607L490.65 187.66C492.043 188.631 493.455 189.595 494.855 190.573Z" fill="#407BFF"/>
<path opacity="0.3" d="M494.855 190.573H517.322L514.076 182.617H488.607L490.65 187.66C492.043 188.631 493.455 189.595 494.855 190.573Z" fill="black"/>
<path opacity="0.4" d="M513.243 190.573H496.48L499.721 182.617H510.003L513.243 190.573Z" fill="#407BFF"/>
<path opacity="0.2" d="M513.243 190.573H496.48L499.721 182.617H510.003L513.243 190.573Z" fill="#FAFAFA"/>
<path opacity="0.4" d="M538.717 190.573H513.242L510.002 182.617H535.476L538.717 190.573Z" fill="#407BFF"/>
<path opacity="0.3" d="M538.717 190.573H513.242L510.002 182.617H535.476L538.717 190.573Z" fill="black"/>
<path opacity="0.4" d="M534.633 190.573H517.871L521.111 182.617H531.393L534.633 190.573Z" fill="#407BFF"/>
<path opacity="0.2" d="M534.633 190.573H517.871L521.111 182.617H531.393L534.633 190.573Z" fill="#FAFAFA"/>
<path opacity="0.4" d="M560.107 190.573H534.633L531.393 182.617H556.867L560.107 190.573Z" fill="#407BFF"/>
<path opacity="0.3" d="M560.107 190.573H534.633L531.393 182.617H556.867L560.107 190.573Z" fill="black"/>
<path opacity="0.4" d="M556.028 190.573H539.266L542.506 182.617H552.788L556.028 190.573Z" fill="#407BFF"/>
<path opacity="0.2" d="M556.028 190.573H539.266L542.506 182.617H552.788L556.028 190.573Z" fill="#FAFAFA"/>
<path opacity="0.4" d="M580.928 189.186L578.255 182.617H552.787L556.027 190.573H580.228C580.474 190.112 580.701 189.652 580.928 189.186Z" fill="#407BFF"/>
<path opacity="0.3" d="M580.928 189.186L578.255 182.617H552.787L556.027 190.573H580.228C580.474 190.112 580.701 189.652 580.928 189.186Z" fill="black"/>
<path opacity="0.4" d="M577.417 190.573H560.654L563.895 182.617H574.176L577.417 190.573Z" fill="#407BFF"/>
<path opacity="0.2" d="M577.417 190.573H560.654L563.895 182.617H574.176L577.417 190.573Z" fill="#FAFAFA"/>
<path opacity="0.4" d="M580.23 190.573C581.548 187.993 582.71 185.336 583.709 182.617H574.178L577.418 190.573H580.23Z" fill="#407BFF"/>
<path opacity="0.3" d="M580.23 190.573C581.548 187.993 582.71 185.336 583.709 182.617H574.178L577.418 190.573H580.23Z" fill="black"/>
<path opacity="0.4" d="M484.252 182.616H501.531L498.316 174.654H476.611C478.937 177.512 481.492 180.175 484.252 182.616V182.616Z" fill="#407BFF"/>
<path opacity="0.3" d="M484.252 182.616H501.531L498.316 174.654H476.611C478.937 177.512 481.492 180.175 484.252 182.616V182.616Z" fill="black"/>
<path opacity="0.4" d="M484.253 182.616H497.453L494.213 174.654H483.931L481.668 180.208C482.504 181.036 483.366 181.839 484.253 182.616Z" fill="#407BFF"/>
<path opacity="0.2" d="M484.253 182.616H497.453L494.213 174.654H483.931L481.668 180.208C482.504 181.036 483.366 181.839 484.253 182.616Z" fill="#FAFAFA"/>
<path opacity="0.4" d="M522.926 182.616H497.451L494.211 174.654H519.685L522.926 182.616Z" fill="#407BFF"/>
<path opacity="0.3" d="M522.926 182.616H497.451L494.211 174.654H519.685L522.926 182.616Z" fill="black"/>
<path opacity="0.4" d="M518.84 182.616H502.078L505.318 174.654H515.607L518.84 182.616Z" fill="#407BFF"/>
<path opacity="0.2" d="M518.84 182.616H502.078L505.318 174.654H515.607L518.84 182.616Z" fill="#FAFAFA"/>
<path opacity="0.4" d="M544.316 182.616H518.841L515.607 174.654H541.076L544.316 182.616Z" fill="#407BFF"/>
<path opacity="0.3" d="M544.316 182.616H518.841L515.607 174.654H541.076L544.316 182.616Z" fill="black"/>
<path opacity="0.4" d="M540.237 182.616H523.475L526.715 174.654H536.997L540.237 182.616Z" fill="#407BFF"/>
<path opacity="0.2" d="M540.237 182.616H523.475L526.715 174.654H536.997L540.237 182.616Z" fill="#FAFAFA"/>
<path opacity="0.4" d="M565.705 182.616H540.236L536.996 174.654H562.464L565.705 182.616Z" fill="#407BFF"/>
<path opacity="0.3" d="M565.705 182.616H540.236L536.996 174.654H562.464L565.705 182.616Z" fill="black"/>
<path opacity="0.4" d="M561.626 182.616H544.863L548.104 174.654H558.385L561.626 182.616Z" fill="#407BFF"/>
<path opacity="0.2" d="M561.626 182.616H544.863L548.104 174.654H558.385L561.626 182.616Z" fill="#FAFAFA"/>
<path opacity="0.4" d="M585.309 178.21L583.866 174.654H558.385L561.625 182.616H583.689C584.275 181.116 584.799 179.634 585.309 178.21Z" fill="#407BFF"/>
<path opacity="0.3" d="M585.309 178.21L583.866 174.654H558.385L561.625 182.616H583.689C584.275 181.116 584.799 179.634 585.309 178.21Z" fill="black"/>
<path opacity="0.4" d="M583.021 182.616H566.252L569.492 174.654H579.78L583.021 182.616Z" fill="#407BFF"/>
<path opacity="0.2" d="M583.021 182.616H566.252L569.492 174.654H579.78L583.021 182.616Z" fill="#FAFAFA"/>
<path opacity="0.4" d="M583.711 182.616C584.751 179.861 585.659 177.169 586.541 174.786C586.553 174.741 586.568 174.697 586.585 174.654H579.783L583.023 182.616H583.711Z" fill="#407BFF"/>
<path opacity="0.3" d="M583.711 182.616C584.751 179.861 585.659 177.169 586.541 174.786C586.553 174.741 586.568 174.697 586.585 174.654H579.783L583.023 182.616H583.711Z" fill="black"/>
<path opacity="0.4" d="M476.611 174.655H482.594L479.353 166.699H470.994C472.68 169.478 474.557 172.136 476.611 174.655V174.655Z" fill="#407BFF"/>
<path opacity="0.2" d="M476.611 174.655H482.594L479.353 166.699H470.994C472.68 169.478 474.557 172.136 476.611 174.655V174.655Z" fill="#FAFAFA"/>
<path opacity="0.4" d="M508.068 174.655H482.594L479.354 166.699H504.828L508.068 174.655Z" fill="#407BFF"/>
<path opacity="0.3" d="M508.068 174.655H482.594L479.354 166.699H504.828L508.068 174.655Z" fill="black"/>
<path opacity="0.4" d="M503.989 174.655H487.221L490.461 166.699H500.749L503.989 174.655Z" fill="#407BFF"/>
<path opacity="0.2" d="M503.989 174.655H487.221L490.461 166.699H500.749L503.989 174.655Z" fill="#FAFAFA"/>
<path opacity="0.4" d="M529.457 174.655H503.988L500.748 166.699H526.216L529.457 174.655Z" fill="#407BFF"/>
<path opacity="0.3" d="M529.457 174.655H503.988L500.748 166.699H526.216L529.457 174.655Z" fill="black"/>
<path opacity="0.4" d="M525.378 174.655H508.615L511.855 166.699H522.137L525.378 174.655Z" fill="#407BFF"/>
<path opacity="0.2" d="M525.378 174.655H508.615L511.855 166.699H522.137L525.378 174.655Z" fill="#FAFAFA"/>
<path opacity="0.4" d="M550.845 174.655H525.377L522.137 166.699H547.605L550.845 174.655Z" fill="#407BFF"/>
<path opacity="0.3" d="M550.845 174.655H525.377L522.137 166.699H547.605L550.845 174.655Z" fill="black"/>
<path opacity="0.4" d="M546.768 174.655H530.006L533.246 166.699H543.528L546.768 174.655Z" fill="#407BFF"/>
<path opacity="0.2" d="M546.768 174.655H530.006L533.246 166.699H543.528L546.768 174.655Z" fill="#FAFAFA"/>
<path opacity="0.4" d="M572.242 174.655H546.768L543.527 166.699H569.002L572.242 174.655Z" fill="#407BFF"/>
<path opacity="0.3" d="M572.242 174.655H546.768L543.527 166.699H569.002L572.242 174.655Z" fill="black"/>
<path opacity="0.4" d="M568.165 174.655H551.396L554.637 166.699H564.925L568.165 174.655Z" fill="#407BFF"/>
<path opacity="0.2" d="M568.165 174.655H551.396L554.637 166.699H564.925L568.165 174.655Z" fill="#FAFAFA"/>
<path opacity="0.4" d="M586.572 174.655C587.543 172.024 588.44 169.372 589.264 166.699H564.924L568.164 174.655H586.572Z" fill="#407BFF"/>
<path opacity="0.3" d="M586.572 174.655C587.543 172.024 588.44 169.372 589.264 166.699H564.924L568.164 174.655H586.572Z" fill="black"/>
<path opacity="0.4" d="M587.958 170.746L586.313 166.699H576.031L572.791 174.655H586.572C587.063 173.362 587.517 172.057 587.958 170.746Z" fill="#407BFF"/>
<path opacity="0.2" d="M587.958 170.746L586.313 166.699H576.031L572.791 174.655H586.572C587.063 173.362 587.517 172.057 587.958 170.746Z" fill="#FAFAFA"/>
<path opacity="0.4" d="M589.275 166.699H586.312L587.958 170.746C588.42 169.406 588.859 168.056 589.275 166.699Z" fill="#407BFF"/>
<path opacity="0.3" d="M589.275 166.699H586.312L587.958 170.746C588.42 169.406 588.859 168.056 589.275 166.699Z" fill="black"/>
</g>
<path d="M540.667 39.8162C523.445 39.8162 506.609 44.9232 492.29 54.4913C477.97 64.0595 466.809 77.6591 460.218 93.5705C453.628 109.482 451.903 126.99 455.263 143.881C458.623 160.773 466.916 176.289 479.094 188.466C491.272 200.644 506.788 208.938 523.679 212.298C540.571 215.658 558.079 213.933 573.99 207.343C589.902 200.752 603.501 189.591 613.069 175.271C622.638 160.951 627.745 144.116 627.745 126.894C627.745 103.799 618.57 81.6507 602.24 65.3205C585.91 48.9904 563.762 39.8162 540.667 39.8162V39.8162ZM540.554 198.116C526.454 198.115 512.671 193.933 500.948 186.098C489.225 178.264 480.088 167.129 474.693 154.102C469.298 141.075 467.887 126.741 470.639 112.912C473.39 99.083 480.181 86.3806 490.151 76.4108C500.122 66.4411 512.825 59.6518 526.654 56.9015C540.483 54.1512 554.817 55.5633 567.844 60.9595C580.87 66.3556 592.004 75.4933 599.838 87.2171C607.671 98.9409 611.852 112.724 611.852 126.824C611.852 136.187 610.008 145.458 606.425 154.108C602.842 162.758 597.59 170.617 590.969 177.238C584.348 183.858 576.488 189.109 567.838 192.691C559.188 196.274 549.917 198.117 540.554 198.116Z" fill="#A0ECAD"/>
<path d="M540.667 209.489C586.207 209.489 623.249 172.434 623.249 126.907C623.249 81.379 586.194 44.324 540.667 44.324C495.139 44.324 458.084 81.3727 458.084 126.907C458.084 172.44 495.12 209.489 540.667 209.489ZM540.667 44.9544C562.393 44.9827 583.221 53.6261 598.584 68.9889C613.947 84.3518 622.59 105.18 622.619 126.907C622.619 172.1 585.847 208.859 540.667 208.859C495.486 208.859 458.714 172.087 458.714 126.907C458.714 81.7257 495.467 44.9292 540.667 44.9292V44.9544Z" fill="#252525"/>
<path d="M518.448 72.9776L520.069 66.4628C523.561 67.3087 527.136 68.1532 530.67 68.9238C534.285 69.7121 537.923 70.4303 541.488 70.9223L541.488 70.9224L541.493 70.923L542.81 71.0779L542.81 71.078L542.814 71.0784L543.11 71.1081V71.1119H543.11H543.11H543.11H543.11H543.11H543.11H543.111H543.111H543.111H543.111H543.111H543.111H543.111H543.111H543.111H543.111H543.111H543.111H543.111H543.111H543.111H543.111H543.111H543.111H543.111H543.111H543.111H543.111H543.111H543.111H543.111H543.111H543.111H543.111H543.111H543.111H543.111H543.111H543.111H543.111H543.111H543.111H543.112H543.112H543.112H543.112H543.112H543.112H543.112H543.112H543.112H543.112H543.112H543.112H543.112H543.112H543.112H543.112H543.112H543.112H543.112H543.112H543.112H543.113H543.113H543.113H543.113H543.113H543.113H543.113H543.113H543.113H543.113H543.113H543.113H543.113H543.113H543.113H543.113H543.114H543.114H543.114H543.114H543.114H543.114H543.114H543.114H543.114H543.114H543.114H543.114H543.114H543.114H543.115H543.115H543.115H543.115H543.115H543.115H543.115H543.115H543.115H543.115H543.115H543.115H543.116H543.116H543.116H543.116H543.116H543.116H543.116H543.116H543.116H543.116H543.116H543.117H543.117H543.117H543.117H543.117H543.117H543.117H543.117H543.117H543.117H543.118H543.118H543.118H543.118H543.118H543.118H543.118H543.118H543.118H543.119H543.119H543.119H543.119H543.119H543.119H543.119H543.119H543.119H543.12H543.12H543.12H543.12H543.12H543.12H543.12H543.12H543.121H543.121H543.121H543.121H543.121H543.121H543.121H543.121H543.122H543.122H543.122H543.122H543.122H543.122H543.122H543.122H543.123H543.123H543.123H543.123H543.123H543.123H543.123H543.124H543.124H543.124H543.124H543.124H543.124H543.124H543.125H543.125H543.125H543.125H543.125H543.125H543.125H543.126H543.126H543.126H543.126H543.126H543.126H543.127H543.127H543.127H543.127H543.127H543.127H543.128H543.128H543.128H543.128H543.128H543.128H543.129H543.129H543.129H543.129H543.129H543.129H543.13H543.13H543.13H543.13H543.13H543.13H543.131H543.131H543.131H543.131H543.131H543.131H543.132H543.132H543.132H543.132H543.132H543.133H543.133H543.133H543.133H543.133H543.133H543.134H543.134H543.134H543.134H543.134H543.135H543.135H543.135H543.135H543.135H543.136H543.136H543.136H543.136H543.136H543.137H543.137H543.137H543.137H543.137H543.138H543.138H543.138H543.138H543.138H543.139H543.139H543.139H543.139H543.139H543.14H543.14H543.14H543.14H543.141H543.141H543.141H543.141H543.141H543.142H543.142H543.142H543.142H543.143H543.143H543.143H543.143H543.143H543.144H543.144H543.144H543.144H543.145H543.145H543.145H543.145H543.145H543.146H543.146H543.146H543.146H543.147H543.147H543.147H543.147H543.148H543.148H543.148H543.148H543.149H543.149H543.149H543.149H543.15H543.15H543.15H543.15H543.151H543.151H543.151H543.151H543.152H543.152H543.152H543.152H543.153H543.153H543.153H543.153H543.154H543.154H543.154H543.154H543.155H543.155H543.155H543.156H543.156H543.156H543.156H543.157H543.157H543.157H543.157H543.158H543.158H543.158H543.158H543.159H543.159H543.159H543.16H543.16H543.16H543.16H543.161H543.161H543.161H543.161H543.162H543.162H543.162H543.162H543.163H543.163H543.163H543.164H543.164H543.164H543.164H543.165H543.165H543.165H543.166H543.166H543.166H543.167H543.167H543.167H543.167H543.168H543.168H543.168H543.169H543.169H543.169H543.17H543.17H543.17H543.17H543.171H543.171H543.171H543.172H543.172H543.172H543.173H543.173H543.173H543.174H543.174H543.174H543.175H543.175H543.175H543.176H543.176H543.176H543.177H543.177H543.177H543.177H543.178H543.178H543.178H543.179H543.179H543.179H543.18H543.18H543.18H543.181H543.181H543.181H543.182H543.182H543.183H543.183H543.183H543.184H543.184H543.184H543.185H543.185H543.185H543.186H543.186H543.186H543.187H543.187H543.187H543.188H543.188H543.188H543.189H543.189H543.189H543.19H543.19H543.191H543.191H543.191H543.192H543.192H543.192H543.193H543.193H543.193H543.194H543.194H543.195H543.195H543.195H543.196H543.196H543.196H543.197H543.197H543.198H543.198H543.198H543.199H543.199H543.199H543.2H543.2H543.201H543.201H543.201H543.202H543.202H543.203H543.203H543.203H543.204H543.204H543.204H543.205H543.205H543.206H543.206H543.206H543.207H543.207H543.208H543.208H543.208H543.209H543.209H543.21H543.21H543.21H543.211H543.211H543.243L543.274 71.1038C543.87 70.9483 544.436 70.6896 544.947 70.3391C546.374 69.3786 547.714 68.2893 548.951 67.0842C551.529 64.6406 554.043 61.8821 556.463 59.1348L558.98 60.923C557.124 64.3419 554.962 67.5775 552.523 70.5883L552.522 70.5899C551.215 72.2304 549.738 73.72 548.116 75.0324L548.115 75.0337C547.12 75.8517 545.988 76.4754 544.774 76.874C544.381 76.9961 543.977 77.0789 543.569 77.1212C543.329 77.1367 543.089 77.1366 542.849 77.1209L542.841 77.1204H542.833H542.455L540.964 77.0434C537.095 76.7497 533.246 76.2316 529.434 75.4914L529.433 75.4911C525.735 74.7969 522.111 73.9792 518.448 72.9776Z" stroke="black" stroke-width="0.5"/>
<path d="M514.478 72.7204C516.999 76.4525 532.129 77.8859 532.129 77.8859L533.056 67.9553C529.203 66.573 525.239 65.5402 521.21 64.8689C510.525 63.3063 511.729 68.6268 514.478 72.7204Z" fill="#252525"/>
<path opacity="0.2" d="M514.478 72.7204C516.999 76.4525 532.129 77.8859 532.129 77.8859L533.056 67.9553C529.203 66.573 525.239 65.5402 521.21 64.8689C510.525 63.3063 511.729 68.6268 514.478 72.7204Z" fill="white"/>
<path d="M555.832 60.04L557.036 55.4685L561.19 57.2958C561.19 57.2958 559.438 62.2224 557.856 61.977L555.832 60.04Z" fill="white"/>
<path d="M560.465 52.6412L563.9 52.4216L561.19 57.2965L557.035 55.4693L560.465 52.6412Z" fill="white"/>
<path d="M555.806 59.7483C556.1 57.339 557.849 52.5093 562.49 52.4646C560.865 55.1408 557.598 60.6906 557.525 61.4804C557.452 62.2702 556.294 60.6548 555.725 59.7483" stroke="black" stroke-width="0.5"/>
<path d="M524.638 65.9732C524.638 65.9732 530.64 80.4301 526.315 107.349H501.314C501.011 103.416 502.77 84.2461 498.445 65.7279C501.195 65.1795 503.977 64.8171 506.773 64.6431C510.313 64.4363 513.862 64.4363 517.401 64.6431C519.843 64.8971 522.263 65.3418 524.638 65.9732V65.9732Z" fill="#252525"/>
<path opacity="0.2" d="M524.638 65.9732C524.638 65.9732 530.64 80.4301 526.315 107.349H501.314C501.011 103.416 502.77 84.2461 498.445 65.7279C501.195 65.1795 503.977 64.8171 506.773 64.6431C510.313 64.4363 513.862 64.4363 517.401 64.6431C519.843 64.8971 522.263 65.3418 524.638 65.9732Z" fill="white"/>
<path opacity="0.3" d="M499.229 69.4353C500.398 75.7723 501.089 82.1922 501.296 88.6379C502.212 84.8614 502.832 81.016 503.15 77.1383C503.414 72.8445 501.788 70.1262 499.229 69.4353Z" fill="black"/>
<path d="M517.181 86.4806C514.962 83.9818 511.148 79.0036 509.963 74.529L515.914 71.3005L521.455 74.2061C521.398 78.0092 519.419 83.1618 518.001 86.2998C517.818 86.6807 517.439 86.7776 517.181 86.4806Z" fill="#FAFAFA"/>
<path d="M507.247 64.9626C507.172 64.8576 507.12 64.7686 507.084 64.7021C507.636 64.0798 507.992 63.2401 508.211 62.2955C508.445 61.2829 508.527 60.1298 508.511 58.9505C508.483 56.8982 508.16 54.7405 507.816 53.0537L513.869 58.2017C513.6 59.5259 513.469 60.9287 513.886 62.1334C514.324 63.3967 515.348 64.3974 517.301 64.8838C517.324 64.9031 517.356 64.9304 517.394 64.9647C517.477 65.0393 517.587 65.1457 517.699 65.2725C517.932 65.5375 518.129 65.8469 518.15 66.123C518.16 66.2502 518.132 66.3715 518.046 66.4893C517.957 66.6117 517.794 66.7464 517.503 66.8708C516.917 67.1221 515.881 67.3036 514.144 67.3036C511.005 67.3036 509.219 66.5879 508.225 65.8986C507.728 65.5535 507.424 65.212 507.247 64.9626Z" fill="white" stroke="black" stroke-width="0.5"/>
<path opacity="0.2" d="M510.154 54.7205L514.131 58.0909C513.988 58.7275 513.9 59.3756 513.867 60.028C512.404 59.8149 510.349 58.1749 510.141 56.6123C510.03 55.9864 510.034 55.3447 510.154 54.7205Z" fill="black"/>
<path d="M517.693 50.3868C518.727 49.4829 519.194 44.0785 517.157 41.4893C515.121 38.9001 513.375 45.1762 513.375 45.1762C513.375 45.1762 514.308 53.357 517.693 50.3868Z" fill="#263238"/>
<path d="M506.144 48.6516L506.144 48.6516L506.142 48.6476C505.809 47.6491 505.738 46.5781 505.936 45.5423C506.134 44.5066 506.595 43.543 507.271 42.7481C507.947 41.9533 508.815 41.3552 509.787 41.0131C510.759 40.671 511.801 40.5967 512.81 40.7976L512.81 40.7977L512.816 40.7989C515.149 41.1965 516.898 42.9977 518.078 45.2838C519.257 47.5665 519.843 50.2866 519.871 52.4234L519.871 52.4234L519.871 52.4281C519.905 53.5122 519.65 54.585 519.132 55.5305C518.615 56.4758 517.855 57.2575 516.936 57.7915C516.017 58.3254 514.974 58.5916 513.919 58.5618C512.863 58.532 511.836 58.2073 510.947 57.6221L510.945 57.6208C508.423 55.9948 507.708 53.6898 506.525 49.8738C506.403 49.4826 506.277 49.0755 506.144 48.6516Z" fill="white" stroke="black" stroke-width="0.5"/>
<path d="M517.806 39.3907C517.953 39.1161 518.025 38.8061 518.014 38.4932C518.012 38.117 517.892 37.7515 517.673 37.4492C517.455 37.147 517.148 36.9238 516.797 36.8118C516.446 36.6997 516.07 36.7046 515.722 36.8258C515.375 36.947 515.073 37.1781 514.862 37.486C514.505 37.0665 514.061 36.7332 513.563 36.51C513.065 36.2867 512.525 36.179 511.981 36.1946C511.41 36.2142 510.85 36.3713 510.349 36.653C510.024 36.3702 509.608 36.2226 509.182 36.2398C508.769 36.255 508.374 36.4207 508.069 36.7071C507.764 36.9934 507.569 37.3817 507.518 37.8023C507.341 37.7732 507.162 37.7602 506.982 37.7636C506.24 37.7906 505.539 38.1176 505.032 38.6731C504.525 39.2286 504.254 39.9673 504.278 40.7273C504.278 40.7273 504.278 40.7273 504.278 40.766C504.171 40.7594 504.063 40.7594 503.956 40.766C503.657 40.7769 503.364 40.8479 503.091 40.9752C502.819 41.1024 502.574 41.2834 502.371 41.5077C502.167 41.732 502.008 41.9952 501.904 42.2823C501.8 42.5694 501.752 42.8747 501.763 43.1809V43.2196C501.478 43.3779 501.242 43.6151 501.083 43.9039C500.924 44.1928 500.847 44.5217 500.861 44.8532C500.874 45.2059 500.988 45.5469 501.189 45.8339C501.389 46.1209 501.668 46.3412 501.99 46.4674C502.033 47.0144 502.264 47.5277 502.643 47.9157C503.022 48.3037 503.523 48.5411 504.057 48.5853C504.303 50.8452 505.097 54.3448 507.676 52.5369C508.659 51.846 509.567 47.6555 508.59 44.7499C508.665 44.7499 508.747 44.7499 508.829 44.7499C509.255 44.7338 509.671 44.6177 510.046 44.4106C510.421 44.2034 510.745 43.9109 510.992 43.5554C511.531 43.7371 512.104 43.789 512.666 43.7073C513.227 43.6256 513.763 43.4123 514.232 43.084C514.434 43.1565 514.648 43.1915 514.862 43.1874C515.156 43.1737 515.442 43.0849 515.694 42.9291C516.053 43.1785 516.478 43.3072 516.911 43.2971C517.361 43.2829 517.794 43.1167 518.143 42.8243C518.491 42.5319 518.735 42.1298 518.838 41.6804C518.94 41.2311 518.894 40.7597 518.707 40.3398C518.521 39.9198 518.204 39.5748 517.806 39.3584V39.3907Z" fill="#263238"/>
<path d="M509.136 52.9399L509.136 52.9405C509.526 53.5282 509.623 54.1434 509.479 54.5883C509.408 54.8077 509.278 54.9886 509.09 55.1164C508.902 55.2445 508.641 55.3286 508.294 55.3289C507.181 55.3126 506.116 54.8613 505.317 54.0656C504.848 53.5937 504.631 52.9835 504.678 52.4355C504.724 51.8953 505.025 51.4042 505.625 51.1393C506.206 50.8828 506.885 51.0316 507.544 51.4205C508.198 51.8069 508.783 52.4037 509.136 52.9399Z" fill="white" stroke="black" stroke-width="0.5"/>
<path d="M513.104 48.4676C513.192 48.8421 513.463 49.1132 513.735 49.0487C514.006 48.9841 514.094 48.6419 513.999 48.2674C513.905 47.8929 513.634 47.6217 513.369 47.6927C513.104 47.7638 513.01 48.0802 513.104 48.4676Z" fill="#263238"/>
<path d="M517.251 47.5341C517.346 47.9086 517.617 48.1798 517.882 48.1152C518.146 48.0507 518.241 47.7149 518.146 47.3404C518.052 46.9659 517.781 46.6947 517.516 46.7593C517.251 46.8239 517.169 47.1596 517.251 47.5341Z" fill="#263238"/>
<path d="M515.99 48.0173C516.72 49.0643 517.58 50.0086 518.55 50.8261C518.339 51.0657 518.08 51.2552 517.79 51.3812C517.5 51.5073 517.187 51.5668 516.873 51.5557L515.99 48.0173Z" fill="#C1A8A8"/>
<path d="M515.279 52.918C514.511 52.9259 513.766 52.6509 513.18 52.1432C513.16 52.1226 513.148 52.0948 513.148 52.0657C513.148 52.0367 513.16 52.0088 513.18 51.9883C513.19 51.9771 513.202 51.9682 513.215 51.9621C513.229 51.956 513.244 51.9529 513.258 51.9529C513.273 51.9529 513.288 51.956 513.302 51.9621C513.315 51.9682 513.327 51.9771 513.337 51.9883C513.706 52.2954 514.139 52.5131 514.601 52.6249C515.064 52.7367 515.546 52.7398 516.01 52.6339C516.039 52.628 516.068 52.6334 516.093 52.649C516.117 52.6646 516.135 52.6892 516.143 52.7179C516.146 52.7328 516.147 52.7483 516.144 52.7634C516.142 52.7786 516.136 52.793 516.128 52.8058C516.12 52.8185 516.109 52.8294 516.096 52.8376C516.083 52.8458 516.069 52.8512 516.054 52.8535C515.799 52.9054 515.539 52.927 515.279 52.918V52.918Z" fill="#263238"/>
<path d="M511.453 47.3901C511.424 47.3962 511.393 47.3962 511.364 47.3901C511.337 47.3789 511.313 47.3621 511.292 47.3409C511.272 47.3197 511.256 47.2944 511.245 47.2666C511.235 47.2388 511.23 47.2091 511.231 47.1792C511.232 47.1494 511.238 47.1201 511.251 47.0931C511.385 46.7659 511.596 46.4773 511.864 46.2523C512.132 46.0273 512.449 45.8726 512.789 45.8017C512.847 45.7958 512.905 45.8125 512.952 45.8483C512.999 45.8842 513.03 45.9367 513.041 45.9954C513.049 46.0552 513.033 46.1155 512.998 46.1636C512.962 46.2118 512.91 46.2441 512.852 46.2537C512.585 46.3152 512.337 46.4419 512.129 46.6229C511.92 46.8039 511.757 47.0339 511.654 47.2932C511.632 47.3262 511.602 47.3526 511.566 47.3696C511.531 47.3867 511.492 47.3937 511.453 47.3901V47.3901Z" fill="#263238"/>
<path d="M518.671 45.6793C518.638 45.6795 518.606 45.6721 518.576 45.6575C518.547 45.643 518.521 45.6217 518.501 45.5953C518.323 45.3694 518.099 45.1871 517.843 45.062C517.588 44.9368 517.309 44.8719 517.026 44.8721C516.967 44.8773 516.909 44.8584 516.864 44.8197C516.819 44.7809 516.791 44.7255 516.786 44.6655C516.781 44.6056 516.799 44.5461 516.837 44.5001C516.875 44.454 516.929 44.4253 516.988 44.4202C517.342 44.4128 517.693 44.4887 518.015 44.642C518.336 44.7954 518.619 45.0221 518.841 45.3048C518.878 45.3522 518.895 45.4124 518.889 45.4727C518.884 45.533 518.855 45.5886 518.81 45.6276C518.77 45.6606 518.722 45.6788 518.671 45.6793V45.6793Z" fill="#263238"/>
<mask id="path-236-inside-1_2554_16925" fill="white">
<path d="M503.384 72.6162L502.476 74.6243C502.173 75.3152 501.877 76.0125 501.587 76.7098C501.007 78.1045 500.458 79.5186 499.929 80.9262C499.399 82.3337 498.933 83.7543 498.485 85.1748C498.038 86.5953 497.691 88.0093 497.401 89.4169V89.5396V89.5008C497.404 89.4665 497.404 89.4319 497.401 89.3975C497.393 89.3261 497.374 89.2564 497.344 89.1909C497.294 89.0682 497.237 89.0424 497.262 89.1134C497.492 89.4438 497.789 89.7191 498.132 89.9205C499.264 90.6272 500.469 91.2012 501.726 91.6316C504.539 92.6215 507.406 93.445 510.312 94.0981L510.022 97.6817C506.77 97.7887 503.516 97.5289 500.32 96.9068C498.564 96.5814 496.858 96.0214 495.245 95.241C494.198 94.7303 493.256 94.0178 492.471 93.1425C491.936 92.5172 491.532 91.7851 491.286 90.9924C491.152 90.5433 491.072 90.0794 491.047 89.6106C491.034 89.3784 491.034 89.1455 491.047 88.9133L491.078 88.5775V88.4032C491.498 85.0415 492.247 81.7317 493.316 78.5242C493.829 76.9487 494.394 75.397 495.012 73.8688C495.327 73.1069 495.642 72.3515 495.989 71.596C496.336 70.8406 496.67 70.1174 497.08 69.3103L503.384 72.6162Z"/>
</mask>
<path d="M503.384 72.6162L502.476 74.6243C502.173 75.3152 501.877 76.0125 501.587 76.7098C501.007 78.1045 500.458 79.5186 499.929 80.9262C499.399 82.3337 498.933 83.7543 498.485 85.1748C498.038 86.5953 497.691 88.0093 497.401 89.4169V89.5396V89.5008C497.404 89.4665 497.404 89.4319 497.401 89.3975C497.393 89.3261 497.374 89.2564 497.344 89.1909C497.294 89.0682 497.237 89.0424 497.262 89.1134C497.492 89.4438 497.789 89.7191 498.132 89.9205C499.264 90.6272 500.469 91.2012 501.726 91.6316C504.539 92.6215 507.406 93.445 510.312 94.0981L510.022 97.6817C506.77 97.7887 503.516 97.5289 500.32 96.9068C498.564 96.5814 496.858 96.0214 495.245 95.241C494.198 94.7303 493.256 94.0178 492.471 93.1425C491.936 92.5172 491.532 91.7851 491.286 90.9924C491.152 90.5433 491.072 90.0794 491.047 89.6106C491.034 89.3784 491.034 89.1455 491.047 88.9133L491.078 88.5775V88.4032C491.498 85.0415 492.247 81.7317 493.316 78.5242C493.829 76.9487 494.394 75.397 495.012 73.8688C495.327 73.1069 495.642 72.3515 495.989 71.596C496.336 70.8406 496.67 70.1174 497.08 69.3103L503.384 72.6162Z" fill="white"/>
<path d="M503.384 72.6162L503.839 72.8222L504.033 72.3924L503.616 72.1734L503.384 72.6162ZM502.476 74.6243L502.02 74.4183L502.018 74.4237L502.476 74.6243ZM497.401 89.4169L496.911 89.316L496.901 89.3659V89.4169H497.401ZM497.401 89.5008L496.903 89.4618L496.901 89.4813V89.5008H497.401ZM497.401 89.3975L497.9 89.3585L497.899 89.3488L497.898 89.3392L497.401 89.3975ZM497.344 89.1909L496.882 89.381L496.885 89.3879L496.888 89.3947L497.344 89.1909ZM497.262 89.1134L496.791 89.2807L496.814 89.3438L496.852 89.3988L497.262 89.1134ZM498.132 89.9205L498.397 89.4963L498.385 89.4892L498.132 89.9205ZM501.726 91.6316L501.892 91.1599L501.888 91.1586L501.726 91.6316ZM510.312 94.0981L510.81 94.1385L510.845 93.7055L510.421 93.6103L510.312 94.0981ZM510.022 97.6817L510.038 98.1814L510.484 98.1667L510.52 97.722L510.022 97.6817ZM500.32 96.9068L500.415 96.416L500.411 96.4152L500.32 96.9068ZM495.245 95.241L495.026 95.6904L495.027 95.6911L495.245 95.241ZM492.471 93.1425L492.091 93.4678L492.099 93.4762L492.471 93.1425ZM491.286 90.9924L490.807 91.1351L490.809 91.1406L491.286 90.9924ZM491.047 89.6106L491.546 89.5835L491.546 89.5835L491.047 89.6106ZM491.047 88.9133L490.549 88.8665L490.548 88.8763L490.547 88.8861L491.047 88.9133ZM491.078 88.5775L491.576 88.6243L491.578 88.6009V88.5775H491.078ZM491.078 88.4032L490.582 88.3413L490.578 88.3721V88.4032H491.078ZM493.316 78.5242L493.79 78.6823L493.791 78.6789L493.316 78.5242ZM495.012 73.8688L494.55 73.6777L494.548 73.6814L495.012 73.8688ZM497.08 69.3103L497.312 68.8675L496.863 68.6322L496.634 69.084L497.08 69.3103ZM502.928 72.4102L502.02 74.4183L502.931 74.8302L503.839 72.8222L502.928 72.4102ZM502.018 74.4237C501.714 75.1179 501.416 75.8182 501.125 76.5179L502.049 76.9018C502.338 76.2068 502.633 75.5124 502.934 74.8249L502.018 74.4237ZM501.125 76.5179C500.542 77.9197 499.992 79.3396 499.461 80.7501L500.397 81.1022C500.925 79.6976 501.472 78.2893 502.049 76.9018L501.125 76.5179ZM499.461 80.7501C498.927 82.1703 498.457 83.6008 498.008 85.0245L498.962 85.325C499.409 83.9077 499.872 82.4972 500.397 81.1022L499.461 80.7501ZM498.008 85.0245C497.555 86.4651 497.204 87.8962 496.911 89.316L497.891 89.5178C498.178 88.1224 498.521 86.7255 498.962 85.325L498.008 85.0245ZM496.901 89.4169V89.5396H497.901V89.4169H496.901ZM497.901 89.5396V89.5008H496.901V89.5396H497.901ZM497.9 89.5399C497.904 89.4795 497.904 89.4189 497.9 89.3585L496.903 89.4366C496.903 89.445 496.903 89.4534 496.903 89.4618L497.9 89.5399ZM497.898 89.3392C497.883 89.2178 497.851 89.099 497.801 88.9872L496.888 89.3947C496.896 89.4137 496.902 89.4344 496.904 89.4558L497.898 89.3392ZM497.807 89.0008C497.784 88.9464 497.758 88.8937 497.726 88.8453C497.701 88.806 497.652 88.7366 497.574 88.6785C497.543 88.6557 497.444 88.5855 497.298 88.5755C497.213 88.5698 497.106 88.5844 497.002 88.6472C496.898 88.7097 496.836 88.7969 496.802 88.8719C496.743 89.0022 496.756 89.1191 496.761 89.156C496.768 89.2083 496.781 89.2516 496.791 89.2807L497.734 88.9462C497.738 88.9575 497.747 88.9861 497.752 89.0267C497.756 89.0519 497.769 89.1601 497.713 89.2848C497.68 89.3569 497.62 89.4421 497.518 89.5033C497.417 89.5648 497.312 89.5788 497.23 89.5733C497.089 89.5637 496.998 89.497 496.976 89.4805C496.916 89.4353 496.888 89.391 496.887 89.3888C496.88 89.3776 496.879 89.3741 496.882 89.381L497.807 89.0008ZM496.852 89.3988C497.122 89.788 497.473 90.1135 497.879 90.3519L498.385 89.4892C498.105 89.3248 497.862 89.0995 497.673 88.8281L496.852 89.3988ZM497.867 90.3446C499.031 91.0714 500.271 91.6618 501.564 92.1046L501.888 91.1586C500.667 90.7406 499.496 90.1831 498.397 89.4965L497.867 90.3446ZM501.56 92.1033C504.392 93.0996 507.277 93.9286 510.202 94.586L510.421 93.6103C507.535 92.9615 504.687 92.1433 501.892 91.1599L501.56 92.1033ZM509.813 94.0578L509.523 97.6413L510.52 97.722L510.81 94.1385L509.813 94.0578ZM510.005 97.1819C506.791 97.2878 503.575 97.0309 500.415 96.4161L500.224 97.3976C503.458 98.0269 506.749 98.2897 510.038 98.1814L510.005 97.1819ZM500.411 96.4152C498.699 96.098 497.036 95.5519 495.463 94.7909L495.027 95.6911C496.68 96.4908 498.429 97.0649 500.229 97.3985L500.411 96.4152ZM495.464 94.7915C494.475 94.3094 493.585 93.6364 492.844 92.8088L492.099 93.4762C492.926 94.3992 493.92 95.1511 495.026 95.6904L495.464 94.7915ZM492.851 92.8172C492.36 92.2441 491.99 91.5724 491.764 90.8442L490.809 91.1406C491.075 91.9979 491.511 92.7903 492.092 93.4678L492.851 92.8172ZM491.765 90.8497C491.643 90.4383 491.569 90.0132 491.546 89.5835L490.547 89.6377C490.575 90.1456 490.662 90.6483 490.807 91.1351L491.765 90.8497ZM491.546 89.5835C491.534 89.3693 491.534 89.1546 491.546 88.9404L490.547 88.8861C490.534 89.1365 490.534 89.3874 490.547 89.6378L491.546 89.5835ZM491.544 88.96L491.576 88.6243L490.58 88.5308L490.549 88.8665L491.544 88.96ZM491.578 88.5775V88.4032H490.578V88.5775H491.578ZM491.574 88.4651C491.99 85.136 492.732 81.8584 493.79 78.6823L492.842 78.3662C491.763 81.605 491.006 84.9469 490.582 88.3413L491.574 88.4651ZM493.791 78.6789C494.301 77.1144 494.862 75.5736 495.475 74.0562L494.548 73.6814C493.926 75.2204 493.357 76.783 492.841 78.3695L493.791 78.6789ZM495.474 74.06C495.789 73.298 496.101 72.5505 496.443 71.8046L495.535 71.3875C495.183 72.1525 494.865 72.9158 494.55 73.6777L495.474 74.06ZM496.443 71.8046C496.79 71.0494 497.12 70.3342 497.525 69.5366L496.634 69.084C496.219 69.9007 495.881 70.6317 495.535 71.3875L496.443 71.8046ZM496.847 69.7531L503.151 73.059L503.616 72.1734L497.312 68.8675L496.847 69.7531Z" fill="black" mask="url(#path-236-inside-1_2554_16925)"/>
<path d="M498.446 65.727C494.034 66.3727 489.514 82.9732 489.514 82.9732L500.149 87.1185C500.149 87.1185 502.821 79.9837 504.65 74.4437C506.566 68.639 503.162 65.0167 498.446 65.727Z" fill="#252525"/>
<path opacity="0.2" d="M498.446 65.727C494.034 66.3727 489.514 82.9732 489.514 82.9732L500.149 87.1185C500.149 87.1185 502.821 79.9837 504.65 74.4437C506.566 68.639 503.162 65.0167 498.446 65.727Z" fill="white"/>
<path d="M510.173 218.277L509.595 228.863H505.418L506.002 218.277H510.173Z" fill="white" stroke="black" stroke-width="0.5"/>
<path opacity="0.2" d="M505.759 218.027H510.436L510.121 223.741H505.443L505.759 218.027Z" fill="black"/>
<path d="M510.077 228.557H504.826C504.782 228.554 504.739 228.561 504.698 228.576C504.656 228.59 504.619 228.614 504.586 228.644C504.554 228.674 504.528 228.71 504.509 228.751C504.491 228.791 504.481 228.835 504.479 228.88L504.221 233.135C504.22 233.246 504.24 233.356 504.281 233.459C504.322 233.562 504.382 233.656 504.458 233.735C504.534 233.814 504.625 233.877 504.725 233.92C504.825 233.964 504.932 233.986 505.04 233.987C506.868 233.955 507.745 233.845 510.083 233.845C511.502 233.845 517.541 234 519.502 234C521.462 234 521.393 232.011 520.58 231.831C516.848 231.023 512.233 229.894 510.909 228.848C510.672 228.657 510.379 228.555 510.077 228.557V228.557Z" fill="#263238"/>
<path d="M511.729 229.385C512.042 229.416 512.354 229.326 512.606 229.133C512.679 229.055 512.729 228.957 512.753 228.852C512.776 228.746 512.771 228.636 512.738 228.533C512.726 228.464 512.698 228.399 512.655 228.345C512.612 228.29 512.556 228.248 512.492 228.223C511.918 227.99 510.601 228.914 510.45 229.023C510.433 229.036 510.421 229.053 510.413 229.072C510.405 229.091 510.403 229.112 510.405 229.133C510.411 229.153 510.422 229.171 510.436 229.186C510.45 229.201 510.468 229.211 510.487 229.217C510.895 229.317 511.311 229.374 511.729 229.385V229.385ZM512.271 228.397C512.319 228.387 512.369 228.387 512.416 228.397C512.447 228.411 512.475 228.432 512.496 228.459C512.517 228.486 512.531 228.518 512.536 228.552C512.558 228.621 512.563 228.694 512.55 228.765C512.537 228.837 512.506 228.903 512.461 228.959C512.24 229.178 511.616 229.204 510.777 229.036C511.225 228.715 511.734 228.497 512.271 228.397V228.397Z" fill="#252525"/>
<path d="M510.513 229.216H510.564C511.03 228.932 511.724 227.925 511.616 227.414C511.597 227.322 511.548 227.239 511.477 227.178C511.406 227.117 511.318 227.082 511.226 227.079C511.142 227.068 511.058 227.076 510.978 227.103C510.899 227.13 510.826 227.174 510.765 227.234C510.299 227.699 510.4 229.074 510.406 229.132C510.408 229.15 510.414 229.167 510.424 229.182C510.433 229.196 510.447 229.208 510.463 229.216C510.479 229.222 510.497 229.222 510.513 229.216ZM511.144 227.279H511.194C511.358 227.279 511.389 227.382 511.408 227.447C511.484 227.808 510.986 228.57 510.601 228.906C510.537 228.376 510.644 227.839 510.904 227.376C510.937 227.344 510.975 227.319 511.017 227.302C511.06 227.285 511.105 227.277 511.15 227.279H511.144Z" fill="#252525"/>
<path d="M551.011 216.259L546.902 216.991L545.705 206.46L549.813 205.728L551.011 216.259Z" fill="white" stroke="black" stroke-width="0.5"/>
<path opacity="0.2" d="M545.43 206.261L550.038 205.441L550.681 211.123L546.073 211.943L545.43 206.261Z" fill="black"/>
<path d="M551.293 215.89L546.105 215.076C546.018 215.059 545.928 215.078 545.855 215.129C545.782 215.18 545.731 215.258 545.714 215.347L544.832 219.512C544.799 219.734 544.853 219.959 544.981 220.141C545.11 220.322 545.303 220.444 545.519 220.481C547.328 220.732 548.211 220.758 550.493 221.126C551.898 221.346 557.843 222.418 559.785 222.728C561.726 223.037 561.96 221.062 561.165 220.752C557.597 219.383 553.197 217.569 552.043 216.316C551.85 216.088 551.584 215.938 551.293 215.89V215.89Z" fill="#263238"/>
<path d="M526.317 107.347C526.317 107.347 540.816 142.066 543.747 155.457C546.969 170.121 552.428 209.411 552.428 209.411L543.993 210.915C543.993 210.915 536.227 174.214 531.751 160.068C526.891 144.72 507.48 107.347 507.48 107.347H526.317Z" fill="#263238"/>
<path opacity="0.3" d="M514.364 115.019L514.023 120.269C516.211 124.685 518.733 129.838 521.197 135.068C522.294 129.889 519.495 117.447 514.364 115.019Z" fill="black"/>
<path d="M517.952 107.348C517.952 107.348 517.87 143.926 517.114 157.634C516.282 172.64 512.127 222.364 512.127 222.364H503.566C503.566 222.364 503.825 173.853 503.308 158.996C502.747 142.854 501.297 107.342 501.297 107.342L517.952 107.348Z" fill="#263238"/>
<path d="M503.225 222.442H512.473L512.984 219.117L502.777 219.633L503.225 222.442Z" fill="#252525"/>
<path opacity="0.3" d="M503.225 222.442H512.473L512.984 219.117L502.777 219.633L503.225 222.442Z" fill="black"/>
<path d="M543.652 210.975L552.761 209.355L552.711 205.984L542.744 208.289L543.652 210.975Z" fill="#252525"/>
<path opacity="0.3" d="M543.652 210.975L552.761 209.355L552.711 205.984L542.744 208.289L543.652 210.975Z" fill="black"/>
<path d="M552.832 216.961C553.135 217.041 553.456 217.001 553.733 216.851C553.815 216.783 553.879 216.694 553.918 216.594C553.958 216.493 553.972 216.384 553.96 216.277C553.957 216.206 553.938 216.137 553.902 216.076C553.867 216.015 553.818 215.965 553.758 215.928C553.229 215.612 551.785 216.322 551.621 216.406C551.604 216.415 551.589 216.428 551.579 216.446C551.569 216.463 551.564 216.483 551.565 216.503C551.563 216.524 551.569 216.545 551.58 216.562C551.592 216.579 551.608 216.593 551.628 216.6C552.014 216.766 552.418 216.888 552.832 216.961V216.961ZM553.513 216.07C553.562 216.073 553.609 216.089 553.651 216.115C553.683 216.131 553.708 216.156 553.725 216.187C553.742 216.218 553.749 216.254 553.746 216.29C553.759 216.36 553.753 216.433 553.73 216.501C553.707 216.569 553.667 216.63 553.613 216.677C553.361 216.864 552.743 216.793 551.937 216.49C552.426 216.234 552.964 216.091 553.513 216.07V216.07Z" fill="#252525"/>
<path d="M551.653 216.606C551.671 216.612 551.691 216.612 551.71 216.606C552.208 216.399 553.046 215.521 553.015 214.992C553.009 214.897 552.973 214.806 552.911 214.735C552.849 214.663 552.766 214.615 552.674 214.598C552.594 214.574 552.51 214.57 552.428 214.584C552.346 214.599 552.269 214.632 552.201 214.682C551.666 215.069 551.571 216.445 551.571 216.503C551.569 216.521 551.572 216.539 551.58 216.555C551.587 216.571 551.6 216.584 551.615 216.593C551.626 216.602 551.639 216.607 551.653 216.606V216.606ZM552.567 214.785H552.618C552.775 214.83 552.8 214.914 552.807 214.985C552.807 215.353 552.227 216.025 551.792 216.277C551.809 215.742 551.995 215.228 552.321 214.811C552.393 214.773 552.476 214.763 552.554 214.785H552.567Z" fill="#252525"/>
<path d="M509.507 97.0313L509.837 94.2622L513.558 93.3595L514.698 97.2487C514.568 97.2896 514.388 97.344 514.172 97.4031C513.713 97.5288 513.093 97.6746 512.448 97.7578C511.799 97.8415 511.142 97.8596 510.599 97.7417C510.085 97.63 509.706 97.4054 509.507 97.0313Z" fill="white" stroke="black" stroke-width="0.5"/>
<path d="M513.73 93.2929L516.664 93.8701L516.455 97.8737L514.201 97.713L513.73 93.2929Z" fill="white" stroke="black" stroke-width="0.5"/>
<path d="M579.561 211.147C559.426 208.114 544.133 170.479 544.133 126.894C544.133 83.3076 559.426 45.6726 579.561 42.6404L598.328 39.8162V213.971L579.561 211.147Z" fill="#407BFF"/>
<path d="M579.561 211.147C559.426 208.114 544.133 170.479 544.133 126.894C544.133 83.3076 559.426 45.6726 579.561 42.6404L598.328 39.8162V213.971L579.561 211.147Z" fill="#63946C"/>
<path d="M598.329 213.971C616.493 213.971 631.217 174.985 631.217 126.894C631.217 78.802 616.493 39.8162 598.329 39.8162C580.166 39.8162 565.441 78.802 565.441 126.894C565.441 174.985 580.166 213.971 598.329 213.971Z" fill="#A0ECAD"/>
<path opacity="0.4" d="M599.216 211.765C584.402 211.765 568.541 177.66 568.541 126.894C568.541 76.1279 584.402 42.0232 599.216 42.0232C614.031 42.0232 629.898 76.1279 629.898 126.894C629.898 177.66 614.037 211.765 599.216 211.765ZM599.216 42.6536C584.717 42.6536 569.171 76.4998 569.171 126.894C569.171 177.288 584.679 211.135 599.216 211.135C613.753 211.135 629.268 177.282 629.268 126.894C629.268 76.5061 613.728 42.6536 599.216 42.6536V42.6536Z" fill="#FAFAFA"/>
<path d="M604.417 83.6853C594.331 83.6853 586.205 103.032 586.205 126.899C586.205 150.766 594.356 170.107 604.417 170.107C614.479 170.107 622.63 150.766 622.63 126.899C622.63 103.032 614.479 83.6853 604.417 83.6853ZM618.917 126.899C618.917 133.764 617.807 140.005 615.992 144.689L610.734 126.553L615.891 108.794C617.782 113.503 618.942 119.87 618.942 126.893L618.917 126.899ZM607.828 100.605C610.053 100.605 612.115 102.156 613.848 104.823L609.139 121.156L603.705 102.496C604.784 101.343 606.275 100.662 607.853 100.599L607.828 100.605ZM596.752 126.899C596.752 118.011 598.611 110.162 601.454 105.403L607.607 126.553L601.366 148.188C598.586 143.422 596.777 135.662 596.777 126.893L596.752 126.899ZM607.828 153.193C607.021 153.149 606.23 152.945 605.503 152.592C604.776 152.239 604.126 151.745 603.592 151.138L609.164 131.93L614.025 148.724C612.26 151.554 610.141 153.187 607.853 153.187L607.828 153.193Z" fill="#63946C"/>
<path d="M436.128 15.0353C423.947 6.73151 407.34 9.8754 399.036 22.0573C390.732 34.2393 393.876 50.8462 406.058 59.15C418.24 67.4538 434.847 64.3099 443.151 52.1279C451.454 39.946 448.31 23.3391 436.128 15.0353Z" fill="white" stroke="#263238" stroke-linejoin="round"/>
<path d="M433.177 19.3635C423.386 12.6895 410.038 15.2164 403.364 25.0073C396.69 34.7983 399.217 48.1458 409.008 54.8198C418.799 61.4937 432.147 58.9669 438.821 49.1759C445.495 39.385 442.968 26.0375 433.177 19.3635Z" fill="#F8928C" stroke="#263238" stroke-linejoin="round"/>
<path fill-rule="evenodd" clip-rule="evenodd" d="M427.193 47.422C432.719 44.232 434.612 37.1668 431.422 31.6415C428.232 26.1162 421.166 24.2231 415.641 27.4132C410.116 30.6032 408.223 37.6683 411.413 43.1936C414.603 48.7189 421.668 50.612 427.193 47.422ZM421.011 43.6953L418.664 45.0503C418.108 45.3716 417.829 45.5322 417.601 45.5206C417.353 45.5082 417.127 45.3783 416.991 45.1713C416.866 44.9797 416.864 44.6587 416.861 44.0168L416.802 32.0477C416.799 31.3963 416.797 31.0706 416.923 30.8766C417.058 30.6671 417.286 30.5354 417.535 30.5226C417.766 30.5107 418.047 30.6746 418.61 31.0022L420.99 32.3872C421.399 32.6254 421.604 32.7446 421.757 32.9065C421.924 33.0828 422.047 33.2957 422.117 33.5282C422.18 33.7418 422.181 33.9787 422.183 34.4525L422.214 41.602C422.216 42.0826 422.217 42.323 422.154 42.5397C422.085 42.7757 421.96 42.9919 421.791 43.1705C421.636 43.3346 421.428 43.4548 421.011 43.6953ZM429.384 38.861L426.663 40.432C426.102 40.7562 425.821 40.9183 425.591 40.9061C425.343 40.8929 425.116 40.7614 424.981 40.5526C424.856 40.3593 424.857 40.0353 424.86 39.3874L424.873 36.2729C424.876 35.6331 424.877 35.3132 425.002 35.1216C425.137 34.9145 425.363 34.784 425.609 34.7703C425.838 34.7576 426.116 34.916 426.671 35.2327L429.38 36.7763C429.943 37.0976 430.225 37.2583 430.331 37.463C430.444 37.6843 430.445 37.9467 430.332 38.1687C430.228 38.374 429.947 38.5363 429.384 38.861Z" fill="#263238"/>
<path d="M295.74 114.336C283.958 117.493 276.966 129.604 280.123 141.386C283.28 153.168 295.39 160.16 307.173 157.003C318.955 153.846 325.947 141.736 322.79 129.954C319.633 118.171 307.522 111.179 295.74 114.336Z" fill="white" stroke="#263238" stroke-linejoin="round"/>
<path d="M296.862 118.524C287.393 121.062 281.773 130.795 284.311 140.265C286.848 149.735 296.581 155.354 306.051 152.817C315.521 150.279 321.14 140.546 318.603 131.076C316.066 121.607 306.332 115.987 296.862 118.524Z" fill="#FFC200" stroke="#263238" stroke-linejoin="round"/>
<path d="M308.877 130.924C308.592 128.366 306.339 127.553 303.506 127.368L303.456 123.812L301.264 123.858L301.312 127.32C300.736 127.332 300.147 127.356 299.562 127.379L299.514 123.895L297.323 123.94L297.372 127.495C296.897 127.514 296.431 127.533 295.977 127.542L295.976 127.531L292.953 127.594L292.986 129.905C292.986 129.905 294.604 129.841 294.578 129.871C295.466 129.852 295.762 130.355 295.852 130.793C295.988 140.532 295.852 130.793 295.988 140.532C295.953 140.809 295.795 141.252 295.174 141.266C295.203 141.29 293.581 141.299 293.581 141.299L293.181 143.892L296.034 143.833C296.565 143.822 297.087 143.82 297.6 143.813L297.651 147.409L299.841 147.363L299.791 143.805C300.393 143.805 300.975 143.798 301.543 143.785L301.591 147.327L303.783 147.281L303.734 143.691C307.416 143.406 309.983 142.435 310.255 139.012C310.476 136.255 309.147 135.055 307.049 134.603C308.311 133.938 309.089 132.795 308.877 130.924ZM305.918 138.676C305.957 141.363 301.292 141.155 299.806 141.187L299.74 136.423C301.226 136.393 305.879 135.873 305.918 138.676ZM304.804 131.976C304.838 134.421 300.947 134.217 299.71 134.243L299.649 129.922C300.887 129.896 304.769 129.426 304.804 131.976Z" fill="#263238"/>
<path d="M365.141 110.782C360.249 119.57 363.408 130.661 372.197 135.552C380.986 140.444 392.076 137.284 396.967 128.496C401.859 119.707 398.7 108.617 389.911 103.725C381.122 98.8338 370.032 101.993 365.141 110.782Z" fill="#C5D7FF" stroke="#263238" stroke-linejoin="round"/>
<path d="M375.219 118.397L372.548 120.29L370.655 117.62L373.325 115.727L375.219 118.397ZM381.705 113.8L384.95 118.379L387.621 116.486L382.483 109.236L375.233 114.374L377.126 117.045L381.705 113.8ZM388.973 118.393L386.302 120.286L388.195 122.957L390.866 121.064L388.973 118.393ZM379.816 124.884L376.571 120.305L373.9 122.198L379.038 129.448L386.287 124.309L384.394 121.639L379.816 124.884ZM380.371 121.624L383.042 119.731L381.149 117.06L378.478 118.953L380.371 121.624Z" fill="#263238"/>
</svg>
