<svg width="389" height="341" viewBox="0 0 389 341" fill="none" xmlns="http://www.w3.org/2000/svg">
<path d="M142.49 66.2184C142.49 66.2184 91.8492 58.125 82.7692 95.3238C68.7913 152.786 29.0302 151.181 11.7242 170.363C-10.7057 195.166 0.810642 229.489 58.0284 260.948C121.262 295.722 75.146 340.004 75.146 340.004H285.948H387.787C387.787 340.004 363.925 113.737 212.002 143.373C146.143 156.221 130.673 107.993 134.83 92.8994C137.605 82.7975 143.294 79.6124 143.294 79.6124L142.49 66.2184Z" fill="#F2F5FA" stroke="#DEE0E5"/>
<mask id="path-2-inside-1_963_4717" fill="white">
<path fill-rule="evenodd" clip-rule="evenodd" d="M287.938 232.307C287.878 232.014 287.722 231.749 287.494 231.556C287.266 231.362 286.98 231.25 286.681 231.239H279.204C278.894 231.238 278.594 231.344 278.354 231.539C278.114 231.733 277.948 232.005 277.884 232.307L276.228 240.031L276.2 240.036C274.109 240.403 272.053 240.95 270.055 241.67C265.819 243.191 261.891 245.459 258.456 248.368C256.832 249.729 255.331 251.23 253.97 252.854L253.957 252.87L246.455 250.416C246.163 250.325 245.849 250.336 245.564 250.445C245.279 250.555 245.04 250.757 244.884 251.019L243.011 254.262L241.139 257.504C240.987 257.771 240.931 258.082 240.979 258.386C241.026 258.689 241.176 258.968 241.403 259.175L247.268 264.438C244.303 272.744 244.304 281.821 247.272 290.127L247.279 290.147L241.403 295.405C241.177 295.61 241.028 295.886 240.98 296.188C240.932 296.489 240.988 296.798 241.139 297.064L243.011 300.306L244.884 303.548C245.036 303.814 245.276 304.019 245.562 304.129C245.848 304.239 246.163 304.247 246.455 304.151L253.968 301.669L253.995 301.701C255.333 303.343 256.836 304.842 258.481 306.175C263.527 310.498 269.641 313.388 276.184 314.542L277.834 322.248C277.9 322.548 278.067 322.817 278.308 323.009C278.548 323.201 278.846 323.305 279.154 323.303H286.631C286.928 323.293 287.214 323.183 287.441 322.992C287.669 322.801 287.826 322.539 287.888 322.248L289.536 314.551L289.571 314.544C291.676 314.182 293.745 313.636 295.754 312.911C299.979 311.389 303.895 309.121 307.316 306.213C308.94 304.852 310.441 303.351 311.802 301.726L311.804 301.725L319.317 304.152C319.61 304.25 319.928 304.244 320.217 304.134C320.506 304.024 320.747 303.817 320.9 303.548L322.773 300.306L324.632 297.114C324.801 296.854 324.867 296.54 324.818 296.234C324.77 295.928 324.609 295.651 324.369 295.455L318.497 290.172L318.513 290.127C319.233 288.13 319.78 286.074 320.146 283.982C320.95 279.557 320.95 275.024 320.146 270.599C319.784 268.507 319.241 266.45 318.522 264.453L324.369 259.175C324.601 258.972 324.755 258.693 324.804 258.387C324.852 258.082 324.791 257.769 324.632 257.504L322.773 254.261L320.9 251.019C320.742 250.756 320.5 250.553 320.213 250.443C319.926 250.334 319.61 250.324 319.317 250.416L311.863 252.882C311.855 252.873 311.847 252.863 311.84 252.854C310.457 251.23 308.944 249.722 307.316 248.343C303.887 245.451 299.973 243.192 295.754 241.67C293.753 240.948 291.692 240.402 289.595 240.04L287.938 232.307ZM304.827 277.272C304.83 281.612 303.545 285.856 301.135 289.466C298.725 293.077 295.298 295.891 291.288 297.553C287.279 299.215 282.866 299.651 278.608 298.805C274.351 297.958 270.44 295.868 267.371 292.799C264.302 289.73 262.212 285.819 261.365 281.562C260.519 277.304 260.955 272.891 262.617 268.882C264.279 264.872 267.094 261.445 270.704 259.035C274.314 256.625 278.558 255.34 282.899 255.343C288.711 255.353 294.283 257.666 298.394 261.776C302.504 265.887 304.817 271.459 304.827 277.272Z"/>
</mask>
<path fill-rule="evenodd" clip-rule="evenodd" d="M287.938 232.307C287.878 232.014 287.722 231.749 287.494 231.556C287.266 231.362 286.98 231.25 286.681 231.239H279.204C278.894 231.238 278.594 231.344 278.354 231.539C278.114 231.733 277.948 232.005 277.884 232.307L276.228 240.031L276.2 240.036C274.109 240.403 272.053 240.95 270.055 241.67C265.819 243.191 261.891 245.459 258.456 248.368C256.832 249.729 255.331 251.23 253.97 252.854L253.957 252.87L246.455 250.416C246.163 250.325 245.849 250.336 245.564 250.445C245.279 250.555 245.04 250.757 244.884 251.019L243.011 254.262L241.139 257.504C240.987 257.771 240.931 258.082 240.979 258.386C241.026 258.689 241.176 258.968 241.403 259.175L247.268 264.438C244.303 272.744 244.304 281.821 247.272 290.127L247.279 290.147L241.403 295.405C241.177 295.61 241.028 295.886 240.98 296.188C240.932 296.489 240.988 296.798 241.139 297.064L243.011 300.306L244.884 303.548C245.036 303.814 245.276 304.019 245.562 304.129C245.848 304.239 246.163 304.247 246.455 304.151L253.968 301.669L253.995 301.701C255.333 303.343 256.836 304.842 258.481 306.175C263.527 310.498 269.641 313.388 276.184 314.542L277.834 322.248C277.9 322.548 278.067 322.817 278.308 323.009C278.548 323.201 278.846 323.305 279.154 323.303H286.631C286.928 323.293 287.214 323.183 287.441 322.992C287.669 322.801 287.826 322.539 287.888 322.248L289.536 314.551L289.571 314.544C291.676 314.182 293.745 313.636 295.754 312.911C299.979 311.389 303.895 309.121 307.316 306.213C308.94 304.852 310.441 303.351 311.802 301.726L311.804 301.725L319.317 304.152C319.61 304.25 319.928 304.244 320.217 304.134C320.506 304.024 320.747 303.817 320.9 303.548L322.773 300.306L324.632 297.114C324.801 296.854 324.867 296.54 324.818 296.234C324.77 295.928 324.609 295.651 324.369 295.455L318.497 290.172L318.513 290.127C319.233 288.13 319.78 286.074 320.146 283.982C320.95 279.557 320.95 275.024 320.146 270.599C319.784 268.507 319.241 266.45 318.522 264.453L324.369 259.175C324.601 258.972 324.755 258.693 324.804 258.387C324.852 258.082 324.791 257.769 324.632 257.504L322.773 254.261L320.9 251.019C320.742 250.756 320.5 250.553 320.213 250.443C319.926 250.334 319.61 250.324 319.317 250.416L311.863 252.882C311.855 252.873 311.847 252.863 311.84 252.854C310.457 251.23 308.944 249.722 307.316 248.343C303.887 245.451 299.973 243.192 295.754 241.67C293.753 240.948 291.692 240.402 289.595 240.04L287.938 232.307ZM304.827 277.272C304.83 281.612 303.545 285.856 301.135 289.466C298.725 293.077 295.298 295.891 291.288 297.553C287.279 299.215 282.866 299.651 278.608 298.805C274.351 297.958 270.44 295.868 267.371 292.799C264.302 289.73 262.212 285.819 261.365 281.562C260.519 277.304 260.955 272.891 262.617 268.882C264.279 264.872 267.094 261.445 270.704 259.035C274.314 256.625 278.558 255.34 282.899 255.343C288.711 255.353 294.283 257.666 298.394 261.776C302.504 265.887 304.817 271.459 304.827 277.272Z" fill="white"/>
<path d="M287.494 231.556L288.142 230.794L288.142 230.794L287.494 231.556ZM287.938 232.307L286.957 232.505L286.96 232.517L287.938 232.307ZM286.681 231.239L286.718 230.24L286.699 230.239H286.681V231.239ZM279.204 231.239L279.201 232.239H279.204V231.239ZM278.354 231.539L277.725 230.762L277.725 230.762L278.354 231.539ZM277.884 232.307L278.862 232.517L278.863 232.513L277.884 232.307ZM276.228 240.031L276.407 241.015L277.066 240.896L277.206 240.241L276.228 240.031ZM276.2 240.036L276.373 241.021L276.379 241.02L276.2 240.036ZM270.055 241.67L270.393 242.611L270.395 242.611L270.055 241.67ZM258.456 248.368L259.098 249.135L259.103 249.131L258.456 248.368ZM253.97 252.854L254.732 253.501L254.737 253.496L253.97 252.854ZM253.957 252.87L253.646 253.821L254.284 254.029L254.719 253.517L253.957 252.87ZM246.455 250.416L246.766 249.466L246.752 249.462L246.455 250.416ZM245.564 250.445L245.206 249.512L245.206 249.512L245.564 250.445ZM244.884 251.019L244.024 250.509L244.018 250.519L244.884 251.019ZM243.011 254.262L242.145 253.762L242.145 253.762L243.011 254.262ZM241.139 257.504L240.273 257.004L240.269 257.01L241.139 257.504ZM240.979 258.386L239.991 258.542L240.979 258.386ZM241.403 259.175L240.728 259.913L240.735 259.92L241.403 259.175ZM247.268 264.438L248.21 264.774L248.436 264.142L247.936 263.694L247.268 264.438ZM247.272 290.127L246.33 290.464L246.331 290.465L247.272 290.127ZM247.279 290.147L247.946 290.892L248.448 290.443L248.22 289.809L247.279 290.147ZM241.403 295.405L240.736 294.66L240.73 294.665L241.403 295.405ZM240.98 296.188L239.992 296.031L239.992 296.031L240.98 296.188ZM241.139 297.064L240.269 297.558L240.273 297.564L241.139 297.064ZM243.011 300.306L242.145 300.806L242.145 300.806L243.011 300.306ZM244.884 303.548L245.751 303.051L245.75 303.048L244.884 303.548ZM245.562 304.129L245.92 303.196L245.92 303.196L245.562 304.129ZM246.455 304.151L246.766 305.101L246.768 305.101L246.455 304.151ZM253.968 301.669L254.728 301.019L254.291 300.509L253.654 300.719L253.968 301.669ZM253.995 301.701L254.77 301.069L254.763 301.06L254.755 301.052L253.995 301.701ZM258.481 306.175L259.132 305.416L259.122 305.407L259.111 305.398L258.481 306.175ZM276.184 314.542L277.162 314.332L277.021 313.674L276.358 313.557L276.184 314.542ZM277.834 322.248L276.856 322.457L276.858 322.463L277.834 322.248ZM278.308 323.009L278.932 322.228L278.932 322.228L278.308 323.009ZM279.154 323.303V322.303L279.149 322.303L279.154 323.303ZM286.631 323.303V324.303H286.649L286.666 324.303L286.631 323.303ZM287.888 322.248L286.91 322.038L286.909 322.041L287.888 322.248ZM289.536 314.551L289.357 313.567L288.698 313.687L288.558 314.341L289.536 314.551ZM289.571 314.544L289.402 313.559L289.393 313.56L289.571 314.544ZM295.754 312.911L295.415 311.97L295.415 311.97L295.754 312.911ZM307.316 306.213L306.674 305.446L306.668 305.451L307.316 306.213ZM311.802 301.726L311.04 301.079L311.035 301.084L311.802 301.726ZM311.804 301.725L312.111 300.773L311.475 300.567L311.041 301.077L311.804 301.725ZM319.317 304.152L319.636 303.204L319.624 303.2L319.317 304.152ZM320.217 304.134L319.861 303.2L319.861 303.2L320.217 304.134ZM320.9 303.548L320.034 303.048L320.031 303.054L320.9 303.548ZM322.773 300.306L321.909 299.803L321.907 299.806L322.773 300.306ZM324.632 297.114L323.793 296.571L323.78 296.591L323.768 296.611L324.632 297.114ZM324.818 296.234L323.831 296.391V296.391L324.818 296.234ZM324.369 295.455L323.7 296.199L323.719 296.216L323.739 296.232L324.369 295.455ZM318.497 290.172L317.556 289.832L317.328 290.465L317.828 290.915L318.497 290.172ZM318.513 290.127L319.453 290.467L319.453 290.467L318.513 290.127ZM320.146 283.982L319.162 283.803L319.161 283.809L320.146 283.982ZM320.146 270.599L319.161 270.769L319.162 270.777L320.146 270.599ZM318.522 264.453L317.851 263.711L317.353 264.16L317.581 264.792L318.522 264.453ZM324.369 259.175L323.711 258.422L323.705 258.427L323.699 258.433L324.369 259.175ZM324.632 257.504L323.765 258.001L323.77 258.009L323.774 258.017L324.632 257.504ZM322.773 254.261L323.64 253.764L323.639 253.761L322.773 254.261ZM320.9 251.019L321.766 250.519L321.762 250.512L321.758 250.505L320.9 251.019ZM320.213 250.443L319.857 251.378L319.857 251.378L320.213 250.443ZM319.317 250.416L319.018 249.462L319.011 249.464L319.003 249.467L319.317 250.416ZM311.863 252.882L311.096 253.524L311.532 254.044L312.177 253.831L311.863 252.882ZM311.84 252.854L312.605 252.211L312.601 252.206L311.84 252.854ZM307.316 248.343L307.962 247.58L307.96 247.579L307.316 248.343ZM295.754 241.67L295.415 242.611L295.415 242.611L295.754 241.67ZM289.595 240.04L288.617 240.25L288.759 240.911L289.425 241.026L289.595 240.04ZM301.135 289.466L301.967 290.022L301.135 289.466ZM304.827 277.272L305.827 277.271V277.27L304.827 277.272ZM278.608 298.805L278.803 297.824L278.608 298.805ZM267.371 292.799L268.078 292.092H268.078L267.371 292.799ZM262.617 268.882L263.541 269.265L262.617 268.882ZM270.704 259.035L270.149 258.203L270.704 259.035ZM282.899 255.343L282.9 254.343H282.899L282.899 255.343ZM286.847 232.317C286.904 232.366 286.942 232.432 286.957 232.505L288.918 232.11C288.814 231.596 288.541 231.133 288.142 230.794L286.847 232.317ZM286.644 232.239C286.718 232.241 286.79 232.269 286.847 232.317L288.142 230.794C287.743 230.454 287.241 230.259 286.718 230.24L286.644 232.239ZM279.204 232.239H286.681V230.239H279.204V232.239ZM278.983 232.316C279.045 232.266 279.122 232.239 279.201 232.239L279.206 230.239C278.667 230.238 278.144 230.422 277.725 230.762L278.983 232.316ZM278.863 232.513C278.879 232.436 278.922 232.366 278.983 232.316L277.725 230.762C277.306 231.101 277.016 231.574 276.906 232.102L278.863 232.513ZM277.206 240.241L278.862 232.517L276.906 232.098L275.251 239.822L277.206 240.241ZM276.379 241.02L276.407 241.015L276.05 239.047L276.022 239.052L276.379 241.02ZM270.395 242.611C272.338 241.91 274.338 241.378 276.373 241.021L276.028 239.051C273.879 239.428 271.768 239.989 269.716 240.729L270.395 242.611ZM259.103 249.131C262.446 246.3 266.27 244.092 270.393 242.611L269.717 240.729C265.369 242.29 261.336 244.619 257.81 247.605L259.103 249.131ZM254.737 253.496C256.059 251.917 257.519 250.458 259.098 249.135L257.814 247.601C256.145 249 254.602 250.543 253.203 252.212L254.737 253.496ZM254.719 253.517L254.732 253.501L253.207 252.207L253.194 252.223L254.719 253.517ZM246.144 251.367L253.646 253.821L254.267 251.92L246.766 249.466L246.144 251.367ZM245.923 251.379C245.998 251.35 246.081 251.347 246.157 251.371L246.752 249.462C246.246 249.304 245.701 249.321 245.206 249.512L245.923 251.379ZM245.744 251.53C245.785 251.461 245.848 251.407 245.923 251.379L245.206 249.512C244.711 249.702 244.294 250.053 244.024 250.509L245.744 251.53ZM243.877 254.762L245.75 251.52L244.018 250.519L242.145 253.762L243.877 254.762ZM242.005 258.004L243.877 254.762L242.145 253.762L240.273 257.004L242.005 258.004ZM241.966 258.23C241.954 258.15 241.969 258.068 242.008 257.998L240.269 257.01C240.006 257.474 239.908 258.014 239.991 258.542L241.966 258.23ZM242.078 258.438C242.018 258.383 241.979 258.31 241.966 258.23L239.991 258.542C240.074 259.069 240.334 259.552 240.728 259.913L242.078 258.438ZM247.936 263.694L242.071 258.431L240.735 259.92L246.601 265.182L247.936 263.694ZM248.214 289.791C245.324 281.702 245.323 272.863 248.21 264.774L246.327 264.102C243.284 272.626 243.285 281.94 246.33 290.464L248.214 289.791ZM248.22 289.809L248.213 289.789L246.331 290.465L246.338 290.485L248.22 289.809ZM242.07 296.15L247.946 290.892L246.612 289.402L240.736 294.66L242.07 296.15ZM241.967 296.345C241.98 296.268 242.018 296.197 242.076 296.144L240.73 294.665C240.336 295.024 240.076 295.505 239.992 296.031L241.967 296.345ZM242.008 296.569C241.97 296.501 241.955 296.422 241.967 296.345L239.992 296.031C239.909 296.557 240.006 297.095 240.269 297.558L242.008 296.569ZM243.877 299.806L242.005 296.563L240.273 297.564L242.145 300.806L243.877 299.806ZM245.75 303.048L243.877 299.806L242.145 300.806L244.018 304.048L245.75 303.048ZM245.92 303.196C245.849 303.168 245.789 303.117 245.751 303.051L244.016 304.045C244.283 304.511 244.702 304.87 245.203 305.063L245.92 303.196ZM246.143 303.201C246.07 303.225 245.992 303.223 245.92 303.196L245.203 305.063C245.704 305.255 246.256 305.269 246.766 305.101L246.143 303.201ZM253.654 300.719L246.141 303.202L246.768 305.101L254.281 302.618L253.654 300.719ZM254.755 301.052L254.728 301.019L253.207 302.319L253.235 302.351L254.755 301.052ZM259.111 305.398C257.519 304.108 256.065 302.658 254.77 301.069L253.22 302.333C254.601 304.028 256.153 305.576 257.852 306.952L259.111 305.398ZM276.358 313.557C269.991 312.434 264.042 309.623 259.132 305.416L257.831 306.934C263.012 311.374 269.291 314.342 276.011 315.526L276.358 313.557ZM278.812 322.038L277.162 314.332L275.206 314.751L276.856 322.457L278.812 322.038ZM278.932 322.228C278.871 322.178 278.828 322.11 278.811 322.033L276.858 322.463C276.973 322.986 277.264 323.455 277.683 323.79L278.932 322.228ZM279.149 322.303C279.07 322.304 278.994 322.277 278.932 322.228L277.683 323.789C278.102 324.124 278.622 324.306 279.159 324.303L279.149 322.303ZM286.631 322.303H279.154V324.303H286.631V322.303ZM286.798 322.226C286.741 322.274 286.67 322.301 286.596 322.304L286.666 324.303C287.186 324.284 287.686 324.093 288.084 323.758L286.798 322.226ZM286.909 322.041C286.894 322.113 286.855 322.179 286.798 322.226L288.084 323.758C288.483 323.423 288.758 322.964 288.866 322.455L286.909 322.041ZM288.558 314.341L286.91 322.038L288.866 322.457L290.514 314.76L288.558 314.341ZM289.393 313.56L289.357 313.567L289.714 315.535L289.75 315.528L289.393 313.56ZM295.415 311.97C293.461 312.675 291.449 313.207 289.402 313.559L289.741 315.53C291.904 315.158 294.03 314.596 296.094 313.851L295.415 311.97ZM306.668 305.451C303.338 308.281 299.527 310.489 295.415 311.97L296.093 313.852C300.43 312.29 304.451 309.96 307.963 306.975L306.668 305.451ZM311.035 301.084C309.713 302.664 308.253 304.123 306.674 305.446L307.958 306.979C309.627 305.581 311.17 304.038 312.569 302.368L311.035 301.084ZM311.041 301.077L311.04 301.079L312.564 302.374L312.566 302.372L311.041 301.077ZM319.624 303.2L312.111 300.773L311.496 302.676L319.009 305.103L319.624 303.2ZM319.861 303.2C319.789 303.227 319.709 303.229 319.636 303.204L318.997 305.099C319.51 305.272 320.067 305.261 320.573 305.069L319.861 303.2ZM320.031 303.054C319.993 303.121 319.933 303.172 319.861 303.2L320.573 305.069C321.078 304.876 321.501 304.513 321.769 304.043L320.031 303.054ZM321.907 299.806L320.034 303.048L321.766 304.048L323.639 300.806L321.907 299.806ZM323.768 296.611L321.909 299.803L323.637 300.81L325.496 297.618L323.768 296.611ZM323.831 296.391C323.841 296.454 323.827 296.518 323.793 296.571L325.472 297.657C325.775 297.19 325.893 296.627 325.806 296.077L323.831 296.391ZM323.739 296.232C323.788 296.272 323.821 296.329 323.831 296.391L325.806 296.077C325.718 295.527 325.431 295.029 324.998 294.678L323.739 296.232ZM317.828 290.915L323.7 296.199L325.037 294.712L319.166 289.428L317.828 290.915ZM317.572 289.788L317.556 289.832L319.437 290.511L319.453 290.467L317.572 289.788ZM319.161 283.809C318.804 285.844 318.273 287.845 317.572 289.788L319.453 290.467C320.193 288.415 320.755 286.303 321.131 284.155L319.161 283.809ZM319.162 270.777C319.945 275.084 319.945 279.497 319.162 283.803L321.13 284.161C321.956 279.618 321.956 274.963 321.13 270.42L319.162 270.777ZM317.581 264.792C318.28 266.735 318.809 268.735 319.161 270.769L321.132 270.428C320.76 268.279 320.201 266.166 319.462 264.114L317.581 264.792ZM319.192 265.195L325.039 259.917L323.699 258.433L317.851 263.711L319.192 265.195ZM325.027 259.928C325.436 259.57 325.707 259.08 325.791 258.543L323.816 258.231C323.804 258.305 323.767 258.373 323.711 258.422L325.027 259.928ZM325.791 258.543C325.876 258.006 325.77 257.457 325.49 256.99L323.774 258.017C323.813 258.082 323.828 258.157 323.816 258.231L325.791 258.543ZM325.5 257.006L323.64 253.764L321.905 254.759L323.765 258.001L325.5 257.006ZM323.639 253.761L321.766 250.519L320.034 251.519L321.907 254.762L323.639 253.761ZM321.758 250.505C321.485 250.049 321.066 249.698 320.569 249.509L319.857 251.378C319.934 251.407 320 251.462 320.042 251.533L321.758 250.505ZM320.569 249.509C320.072 249.32 319.526 249.303 319.018 249.462L319.615 251.371C319.694 251.346 319.779 251.348 319.857 251.378L320.569 249.509ZM319.003 249.467L311.549 251.932L312.177 253.831L319.631 251.365L319.003 249.467ZM311.074 253.498C311.082 253.507 311.089 253.515 311.096 253.524L312.629 252.239C312.621 252.23 312.613 252.22 312.605 252.211L311.074 253.498ZM306.669 249.106C308.256 250.45 309.73 251.92 311.078 253.503L312.601 252.206C311.183 250.541 309.631 248.993 307.962 247.58L306.669 249.106ZM295.415 242.611C299.522 244.093 303.333 246.292 306.671 249.107L307.96 247.579C304.442 244.611 300.424 242.292 296.094 240.729L295.415 242.611ZM289.425 241.026C291.464 241.378 293.468 241.908 295.415 242.611L296.094 240.729C294.037 239.987 291.92 239.427 289.765 239.055L289.425 241.026ZM286.96 232.517L288.617 240.25L290.573 239.831L288.915 232.098L286.96 232.517ZM301.967 290.022C304.486 286.247 305.83 281.809 305.827 277.271L303.827 277.272C303.83 281.415 302.603 285.465 300.303 288.911L301.967 290.022ZM291.671 298.477C295.864 296.739 299.447 293.796 301.967 290.022L300.303 288.911C298.003 292.357 294.733 295.043 290.905 296.629L291.671 298.477ZM278.414 299.785C282.865 300.67 287.479 300.215 291.671 298.477L290.905 296.629C287.078 298.216 282.867 298.631 278.803 297.824L278.414 299.785ZM266.664 293.506C269.873 296.715 273.962 298.901 278.414 299.785L278.803 297.824C274.74 297.016 271.008 295.021 268.078 292.092L266.664 293.506ZM260.385 281.757C261.269 286.208 263.455 290.297 266.664 293.506L268.078 292.092C265.149 289.163 263.154 285.43 262.346 281.367L260.385 281.757ZM261.693 268.499C259.955 272.691 259.5 277.305 260.385 281.757L262.346 281.367C261.539 277.303 261.954 273.092 263.541 269.265L261.693 268.499ZM270.149 258.203C266.374 260.723 263.431 264.306 261.693 268.499L263.541 269.265C265.127 265.438 267.813 262.167 271.259 259.867L270.149 258.203ZM282.899 254.343C278.361 254.34 273.923 255.684 270.149 258.203L271.259 259.867C274.705 257.567 278.755 256.34 282.898 256.343L282.899 254.343ZM299.101 261.069C294.803 256.772 288.978 254.353 282.9 254.343L282.897 256.343C288.445 256.352 293.763 258.56 297.686 262.484L299.101 261.069ZM305.827 277.27C305.817 271.192 303.398 265.367 299.101 261.069L297.686 262.484C301.61 266.407 303.818 271.725 303.827 277.273L305.827 277.27Z" fill="#31B047" mask="url(#path-2-inside-1_963_4717)"/>
<path d="M236.775 226.619C244.826 223.254 248.625 214 245.261 205.949C241.896 197.897 232.642 194.098 224.591 197.463C216.539 200.827 212.74 210.082 216.105 218.133C219.469 226.184 228.724 229.983 236.775 226.619Z" fill="#252525"/>
<path d="M118.472 170.354L111.498 162.198L104.51 154.03L97.5359 162.198L90.5488 170.354H96.317V245.44H112.704V170.354H118.472Z" fill="#31B047"/>
<path d="M241.606 136.247L236.203 129.938L230.812 123.63L225.42 129.938L220.029 136.247H224.49V188.034H237.145V136.247H241.606Z" fill="#31B047"/>
<path fill-rule="evenodd" clip-rule="evenodd" d="M203.032 37.0431C204.413 32.8589 208.148 29.6641 212.816 29.1973C219.137 28.5652 224.775 33.1774 225.407 39.4991C225.804 43.4708 224.131 47.1722 221.265 49.5321L203.032 37.0431ZM199.615 34.703C201.736 29.5943 206.526 25.7863 212.416 25.1973C220.947 24.3443 228.554 30.5683 229.407 39.0991C229.901 44.0464 228.016 48.6831 224.681 51.872L232.122 56.9692L210.029 89.2232L189.074 74.8695L189.089 74.8869L149.636 75.6002C149.331 76.4276 148.871 77.1988 148.273 77.8694C147.02 79.2728 145.261 80.1212 143.383 80.2278L142.579 66.0651C144.457 65.9585 146.301 66.6023 147.704 67.8549C148.35 68.4316 148.879 69.1156 149.271 69.8691L171.333 62.5694L193.357 30.4164L199.615 34.703Z" fill="url(#paint0_linear_963_4717)"/>
<path d="M222.606 40.8184L227.431 31.6321C228.022 30.501 228.237 29.2117 228.047 27.9501L227.318 23.0993L229.53 18.0726L220.733 13.3601L218.22 17.4946C218.22 17.4946 208.066 19.8697 208.066 25.6629L211.321 25.5247L207.551 33.3161L222.606 40.8184Z" fill="#FFD7B8"/>
<path d="M220.28 37.1112C220.745 37.0419 221.219 37.1118 221.644 37.3122C222.069 37.5126 222.425 37.8344 222.667 38.2369C222.909 38.6395 223.026 39.1048 223.003 39.5739C222.981 40.043 222.82 40.4949 222.541 40.8726C222.261 41.2502 221.876 41.5365 221.434 41.6954C220.992 41.8543 220.513 41.8786 220.058 41.7652C219.602 41.6518 219.19 41.4058 218.874 41.0583C218.558 40.7109 218.352 40.2775 218.282 39.8131C218.236 39.5045 218.251 39.1897 218.326 38.8869C218.401 38.584 218.536 38.299 218.721 38.0481C218.907 37.7972 219.14 37.5853 219.408 37.4245C219.675 37.2638 219.972 37.1573 220.28 37.1112Z" fill="#FFD7B8"/>
<path d="M218.106 40.5447C219.209 39.8343 219.527 38.3645 218.817 37.2618C218.106 36.159 216.637 35.841 215.534 36.5514C214.431 37.2618 214.113 38.7316 214.823 39.8343C215.534 40.937 217.004 41.2551 218.106 40.5447Z" fill="#FFD7B8"/>
<path d="M214.473 39.2477C215.561 38.515 215.849 37.039 215.116 35.951C214.384 34.863 212.908 34.575 211.82 35.3077C210.732 36.0405 210.444 37.5165 211.176 38.6045C211.909 39.6925 213.385 39.9805 214.473 39.2477Z" fill="#FFD7B8"/>
<path d="M209.323 31.9968C209.787 31.9255 210.261 31.9932 210.687 32.1916C211.113 32.3899 211.47 32.7099 211.714 33.1112C211.957 33.5124 212.077 33.9769 212.057 34.446C212.037 34.9151 211.878 35.3677 211.601 35.7466C211.324 36.1255 210.94 36.4138 210.499 36.575C210.058 36.7363 209.579 36.7632 209.123 36.6524C208.667 36.5416 208.254 36.2981 207.936 35.9526C207.618 35.6071 207.41 35.1751 207.337 34.7113C207.289 34.4026 207.302 34.0875 207.376 33.7839C207.449 33.4803 207.582 33.1942 207.767 32.9421C207.951 32.69 208.184 32.4767 208.451 32.3145C208.717 32.1523 209.014 32.0443 209.323 31.9968Z" fill="#FFD7B8"/>
<path fill-rule="evenodd" clip-rule="evenodd" d="M234.311 217.979C235.791 217.979 236.991 216.779 236.991 215.299C236.991 213.818 235.791 212.618 234.311 212.618C232.831 212.618 231.63 213.818 231.63 215.299C231.63 216.779 232.831 217.979 234.311 217.979ZM237.882 215.299C237.882 217.271 236.283 218.869 234.311 218.869C232.339 218.869 230.74 217.271 230.74 215.299C230.74 213.327 232.339 211.728 234.311 211.728C236.283 211.728 237.882 213.327 237.882 215.299Z" fill="white"/>
<path fill-rule="evenodd" clip-rule="evenodd" d="M232.112 217.145C232.29 217.363 232.257 217.685 232.039 217.863C230.185 219.373 228.254 220.427 226.547 220.887C224.864 221.341 223.256 221.249 222.239 220.232C221.11 219.102 221.117 217.25 221.76 215.344C221.85 215.077 222.14 214.933 222.407 215.023C222.674 215.114 222.817 215.403 222.727 215.67C222.117 217.479 222.262 218.811 222.961 219.51C223.588 220.138 224.724 220.322 226.281 219.902C227.813 219.489 229.618 218.518 231.394 217.072C231.613 216.894 231.934 216.926 232.112 217.145Z" fill="white"/>
<path fill-rule="evenodd" clip-rule="evenodd" d="M228.551 207.158C228.38 206.934 228.423 206.614 228.646 206.443C230.426 205.082 232.253 204.145 233.866 203.756C235.46 203.372 236.972 203.499 237.943 204.47C239.073 205.6 239.066 207.452 238.423 209.358C238.333 209.625 238.043 209.769 237.776 209.679C237.509 209.589 237.366 209.299 237.456 209.032C238.066 207.223 237.921 205.891 237.222 205.192C236.623 204.593 235.562 204.397 234.105 204.748C232.668 205.094 230.968 205.951 229.266 207.253C229.043 207.424 228.722 207.382 228.551 207.158Z" fill="white"/>
<path fill-rule="evenodd" clip-rule="evenodd" d="M230.232 209.178C230.232 211.15 228.634 212.748 226.661 212.748C224.689 212.748 223.091 211.15 223.091 209.178C223.091 207.206 224.689 205.607 226.661 205.607C228.634 205.607 230.232 207.206 230.232 209.178ZM226.304 207.392H227.018V208.82H228.446V209.534H227.018V210.963H226.304V209.534H224.875V208.82H226.304V207.392Z" fill="white"/>
<path d="M235.587 215.605V214.891H233.036V215.605H235.587Z" fill="white"/>
<path d="M242.435 0.454102L232.771 20.0205L231.916 19.6058L229.416 18.3617L220.38 13.9256L218.671 13.0837L217.917 12.7067L223.974 0.454102H242.435Z" fill="#31B047"/>
<path d="M217.767 14.8556L230.911 21.6542L231.917 19.6059L218.671 13.0837L217.767 14.8556Z" fill="#E6F0FF"/>
<path d="M170.327 249.486H166.859H148.977L153.538 289.084H166.859H170.327H183.648L188.21 249.486H170.327Z" fill="#FFC400"/>
<path d="M165.338 163.718C166.46 164.835 167.285 166.214 167.742 167.73C168.198 169.246 168.27 170.851 167.952 172.402C166.398 172.731 164.786 172.668 163.262 172.216C161.738 171.764 160.352 170.939 159.228 169.816C158.105 168.692 157.279 167.305 156.828 165.782C156.376 164.258 156.312 162.646 156.642 161.092C158.196 160.768 159.806 160.839 161.325 161.298C162.844 161.757 164.224 162.589 165.338 163.718Z" fill="#31B047"/>
<path d="M169.498 151.353H167.688V249.675H169.498V151.353Z" fill="#31B047"/>
<path d="M165.338 203.932C166.46 205.049 167.285 206.428 167.742 207.943C168.198 209.459 168.27 211.065 167.952 212.615C166.398 212.945 164.786 212.881 163.262 212.43C161.738 211.978 160.352 211.153 159.228 210.029C158.105 208.906 157.279 207.519 156.828 205.996C156.376 204.472 156.312 202.86 156.642 201.305C158.196 200.982 159.806 201.053 161.325 201.512C162.844 201.97 164.224 202.802 165.338 203.932Z" fill="#31B047"/>
<path d="M177.478 235.663C176.357 236.779 174.978 237.6 173.463 238.054C171.948 238.508 170.344 238.58 168.794 238.264C168.461 236.709 168.523 235.095 168.973 233.57C169.423 232.045 170.249 230.657 171.373 229.532C172.497 228.408 173.886 227.583 175.411 227.132C176.936 226.682 178.55 226.621 180.105 226.954C180.425 228.509 180.353 230.12 179.895 231.641C179.436 233.162 178.605 234.544 177.478 235.663Z" fill="#31B047"/>
<path d="M177.477 186.188C176.36 187.309 174.981 188.133 173.465 188.587C171.949 189.042 170.343 189.111 168.794 188.789C168.464 187.234 168.528 185.622 168.979 184.099C169.431 182.575 170.256 181.189 171.38 180.065C172.503 178.941 173.89 178.116 175.413 177.665C176.937 177.213 178.549 177.149 180.104 177.479C180.425 179.034 180.352 180.645 179.894 182.166C179.435 183.687 178.605 185.069 177.477 186.188Z" fill="#31B047"/>
<path d="M183.095 117.9C183.099 115.419 182.484 112.976 181.306 110.792C180.128 108.608 178.425 106.752 176.35 105.392C174.275 104.032 171.893 103.21 169.421 103.001C166.949 102.793 164.463 103.204 162.19 104.197C159.916 105.19 157.926 106.734 156.399 108.69C154.872 110.645 153.856 112.951 153.444 115.397C153.032 117.844 153.236 120.355 154.038 122.703C154.84 125.051 156.214 127.162 158.037 128.845C158.94 129.69 159.658 130.712 160.147 131.847C160.636 132.983 160.884 134.207 160.877 135.443V138.849H175.454V134.777C175.473 133.673 175.725 132.585 176.192 131.585C176.66 130.584 177.333 129.694 178.169 128.971C179.722 127.576 180.964 125.869 181.813 123.961C182.662 122.053 183.099 119.988 183.095 117.9Z" fill="#FFC400"/>
<path d="M175.567 143.071H160.877C160.543 143.071 160.224 142.939 159.988 142.703C159.752 142.467 159.62 142.148 159.62 141.815C159.62 141.481 159.752 141.162 159.988 140.926C160.224 140.69 160.543 140.558 160.877 140.558H175.567C175.901 140.558 176.22 140.69 176.456 140.926C176.692 141.162 176.824 141.481 176.824 141.815C176.824 142.148 176.692 142.467 176.456 142.703C176.22 142.939 175.901 143.071 175.567 143.071Z" fill="#FFC400"/>
<path d="M175.567 147.218H160.877C160.543 147.218 160.224 147.086 159.988 146.85C159.752 146.614 159.62 146.295 159.62 145.961C159.62 145.628 159.752 145.308 159.988 145.073C160.224 144.837 160.543 144.705 160.877 144.705H175.567C175.901 144.705 176.22 144.837 176.456 145.073C176.692 145.308 176.824 145.628 176.824 145.961C176.824 146.295 176.692 146.614 176.456 146.85C176.22 147.086 175.901 147.218 175.567 147.218Z" fill="#FFC400"/>
<path d="M175.567 151.34H160.877C160.543 151.34 160.224 151.208 159.988 150.972C159.752 150.737 159.62 150.417 159.62 150.084C159.62 149.75 159.752 149.431 159.988 149.195C160.224 148.959 160.543 148.827 160.877 148.827H175.567C175.901 148.827 176.22 148.959 176.456 149.195C176.692 149.431 176.824 149.75 176.824 150.084C176.824 150.417 176.692 150.737 176.456 150.972C176.22 151.208 175.901 151.34 175.567 151.34Z" fill="#FFC400"/>
<path d="M168.003 96.3105C167.669 96.3105 167.35 96.1781 167.114 95.9424C166.879 95.7067 166.746 95.3871 166.746 95.0538V87.7525C166.746 87.4192 166.879 87.0996 167.114 86.8639C167.35 86.6282 167.669 86.4958 168.003 86.4958C168.336 86.4958 168.656 86.6282 168.891 86.8639C169.127 87.0996 169.259 87.4192 169.259 87.7525V95.0538C169.259 95.3871 169.127 95.7067 168.891 95.9424C168.656 96.1781 168.336 96.3105 168.003 96.3105Z" fill="#FFC400"/>
<path d="M153.086 102.845C152.969 102.967 152.828 103.063 152.673 103.13C152.517 103.196 152.35 103.23 152.181 103.23C152.012 103.23 151.845 103.196 151.689 103.13C151.534 103.063 151.393 102.967 151.276 102.845L146.124 97.6927C146.002 97.5755 145.905 97.4349 145.839 97.2795C145.773 97.124 145.739 96.9568 145.739 96.7879C145.739 96.619 145.773 96.4518 145.839 96.2963C145.905 96.1409 146.002 96.0003 146.124 95.8831C146.241 95.7615 146.382 95.6647 146.537 95.5987C146.693 95.5326 146.86 95.4985 147.029 95.4985C147.198 95.4985 147.365 95.5326 147.52 95.5987C147.676 95.6647 147.816 95.7615 147.933 95.8831L153.086 101.035C153.207 101.153 153.304 101.293 153.37 101.449C153.436 101.604 153.47 101.771 153.47 101.94C153.47 102.109 153.436 102.276 153.37 102.432C153.304 102.587 153.207 102.728 153.086 102.845Z" fill="#FFC400"/>
<path d="M147.179 118.013C147.179 118.346 147.046 118.666 146.811 118.902C146.575 119.137 146.255 119.27 145.922 119.27H138.621C138.288 119.27 137.968 119.137 137.732 118.902C137.497 118.666 137.364 118.346 137.364 118.013C137.364 117.68 137.497 117.36 137.732 117.124C137.968 116.889 138.288 116.756 138.621 116.756H145.922C146.255 116.756 146.575 116.889 146.811 117.124C147.046 117.36 147.179 117.68 147.179 118.013Z" fill="#FFC400"/>
<path d="M153.727 132.93C153.849 133.047 153.946 133.187 154.012 133.343C154.078 133.498 154.112 133.666 154.112 133.835C154.112 134.003 154.078 134.171 154.012 134.326C153.946 134.482 153.849 134.622 153.727 134.739L148.562 139.892C148.445 140.013 148.305 140.11 148.149 140.176C147.994 140.242 147.826 140.276 147.658 140.276C147.489 140.276 147.321 140.242 147.166 140.176C147.011 140.11 146.87 140.013 146.753 139.892C146.631 139.774 146.534 139.634 146.468 139.478C146.402 139.323 146.368 139.156 146.368 138.987C146.368 138.818 146.402 138.651 146.468 138.495C146.534 138.34 146.631 138.199 146.753 138.082L151.905 132.93C152.023 132.806 152.164 132.708 152.32 132.641C152.477 132.573 152.646 132.539 152.816 132.539C152.987 132.539 153.155 132.573 153.312 132.641C153.469 132.708 153.61 132.806 153.727 132.93Z" fill="#FFC400"/>
<path d="M184.1 102.845C184.218 102.967 184.358 103.063 184.514 103.13C184.669 103.196 184.836 103.23 185.005 103.23C185.174 103.23 185.341 103.196 185.497 103.13C185.652 103.063 185.793 102.967 185.91 102.845L191.075 97.6927C191.197 97.5755 191.293 97.4349 191.359 97.2795C191.425 97.124 191.459 96.9568 191.459 96.7879C191.459 96.619 191.425 96.4518 191.359 96.2963C191.293 96.1409 191.197 96.0003 191.075 95.8831C190.958 95.7615 190.817 95.6647 190.662 95.5987C190.506 95.5326 190.339 95.4985 190.17 95.4985C190.001 95.4985 189.834 95.5326 189.679 95.5987C189.523 95.6647 189.383 95.7615 189.265 95.8831L184.1 101.035C183.979 101.153 183.882 101.293 183.816 101.449C183.75 101.604 183.716 101.771 183.716 101.94C183.716 102.109 183.75 102.276 183.816 102.432C183.882 102.587 183.979 102.728 184.1 102.845Z" fill="#FFC400"/>
<path d="M190.02 118.013C190.02 118.346 190.152 118.666 190.388 118.902C190.623 119.137 190.943 119.27 191.276 119.27H198.577C198.911 119.27 199.23 119.137 199.466 118.902C199.702 118.666 199.834 118.346 199.834 118.013C199.834 117.68 199.702 117.36 199.466 117.124C199.23 116.889 198.911 116.756 198.577 116.756H191.276C190.943 116.756 190.623 116.889 190.388 117.124C190.152 117.36 190.02 117.68 190.02 118.013Z" fill="#FFC400"/>
<path d="M183.472 132.93C183.351 133.047 183.254 133.188 183.188 133.343C183.122 133.498 183.088 133.666 183.088 133.835C183.088 134.003 183.122 134.171 183.188 134.326C183.254 134.482 183.351 134.622 183.472 134.739L188.625 139.892C188.742 140.015 188.884 140.114 189.04 140.181C189.197 140.248 189.365 140.283 189.536 140.283C189.706 140.283 189.875 140.248 190.032 140.181C190.188 140.114 190.33 140.015 190.447 139.892C190.569 139.774 190.665 139.634 190.731 139.478C190.798 139.323 190.832 139.156 190.832 138.987C190.832 138.818 190.798 138.651 190.731 138.495C190.665 138.34 190.569 138.199 190.447 138.082L185.282 132.93C185.165 132.808 185.024 132.711 184.869 132.645C184.713 132.579 184.546 132.545 184.377 132.545C184.208 132.545 184.041 132.579 183.886 132.645C183.73 132.711 183.59 132.808 183.472 132.93Z" fill="#FFC400"/>
<path d="M172.077 117.922C172.08 118.696 171.853 119.454 171.425 120.099C170.997 120.744 170.388 121.248 169.673 121.547C168.959 121.845 168.172 121.925 167.412 121.775C166.653 121.626 165.954 121.255 165.406 120.709C164.857 120.162 164.483 119.466 164.331 118.706C164.179 117.947 164.256 117.16 164.551 116.445C164.847 115.729 165.348 115.117 165.991 114.687C166.635 114.257 167.392 114.027 168.166 114.027C169.2 114.027 170.193 114.437 170.926 115.167C171.659 115.897 172.073 116.888 172.077 117.922Z" stroke="black"/>
<path d="M71.5171 211.465C71.2771 211.465 71.047 211.37 70.8773 211.2C70.7076 211.03 70.6123 210.8 70.6123 210.56V190.73H72.4219V210.56C72.4219 210.8 72.3266 211.03 72.1569 211.2C71.9872 211.37 71.7571 211.465 71.5171 211.465Z" fill="#252525"/>
<path d="M71.529 193.784H78.0511L74.7837 190.127L71.529 186.457L68.2742 190.127L65.0068 193.784H71.529Z" fill="#252525"/>
<path d="M267.567 277.459C267.448 277.459 267.33 277.436 267.221 277.391C267.111 277.345 267.011 277.278 266.927 277.194C266.843 277.11 266.776 277.011 266.731 276.901C266.686 276.791 266.662 276.674 266.662 276.555V256.724H268.472V276.555C268.472 276.674 268.448 276.791 268.403 276.901C268.357 277.011 268.291 277.11 268.207 277.194C268.123 277.278 268.023 277.345 267.913 277.391C267.803 277.436 267.686 277.459 267.567 277.459Z" fill="#252525"/>
<path d="M267.567 259.778H274.089L270.822 256.121L267.567 252.451L264.312 256.121L261.045 259.778H267.567Z" fill="#252525"/>
<path d="M281.473 173.91V184.365" stroke="#31B047" stroke-width="1.5" stroke-miterlimit="10" stroke-linecap="round"/>
<path d="M275.768 179.137H286.877" stroke="#31B047" stroke-width="1.5" stroke-miterlimit="10" stroke-linecap="round"/>
<path d="M193.707 307.821V318.289" stroke="#31B047" stroke-width="1.5" stroke-miterlimit="10" stroke-linecap="round"/>
<path d="M188.001 313.048H199.11" stroke="#31B047" stroke-width="1.5" stroke-miterlimit="10" stroke-linecap="round"/>
<path d="M68.3936 258.321V268.776" stroke="#252525" stroke-width="1.5" stroke-miterlimit="10" stroke-linecap="round"/>
<path d="M62.6885 263.548H73.7975" stroke="#252525" stroke-width="1.5" stroke-miterlimit="10" stroke-linecap="round"/>
<path d="M310.137 206.709C312.149 206.709 313.781 205.077 313.781 203.064C313.781 201.052 312.149 199.42 310.137 199.42C308.124 199.42 306.492 201.052 306.492 203.064C306.492 205.077 308.124 206.709 310.137 206.709Z" stroke="#31B047" stroke-width="1.5" stroke-miterlimit="10" stroke-linecap="round"/>
<path d="M46.6784 174.525C46.6784 175.246 46.4646 175.951 46.0642 176.55C45.6637 177.149 45.0946 177.617 44.4286 177.892C43.7627 178.168 43.03 178.24 42.323 178.1C41.6161 177.959 40.9667 177.612 40.4571 177.102C39.9474 176.593 39.6003 175.943 39.4597 175.236C39.3191 174.529 39.3912 173.797 39.6671 173.131C39.9429 172.465 40.41 171.896 41.0093 171.495C41.6086 171.095 42.3132 170.881 43.034 170.881C44.0006 170.881 44.9275 171.265 45.611 171.948C46.2944 172.632 46.6784 173.559 46.6784 174.525V174.525Z" stroke="#31B047" stroke-width="1.5" stroke-miterlimit="10" stroke-linecap="round"/>
<path d="M211.144 36.0181L213.029 32.248" stroke="#BF643A" stroke-width="0.5" stroke-linecap="round"/>
<path d="M218.559 40.0395L220.695 35.6411" stroke="#BF643A" stroke-width="0.5" stroke-linecap="round"/>
<path d="M214.662 38.9083L216.924 34.3843" stroke="#BF643A" stroke-width="0.5" stroke-linecap="round"/>
<defs>
<linearGradient id="paint0_linear_963_4717" x1="226.873" y1="37.3694" x2="183.26" y2="137.58" gradientUnits="userSpaceOnUse">
<stop stop-color="#0E6F1F"/>
<stop offset="0.53307" stop-color="#31B047"/>
</linearGradient>
</defs>
</svg>
