<svg width="185" height="132" viewBox="0 0 185 132" fill="none" xmlns="http://www.w3.org/2000/svg">
<path d="M0.219727 113.652H182.437" stroke="#31B047"/>
<path d="M114.22 0L114.22 132" stroke="#31B047"/>
<path d="M128.22 66L-0.000274658 66" stroke="black" stroke-dasharray="4 4"/>
<path d="M18.1432 53.8471L18.1274 53.3473L18.0521 53.3497L17.9808 53.3742L18.1432 53.8471ZM33.7458 53.3536L33.7616 53.8534L33.8584 53.8503L33.9471 53.8113L33.7458 53.3536ZM49.3483 46.4913L49.1722 46.0234L49.1595 46.0282L49.147 46.0336L49.3483 46.4913ZM62.8233 41.4179L62.8636 40.9195L62.7519 40.9105L62.6471 40.9499L62.8233 41.4179ZM80.5535 42.852L80.5132 43.3504L80.6356 43.3603L80.7487 43.3123L80.5535 42.852ZM96.1561 36.2365L96.1159 35.7381L96.0353 35.7446L95.9609 35.7761L96.1561 36.2365ZM111.759 34.9797L111.799 35.478L111.914 35.4687L112.014 35.4094L111.759 34.9797ZM130.22 24L124.447 24.0748L127.398 29.037L130.22 24ZM0.382071 60.4729L18.3055 54.32L17.9808 53.3742L0.0573817 59.5271L0.382071 60.4729ZM18.159 54.3468L33.7616 53.8534L33.73 52.8539L18.1274 53.3473L18.159 54.3468ZM33.9471 53.8113L49.5496 46.949L49.147 46.0336L33.5445 52.8959L33.9471 53.8113ZM49.5245 46.9593L62.9995 41.8858L62.6471 40.9499L49.1722 46.0234L49.5245 46.9593ZM62.783 41.9162L80.5132 43.3504L80.5938 42.3536L62.8636 40.9195L62.783 41.9162ZM80.7487 43.3123L96.3513 36.6968L95.9609 35.7761L80.3583 42.3917L80.7487 43.3123ZM96.1962 36.7348L111.799 35.478L111.719 34.4813L96.1159 35.7381L96.1962 36.7348ZM112.014 35.4094L126.608 26.73L126.096 25.8705L111.503 34.5499L112.014 35.4094Z" fill="#31B047"/>
<path d="M0.219727 70L18.1432 76.1529L33.7458 76.6464L49.3483 83.5087L62.8233 88.5821L80.5535 87.148L96.1561 93.7635L111.759 95.0203L130.22 106" stroke="#FFD44B" stroke-dasharray="4 4"/>
<path d="M134.505 67.4141H135.481C135.513 67.6719 135.646 67.8802 135.88 68.0391C136.114 68.1953 136.405 68.2734 136.751 68.2734C137.09 68.2734 137.366 68.1979 137.579 68.0469C137.795 67.8958 137.903 67.7031 137.903 67.4688C137.903 67.2656 137.825 67.1016 137.669 66.9766C137.513 66.849 137.257 66.7435 136.903 66.6602L136.173 66.4883C135.655 66.3685 135.269 66.1823 135.017 65.9297C134.767 65.6771 134.642 65.349 134.642 64.9453C134.642 64.4479 134.837 64.0443 135.228 63.7344C135.618 63.4245 136.122 63.2695 136.739 63.2695C137.359 63.2695 137.858 63.4232 138.235 63.7305C138.616 64.0352 138.812 64.4362 138.825 64.9336H137.864C137.841 64.6706 137.728 64.4648 137.524 64.3164C137.321 64.1654 137.057 64.0898 136.731 64.0898C136.414 64.0898 136.156 64.1615 135.958 64.3047C135.763 64.4479 135.665 64.6367 135.665 64.8711C135.665 65.0586 135.741 65.2109 135.892 65.3281C136.045 65.4453 136.295 65.5456 136.642 65.6289L137.29 65.7773C137.86 65.9076 138.274 66.0977 138.532 66.3477C138.79 66.5977 138.919 66.9323 138.919 67.3516C138.919 67.8854 138.718 68.3099 138.317 68.625C137.919 68.9375 137.379 69.0938 136.696 69.0938C136.045 69.0938 135.522 68.944 135.126 68.6445C134.733 68.3424 134.526 67.9323 134.505 67.4141ZM142.063 69H141.06V64.2148H139.372V63.3633H143.747V64.2148H142.063V69ZM145.446 64.1797V66.1055H146.583C146.903 66.1055 147.152 66.0208 147.329 65.8516C147.506 65.6823 147.595 65.4453 147.595 65.1406C147.595 64.8438 147.502 64.6094 147.317 64.4375C147.132 64.2656 146.881 64.1797 146.563 64.1797H145.446ZM145.446 66.8789V69H144.438V63.3633H146.677C147.284 63.3633 147.76 63.5208 148.106 63.8359C148.453 64.1484 148.626 64.5755 148.626 65.1172C148.626 65.4948 148.532 65.8281 148.345 66.1172C148.157 66.4036 147.897 66.6068 147.563 66.7266L148.794 69H147.646L146.536 66.8789H145.446ZM150.446 69H149.438V63.3633H150.446V69ZM152.446 69H151.438V63.3633H152.446V66H152.481L154.731 63.3633H155.892L153.72 65.8633L156.06 69H154.833L153.001 66.5391L152.446 67.1875V69ZM160.243 68.1484V69H156.595V63.3633H160.243V64.2148H157.603V65.7383H160.099V66.5391H157.603V68.1484H160.243ZM162.72 63.3633H164.911C165.474 63.3633 165.931 63.5378 166.282 63.8867C166.634 64.2331 166.81 64.6875 166.81 65.25C166.81 65.8099 166.629 66.2643 166.267 66.6133C165.907 66.9622 165.441 67.1367 164.868 67.1367H163.728V69H162.72V63.3633ZM163.728 64.1875V66.3242H164.642C165.004 66.3242 165.285 66.2305 165.485 66.043C165.686 65.8555 165.786 65.5911 165.786 65.25C165.786 64.9115 165.686 64.6497 165.485 64.4648C165.287 64.2799 165.007 64.1875 164.646 64.1875H163.728ZM168.556 64.1797V66.1055H169.692C170.013 66.1055 170.261 66.0208 170.438 65.8516C170.616 65.6823 170.704 65.4453 170.704 65.1406C170.704 64.8438 170.612 64.6094 170.427 64.4375C170.242 64.2656 169.991 64.1797 169.673 64.1797H168.556ZM168.556 66.8789V69H167.548V63.3633H169.786C170.393 63.3633 170.869 63.5208 171.216 63.8359C171.562 64.1484 171.735 64.5755 171.735 65.1172C171.735 65.4948 171.642 65.8281 171.454 66.1172C171.267 66.4036 171.006 66.6068 170.673 66.7266L171.903 69H170.755L169.646 66.8789H168.556ZM173.556 69H172.548V63.3633H173.556V69ZM176.978 69.0938C176.17 69.0938 175.531 68.8333 175.06 68.3125C174.591 67.7917 174.356 67.0807 174.356 66.1797C174.356 65.2839 174.592 64.5755 175.063 64.0547C175.537 63.5312 176.175 63.2695 176.978 63.2695C177.634 63.2695 178.187 63.457 178.638 63.832C179.088 64.2044 179.345 64.6927 179.407 65.2969H178.415C178.35 64.9427 178.185 64.6589 177.919 64.4453C177.656 64.2318 177.342 64.125 176.978 64.125C176.493 64.125 176.106 64.3112 175.817 64.6836C175.531 65.0534 175.388 65.5521 175.388 66.1797C175.388 66.8125 175.531 67.3138 175.817 67.6836C176.104 68.0534 176.492 68.2383 176.981 68.2383C177.354 68.2383 177.666 68.1432 177.919 67.9531C178.174 67.7604 178.341 67.4948 178.419 67.1562H179.407C179.319 67.7604 179.058 68.2344 178.626 68.5781C178.194 68.9219 177.644 69.0938 176.978 69.0938ZM183.821 68.1484V69H180.173V63.3633H183.821V64.2148H181.181V65.7383H183.677V66.5391H181.181V68.1484H183.821Z" fill="black"/>
<path d="M23.5625 20.9541V25.4023C23.5625 25.8906 23.7057 26.2829 23.9922 26.5791C24.2819 26.8721 24.6839 27.0186 25.1982 27.0186C25.7126 27.0186 26.1146 26.8721 26.4043 26.5791C26.694 26.2829 26.8389 25.8906 26.8389 25.4023V20.9541H28.0938V25.5146C28.0938 26.2926 27.8317 26.9209 27.3076 27.3994C26.7868 27.8779 26.0837 28.1172 25.1982 28.1172C24.3161 28.1172 23.613 27.8779 23.0889 27.3994C22.5648 26.9209 22.3027 26.2926 22.3027 25.5146V20.9541H23.5625ZM29.3438 20.9541H32.083C32.7861 20.9541 33.3574 21.1722 33.7969 21.6084C34.2363 22.0413 34.4561 22.6094 34.4561 23.3125C34.4561 24.0124 34.2298 24.5804 33.7773 25.0166C33.3281 25.4528 32.7454 25.6709 32.0293 25.6709H30.6035V28H29.3438V20.9541ZM30.6035 21.9844V24.6553H31.7461C32.1986 24.6553 32.5501 24.5381 32.8008 24.3037C33.0514 24.0693 33.1768 23.7389 33.1768 23.3125C33.1768 22.8893 33.0514 22.5622 32.8008 22.3311C32.5534 22.0999 32.2035 21.9844 31.751 21.9844H30.6035Z" fill="black"/>
<path d="M141.056 39.3506C141.493 39.587 141.866 39.7235 142.181 39.7993C142.13 39.4742 142.167 39.1643 142.27 38.8826C142.282 38.833 142.297 38.784 142.322 38.7371C142.332 38.716 142.342 38.696 142.352 38.677C142.353 38.6746 142.353 38.6717 142.354 38.6694C142.375 38.6319 142.399 38.5982 142.426 38.5676C142.6 38.3139 142.865 38.1276 143.179 38.0569C143.512 37.9829 143.869 38.034 144.181 38.2035C144.815 38.5466 145.088 39.2741 144.838 39.8779C144.828 39.9137 144.813 39.9493 144.795 39.9835C144.794 39.9854 144.794 39.9877 144.793 39.9898C144.781 40.0107 144.769 40.031 144.751 40.0597C144.745 40.0708 144.736 40.0781 144.73 40.0884C144.563 40.3509 144.33 40.5656 144.045 40.7216C144.191 40.8271 144.35 40.9196 144.522 40.9918C144.791 41.104 145.096 41.1164 145.364 41.1175C145.939 35.6449 151.434 31.3376 158.111 31.3376C160.133 31.3376 162.131 31.74 163.919 32.5053C164.674 31.5471 165.883 31.0625 167.522 31.0625H169.684C169.882 31.0625 170.066 31.1663 170.169 31.3363C170.271 31.5063 170.278 31.7176 170.185 31.8931L168.294 35.4862C168.275 35.5239 168.294 35.5658 168.316 35.5901C169.028 36.3754 169.605 37.236 170.03 38.1472C170.286 38.6919 170.778 39.0309 171.316 39.0309L172.647 39.0316C173.515 39.0309 174.221 39.7371 174.221 40.6048V43.5228C174.221 44.3906 173.515 45.0965 172.647 45.0965H171.315C170.777 45.0965 170.285 45.4357 170.03 45.982C169.348 47.4472 168.26 48.7929 166.885 49.8741C166.51 50.1711 166.287 50.6502 166.287 51.1548V53.9247C166.287 54.2375 166.033 54.4913 165.72 54.4913H162.287C161.974 54.4913 161.721 54.2375 161.721 53.9247V52.3583C159.338 52.9455 156.742 52.9331 154.383 52.3286V53.9247C154.383 54.2375 154.129 54.4912 153.816 54.4912L150.383 54.4918C150.07 54.4918 149.816 54.238 149.816 53.9252V51.0621C149.816 50.5654 149.598 50.0908 149.233 49.7951C146.758 47.8026 145.375 45.1295 145.318 42.2509C144.978 42.248 144.532 42.224 144.087 42.0391C143.541 41.8108 143.069 41.4474 142.727 41.0092C142.05 40.99 141.297 40.7694 140.518 40.348C140.243 40.1991 140.14 39.8555 140.289 39.5798C140.438 39.3042 140.782 39.2006 141.057 39.3506L141.056 39.3506ZM143.642 39.2008C143.571 39.1618 143.493 39.1484 143.427 39.1634C143.406 39.1684 143.368 39.1805 143.35 39.2148C143.349 39.2156 143.349 39.2166 143.349 39.2174C143.274 39.3629 143.273 39.5718 143.343 39.7974C143.551 39.7244 143.71 39.6082 143.796 39.4496C143.797 39.4493 143.797 39.4488 143.797 39.4485C143.82 39.4029 143.78 39.2757 143.642 39.2008Z" fill="#31B047"/>
<path d="M154.235 47.1516L162.33 37.4375" stroke="white"/>
<circle cx="160.914" cy="45.5326" r="1.11902" stroke="white"/>
<circle cx="155.652" cy="39.0565" r="1.11902" stroke="white"/>
<circle cx="158.283" cy="30" r="5.3125" fill="#FFD44B"/>
<circle cx="158.283" cy="30.0001" r="4.13195" fill="url(#paint0_linear_963_4888)"/>
<rect x="156.571" y="30" width="2.42014" height="2.42014" transform="rotate(-45 156.571 30)" fill="white"/>
<circle cx="150.846" cy="25.75" r="5.3125" fill="#FFD44B"/>
<circle cx="150.846" cy="25.7501" r="4.13195" fill="url(#paint1_linear_963_4888)"/>
<rect x="149.134" y="25.75" width="2.42014" height="2.42014" transform="rotate(-45 149.134 25.75)" fill="white"/>
<circle cx="161.471" cy="18.3125" r="5.3125" fill="#FFD44B"/>
<circle cx="161.471" cy="18.3126" r="4.13195" fill="url(#paint2_linear_963_4888)"/>
<rect x="159.759" y="18.3125" width="2.42014" height="2.42014" transform="rotate(-45 159.759 18.3125)" fill="white"/>
<ellipse cx="158.283" cy="35.8438" rx="4.25" ry="1.59375" fill="#31B047"/>
<path d="M141.056 93.6631C141.493 93.8995 141.866 94.036 142.181 94.1118C142.13 93.7867 142.167 93.4768 142.27 93.1951C142.282 93.1455 142.297 93.0965 142.322 93.0496C142.332 93.0285 142.342 93.0085 142.352 92.9895C142.353 92.9871 142.353 92.9842 142.354 92.9819C142.375 92.9444 142.399 92.9107 142.426 92.8801C142.6 92.6264 142.865 92.4401 143.179 92.3694C143.512 92.2954 143.869 92.3465 144.181 92.516C144.815 92.8591 145.088 93.5866 144.838 94.1904C144.828 94.2262 144.813 94.2618 144.795 94.296C144.794 94.2979 144.794 94.3002 144.793 94.3024C144.781 94.3232 144.769 94.3435 144.751 94.3722C144.745 94.3833 144.736 94.3906 144.73 94.4009C144.563 94.6634 144.33 94.8781 144.045 95.0341C144.191 95.1396 144.35 95.2321 144.522 95.3043C144.791 95.4165 145.096 95.4289 145.364 95.43C145.939 89.9574 151.434 85.6501 158.111 85.6501C160.133 85.6501 162.131 86.0525 163.919 86.8178C164.674 85.8596 165.883 85.375 167.522 85.375H169.684C169.882 85.375 170.066 85.4788 170.169 85.6488C170.271 85.8188 170.278 86.0301 170.185 86.2056L168.294 89.7987C168.275 89.8364 168.294 89.8783 168.316 89.9026C169.028 90.6879 169.605 91.5485 170.03 92.4597C170.286 93.0044 170.778 93.3434 171.316 93.3434L172.647 93.3441C173.515 93.3434 174.221 94.0496 174.221 94.9173V97.8353C174.221 98.7031 173.515 99.409 172.647 99.409H171.315C170.777 99.409 170.285 99.7482 170.03 100.294C169.348 101.76 168.26 103.105 166.885 104.187C166.51 104.484 166.287 104.963 166.287 105.467V108.237C166.287 108.55 166.033 108.804 165.72 108.804H162.287C161.974 108.804 161.721 108.55 161.721 108.237V106.671C159.338 107.258 156.742 107.246 154.383 106.641V108.237C154.383 108.55 154.129 108.804 153.816 108.804L150.383 108.804C150.07 108.804 149.816 108.551 149.816 108.238V105.375C149.816 104.878 149.598 104.403 149.233 104.108C146.758 102.115 145.375 99.442 145.318 96.5634C144.978 96.5605 144.532 96.5365 144.087 96.3516C143.541 96.1233 143.069 95.7599 142.727 95.3217C142.05 95.3025 141.297 95.0819 140.518 94.6605C140.243 94.5116 140.14 94.168 140.289 93.8923C140.438 93.6167 140.782 93.5131 141.057 93.6631L141.056 93.6631ZM143.642 93.5133C143.571 93.4743 143.493 93.4609 143.427 93.4759C143.406 93.4809 143.368 93.493 143.35 93.5273C143.349 93.5281 143.349 93.5291 143.349 93.5299C143.274 93.6754 143.273 93.8843 143.343 94.1099C143.551 94.0369 143.71 93.9207 143.796 93.7621C143.797 93.7618 143.797 93.7613 143.797 93.761C143.82 93.7154 143.78 93.5882 143.642 93.5133Z" fill="#31B047"/>
<path d="M154.235 101.464L162.33 91.75" stroke="white"/>
<circle cx="160.914" cy="99.8451" r="1.11902" stroke="white"/>
<circle cx="155.652" cy="93.369" r="1.11902" stroke="white"/>
<circle cx="158.283" cy="84.3125" r="5.3125" fill="#FFD44B"/>
<circle cx="158.283" cy="84.3126" r="4.13195" fill="url(#paint3_linear_963_4888)"/>
<rect x="156.571" y="84.3125" width="2.42014" height="2.42014" transform="rotate(-45 156.571 84.3125)" fill="white"/>
<ellipse cx="158.283" cy="90.1562" rx="4.25" ry="1.59375" fill="#31B047"/>
<path d="M13.2197 10L10.333 15H16.1065L13.2197 10ZM13.7197 34V14.5H12.7197V34H13.7197Z" fill="black"/>
<defs>
<linearGradient id="paint0_linear_963_4888" x1="155.479" y1="26.9012" x2="161.235" y2="32.9515" gradientUnits="userSpaceOnUse">
<stop offset="0.133929" stop-color="#FFC200"/>
<stop offset="0.580357" stop-color="#FFC200" stop-opacity="0"/>
<stop offset="1" stop-color="#FFC200"/>
</linearGradient>
<linearGradient id="paint1_linear_963_4888" x1="148.042" y1="22.6512" x2="153.797" y2="28.7015" gradientUnits="userSpaceOnUse">
<stop offset="0.133929" stop-color="#FFC200"/>
<stop offset="0.580357" stop-color="#FFC200" stop-opacity="0"/>
<stop offset="1" stop-color="#FFC200"/>
</linearGradient>
<linearGradient id="paint2_linear_963_4888" x1="158.667" y1="15.2137" x2="164.422" y2="21.264" gradientUnits="userSpaceOnUse">
<stop offset="0.133929" stop-color="#FFC200"/>
<stop offset="0.580357" stop-color="#FFC200" stop-opacity="0"/>
<stop offset="1" stop-color="#FFC200"/>
</linearGradient>
<linearGradient id="paint3_linear_963_4888" x1="155.479" y1="81.2137" x2="161.235" y2="87.264" gradientUnits="userSpaceOnUse">
<stop offset="0.133929" stop-color="#FFC200"/>
<stop offset="0.580357" stop-color="#FFC200" stop-opacity="0"/>
<stop offset="1" stop-color="#FFC200"/>
</linearGradient>
</defs>
</svg>
