<svg width="183" height="132" viewBox="0 0 183 132" fill="none" xmlns="http://www.w3.org/2000/svg">
<path d="M0 117.652H182.217" stroke="#31B047"/>
<path d="M0 14.3478H182.217" stroke="#31B047"/>
<path d="M25.1094 0L25.1094 132" stroke="black" stroke-dasharray="4 4"/>
<path d="M71.0215 0L71.0215 132" stroke="black" stroke-dasharray="4 4"/>
<path d="M116.935 0L116.935 132" stroke="black" stroke-dasharray="4 4"/>
<path d="M162.848 0L162.848 118" stroke="black" stroke-dasharray="4 4"/>
<path d="M46.6303 63.8479L46.8697 63.4089L46.583 63.2525L46.3245 63.4522L46.6303 63.8479ZM62.4129 72.4566L62.1734 72.8955L62.4859 73.0659L62.7492 72.8265L62.4129 72.4566ZM78.1955 58.1087L78.0449 57.6319L77.9403 57.665L77.8591 57.7388L78.1955 58.1087ZM91.8259 53.8044L92.0702 53.3681L91.8815 53.2625L91.6754 53.3276L91.8259 53.8044ZM109.761 63.8479L109.516 64.2841L109.876 64.4855L110.142 64.1708L109.761 63.8479ZM125.543 45.1957L125.733 44.7329L125.396 44.5953L125.162 44.8727L125.543 45.1957ZM141.326 51.6522L141.137 52.115L141.51 52.2676L141.738 51.9355L141.326 51.6522ZM157.109 28.6957L151.897 31.1805L156.655 34.4513L157.109 28.6957ZM31.1534 76.4391L46.936 64.2435L46.3245 63.4522L30.5419 75.6479L31.1534 76.4391ZM46.3908 64.2868L62.1734 72.8955L62.6523 72.0176L46.8697 63.4089L46.3908 64.2868ZM62.7492 72.8265L78.5318 58.4787L77.8591 57.7388L62.0765 72.0866L62.7492 72.8265ZM78.3461 58.5855L91.9765 54.2812L91.6754 53.3276L78.0449 57.6319L78.3461 58.5855ZM91.5816 54.2406L109.516 64.2841L110.005 63.4116L92.0702 53.3681L91.5816 54.2406ZM110.142 64.1708L125.925 45.5187L125.162 44.8727L109.379 63.5249L110.142 64.1708ZM125.354 45.6585L141.137 52.115L141.515 51.1894L125.733 44.7329L125.354 45.6585ZM141.738 51.9355L154.971 32.6871L154.147 32.1206L140.914 51.3689L141.738 51.9355Z" fill="#31B047"/>
<circle cx="48.0648" cy="94.6956" r="8.6087" fill="#FFD44B"/>
<circle cx="48.0638" cy="94.6958" r="6.69565" fill="url(#paint0_linear_963_4816)"/>
<rect x="45.29" y="94.6957" width="3.92174" height="3.92174" transform="rotate(-45 45.29 94.6957)" fill="white"/>
<circle cx="88.2386" cy="94.6955" r="8.6087" fill="#FFD44B"/>
<circle cx="88.2376" cy="94.6958" r="6.69565" fill="url(#paint1_linear_963_4816)"/>
<rect x="85.4639" y="94.6956" width="3.92174" height="3.92174" transform="rotate(-45 85.4639 94.6956)" fill="white"/>
<circle cx="134.153" cy="94.6957" r="8.6087" fill="#FFD44B"/>
<circle cx="134.152" cy="94.6959" r="6.69565" fill="url(#paint2_linear_963_4816)"/>
<rect x="131.378" y="94.6957" width="3.92174" height="3.92174" transform="rotate(-45 131.378 94.6957)" fill="white"/>
<circle cx="99.7171" cy="94.6956" r="8.6087" fill="#FFD44B"/>
<circle cx="99.7162" cy="94.6958" r="6.69565" fill="url(#paint3_linear_963_4816)"/>
<rect x="96.9424" y="94.6957" width="3.92174" height="3.92174" transform="rotate(-45 96.9424 94.6957)" fill="white"/>
<circle cx="145.63" cy="94.6956" r="8.6087" fill="#FFD44B"/>
<circle cx="145.629" cy="94.6958" r="6.69565" fill="url(#paint4_linear_963_4816)"/>
<rect x="142.855" y="94.6957" width="3.92174" height="3.92174" transform="rotate(-45 142.855 94.6957)" fill="white"/>
<circle cx="139.891" cy="83.2173" r="8.6087" fill="#FFD44B"/>
<circle cx="139.89" cy="83.2176" r="6.69565" fill="url(#paint5_linear_963_4816)"/>
<rect x="137.116" y="83.2174" width="3.92174" height="3.92174" transform="rotate(-45 137.116 83.2174)" fill="white"/>
<defs>
<linearGradient id="paint0_linear_963_4816" x1="43.5203" y1="89.674" x2="52.8464" y2="99.4784" gradientUnits="userSpaceOnUse">
<stop offset="0.133929" stop-color="#FFC200"/>
<stop offset="0.580357" stop-color="#FFC200" stop-opacity="0"/>
<stop offset="1" stop-color="#FFC200"/>
</linearGradient>
<linearGradient id="paint1_linear_963_4816" x1="83.6942" y1="89.674" x2="93.0203" y2="99.4784" gradientUnits="userSpaceOnUse">
<stop offset="0.133929" stop-color="#FFC200"/>
<stop offset="0.580357" stop-color="#FFC200" stop-opacity="0"/>
<stop offset="1" stop-color="#FFC200"/>
</linearGradient>
<linearGradient id="paint2_linear_963_4816" x1="129.608" y1="89.6742" x2="138.934" y2="99.4785" gradientUnits="userSpaceOnUse">
<stop offset="0.133929" stop-color="#FFC200"/>
<stop offset="0.580357" stop-color="#FFC200" stop-opacity="0"/>
<stop offset="1" stop-color="#FFC200"/>
</linearGradient>
<linearGradient id="paint3_linear_963_4816" x1="95.1727" y1="89.674" x2="104.499" y2="99.4784" gradientUnits="userSpaceOnUse">
<stop offset="0.133929" stop-color="#FFC200"/>
<stop offset="0.580357" stop-color="#FFC200" stop-opacity="0"/>
<stop offset="1" stop-color="#FFC200"/>
</linearGradient>
<linearGradient id="paint4_linear_963_4816" x1="141.086" y1="89.674" x2="150.412" y2="99.4784" gradientUnits="userSpaceOnUse">
<stop offset="0.133929" stop-color="#FFC200"/>
<stop offset="0.580357" stop-color="#FFC200" stop-opacity="0"/>
<stop offset="1" stop-color="#FFC200"/>
</linearGradient>
<linearGradient id="paint5_linear_963_4816" x1="135.347" y1="78.1959" x2="144.673" y2="88.0002" gradientUnits="userSpaceOnUse">
<stop offset="0.133929" stop-color="#FFC200"/>
<stop offset="0.580357" stop-color="#FFC200" stop-opacity="0"/>
<stop offset="1" stop-color="#FFC200"/>
</linearGradient>
</defs>
</svg>
