<svg width="584" height="280" viewBox="0 0 584 280" fill="none" xmlns="http://www.w3.org/2000/svg">
<line x1="584" y1="238.5" y2="238.5" stroke="#ADB9D8"/>
<path d="M560.202 147.405C561.971 147.405 563.405 145.971 563.405 144.202C563.405 142.434 561.971 141 560.202 141C558.434 141 557 142.434 557 144.202C557 145.971 558.434 147.405 560.202 147.405Z" stroke="#AEC0B1" stroke-width="1.5" stroke-miterlimit="10" stroke-linecap="round"/>
<path d="M557.202 56.4048C558.971 56.4048 560.405 54.9711 560.405 53.2025C560.405 51.4339 558.971 50.0001 557.202 50.0001C555.434 50.0001 554 51.4339 554 53.2025C554 54.9711 555.434 56.4048 557.202 56.4048Z" stroke="#AEC0B1" stroke-width="1.5" stroke-miterlimit="10" stroke-linecap="round"/>
<path d="M451.562 104.165C448.354 102.435 446.901 103.879 445.734 102.435C444.566 100.991 448.933 97.1857 440.19 93.398C440.19 93.398 439.611 85.2431 427.66 84.949C415.708 84.655 418.917 93.0953 415.708 95.1621C412.5 97.229 411.627 94.0033 408.427 96.0269C405.227 98.0505 406.697 102.141 404.051 102.729C401.405 103.317 397.928 100.135 394.72 102.141C391.512 104.147 391.52 105.937 390.059 105.937C388.597 105.937 385.735 104.77 383.936 105.937C382.137 107.105 380.148 108.532 380.148 108.532H453.889C453.889 108.532 454.771 105.92 451.562 104.165Z" fill="#98DDA4"/>
<path d="M305.405 121.801C302.206 120.072 300.744 121.516 299.577 120.072C298.409 118.627 302.785 114.822 294.042 111.035C294.042 111.035 293.454 102.88 281.511 102.586C269.569 102.292 272.76 110.749 269.56 112.79C266.36 114.831 265.478 111.623 262.27 113.655C259.061 115.687 260.54 119.769 257.903 120.357C255.265 120.945 251.78 117.763 248.572 119.769C245.363 121.775 245.363 123.565 243.91 123.565C242.458 123.565 239.535 122.398 237.788 123.565C236.041 124.733 234 126.16 234 126.16H307.758C307.758 126.16 308.622 123.557 305.405 121.801Z" fill="#98DDA4"/>
<path d="M396.268 56.9848C391.27 54.2608 388.995 56.5265 387.179 54.2608C385.363 51.995 392.178 46.0799 378.532 40.1821C378.532 40.1821 377.624 27.4611 359.005 27.0114C340.386 26.5617 345.376 39.7237 340.386 42.9061C335.396 46.0885 334.03 41.0901 329.031 44.2638C324.033 47.4376 326.307 53.7765 322.225 54.7105C318.144 55.6444 312.713 50.62 307.688 53.8024C302.664 56.9848 302.699 59.7089 300.424 59.7089C298.15 59.7089 293.61 57.8929 290.912 59.7089C288.213 61.525 285.014 63.7907 285.014 63.7907H399.9C399.9 63.7907 401.258 59.7089 396.268 56.9848Z" fill="#98DDA4"/>
<g opacity="0.4">
<path opacity="0.4" d="M305.405 121.801C302.206 120.072 300.744 121.516 299.577 120.072C298.409 118.627 302.785 114.822 294.042 111.035C294.042 111.035 293.454 102.88 281.511 102.586C269.569 102.292 272.76 110.749 269.56 112.79C266.36 114.831 265.478 111.623 262.27 113.655C259.061 115.687 260.54 119.769 257.903 120.357C255.265 120.945 251.78 117.763 248.572 119.769C245.363 121.775 245.363 123.565 243.91 123.565C242.458 123.565 239.535 122.398 237.788 123.565C236.041 124.733 234 126.16 234 126.16H307.758C307.758 126.16 308.622 123.557 305.405 121.801Z" fill="white"/>
<path opacity="0.4" d="M396.268 56.9848C391.27 54.2608 388.995 56.5265 387.179 54.2608C385.363 51.995 392.178 46.0799 378.532 40.1821C378.532 40.1821 377.624 27.4611 359.005 27.0114C340.386 26.5617 345.376 39.7237 340.386 42.9061C335.396 46.0885 334.03 41.0901 329.031 44.2638C324.033 47.4376 326.307 53.7765 322.225 54.7105C318.144 55.6444 312.713 50.62 307.688 53.8024C302.664 56.9848 302.699 59.7089 300.424 59.7089C298.15 59.7089 293.61 57.8929 290.912 59.7089C288.213 61.525 285.014 63.7907 285.014 63.7907H399.9C399.9 63.7907 401.258 59.7089 396.268 56.9848Z" fill="white"/>
</g>
<path d="M125.596 54.4751C115.879 71.3058 121.645 92.8271 138.476 102.544C155.307 112.261 176.828 106.495 186.545 89.6642C196.262 72.8335 190.496 51.3122 173.665 41.595C156.834 31.8779 135.313 37.6445 125.596 54.4751Z" fill="white" stroke="#263238" stroke-width="0.801153" stroke-linejoin="round"/>
<path d="M131.576 57.9278C123.766 71.4551 128.401 88.7523 141.928 96.5623C155.456 104.372 172.753 99.7375 180.563 86.2102C188.373 72.683 183.738 55.3857 170.211 47.5757C156.683 39.7657 139.386 44.4005 131.576 57.9278Z" fill="#263238" stroke="white" stroke-width="0.801153" stroke-linejoin="round"/>
<path fill-rule="evenodd" clip-rule="evenodd" d="M163.804 81.7254C166.429 81.7254 168.557 79.6495 168.557 77.0887C168.557 74.528 166.429 72.4521 163.804 72.4521C161.179 72.4521 159.05 74.528 159.05 77.0887C159.05 79.6495 161.179 81.7254 163.804 81.7254ZM170.136 77.0887C170.136 80.4999 167.301 83.2652 163.804 83.2652C160.307 83.2652 157.472 80.4999 157.472 77.0887C157.472 73.6776 160.307 70.9124 163.804 70.9124C167.301 70.9124 170.136 73.6776 170.136 77.0887Z" fill="white"/>
<path fill-rule="evenodd" clip-rule="evenodd" d="M159.907 80.2828C160.223 80.6607 160.164 81.2164 159.777 81.5242C156.489 84.1367 153.065 85.9598 150.037 86.7562C147.053 87.5415 144.203 87.3814 142.399 85.6221C140.396 83.6688 140.409 80.4643 141.549 77.1672C141.709 76.7055 142.222 76.4574 142.696 76.6132C143.169 76.7689 143.423 77.2696 143.264 77.7313C142.181 80.8606 142.439 83.1651 143.678 84.3743C144.792 85.4602 146.806 85.7788 149.566 85.0525C152.284 84.3374 155.484 82.6587 158.634 80.1559C159.022 79.8482 159.591 79.905 159.907 80.2828Z" fill="white"/>
<path fill-rule="evenodd" clip-rule="evenodd" d="M153.593 63.0068C153.29 62.6197 153.365 62.0659 153.762 61.7698C156.917 59.4158 160.158 57.7952 163.019 57.1223C165.845 56.4576 168.526 56.6773 170.249 58.3581C172.252 60.3114 172.239 63.516 171.099 66.8131C170.939 67.2748 170.426 67.5229 169.953 67.3671C169.479 67.2113 169.225 66.7107 169.385 66.249C170.467 63.1196 170.21 60.8151 168.97 59.606C167.907 58.5693 166.026 58.2304 163.443 58.8379C160.894 59.4373 157.879 60.9197 154.861 63.1715C154.465 63.4676 153.897 63.3938 153.593 63.0068Z" fill="white"/>
<path fill-rule="evenodd" clip-rule="evenodd" d="M156.569 66.5009C156.569 69.912 153.735 72.6772 150.237 72.6772C146.74 72.6772 143.905 69.912 143.905 66.5009C143.905 63.0897 146.74 60.3245 150.237 60.3245C153.735 60.3245 156.569 63.0897 156.569 66.5009ZM149.604 63.4122H150.87V65.8826H153.402V67.1178H150.87V69.5886H149.604V67.1178H147.07V65.8826H149.604V63.4122Z" fill="white"/>
<path d="M166.067 77.6183V76.3831H161.544V77.6183H166.067Z" fill="white"/>
<path d="M421.054 34.4444C414.059 33.9209 407.965 39.1666 407.441 46.1609C406.918 53.1552 412.164 59.2495 419.158 59.773C426.152 60.2965 432.247 55.0508 432.77 48.0565C433.294 41.0622 428.048 34.9679 421.054 34.4444Z" fill="white" stroke="#263238" stroke-linejoin="round"/>
<path d="M420.868 36.9298C415.247 36.5091 410.349 40.7252 409.928 46.3467C409.507 51.9682 413.723 56.8664 419.345 57.2872C424.966 57.7079 429.865 53.4918 430.285 47.8703C430.706 42.2488 426.49 37.3506 420.868 36.9298Z" fill="#F8928C" stroke="#263238" stroke-linejoin="round"/>
<path fill-rule="evenodd" clip-rule="evenodd" d="M425.078 49.9103C426.595 47.2816 425.695 43.9204 423.066 42.4028C420.437 40.8851 417.076 41.7858 415.558 44.4144C414.041 47.043 414.941 50.4042 417.57 51.9219C420.199 53.4395 423.56 52.5389 425.078 49.9103ZM421.644 49.8454L420.999 50.9619C420.847 51.2267 420.77 51.359 420.673 51.4087C420.568 51.4624 420.444 51.4628 420.339 51.4097C420.242 51.3606 420.165 51.2288 420.011 50.965L417.139 46.0477C416.983 45.78 416.905 45.6462 416.91 45.5365C416.916 45.418 416.979 45.3095 417.078 45.245C417.171 45.1853 417.326 45.1858 417.635 45.1869L418.945 45.1914C419.171 45.1922 419.283 45.1926 419.385 45.2228C419.496 45.2558 419.597 45.3142 419.681 45.3935C419.758 45.4663 419.815 45.5637 419.928 45.7584L421.642 48.6967C421.757 48.8943 421.815 48.9931 421.84 49.0975C421.868 49.2111 421.868 49.3298 421.841 49.4436C421.816 49.5481 421.758 49.6472 421.644 49.8454ZM423.944 45.8619L423.197 47.1564C423.042 47.4235 422.965 47.5571 422.868 47.6068C422.762 47.6604 422.637 47.6602 422.532 47.6063C422.435 47.5563 422.358 47.4225 422.205 47.1549L421.47 45.8686C421.319 45.6044 421.243 45.4723 421.249 45.3636C421.255 45.2462 421.317 45.1388 421.416 45.0744C421.507 45.0148 421.659 45.014 421.963 45.0123L423.446 45.004C423.755 45.0023 423.909 45.0015 424.001 45.0608C424.101 45.1249 424.163 45.2329 424.17 45.3512C424.176 45.4606 424.098 45.5943 423.944 45.8619Z" fill="#263238"/>
<path d="M210.014 99.1876V90.0002" stroke="#AEC0B1" stroke-width="1.5" stroke-miterlimit="10" stroke-linecap="round"/>
<path d="M205 94.594H214.762" stroke="#AEC0B1" stroke-width="1.5" stroke-miterlimit="10" stroke-linecap="round"/>
<path d="M259.014 175.188V166" stroke="#AEC0B1" stroke-width="1.5" stroke-miterlimit="10" stroke-linecap="round"/>
<path d="M254 170.594H263.762" stroke="#AEC0B1" stroke-width="1.5" stroke-miterlimit="10" stroke-linecap="round"/>
<path d="M131.014 103.188V94.0002" stroke="#AEC0B1" stroke-width="1.5" stroke-miterlimit="10" stroke-linecap="round"/>
<path d="M126 98.594H135.762" stroke="#AEC0B1" stroke-width="1.5" stroke-miterlimit="10" stroke-linecap="round"/>
<path d="M81.0137 203V212.188" stroke="#AEC0B1" stroke-width="1.5" stroke-miterlimit="10" stroke-linecap="round"/>
<path d="M76 207.594H85.7616" stroke="#AEC0B1" stroke-width="1.5" stroke-miterlimit="10" stroke-linecap="round"/>
<path d="M182.014 261.188V252" stroke="#AEC0B1" stroke-width="1.5" stroke-miterlimit="10" stroke-linecap="round"/>
<path d="M177 256.594H186.762" stroke="#AEC0B1" stroke-width="1.5" stroke-miterlimit="10" stroke-linecap="round"/>
<path d="M58.0137 147V156.188" stroke="#AEC0B1" stroke-width="1.5" stroke-miterlimit="10" stroke-linecap="round"/>
<path d="M53 151.594H62.7616" stroke="#AEC0B1" stroke-width="1.5" stroke-miterlimit="10" stroke-linecap="round"/>
<path d="M334.682 149.151V158.338" stroke="#AEC0B1" stroke-width="1.5" stroke-miterlimit="10" stroke-linecap="round"/>
<path d="M329.668 153.744H339.43" stroke="#AEC0B1" stroke-width="1.5" stroke-miterlimit="10" stroke-linecap="round"/>
<path d="M356.014 78.0001V87.1875" stroke="#AEC0B1" stroke-width="1.5" stroke-miterlimit="10" stroke-linecap="round"/>
<path d="M351 82.5938H360.762" stroke="#AEC0B1" stroke-width="1.5" stroke-miterlimit="10" stroke-linecap="round"/>
<path d="M323.202 258C324.971 258 326.405 259.433 326.405 261.202C326.405 262.971 324.971 264.404 323.202 264.404C321.434 264.404 320 262.971 320 261.202C320 259.433 321.434 258 323.202 258Z" stroke="#AEC0B1" stroke-width="1.5" stroke-miterlimit="10" stroke-linecap="round"/>
<path d="M187.202 147C188.971 147 190.405 148.433 190.405 150.202C190.405 151.971 188.971 153.404 187.202 153.404C185.434 153.404 184 151.971 184 150.202C184 148.433 185.434 147 187.202 147Z" stroke="#AEC0B1" stroke-width="1.5" stroke-miterlimit="10" stroke-linecap="round"/>
<path d="M278.202 115.405C279.971 115.405 281.405 113.971 281.405 112.202C281.405 110.434 279.971 109 278.202 109C276.434 109 275 110.434 275 112.202C275 113.971 276.434 115.405 278.202 115.405Z" stroke="#AEC0B1" stroke-width="1.5" stroke-miterlimit="10" stroke-linecap="round"/>
<path d="M394.202 134.405C395.971 134.405 397.405 132.971 397.405 131.202C397.405 129.434 395.971 128 394.202 128C392.434 128 391 129.434 391 131.202C391 132.971 392.434 134.405 394.202 134.405Z" stroke="#AEC0B1" stroke-width="1.5" stroke-miterlimit="10" stroke-linecap="round"/>
<path d="M485.202 87.4048C486.971 87.4048 488.405 85.9711 488.405 84.2025C488.405 82.4339 486.971 81.0001 485.202 81.0001C483.434 81.0001 482 82.4339 482 84.2025C482 85.9711 483.434 87.4048 485.202 87.4048Z" stroke="#AEC0B1" stroke-width="1.5" stroke-miterlimit="10" stroke-linecap="round"/>
<path d="M516.202 117.405C517.971 117.405 519.405 115.971 519.405 114.202C519.405 112.434 517.971 111 516.202 111C514.434 111 513 112.434 513 114.202C513 115.971 514.434 117.405 516.202 117.405Z" stroke="#AEC0B1" stroke-width="1.5" stroke-miterlimit="10" stroke-linecap="round"/>
<path d="M196.877 64.4106L237.89 30.3416L246.888 82.8946L196.877 64.4106Z" fill="#69D27B"/>
<path d="M390.02 160.852C345.223 68.9055 273.679 59.93 243.506 66.9356L240.265 44.8575C332.982 41.1867 378.733 120.657 390.02 160.852Z" fill="#69D27B"/>
<path d="M246.921 83.1485L196.891 64.4751C312.172 31.4972 373.642 114.858 389.966 160.661C345.996 69.6191 274.403 60.2471 244.103 66.9414L246.921 83.1485Z" fill="#6CBD7A"/>
<path d="M338.971 214.638L297.987 248.683L288.995 196.168L338.971 214.638Z" fill="#69D27B"/>
<path d="M145.967 118.266C190.731 210.147 262.225 219.116 292.377 212.115L295.615 234.177C202.964 237.846 157.245 158.431 145.967 118.266Z" fill="#69D27B"/>
<path d="M288.942 195.975L338.938 214.636C223.738 247.55 162.312 164.232 145.999 118.518C189.938 209.384 260.424 218.386 290.703 211.704L288.942 195.975Z" fill="#6CBD7A"/>
<path d="M388.615 82.8858C384.962 89.4498 387.321 97.7325 393.885 101.386C400.449 105.039 408.732 102.68 412.385 96.1157C416.038 89.5517 413.679 81.269 407.115 77.6157C400.551 73.9624 392.268 76.3219 388.615 82.8858Z" fill="#C5D7FF" stroke="#263238" stroke-linejoin="round"/>
<path d="M396.14 88.5759L394.145 89.9897L392.731 87.9949L394.726 86.5811L396.14 88.5759ZM400.984 85.1423L403.408 88.5619L405.403 87.1481L401.565 81.7338L396.151 85.5712L397.565 87.566L400.984 85.1423ZM406.412 88.5729L404.418 89.9867L405.832 91.9815L407.826 90.5676L406.412 88.5729ZM399.573 93.4202L397.15 90.0007L395.155 91.4145L398.992 96.8288L404.407 92.9913L402.993 90.9966L399.573 93.4202ZM399.988 90.9856L401.983 89.5717L400.569 87.577L398.575 88.9908L399.988 90.9856Z" fill="#263238"/>
<path d="M423.485 183.717C421.855 175.383 425.809 167.597 432.315 166.326C438.822 165.055 445.418 170.781 447.048 179.115C448.678 187.449 444.725 195.235 438.219 196.506C431.712 197.777 425.116 192.052 423.485 183.717Z" fill="#6BF492" stroke="#263238" stroke-miterlimit="10"/>
<path d="M378.238 166.904C378.238 166.904 368.675 152.147 357.532 154.535C350.112 156.127 354.472 170.237 354.472 170.237" fill="#6BF492"/>
<path d="M378.238 166.904C378.238 166.904 368.675 152.147 357.532 154.535C350.112 156.127 354.472 170.237 354.472 170.237" stroke="#263238" stroke-miterlimit="10"/>
<path d="M356.959 171.619H356.926L356.246 171.442C356.246 171.442 351.984 158.501 358.193 158.664C363.434 158.799 370.482 170.888 372.555 174.649C368.516 171.842 362.898 170.585 356.959 171.619Z" fill="#263238" stroke="#263238" stroke-miterlimit="10"/>
<path d="M403.121 234.626L405.734 246.153C406.133 247.888 407.109 249.436 408.503 250.545C409.896 251.655 411.625 252.259 413.406 252.26V252.26C415.192 252.261 416.924 251.655 418.319 250.541C419.714 249.428 420.689 247.874 421.083 246.134L425.686 225.852" fill="#263238"/>
<path d="M403.121 234.626L405.734 246.153C406.133 247.888 407.109 249.436 408.503 250.545C409.896 251.655 411.625 252.259 413.406 252.26V252.26C415.192 252.261 416.924 251.655 418.319 250.541C419.714 249.428 420.689 247.874 421.083 246.134L425.686 225.852" stroke="#263238" stroke-miterlimit="10"/>
<path d="M363.172 234.626L365.795 246.208C366.193 247.93 367.165 249.466 368.55 250.565C369.935 251.664 371.652 252.262 373.421 252.26V252.26C375.212 252.26 376.949 251.646 378.342 250.52C379.734 249.394 380.697 247.824 381.07 246.073L383.688 233.807" fill="#263238"/>
<path d="M363.172 234.626L365.795 246.208C366.193 247.93 367.165 249.466 368.55 250.565C369.935 251.664 371.652 252.262 373.421 252.26V252.26C375.212 252.26 376.949 251.646 378.342 250.52C379.734 249.394 380.697 247.824 381.07 246.073L383.688 233.807" stroke="#263238" stroke-miterlimit="10"/>
<path d="M340.131 200.166C340.131 214.238 347.585 226.849 359.347 235.335C368.943 242.262 381.404 246.442 395.025 246.442C425.341 246.442 449.918 225.722 449.918 200.166C449.918 174.609 425.341 153.885 395.025 153.885C364.709 153.885 340.131 174.605 340.131 200.166Z" fill="#6BF492" stroke="#263238" stroke-miterlimit="10"/>
<path d="M350.222 222.672C353.232 226.882 356.919 230.565 361.131 233.574C364.041 235.667 367.152 237.464 370.42 238.937" stroke="#263238" stroke-miterlimit="10"/>
<path d="M344.273 210.305C344.972 212.795 345.917 215.208 347.096 217.511Z" fill="white"/>
<path d="M344.273 210.305C344.972 212.795 345.917 215.208 347.096 217.511" stroke="#263238" stroke-miterlimit="10"/>
<path d="M438.99 176.513C437.238 174.209 435.271 172.075 433.116 170.141" stroke="#263238" stroke-miterlimit="10"/>
<path d="M441.604 219.953C445.249 213.993 447.178 207.143 447.178 200.157C447.178 193.172 445.249 186.322 441.604 180.361" stroke="#263238" stroke-miterlimit="10"/>
<path d="M370.421 238.936C378.161 242.39 386.548 244.16 395.026 244.127C404.669 244.179 414.18 241.875 422.729 237.414" stroke="#263238" stroke-miterlimit="10"/>
<path d="M369.89 174.725C369.89 177.429 371.064 179.617 372.513 179.617C373.822 179.617 374.912 177.83 375.107 175.488" stroke="#263238" stroke-miterlimit="10"/>
<path d="M356.343 173.561C356.343 175.562 357.214 177.182 358.286 177.182C359.259 177.182 360.061 175.856 360.205 174.119" stroke="#263238" stroke-miterlimit="10"/>
<path d="M383.716 157.585C384.617 157.9 385.497 158.27 386.353 158.693C386.879 158.949 387.284 159.191 387.634 159.391C388.328 159.307 389.031 159.237 389.725 159.182C391.463 159.028 393.228 158.953 395.012 158.953C402.697 158.931 410.316 160.374 417.461 163.204C418.653 163.678 419.819 164.19 420.959 164.74C419.022 162.745 416.807 161.04 414.381 159.68C408.137 157.599 401.595 156.546 395.012 156.561C391.223 156.555 387.442 156.898 383.716 157.585V157.585Z" fill="white" stroke="#263238" stroke-miterlimit="10"/>
<path d="M386.351 158.694L389.737 159.159C391.475 159.006 393.24 158.931 395.024 158.931C402.709 158.909 410.328 160.352 417.473 163.181C416.488 162.454 415.459 161.787 414.394 161.184C408.148 159.104 401.607 158.049 395.024 158.061C392.122 158.07 389.224 158.281 386.351 158.694Z" fill="#263238" stroke="#263238" stroke-miterlimit="10"/>
<path d="M357.391 207.968C354.185 207.968 351.587 201.857 351.587 194.319C351.587 186.781 354.185 180.67 357.391 180.67C360.597 180.67 363.195 186.781 363.195 194.319C363.195 201.857 360.597 207.968 357.391 207.968Z" fill="#263238" stroke="#263238" stroke-miterlimit="10"/>
<path d="M353.395 203.657C345.851 203.657 339.737 197.546 339.737 190.008C339.737 182.47 345.851 176.359 353.395 176.359C360.938 176.359 367.053 182.47 367.053 190.008C367.053 197.546 360.938 203.657 353.395 203.657Z" fill="#6BF492" stroke="#263238" stroke-miterlimit="10"/>
<path d="M349.658 203.657C342.115 203.657 336 197.546 336 190.008C336 182.47 342.115 176.359 349.658 176.359C357.201 176.359 363.316 182.47 363.316 190.008C363.316 197.546 357.201 203.657 349.658 203.657Z" fill="#6BF492" stroke="#263238" stroke-miterlimit="10"/>
<path d="M353.599 194.952C352.011 194.952 350.724 192.831 350.724 190.214C350.724 187.596 352.011 185.475 353.599 185.475C355.186 185.475 356.473 187.596 356.473 190.214C356.473 192.831 355.186 194.952 353.599 194.952Z" fill="#263238" stroke="#263238" stroke-miterlimit="10"/>
<path d="M343.309 194.216C341.722 194.216 340.435 192.094 340.435 189.477C340.435 186.86 341.722 184.738 343.309 184.738C344.897 184.738 346.184 186.86 346.184 189.477C346.184 192.094 344.897 194.216 343.309 194.216Z" fill="#263238" stroke="#263238" stroke-miterlimit="10"/>
<path d="M416.36 234.627L418.959 246.153C419.358 247.893 420.338 249.445 421.736 250.554C423.134 251.664 424.869 252.266 426.654 252.261V252.261C428.437 252.262 430.167 251.658 431.561 250.549C432.956 249.439 433.933 247.89 434.331 246.153L438.934 225.871" fill="#6BF492"/>
<path d="M416.36 234.627L418.959 246.153C419.358 247.893 420.338 249.445 421.736 250.554C423.134 251.664 424.869 252.266 426.654 252.261V252.261C428.437 252.262 430.167 251.658 431.561 250.549C432.956 249.439 433.933 247.89 434.331 246.153L438.934 225.871" stroke="#263238" stroke-miterlimit="10"/>
<path d="M377.23 234.626L379.858 246.208C380.256 247.93 381.227 249.466 382.612 250.565C383.997 251.664 385.714 252.262 387.483 252.26V252.26C389.274 252.259 391.011 251.645 392.403 250.519C393.795 249.393 394.759 247.823 395.132 246.073L397.75 233.807" fill="#6BF492"/>
<path d="M377.23 234.626L379.858 246.208C380.256 247.93 381.227 249.466 382.612 250.565C383.997 251.664 385.714 252.262 387.483 252.26V252.26C389.274 252.259 391.011 251.645 392.403 250.519C393.795 249.393 394.759 247.823 395.132 246.073L397.75 233.807" stroke="#263238" stroke-miterlimit="10"/>
<path d="M400.107 174.45C400.107 174.45 398.71 157.328 386.98 152.496C379.159 149.275 375.968 162.784 375.968 162.784" fill="#6BF492"/>
<path d="M400.107 174.45C400.107 174.45 398.71 157.328 386.98 152.496C379.159 149.275 375.968 162.784 375.968 162.784" stroke="#263238" stroke-miterlimit="10"/>
<path d="M377.605 165.338H377.567L377.018 164.794C377.018 164.794 379.692 152.253 385.463 156.098C390.336 159.357 390.732 172.898 390.736 177.046C388.384 172.437 383.74 168.099 377.605 165.338Z" fill="#263238" stroke="#263238" stroke-miterlimit="10"/>
<path d="M408.5 117C397.178 117 388 126.178 388 137.5C388 148.822 397.178 158 408.5 158C419.822 158 429 148.822 429 137.5C429 126.178 419.822 117 408.5 117Z" fill="white" stroke="#263238" stroke-linejoin="round"/>
<path d="M408.5 121.024C399.4 121.024 392.024 128.401 392.024 137.5C392.024 146.6 399.4 153.977 408.5 153.977C417.6 153.977 424.977 146.6 424.977 137.5C424.977 128.401 417.6 121.024 408.5 121.024Z" fill="#FFC200" stroke="#263238" stroke-linejoin="round"/>
<path d="M416.296 135.029C416.654 132.667 414.829 131.397 412.334 130.55L413.143 127.351L411.167 126.865L410.379 129.981C409.859 129.853 409.326 129.733 408.795 129.613L409.589 126.478L407.614 125.992L406.804 129.191C406.374 129.094 405.951 128.999 405.542 128.898L405.544 128.888L402.818 128.218L402.292 130.298C402.292 130.298 403.759 130.629 403.728 130.65C404.528 130.846 404.673 131.368 404.649 131.782C402.431 140.547 404.649 131.782 402.431 140.547C402.333 140.787 402.085 141.146 401.525 141.01C401.545 141.038 400.089 140.656 400.089 140.656L399.107 142.886L401.679 143.517C402.158 143.636 402.627 143.759 403.088 143.876L402.27 147.112L404.245 147.597L405.055 144.396C405.594 144.54 406.117 144.673 406.63 144.798L405.822 147.985L407.799 148.47L408.617 145.24C411.987 145.869 414.521 145.615 415.588 142.612C416.448 140.193 415.545 138.798 413.772 137.888C415.063 137.595 416.036 136.758 416.296 135.029ZM411.78 141.269C411.169 143.687 407.037 142.38 405.697 142.052L406.782 137.765C408.122 138.094 412.418 138.747 411.78 141.269ZM412.391 134.994C411.834 137.194 408.394 136.076 407.279 135.802L408.263 131.914C409.378 132.188 412.972 132.699 412.391 134.994Z" fill="#263238"/>
</svg>
