<svg width="308" height="254" viewBox="0 0 308 254" fill="none" xmlns="http://www.w3.org/2000/svg">
<path d="M290.719 239.566L6.57843 239.566" stroke="#ADB9D8"/>
<path d="M3.05176e-05 235.182H22.6738V235.353H3.05176e-05V235.182Z" fill="#EBEBEB"/>
<path d="M81.2481 237.044H87.1973V237.215H81.2481V237.044Z" fill="#EBEBEB"/>
<path d="M23.3577 228.827H36.4951V228.998H23.3577V228.827Z" fill="#EBEBEB"/>
<path d="M242.519 229.978H272.087V230.149H242.519V229.978Z" fill="#EBEBEB"/>
<path d="M232.084 229.978H236.418V230.149H232.084V229.978Z" fill="#EBEBEB"/>
<path d="M153.864 232.867H217.997V233.038H153.864V232.867Z" fill="#EBEBEB"/>
<path d="M144.792 193.628H276.987C278.024 193.628 279.018 193.216 279.752 192.483C280.485 191.75 280.896 190.755 280.896 189.718V3.8753C280.887 2.84437 280.472 1.85874 279.74 1.13295C279.007 0.407154 278.018 -3.95239e-05 276.987 2.87741e-09H144.792C144.279 2.87741e-09 143.77 0.101122 143.296 0.297594C142.822 0.494067 142.391 0.782042 142.028 1.14508C141.665 1.50811 141.377 1.93909 141.181 2.41342C140.984 2.88775 140.883 3.39612 140.883 3.90953V189.718C140.883 190.232 140.984 190.74 141.181 191.214C141.377 191.689 141.665 192.12 142.028 192.483C142.391 192.846 142.822 193.134 143.296 193.33C143.77 193.527 144.279 193.628 144.792 193.628ZM276.987 0.136937C277.978 0.138747 278.928 0.533189 279.629 1.23388C280.329 1.93456 280.724 2.88438 280.725 3.8753V189.718C280.724 190.709 280.329 191.659 279.629 192.36C278.928 193.06 277.978 193.455 276.987 193.457H144.792C143.801 193.455 142.852 193.06 142.151 192.36C141.45 191.659 141.056 190.709 141.054 189.718V3.8753C141.056 2.88438 141.45 1.93456 142.151 1.23388C142.852 0.533189 143.801 0.138747 144.792 0.136937H276.987Z" fill="#EBEBEB"/>
<path d="M26.5176 224.166H308V224.337H26.5176V224.166Z" fill="#EBEBEB"/>
<path d="M227.107 78.7195L230.012 82.2235L232.826 59.7706L214.928 66.4027L218.127 70.253L218.36 70.5325L218.165 70.8397L179.101 132.645L178.954 132.878H178.678H157.581L128.09 178.371L127.943 178.599H127.671H90.9349L56.3648 230.371H80.9378L108.44 185.724L108.586 185.487H108.866H136.648L164.086 140.018L164.232 139.776H164.515H189.675L226.293 78.7813L226.657 78.1763L227.107 78.7195Z" fill="#FFC200" stroke="black"/>
<path d="M92.742 253.994H70.8486V243.046H92.742V253.994Z" fill="#6CD07D"/>
<path opacity="0.3" d="M92.742 253.994H70.8486V243.046H92.742V253.994Z" fill="white"/>
<path opacity="0.2" d="M87.2637 253.993V243.045H92.7404V253.993H87.2637Z" fill="black"/>
<path d="M114.636 203.142H136.529V253.993H114.636V203.142Z" fill="#6CD07D"/>
<path opacity="0.4" d="M114.636 203.142H136.529V253.993H114.636V203.142Z" fill="white"/>
<path opacity="0.2" d="M131.06 253.988V203.136H136.536V253.988H131.06Z" fill="black"/>
<path d="M158.421 167.593H180.314V254H158.421V167.593Z" fill="#6CD07D"/>
<path opacity="0.3" d="M158.421 167.593H180.314V254H158.421V167.593Z" fill="white"/>
<path opacity="0.2" d="M174.845 254V167.593H180.321V254H174.845Z" fill="black"/>
<path d="M202.209 123.837H224.103V253.995H202.209V123.837Z" fill="#6CD07D"/>
<path opacity="0.2" d="M202.209 123.837H224.103V253.995H202.209V123.837Z" fill="white"/>
<path opacity="0.2" d="M218.625 253.995V123.837H224.102V253.995H218.625Z" fill="black"/>
<path d="M246.002 71.0195H267.896V253.994H246.002V71.0195Z" fill="#6CD07D"/>
<path opacity="0.2" d="M262.426 253.994V71.0195H267.903V253.994H262.426Z" fill="black"/>
</svg>
