<svg width="263" height="236" viewBox="0 0 263 236" fill="none" xmlns="http://www.w3.org/2000/svg">
<path opacity="0.3" d="M101.335 69.5702H102.307V80.2548H101.335V69.5702Z" fill="black"/>
<path opacity="0.3" d="M127.561 66.6549H128.45V54.9138H169.328V54.0277H127.561V66.6549Z" fill="black"/>
<path opacity="0.3" d="M127.561 95.7947H128.45V84.0536H169.328V83.1675H127.561V95.7947Z" fill="black"/>
<path opacity="0.3" d="M143.101 69.5682H170.298V63.7402H169.41V68.6561H143.101V69.5682Z" fill="black"/>
<path opacity="0.3" d="M81.911 68.5967H121.735V69.568H81.911V68.5967Z" fill="black"/>
<path opacity="0.3" d="M80.9387 95.7951H81.8186V85.0876H118.82V84.1392H80.9387V95.7951Z" fill="black"/>
<path opacity="0.3" d="M107.163 98.71H144.073V99.6813H107.163V98.71Z" fill="black"/>
<path opacity="0.3" d="M193.612 69.5703H194.583V80.2549H193.612V69.5703Z" fill="black"/>
<path opacity="0.3" d="M219.837 66.6549H220.726V54.9138H261.604V54.0277H219.837V66.6549Z" fill="black"/>
<path opacity="0.3" d="M219.837 95.7947H220.726V84.0536H261.604V83.1675H219.837V95.7947Z" fill="black"/>
<path opacity="0.3" d="M235.378 69.5682H262.575V63.7402H261.687V68.6561H235.378V69.5682Z" fill="black"/>
<path opacity="0.3" d="M174.186 68.5967H214.011V69.568H174.186V68.5967Z" fill="black"/>
<path opacity="0.3" d="M173.214 95.7951H174.094V85.0876H211.096V84.1392H173.214V95.7951Z" fill="black"/>
<path opacity="0.3" d="M199.438 98.71H236.349V99.6813H199.438V98.71Z" fill="black"/>
<path opacity="0.3" d="M22.6595 42.3721H23.6309V52.0853H22.6595V42.3721Z" fill="black"/>
<path opacity="0.3" d="M22.6595 69.5702H23.6309V80.2548H22.6595V69.5702Z" fill="black"/>
<path opacity="0.3" d="M0.319332 66.6549H1.22904V54.9138H43.0576V54.0277H0.319332V66.6549Z" fill="black"/>
<path opacity="0.3" d="M0.319332 95.7947H1.22904V84.0536H43.0576V83.1675H0.319332V95.7947Z" fill="black"/>
<path opacity="0.3" d="M15.8605 69.5682H43.0576V63.7402H42.1691V68.6561H15.8605V69.5682Z" fill="black"/>
<path opacity="0.3" d="M22.6595 101.623H23.6309V112.307H22.6595V101.623Z" fill="black"/>
<path opacity="0.3" d="M22.6595 129.791H23.6309V140.475H22.6595V129.791Z" fill="black"/>
<path opacity="0.3" d="M0.319332 126.878H1.22904V115.137H43.0576V114.25H0.319332V126.878Z" fill="black"/>
<path opacity="0.3" d="M0.319332 156.017H1.22904V144.276H43.0576V143.39H0.319332V156.017Z" fill="black"/>
<path opacity="0.3" d="M15.8605 129.793H43.0576V123.965H42.1691V128.881H15.8605V129.793Z" fill="black"/>
<path opacity="0.3" d="M171.272 13.2324H208.183V14.2037H171.272V13.2324Z" fill="black"/>
<path d="M188.254 197.196C181.164 205.703 172.713 212.981 163.241 218.736C160.29 220.497 157.238 222.085 154.102 223.492C132.463 233.194 107.801 233.825 84.738 228.248C36.2437 216.525 10.5151 173.826 7.24762 126.425C6.37172 113.615 4.40666 99.7797 9.60874 87.5931C14.8108 75.4065 25.3292 67.8393 37.2262 62.5818C45.8633 58.745 55.1936 56.1694 63.6707 54.0648C79.012 50.2844 95.1941 51.9499 109.438 58.7754C119.408 63.4935 126.507 71.6913 134.893 78.5976C135.781 79.3269 136.675 80.0538 137.574 80.7781C146.045 87.5795 154.949 93.8252 164.232 99.4758C178.33 108.054 192.763 116.145 201.773 130.55C216.146 153.51 204.02 178.506 188.254 197.196Z" fill="#4CCA62"/>
<path opacity="0.4" d="M188.254 197.196C181.164 205.703 172.713 212.981 163.241 218.736C160.29 220.497 157.238 222.085 154.102 223.492C132.463 233.194 107.801 233.825 84.738 228.248C36.2437 216.525 10.5151 173.826 7.24762 126.425C6.37172 113.615 4.40666 99.7797 9.60874 87.5931C14.8108 75.4065 25.3292 67.8393 37.2262 62.5818C45.8633 58.745 55.1936 56.1694 63.6707 54.0648C79.012 50.2844 95.1941 51.9499 109.438 58.7754C119.408 63.4935 126.507 71.6913 134.893 78.5976C135.781 79.3269 136.675 80.0538 137.574 80.7781C146.045 87.5795 154.949 93.8252 164.232 99.4758C178.33 108.054 192.763 116.145 201.773 130.55C216.146 153.51 204.02 178.506 188.254 197.196Z" fill="#FFD2B2"/>
<path d="M137.556 80.7757C136.657 80.0565 135.764 79.3271 134.875 78.5876C126.499 71.6661 119.387 63.491 109.427 58.7728C95.1854 51.951 79.0086 50.2856 63.6708 54.0622C43.5149 59.0539 18.516 66.7428 9.60684 87.5984C4.40604 99.7547 6.37062 113.613 7.25392 126.423C10.5587 173.825 36.2809 216.524 84.7634 228.247C111.141 234.629 139.589 232.881 163.248 218.735C172.717 212.98 181.166 205.702 188.254 197.195C204.016 178.505 216.139 153.508 201.785 130.548C192.785 116.113 178.355 108.051 164.253 99.4736C154.957 93.8246 146.039 87.5788 137.556 80.7757V80.7757Z" stroke="#263238" stroke-miterlimit="10"/>
<path d="M64.4254 165.732C60.4055 166.985 56.5042 168.61 52.7695 170.589" stroke="#263238" stroke-linecap="round" stroke-linejoin="round"/>
<path d="M88.7094 159.902C82.8231 160.437 76.9804 161.411 71.2256 162.816" stroke="#263238" stroke-linecap="round" stroke-linejoin="round"/>
<path d="M83.8517 158.932C83.8517 158.932 60.9641 147.497 33.3428 156.663" stroke="#263238" stroke-linecap="round" stroke-linejoin="round"/>
<path opacity="0.1" d="M188.246 196.812C181.152 205.296 172.696 212.555 163.22 218.294C160.267 220.051 157.213 221.635 154.075 223.038C151.597 222.283 149.162 221.395 146.782 220.378C132.562 214.316 120.628 204.064 108.968 193.955C101.934 187.893 94.7858 181.68 86.3649 177.686C74.9775 172.332 62.0225 171.272 49.9075 174.701C56.1733 167.669 64.6921 163.008 74.0194 161.508C67.9991 156.06 59.6239 153.772 51.485 153.628C43.3461 153.484 38.8652 154.476 30.9092 156.25C33.5688 151.385 40.6255 146.982 46.1963 147.111C40.9006 147.041 35.6133 146.669 30.3605 145.997C23.1742 144.845 19.9582 136.434 18.8837 129.281C15.9116 109.58 18.9218 88.5978 29.7356 71.8515C31.8765 68.5113 34.3532 65.3961 37.1276 62.5539C45.7695 58.7273 55.1049 56.1585 63.5867 54.0596C78.9364 50.2891 95.1273 51.9502 109.379 58.7576C119.355 63.4632 126.457 71.6394 134.848 78.5273C135.737 79.2547 136.631 79.9796 137.53 80.702C146.006 87.4854 154.915 93.7146 164.203 99.3502C178.309 107.905 192.75 115.975 201.765 130.342C216.153 153.241 204.021 178.171 188.246 196.812Z" fill="black"/>
<path d="M195.627 196.813C199.912 200.334 204.396 203.612 209.056 206.633C218.143 207.237 214.069 218.091 214.069 218.091L206.289 223.039C206.289 223.039 192.967 212.577 185.691 209.186C178.415 205.794 195.627 196.813 195.627 196.813Z" fill="#FFD2B2"/>
<path opacity="0.3" d="M131.447 81.5618C131.447 81.5618 130.209 69.3803 128.236 65.9592L98.2732 59.8873V57.5764C98.2732 57.5764 98.9638 53.5587 92.2851 51.0438C85.6064 48.529 71.6874 51.799 68.0976 54.5027C64.5078 57.2063 65.8207 61.8584 65.8207 61.8584C65.8207 61.8584 53.7536 67.9227 48.3347 70.2337C43.8988 72.2703 39.5744 74.5391 35.3795 77.0305C35.3795 77.0305 32.9206 105.034 33.4063 111.536C33.892 118.038 33.0117 124.155 33.5733 127.758C34.1349 131.36 34.5751 133.407 38.3698 136.473C42.1645 139.539 45.6177 144.025 55.5674 139.577L54.1786 138.482L119.675 116.528L131.447 81.5618Z" fill="black"/>
<path d="M131.447 81.5618C131.447 81.5618 130.209 69.3803 128.236 65.9592L98.2732 59.8873V57.5764C98.2732 57.5764 98.9638 53.5587 92.2851 51.0438C85.6064 48.529 71.6874 51.799 68.0976 54.5027C64.5078 57.2063 65.8207 61.8584 65.8207 61.8584C65.8207 61.8584 53.7536 67.9227 48.3347 70.2337C43.8988 72.2703 39.5744 74.5391 35.3795 77.0305C35.3795 77.0305 32.9206 105.034 33.4063 111.536C33.892 118.038 33.0117 124.155 33.5733 127.758C34.1349 131.36 34.5751 133.407 38.3698 136.473C42.1645 139.539 45.6177 144.025 55.5674 139.577L54.1786 138.482L119.675 116.528L131.447 81.5618Z" fill="#4CCA62"/>
<path opacity="0.05" d="M131.447 81.5618C131.447 81.5618 130.209 69.3803 128.236 65.9592L98.2732 59.8873V57.5764C98.2732 57.5764 98.9638 53.5587 92.2851 51.0438C85.6064 48.529 71.6874 51.799 68.0976 54.5027C64.5078 57.2063 65.8207 61.8584 65.8207 61.8584C65.8207 61.8584 53.7536 67.9227 48.3347 70.2337C43.8988 72.2703 39.5744 74.5391 35.3795 77.0305C35.3795 77.0305 32.9206 105.034 33.4063 111.536C33.892 118.038 33.0117 124.155 33.5733 127.758C34.1349 131.36 34.5751 133.407 38.3698 136.473C42.1645 139.539 45.6177 144.025 55.5674 139.577L54.1786 138.482L119.675 116.528L131.447 81.5618Z" fill="black"/>
<path opacity="0.1" d="M128.532 67.627H115.961C114.779 67.6288 113.636 68.0455 112.735 68.8029C111.834 69.5602 111.232 70.6094 111.038 71.7641L104.844 108.689C104.844 108.689 96.3143 109.39 90.2726 113.753C84.2309 118.116 69.3701 86.9863 45.8881 86.9712C45.8881 86.9712 52.645 102.269 54.144 114.477C54.144 114.477 39.4659 112.894 37.0309 118.584C34.596 124.273 38.1343 134.936 44.3434 130.807C50.5525 126.677 56.3964 119.789 60.5434 124.145C64.6904 128.501 83.2188 130.844 83.2188 130.844L111.731 116.609L122.787 111.462L128.532 67.627Z" fill="black"/>
<path opacity="0.4" d="M89.0291 49.1715C89.0291 49.1715 96.2116 51.185 97.3755 53.6245C98.5394 56.064 98.4168 62.2363 98.4168 62.2363C96.6738 66.3616 94.0329 70.0359 90.6907 72.9855L85.3307 62.2363L85.8131 74.426C85.8131 74.426 75.6443 72.7144 71.3256 69.4308L67.0146 66.1394C67.0146 66.1394 65.1539 59.9439 65.4219 57.8452C65.6899 55.7465 73.4467 51.4871 73.4467 51.4871L89.0291 49.1715Z" fill="#FFD2B2"/>
<path d="M207.687 233.723C207.483 233.29 210.704 227.767 208.181 222.145C205.657 216.522 201.637 218.691 201.637 218.691C201.637 218.691 190.188 211.616 185.376 209.379C181.909 207.688 178.57 205.761 175.384 203.612L170.298 210.261L175 224.381L207.687 233.723Z" fill="#4CCA62"/>
<path d="M200.411 217.483L214.954 225.954C214.954 225.954 225.179 219.701 230.056 215.384C234.932 211.067 245.886 201.872 245.886 201.872L252.863 192.92C252.863 192.92 248.025 187.214 239.963 191.797C229.544 197.71 216.838 206.299 208.365 206.218C208.365 206.218 210.032 216.145 200.465 217.483" fill="#4CCA62"/>
<path d="M86.72 12.2607C86.72 12.2607 93.3121 21.9872 94.5128 25.1362C95.7135 28.2852 96.6818 32.9445 96.4416 35.1873C96.2015 37.4302 93.7847 49.4447 92.5685 49.7921L91.3988 51.0834L92.1734 56.1732C92.1734 56.1732 87.0144 64.8651 71.8472 58.4915C71.8472 58.4915 71.2585 48.3422 69.4149 45.1554C67.5712 41.9687 64.8136 45.7596 62.0481 36.5542C59.2827 27.3488 68.0902 17.6752 68.0902 17.6752L86.72 12.2607Z" fill="#FFD2B2"/>
<path opacity="0.5" d="M246.54 190.015C246.54 190.015 239.017 191.261 236.577 195.497C234.136 199.732 229.451 207.603 227.852 211.408C226.254 215.213 213.039 224.404 213.039 224.404L214.793 225.954C214.793 225.954 225.552 219.627 232.047 213.611C238.541 207.595 252.863 192.463 252.863 192.463C252.863 192.463 251.834 191.491 246.54 190.015Z" fill="#FFD2B2"/>
<path opacity="0.5" d="M172.171 207.497L170.298 209.958L176.049 221.627L207.682 232.752L209.148 228.22C209.148 228.22 209.634 223.62 198.53 220.124C187.427 216.628 180.657 214.321 177.499 211.921C174.341 209.521 172.171 207.497 172.171 207.497Z" fill="#FFD2B2"/>
<path d="M71.5831 121.443C71.5831 121.443 62.1284 120.01 57.7147 127.797C53.3009 135.584 53.7523 138.958 53.7523 138.958C53.7523 138.958 60.0019 144.673 68.5922 144.349C77.1825 144.026 89.6894 134.121 93.7665 130.893C97.8437 127.666 108.125 118.431 115.139 120.341L115.904 113.663C115.904 113.663 115.216 110.667 109.218 111.476C103.221 112.285 100.865 115.728 98.9299 115.728C96.9946 115.728 95.1664 113.856 91.2805 120.541C91.2728 120.541 77.6338 122.975 71.5831 121.443Z" fill="#FFD2B2"/>
<path d="M83.8525 26.8296C84.042 27.9827 84.3116 29.1216 84.6593 30.2381C84.7895 30.7832 85.035 31.2949 85.3796 31.7396C86.0567 32.4512 87.1516 32.6362 88.1528 32.7856C88.3182 32.7973 88.4751 32.8623 88.5994 32.9706C88.6802 33.0981 88.718 33.2476 88.7074 33.3976C88.7014 34.5184 88.3607 35.6126 87.7278 36.5428" stroke="#263238" stroke-linecap="round" stroke-linejoin="round"/>
<path opacity="0.1" d="M179.526 199.728L173.213 207.383C173.213 207.383 180.143 213.615 187.317 215.927C194.491 218.239 207.05 222.597 209.152 225.954L208.345 221.96C208.345 221.96 188.703 210.236 184.195 207.435C182.862 206.584 181.748 205.447 180.938 204.111C180.129 202.774 179.646 201.275 179.526 199.728Z" fill="black"/>
<path opacity="0.1" d="M200.411 217.915L213.105 224.983C213.105 224.983 219.371 220.774 222.447 217.674C225.522 214.574 229.313 211.135 231.673 204.188C234.894 194.586 244.121 190.015 244.121 190.015C244.121 190.015 231.288 195.944 224.607 200.575C217.926 205.206 211.414 207.167 207.631 206.85C207.592 206.873 210.629 216.301 200.411 217.915Z" fill="black"/>
<path d="M79.9639 38.4873C79.9639 38.4873 84.7287 42.2212 89.6771 40.8201C89.6771 40.8201 85.0077 50.0631 79.9639 38.4873Z" fill="#FFD2B2" stroke="#263238" stroke-linecap="round" stroke-linejoin="round"/>
<path d="M79.9182 30.5879C80.1271 31.656 79.6544 32.5791 78.8848 32.6554C78.1153 32.7317 77.3128 31.8925 77.1039 30.8473C76.8951 29.8021 77.3568 28.8561 78.1373 28.7798C78.9178 28.7036 79.7533 29.5199 79.9182 30.5879Z" fill="#263238"/>
<path d="M89.6474 28.6385C89.7797 29.7168 89.4711 30.6421 88.9567 30.7109C88.4424 30.7797 87.8987 29.9462 87.7664 28.9061C87.6342 27.8661 87.9354 26.9025 88.4571 26.8337C88.9788 26.7649 89.5078 27.5678 89.6474 28.6385Z" fill="#263238"/>
<path d="M78.0236 26.1886C78.0236 26.1886 75.1862 24.7774 73.167 27.8025" stroke="#263238" stroke-linecap="round" stroke-linejoin="round"/>
<path d="M85.7939 22.9445C85.7939 22.9445 88.8726 20.759 90.6506 22.9445" stroke="#263238" stroke-linecap="round" stroke-linejoin="round"/>
<path d="M68.8787 35.3468C68.8787 35.3468 66.9365 32.5762 64.8823 32.6611C62.8282 32.746 62.0129 35.5243 62.7483 38.2101C63.4836 40.8958 66.5448 44.6466 68.8627 44.2916C70.1702 44.1289 71.3631 43.488 72.1957 42.5011" stroke="#263238" stroke-linecap="round" stroke-linejoin="round"/>
<path d="M86.5614 14.2041C88.7809 15.9105 91.1304 17.7673 92.2523 20.278C93.2442 22.4129 93.4637 24.7883 94.3742 26.9458C95.3417 29.2536 96.3986 31.6666 96.4798 34.1849C96.4369 36.5147 96.1069 38.8325 95.4961 41.0932C95.1585 43.0534 94.6557 44.9862 93.9921 46.8739C92.8946 49.5726 90.8702 51.2339 88.1549 52.5119C86.1793 53.444 82.8867 54.767 80.7486 53.5192C79.5047 52.7674 77.6348 50.6175 76.082 48.6405" stroke="#263238" stroke-linecap="round" stroke-linejoin="round"/>
<path d="M69.2822 44.3154C69.2822 44.3154 71.7231 52.3003 71.1328 57.914" stroke="#263238" stroke-linecap="round" stroke-linejoin="round"/>
<path d="M68.3911 34.6929C68.8189 34.3631 69.1577 33.924 69.3751 33.418C69.5924 32.9119 69.6807 32.356 69.6317 31.804C69.5121 30.5425 68.6751 29.3745 68.8395 28.113C68.977 27.5089 69.1932 26.9273 69.4822 26.3844C69.9174 25.3368 70.109 24.197 70.0415 23.0576C69.974 21.9183 69.6492 20.8117 69.0936 19.8279C69.0936 19.8279 79.3019 20.3262 84.0847 17.157C88.8675 13.9878 92.5144 5.88177 89.6223 2.01175C86.7302 -1.85828 81.0954 3.42115 76.918 4.00516C72.7405 4.58917 57.8839 7.05758 55.5149 13.0223C53.1459 18.9869 56.7555 21.1283 56.8676 26.8204C56.9797 32.5126 56.9797 43.2972 65.1478 42.3083C65.1478 42.3083 62.0913 38.1891 64.2136 33.9453C65.656 32.1622 68.3911 34.6929 68.3911 34.6929Z" fill="#263238"/>
<path d="M88.9564 8.37598C90.3736 9.48383 91.5485 10.8725 92.4081 12.4555C93.2678 14.0386 93.7937 15.7822 93.9532 17.578C94.4193 21.7803 101.846 29.9471 96.4899 34.6017C96.4899 34.6017 95.2445 29.6557 94.511 27.2171C93.7775 24.7786 92.8377 20.3156 91.6076 18.7819C90.3775 17.2483 83.8525 11.8804 83.8525 11.8804L88.9564 8.37598Z" fill="#263238"/>
<path d="M69.9898 57.2319C69.9898 57.2319 75.128 60.7974 84.6727 60.942L85.7933 74.4249C85.7933 74.4249 75.0594 73.5657 67.0776 65.8324C67.0776 65.8324 64.9202 59.8177 65.4919 57.2319C66.0637 54.6462 71.1943 52.0845 71.1943 52.0845" stroke="#263238" stroke-linecap="round" stroke-linejoin="round"/>
<path d="M91.6233 52.0268L91.9234 56.5589C89.9427 58.6355 87.5136 60.2251 84.8242 61.2044L90.7077 72.4819C90.7077 72.4819 97.7244 66.9829 98.4223 61.2044C98.4223 61.2044 98.4823 55.2899 97.2591 53.5979C96.0359 51.9059 91.5782 51.1128 91.5782 51.1128" stroke="#263238" stroke-linecap="round" stroke-linejoin="round"/>
<path opacity="0.8" d="M62.4824 17.1184C63.2528 15.1799 65.3637 14.0292 67.4207 13.7203C69.4777 13.4114 71.5886 13.6276 73.6687 13.5735C76.5489 13.5503 79.3697 12.75 81.8349 11.2566C83.0598 10.5089 84.1257 9.52652 84.9717 8.36568C85.8177 7.20485 86.4273 5.88828 86.7655 4.49121" stroke="#FFD2B2" stroke-linecap="round" stroke-linejoin="round"/>
<path opacity="0.8" d="M57.626 16.146C58.885 12.2163 62.9676 9.78794 66.983 9.44323C68.9722 9.26704 70.9836 9.50451 72.943 9.26705C74.9023 9.02958 76.9883 8.18695 78.0238 6.43274" stroke="#FFD2B2" stroke-linecap="round" stroke-linejoin="round"/>
<path d="M55.9151 140.302C45.8718 145.442 42.3026 140.15 36.7093 135.772C31.116 131.395 34.7856 123.57 33.6191 111.025C32.4525 98.4805 35.3573 77.1426 35.3573 77.1426C35.3573 77.1426 37.8604 76.5783 44.8057 72.3839C51.751 68.1895 66.3678 61.7988 66.3678 61.7988" stroke="#263238" stroke-linecap="round" stroke-linejoin="round"/>
<path d="M65.3981 120.495C65.3981 120.495 63.8338 115.362 59.4143 115.228C54.9948 115.094 48.0239 117.154 43.0576 126.878" stroke="#263238" stroke-linecap="round" stroke-linejoin="round"/>
<path d="M57.6286 115.222C57.365 115.209 57.1062 115.162 56.8632 115.083C53.3658 114.122 49.5699 113.99 45.9727 114.704" stroke="#263238" stroke-linecap="round" stroke-linejoin="round"/>
<path d="M43.0576 84.1392C51.0315 92.7609 54.9168 104.168 58.5988 115.222" stroke="#263238" stroke-linecap="round" stroke-linejoin="round"/>
<path d="M98.4219 59.8555C98.4219 59.8555 112.896 63.2049 119.968 64.002C127.039 64.7992 128.185 65.7572 128.185 65.7572L129.504 70.54" stroke="#263238" stroke-linecap="round" stroke-linejoin="round"/>
<path d="M166.035 68.5967L116.995 70.5189L112.99 122.02H121.39L163.972 112.286L169.327 69.8296L166.035 68.5967Z" fill="white"/>
<path d="M114.934 122.993L169.328 70.5419L164.05 111.746L114.934 122.993Z" fill="#4CCA62"/>
<path opacity="0.7" d="M114.934 122.993L169.328 70.5419L164.05 111.746L114.934 122.993Z" fill="#92E3A9"/>
<path d="M114.934 122.022L119.272 72.2334L169.328 69.5702L163.913 112.121L114.934 122.022Z" stroke="#263238" stroke-linecap="round" stroke-linejoin="round"/>
<path d="M147.908 93.6974C147.64 96.6411 146.356 98.8768 145.041 98.698C143.726 98.5191 142.885 95.9778 143.153 93.0341C143.421 90.0903 144.712 87.8546 146.027 88.0335C147.342 88.2123 148.182 90.7536 147.908 93.6974Z" fill="#263238"/>
<path d="M164.262 111.368C164.262 111.368 187.403 110.711 194.639 115.482C201.875 120.253 206.125 144.178 205.122 156.886C204.119 169.594 195.389 198.757 195.389 198.757L178.666 179.855C178.666 179.855 170.426 149.943 174.921 138.229C174.921 138.229 152.715 139.476 143.97 136.738C143.97 136.738 136.136 123.931 122.705 119.695L164.262 111.368Z" fill="#263238"/>
<path d="M198.837 198.66C192.947 193.214 187.657 187.163 183.058 180.609C175.032 168.327 163.938 156.542 152.526 147.344C143.33 139.958 141.25 127.924 129.906 121.885C111.112 111.904 94.863 131.737 88.7884 135.754C82.7139 139.77 72.1973 144.32 72.1973 144.32C72.1973 144.32 76.0394 158.61 87.3229 160.302C98.6064 161.995 110.019 154.286 115.418 158.008C120.817 161.731 124.811 178.353 142.639 188.093C157.211 196.05 177.067 203.812 187.31 209.047C189.588 210.22 191.289 211.453 192.58 212.153C196.118 214.063 199.9 216.312 203.469 218.538L215.762 225.954C215.762 225.954 228.101 218.726 232.839 212.063C233.469 211.168 234.783 208.783 236.013 206.482C238.694 201.45 242.088 196.938 246.788 194.448C250.038 192.711 252.931 192.192 252.862 192.011C252.551 191.44 246.659 188.454 242.657 190.086C234.183 193.553 217.243 206.873 209.247 205.88C205.528 203.846 202.038 201.426 198.837 198.66V198.66Z" stroke="#263238" stroke-miterlimit="10"/>
<path d="M198.469 198.999C191.103 201.969 188.135 206.555 186.999 209.442C176.786 204.153 156.987 196.385 142.458 188.391C124.681 178.569 120.729 161.901 115.315 158.168C109.902 154.435 98.5147 162.203 87.3018 160.473C76.0889 158.742 72.1973 144.401 72.1973 144.401C72.1973 144.401 82.6909 139.868 88.7479 135.833C94.8048 131.798 108.774 111.866 129.738 121.9C141.315 127.439 143.124 140.034 152.293 147.477C163.65 156.687 174.734 168.557 182.737 180.896C187.311 187.479 192.586 193.549 198.469 198.999Z" fill="#263238"/>
<path d="M143.103 135.62C143.103 135.62 137.507 123.415 128.533 121.05" stroke="#FFD2B2" stroke-linecap="round" stroke-linejoin="round"/>
<path d="M113.004 111.519C106.705 110.138 99.7888 117.141 96.8759 115.829C94.7103 114.855 91.1492 120.624 91.1492 120.624C85.2877 121.475 79.3601 121.775 73.4432 121.521C64.9562 120.976 60.9376 122.641 57.9332 127.205L53.7393 138.381C53.7393 138.381 64.8036 148.353 76.6153 142.546C88.427 136.739 104.12 119.22 114.933 119.281" stroke="#263238" stroke-linecap="round" stroke-linejoin="round"/>
<path d="M200.411 218.171C200.411 218.171 211.323 219.027 208.764 206.527" stroke="#263238" stroke-miterlimit="10"/>
<path d="M249.217 198.322C248.442 199.875 238.816 208.088 230.522 215.268C230.522 215.16 232.846 210.774 233.806 208.903C236.013 204.773 241.713 193.447 252.562 191.957C254.103 192.888 249.217 198.322 249.217 198.322Z" fill="#263238"/>
<path d="M245.093 190.015C234.127 192.115 231.635 205.649 227.743 211.404C223.85 217.158 213.039 224.983 213.039 224.983" stroke="#263238" stroke-miterlimit="10"/>
<path d="M208.092 222.014C209.898 225.245 209.046 228.997 208.092 231.348C207.625 232.515 207.044 233.636 206.357 234.694C190.673 232.167 174.989 223.913 174.989 223.913L170.947 211.661L170.298 209.701L176.388 201.669" stroke="#263238" stroke-miterlimit="10"/>
<path d="M208.182 231.448C207.717 232.581 207.14 233.668 206.457 234.694C190.873 232.243 175.288 224.237 175.288 224.237L171.271 212.354C173.284 214.864 177.013 218.54 182.606 220.048C190.197 222.105 204.204 224.512 208.182 231.448Z" fill="#263238"/>
<path d="M112.99 120.077L116.995 70.5132L166.035 68.5967L169.327 69.826" stroke="#263238" stroke-linecap="round" stroke-linejoin="round"/>
<path d="M208.183 212.191C208.183 212.191 214.872 213.435 220.013 209.08C225.154 204.725 233.437 194.872 233.437 194.872" stroke="#263238" stroke-miterlimit="10"/>
<path d="M214.982 205.554C214.982 205.554 212.797 208.139 214.982 213.324" stroke="#263238" stroke-linecap="round" stroke-linejoin="round"/>
<path d="M220.239 203.612C219.549 205.868 219.752 208.299 220.808 210.412" stroke="#263238" stroke-linecap="round" stroke-linejoin="round"/>
<path d="M225.666 200.697C225.666 200.697 225.666 204.31 225.666 207.497" stroke="#263238" stroke-linecap="round" stroke-linejoin="round"/>
<path d="M178.66 200.697L173.213 207.485C173.213 207.485 178.698 213.69 186.438 216.27C194.179 218.85 208.005 223.23 209.152 227.894" stroke="#263238" stroke-miterlimit="10"/>
</svg>
