<svg width="21" height="32" viewBox="0 0 21 32" fill="none"
    xmlns="http://www.w3.org/2000/svg">
    <path d="M13.6113 9.84531C13.6113 5.25845 11.4002 1.30669 9.70655 0.0129613C9.70655 0.0129613 9.58894 -0.0576058 9.58894 0.130573C9.44781 8.9985 4.95504 11.4213 2.46167 14.6439C-3.25427 22.124 2.06179 30.3098 7.47193 31.8152C10.5063 32.662 6.76626 30.3098 6.29581 25.3701C5.73127 19.3719 13.6113 14.8085 13.6113 9.84531Z" fill="white"/>
    <path d="M16.5751 12.8797C16.5516 12.8562 16.5046 12.8562 16.4575 12.8797C16.4575 12.8797 16.4575 12.8797 16.434 12.9032C16.3399 14.0088 15.1167 16.4081 13.5878 18.5956C8.38934 26.0287 11.3532 29.6041 13.0232 31.5329C13.9877 32.662 13.0232 31.5329 15.446 30.3803C15.6342 30.2862 20.1505 27.887 20.6445 22.4533C21.1385 17.1608 17.7748 13.8441 16.5751 12.8797Z" fill="#059BDC"/>
</svg>
