<svg width="68" height="68" viewBox="0 0 68 68" fill="none" xmlns="http://www.w3.org/2000/svg">
<path d="M34 68C52.7777 68 68 52.7777 68 34C68 15.2223 52.7777 0 34 0C15.2223 0 0 15.2223 0 34C0 52.7777 15.2223 68 34 68Z" fill="#172852"/>
<path d="M27.3871 15.1946C31.3685 13.7054 35.8497 13.702 39.9059 14.926C45.1861 16.5648 49.6435 20.5496 51.9725 25.551C52.6151 26.9756 53.2305 28.4614 53.2917 30.0458C50.3235 28.3254 47.0697 27.2102 43.8091 26.1936C38.5935 24.3134 33.1331 23.0078 28.1963 20.4238C27.0471 19.737 25.5817 19.0332 25.2689 17.6018C25.1431 16.3642 26.4521 15.674 27.3871 15.1946Z" fill="#FFD83D"/>
<path d="M15.3681 27.2307C16.5207 24.1027 18.4111 21.1991 20.9781 19.0469C21.6309 24.4155 23.9157 29.6039 27.6897 33.5071C32.2151 38.2093 38.6615 41.0959 45.2201 40.9871C47.8244 41.0687 50.371 40.4669 52.9108 39.9807C50.4118 49.0111 40.5145 55.0053 31.3447 53.5637C25.8095 52.8565 20.6993 49.5789 17.6155 44.9515C14.1373 39.8379 13.2601 33.0481 15.3681 27.2307Z" fill="#FFD83D"/>
<path d="M43.8091 26.1936C47.0697 27.2102 50.3235 28.3254 53.2917 30.0458L53.4923 30.1512C53.7677 32.2218 53.9683 34.3332 53.6011 36.4072C52.1085 35.7748 50.8981 34.663 49.6333 33.6804C47.1989 31.654 44.7135 29.3352 43.8091 26.1936Z" fill="#FF6F03"/>
</svg>
