<svg width="65" height="65" viewBox="0 0 65 65" fill="none" xmlns="http://www.w3.org/2000/svg">
<g clip-path="url(#clip0_312_4398)">
<path d="M25.2173 29.151L32.5002 45.031L43.3174 38.8823H43.3382V26.5781L25.2173 29.151Z" fill="#2BBDF7"/>
<path d="M57.3087 17.3515L50.5583 14.8547L43.3376 14.2737V26.5779V52.6111L54.1687 58.7667L62.8072 41.4342L57.3295 24.7589L57.3087 17.3515Z" fill="#2891F9"/>
<path d="M56.6798 14.2737L54.1692 20.4292V58.6698L65.0002 52.5143V14.2737H56.6798Z" fill="#2BBDF7"/>
<path d="M54.1687 8.125L43.3376 14.2736L54.1687 20.4292L64.9997 14.2736L54.1687 8.125Z" fill="#2B6DEF"/>
<path d="M32.5 32.7265L21.669 20.7751L0 14.2737V52.5143L10.831 58.6698L13.9365 37.5058L21.669 38.8821L32.5 45.0308V32.7265Z" fill="#2891F9"/>
<path d="M10.831 8.125L0 14.2736L32.5 32.7265L37.4106 29.9461L43.338 26.5779L10.831 8.125Z" fill="#2B6DEF"/>
<path d="M10.8308 32.7266V58.6698L21.6688 52.5143V38.8821L10.8308 32.7266Z" fill="#2BBDF7"/>
</g>
<defs>
<clipPath id="clip0_312_4398">
<rect width="65" height="65" fill="white"/>
</clipPath>
</defs>
</svg>
