<svg width="68" height="68" viewBox="0 0 68 68" fill="none" xmlns="http://www.w3.org/2000/svg">
<path d="M34 68C52.7777 68 68 52.7777 68 34C68 15.2223 52.7777 0 34 0C15.2223 0 0 15.2223 0 34C0 52.7777 15.2223 68 34 68Z" fill="#8247E5"/>
<path d="M45.2538 26.7256C44.4383 26.2512 43.3781 26.2512 42.4811 26.7256L36.1202 30.3628L31.7981 32.7349L25.4372 36.3722C24.6217 36.8466 23.5616 36.8466 22.6645 36.3722L17.6084 33.5256C16.7929 33.0512 16.2221 32.1815 16.2221 31.2326V25.6187C16.2221 24.6698 16.7114 23.8001 17.6084 23.3256L22.5829 20.5582C23.3984 20.0838 24.4586 20.0838 25.3557 20.5582L30.3302 23.3256C31.1457 23.8001 31.7165 24.6698 31.7165 25.6187V29.2559L36.0386 26.8047V23.1675C36.0386 22.2187 35.5494 21.3489 34.6523 20.8745L25.4372 15.6559C24.6217 15.1814 23.5616 15.1814 22.6645 15.6559L13.2863 20.8745C12.3892 21.3489 11.8999 22.2187 11.8999 23.1675V33.6838C11.8999 34.6326 12.3892 35.5024 13.2863 35.9768L22.6645 41.1954C23.48 41.6698 24.5401 41.6698 25.4372 41.1954L31.7981 37.6373L36.1202 35.1861L42.4811 31.628C43.2966 31.1535 44.3568 31.1535 45.2538 31.628L50.2283 34.3954C51.0438 34.8698 51.6147 35.7396 51.6147 36.6884V42.3024C51.6147 43.2512 51.1253 44.121 50.2283 44.5954L45.2538 47.4419C44.4383 47.9163 43.3781 47.9163 42.4811 47.4419L37.5065 44.6745C36.6911 44.2001 36.1202 43.3303 36.1202 42.3815V38.7443L31.7981 41.1954V44.8326C31.7981 45.7815 32.2874 46.6512 33.1844 47.1257L42.5627 52.3443C43.3781 52.8187 44.4383 52.8187 45.3353 52.3443L54.7135 47.1257C55.5291 46.6512 56.0999 45.7815 56.0999 44.8326V34.3163C56.0999 33.3675 55.6106 32.4977 54.7135 32.0233L45.2538 26.7256Z" fill="white"/>
</svg>
