<svg width="56" height="46" viewBox="0 0 56 46" fill="none" xmlns="http://www.w3.org/2000/svg">
<circle cx="40" cy="30" r="16" fill="black"/>
<path fill-rule="evenodd" clip-rule="evenodd" d="M40 46C48.8366 46 56 38.8366 56 30C56 21.1634 48.8366 14 40 14C31.1634 14 24 21.1634 24 30C24 38.8366 31.1634 46 40 46ZM43.8326 26.1169C43.8326 26.2851 43.8269 26.4519 43.8156 26.6173C47.6335 26.8251 50.6654 29.9868 50.6654 33.8566C50.6654 37.8609 47.4193 41.1069 43.4151 41.1069C39.4108 41.1069 36.1648 37.8609 36.1648 33.8566C36.1648 33.6884 36.1705 33.5216 36.1818 33.3562C32.3639 33.1483 29.332 29.9866 29.332 26.1169C29.332 22.1127 32.5781 18.8666 36.5823 18.8666C40.5865 18.8666 43.8326 22.1127 43.8326 26.1169ZM43.4611 28.4141C42.6468 30.8535 40.5712 32.7157 38.0083 33.2269C37.9845 33.4335 37.9722 33.6436 37.9722 33.8566C37.9722 36.8626 40.4091 39.2995 43.4151 39.2995C46.421 39.2995 48.8579 36.8626 48.8579 33.8566C48.8579 30.866 46.4459 28.4388 43.4611 28.4141ZM35.8571 22.4912H37.3071V25.3911H40.2061V26.8411H37.3071V29.7415H35.8571V26.8411H32.9558V25.3911H35.8571V22.4912ZM46.005 33.0288V34.4789H40.8262V33.0288H46.005Z" fill="white"/>
<g filter="url(#filter0_d)">
<circle cx="20" cy="20" r="16" fill="black"/>
<path fill-rule="evenodd" clip-rule="evenodd" d="M20 36C28.8366 36 36 28.8366 36 20C36 11.1634 28.8366 4 20 4C11.1634 4 4 11.1634 4 20C4 28.8366 11.1634 36 20 36ZM23.8326 16.1169C23.8326 16.2851 23.8269 16.4519 23.8156 16.6173C27.6335 16.8251 30.6654 19.9868 30.6654 23.8566C30.6654 27.8609 27.4193 31.1069 23.4151 31.1069C19.4108 31.1069 16.1648 27.8609 16.1648 23.8566C16.1648 23.6884 16.1705 23.5216 16.1818 23.3562C12.3639 23.1483 9.33203 19.9866 9.33203 16.1169C9.33203 12.1127 12.5781 8.86663 16.5823 8.86663C20.5865 8.86663 23.8326 12.1127 23.8326 16.1169ZM23.4611 18.4141C22.6468 20.8535 20.5712 22.7157 18.0083 23.2269C17.9845 23.4335 17.9722 23.6436 17.9722 23.8566C17.9722 26.8626 20.4091 29.2995 23.4151 29.2995C26.421 29.2995 28.8579 26.8626 28.8579 23.8566C28.8579 20.866 26.4459 18.4388 23.4611 18.4141ZM15.8571 12.4912H17.3071V15.3911H20.2061V16.8411H17.3071V19.7415H15.8571V16.8411H12.9558V15.3911H15.8571V12.4912ZM26.005 23.0288V24.4789H20.8262V23.0288H26.005Z" fill="white"/>
</g>
<path d="M36 30C36 33.3137 33.3137 36 30 36C26.6863 36 24 33.3137 24 30C24 26.6863 26.6863 24 30 24C33.3137 24 36 26.6863 36 30Z" fill="#030303"/>
<path fill-rule="evenodd" clip-rule="evenodd" d="M30 35.4C32.9823 35.4 35.4 32.9823 35.4 30C35.4 27.0177 32.9823 24.6 30 24.6C27.0177 24.6 24.6 27.0177 24.6 30C24.6 32.9823 27.0177 35.4 30 35.4ZM30 36C33.3137 36 36 33.3137 36 30C36 26.6863 33.3137 24 30 24C26.6863 24 24 26.6863 24 30C24 33.3137 26.6863 36 30 36Z" fill="white"/>
<path fill-rule="evenodd" clip-rule="evenodd" d="M30.0999 27C29.879 27 29.6999 27.179 29.6999 27.4V29.7299H27.4005C27.1796 29.7299 27.0005 29.909 27.0005 30.1299C27.0005 30.3508 27.1796 30.5299 27.4005 30.5299H29.6999V32.6C29.6999 32.8209 29.879 33 30.0999 33C30.3208 33 30.4999 32.8209 30.4999 32.6V30.5299H32.6005C32.8214 30.5299 33.0005 30.3508 33.0005 30.1299C33.0005 29.909 32.8214 29.7299 32.6005 29.7299H30.4999V27.4C30.4999 27.179 30.3208 27 30.0999 27Z" fill="white"/>
<defs>
<filter id="filter0_d" x="0" y="0" width="44" height="44" filterUnits="userSpaceOnUse" color-interpolation-filters="sRGB">
<feFlood flood-opacity="0" result="BackgroundImageFix"/>
<feColorMatrix in="SourceAlpha" type="matrix" values="0 0 0 0 0 0 0 0 0 0 0 0 0 0 0 0 0 0 127 0"/>
<feOffset dx="2" dy="2"/>
<feGaussianBlur stdDeviation="3"/>
<feColorMatrix type="matrix" values="0 0 0 0 0 0 0 0 0 0 0 0 0 0 0 0 0 0 0.25 0"/>
<feBlend mode="normal" in2="BackgroundImageFix" result="effect1_dropShadow"/>
<feBlend mode="normal" in="SourceGraphic" in2="effect1_dropShadow" result="shape"/>
</filter>
</defs>
</svg>
