<svg width="28" height="26" viewBox="0 0 28 26" fill="none" xmlns="http://www.w3.org/2000/svg">
<path fill-rule="evenodd" clip-rule="evenodd" d="M8.02344 22.9362L11.6638 23.9043V22.6383L11.9609 22.3405H14.0411V23.8298V24.8724H11.8124L9.06353 23.6809L8.02344 22.9362Z" fill="#CDBDB2"/>
<path fill-rule="evenodd" clip-rule="evenodd" d="M19.9102 22.9362L16.3441 23.9043V22.6383L16.0469 22.3405H13.9668V23.8298V24.8724H16.1955L18.9444 23.6809L19.9102 22.9362Z" fill="#CDBDB2"/>
<path fill-rule="evenodd" clip-rule="evenodd" d="M11.961 20.1808L11.6638 22.6383L12.0353 22.3404H15.8985L16.3442 22.6383L16.0471 20.1808L15.4527 19.8085L12.481 19.8829L11.961 20.1808Z" fill="#393939"/>
<path fill-rule="evenodd" clip-rule="evenodd" d="M9.95557 3.57446L11.7386 7.74467L12.5558 19.883H15.4532L16.3447 7.74467L17.9791 3.57446H9.95557Z" fill="#F89C35"/>
<path fill-rule="evenodd" clip-rule="evenodd" d="M2.15465 12.734L0.0744629 18.766L5.27493 18.4681H8.61809V15.8617L8.46951 10.5L7.72658 11.0957L2.15465 12.734Z" fill="#F89D35"/>
<path fill-rule="evenodd" clip-rule="evenodd" d="M6.09229 13.4043L12.1843 13.5532L11.5156 16.6809L8.61823 15.9362L6.09229 13.4043Z" fill="#D87C30"/>
<path fill-rule="evenodd" clip-rule="evenodd" d="M6.09229 13.4788L8.61823 15.8617V18.2447L6.09229 13.4788Z" fill="#EA8D3A"/>
<path fill-rule="evenodd" clip-rule="evenodd" d="M8.61816 15.9362L11.5899 16.6808L12.5557 19.883L11.887 20.2553L8.61816 18.3191V15.9362Z" fill="#F89D35"/>
<path fill-rule="evenodd" clip-rule="evenodd" d="M8.61778 18.3191L8.02344 22.9361L11.9609 20.1808L8.61778 18.3191Z" fill="#EB8F35"/>
<path fill-rule="evenodd" clip-rule="evenodd" d="M12.1841 13.5532L12.5556 19.883L11.4412 16.6436L12.1841 13.5532Z" fill="#EA8E3A"/>
<path fill-rule="evenodd" clip-rule="evenodd" d="M5.20068 18.3936L8.61814 18.3191L8.0238 22.9361L5.20068 18.3936Z" fill="#D87C30"/>
<path fill-rule="evenodd" clip-rule="evenodd" d="M1.7089 24.9469L8.02376 22.9362L5.20064 18.3937L0.0744629 18.766L1.7089 24.9469Z" fill="#EB8F35"/>
<path fill-rule="evenodd" clip-rule="evenodd" d="M11.7385 7.74463L8.54394 10.4255L6.09229 13.4042L12.1843 13.6276L11.7385 7.74463Z" fill="#E8821E"/>
<path fill-rule="evenodd" clip-rule="evenodd" d="M8.02344 22.9362L11.9609 20.1809L11.6638 22.5639V23.9043L8.98924 23.383L8.02344 22.9362Z" fill="#DFCEC3"/>
<path fill-rule="evenodd" clip-rule="evenodd" d="M19.9102 22.9362L16.0469 20.1809L16.3441 22.5639V23.9043L19.0186 23.383L19.9102 22.9362Z" fill="#DFCEC3"/>
<path fill-rule="evenodd" clip-rule="evenodd" d="M10.5495 14.8936L11.3667 16.6063L8.46929 15.8616L10.5495 14.8936Z" fill="#393939"/>
<path fill-rule="evenodd" clip-rule="evenodd" d="M1.63403 0.0744629L11.7378 7.74467L10.0291 3.57446L1.63403 0.0744629Z" fill="#E88F35"/>
<path fill-rule="evenodd" clip-rule="evenodd" d="M1.63487 0.0744629L0.297607 4.17021L1.04053 8.63829L0.520485 8.93616L1.26341 9.60637L0.66907 10.1277L1.48629 10.8723L0.96624 11.3191L2.15492 12.8085L7.72685 11.0957C7.72685 11.0957 11.8129 7.81914 11.7386 7.74467C11.6644 7.67021 1.63487 0.0744629 1.63487 0.0744629Z" fill="#8E5A30"/>
<path fill-rule="evenodd" clip-rule="evenodd" d="M25.7794 12.734L27.8596 18.766L22.6591 18.4681H19.316V15.8617L19.4646 10.5L20.2075 11.0957L25.7794 12.734Z" fill="#F89D35"/>
<path fill-rule="evenodd" clip-rule="evenodd" d="M21.8418 13.4043L15.7498 13.5532L16.4185 16.6809L19.3159 15.9362L21.8418 13.4043Z" fill="#D87C30"/>
<path fill-rule="evenodd" clip-rule="evenodd" d="M21.8418 13.4788L19.3159 15.8617V18.2447L21.8418 13.4788Z" fill="#EA8D3A"/>
<path fill-rule="evenodd" clip-rule="evenodd" d="M19.3162 15.9362L16.3445 16.6808L15.3787 19.883L16.0473 20.2553L19.3162 18.3191V15.9362Z" fill="#F89D35"/>
<path fill-rule="evenodd" clip-rule="evenodd" d="M19.3163 18.3191L19.9106 22.9361L16.0474 20.2553L19.3163 18.3191Z" fill="#EB8F35"/>
<path fill-rule="evenodd" clip-rule="evenodd" d="M15.75 13.5532L15.3785 19.883L16.4929 16.6436L15.75 13.5532Z" fill="#EA8E3A"/>
<path fill-rule="evenodd" clip-rule="evenodd" d="M22.7336 18.3936L19.3162 18.3191L19.9105 22.9361L22.7336 18.3936Z" fill="#D87C30"/>
<path fill-rule="evenodd" clip-rule="evenodd" d="M26.2252 24.9469L19.9103 22.9362L22.7334 18.3937L27.8596 18.766L26.2252 24.9469Z" fill="#EB8F35"/>
<path fill-rule="evenodd" clip-rule="evenodd" d="M16.1956 7.74463L19.3901 10.4255L21.8418 13.4042L15.7498 13.6276L16.1956 7.74463Z" fill="#E8821E"/>
<path fill-rule="evenodd" clip-rule="evenodd" d="M17.3846 14.8936L16.5674 16.6063L19.4648 15.8616L17.3846 14.8936Z" fill="#393939"/>
<path fill-rule="evenodd" clip-rule="evenodd" d="M26.3 0.0744629L16.1963 7.74467L17.905 3.57446L26.3 0.0744629Z" fill="#E88F35"/>
<path fill-rule="evenodd" clip-rule="evenodd" d="M26.2992 0.0744629L27.6365 4.17021L26.8935 8.63829L27.4136 8.93616L26.6707 9.60637L27.265 10.1277L26.4478 10.8723L26.9678 11.3191L25.7792 12.8085L20.2072 11.0957C20.2072 11.0957 16.1211 7.81914 16.1954 7.74467C16.2697 7.67021 26.2992 0.0744629 26.2992 0.0744629Z" fill="#8E5A30"/>
</svg>
