<svg width="95" height="95" viewBox="0 0 95 95" fill="none"
  xmlns="http://www.w3.org/2000/svg">
  <path d="M94.857 47.8572C94.857 73.8935 73.7504 95.0001 47.7141 95.0001C21.6779 95.0001 0.571289 73.8935 0.571289 47.8572C0.571289 21.8209 21.6779 0.714355 47.7141 0.714355C73.7504 0.714355 94.857 21.8209 94.857 47.8572Z" fill="#030303"/>
  <path fill-rule="evenodd" clip-rule="evenodd" d="M47.7141 90.2858C71.1468 90.2858 90.1427 71.2899 90.1427 47.8572C90.1427 24.4246 71.1468 5.42864 47.7141 5.42864C24.2815 5.42864 5.28557 24.4246 5.28557 47.8572C5.28557 71.2899 24.2815 90.2858 47.7141 90.2858ZM47.7141 95.0001C73.7504 95.0001 94.857 73.8935 94.857 47.8572C94.857 21.8209 73.7504 0.714355 47.7141 0.714355C21.6779 0.714355 0.571289 21.8209 0.571289 47.8572C0.571289 73.8935 21.6779 95.0001 47.7141 95.0001Z" fill="#EC2F2F"/>
  <path d="M68.2854 45.7358C69.9423 45.7358 71.2854 47.079 71.2854 48.7358V49.0216C71.2854 50.6784 69.9423 52.0216 68.2854 52.0216L27.1426 52.0216C25.4857 52.0216 24.1426 50.6784 24.1426 49.0216L24.1426 48.7358C24.1426 47.079 25.4857 45.7358 27.1426 45.7358L68.2854 45.7358Z" fill="#EC2F2F"/>
</svg>
