<svg width="386" height="236" viewBox="0 0 386 236" fill="none" xmlns="http://www.w3.org/2000/svg">
<path d="M246.698 53.7503C247.391 49.7029 244.671 45.8604 240.624 45.1678C236.576 44.4753 232.734 47.1949 232.041 51.2423C231.349 55.2897 234.068 59.1322 238.116 59.8248C242.163 60.5174 246.006 57.7977 246.698 53.7503Z" fill="white"/>
<path d="M255.002 69C253.025 69.0004 251.091 68.5608 249.446 67.7369C247.801 66.913 246.519 65.7418 245.762 64.3714C245.005 63.001 244.806 61.4929 245.192 60.0379C245.577 58.583 246.53 57.2464 247.928 56.1973C249.327 55.1483 251.108 54.4338 253.048 54.1442C254.988 53.8547 256.999 54.0031 258.826 54.5707C260.654 55.1383 262.216 56.0996 263.315 57.333C264.413 58.5664 265 60.0166 265 61.5C264.997 63.4882 263.943 65.3945 262.069 66.8005C260.195 68.2066 257.653 68.9976 255.002 69Z" fill="#F2F5FA"/>
<path d="M255.002 68.5C253.096 68.5003 251.24 68.0763 249.67 67.2899C248.099 66.5031 246.9 65.3969 246.2 64.1296C245.502 62.8669 245.324 61.491 245.675 60.166C246.027 58.8367 246.904 57.5903 248.228 56.5973C249.552 55.6039 251.254 54.9176 253.122 54.6388C254.989 54.36 256.924 54.5035 258.678 55.0482C260.433 55.5932 261.912 56.5102 262.941 57.6656C263.968 58.8185 264.5 60.153 264.5 61.4994C264.498 63.3012 263.543 65.0698 261.769 66.4006C259.992 67.7334 257.56 68.4977 255.002 68.5Z" stroke="black" stroke-opacity="0.1"/>
<path d="M228.68 72.9358C230.822 70.7943 230.822 67.3224 228.68 65.1809C226.539 63.0395 223.067 63.0395 220.925 65.1809C218.784 67.3224 218.784 70.7943 220.925 72.9358C223.067 75.0772 226.539 75.0772 228.68 72.9358Z" fill="white"/>
<path d="M224.804 77.8977C223.649 77.8988 222.519 77.5573 221.558 76.9164C220.597 76.2754 219.848 75.3638 219.405 74.2969C218.962 73.23 218.846 72.0557 219.07 70.9226C219.295 69.7895 219.851 68.7485 220.667 67.9313C221.484 67.1141 222.524 66.5574 223.657 66.3316C224.79 66.1058 225.964 66.2212 227.032 66.663C228.099 67.1048 229.011 67.8532 229.653 68.8136C230.295 69.774 230.638 70.9032 230.638 72.0584C230.636 73.6055 230.021 75.0887 228.927 76.1832C227.834 77.2777 226.351 77.8942 224.804 77.8977Z" fill="#F2F5FA"/>
<path d="M224.803 77.3977C223.747 77.3987 222.714 77.0864 221.836 76.5004C220.957 75.9143 220.272 75.0808 219.867 74.1052C219.462 73.1297 219.356 72.056 219.561 71.0199C219.766 69.9838 220.274 69.0319 221.021 68.2847C221.768 67.5375 222.719 67.0284 223.755 66.822C224.791 66.6155 225.864 66.721 226.84 67.1249C227.816 67.5289 228.651 68.2133 229.237 69.0914C229.824 69.9694 230.138 71.0017 230.138 72.0577C230.136 73.4725 229.573 74.8289 228.573 75.8298C227.574 76.8307 226.218 77.3944 224.803 77.3977Z" stroke="black" stroke-opacity="0.1"/>
<path d="M331 92C300.673 92 276 71.3645 276 45.9991C276 20.6336 300.662 0 331 0C361.338 0 386 20.6355 386 45.9991C386 71.3626 361.315 92 331 92Z" fill="#F2F5FA"/>
<path d="M331 91.5C300.862 91.5 276.5 71.0084 276.5 45.9991C276.5 20.9896 300.851 0.5 331 0.5C361.149 0.5 385.5 20.9915 385.5 45.9991C385.5 71.0065 361.127 91.5 331 91.5Z" stroke="black" stroke-opacity="0.1"/>
<path d="M230.602 223.659H121.448L122.253 207.059L124.287 164.981L175.028 114.168C175.028 114.168 215.777 118.603 224.923 138.79L226.169 157.378L230.115 216.339L230.602 223.659Z" fill="url(#paint0_linear_1508_9868)"/>
<path d="M188.994 157.872H158.913V202.514H188.994V157.872Z" fill="white"/>
<path opacity="0.4" d="M162.523 199.408H185.387V172.515C173.949 169.121 173.144 176.361 162.523 172.515V199.408Z" fill="#00B3F3"/>
<path d="M146.293 212.379C151.616 207.174 153.31 186.27 148.534 177.483L138.722 194.751L146.293 212.379Z" fill="#0E6F1F"/>
<path d="M179.926 176.853C178.507 173.698 160.93 178.657 160.93 178.657C160.93 178.657 173.523 169.604 173.019 168.466C170.778 163.405 143.726 180.639 143.726 180.639L142.022 208.781C149.535 203.797 158.823 196.51 158.823 196.51C158.823 196.51 174.986 196.633 176.76 195.494C178.533 194.354 178.531 192.709 176.252 191.443C176.252 191.443 181.333 190.519 178.87 187.725C177.958 186.692 161.314 185.24 161.314 185.24L172.328 181.443C172.328 181.443 180.449 178.013 179.926 176.853Z" fill="#FFBA9A"/>
<path d="M155.277 180.205C155.22 180.203 155.165 180.181 155.123 180.142C155.081 180.103 155.054 180.05 155.048 179.993C155.042 179.936 155.057 179.878 155.089 179.831C155.122 179.784 155.171 179.75 155.226 179.736L173.17 175.833C173.201 175.826 173.233 175.826 173.264 175.831C173.295 175.837 173.325 175.85 173.351 175.867C173.377 175.885 173.4 175.908 173.417 175.935C173.434 175.961 173.445 175.991 173.45 176.022C173.457 176.053 173.457 176.085 173.451 176.116C173.445 176.147 173.433 176.177 173.415 176.203C173.398 176.23 173.375 176.252 173.348 176.269C173.322 176.287 173.292 176.299 173.261 176.304L155.319 180.209L155.277 180.205Z" fill="#BF643A"/>
<path d="M176.22 187.027H176.199L156.324 185.293C156.261 185.287 156.204 185.257 156.163 185.209C156.123 185.161 156.103 185.099 156.108 185.036C156.115 184.974 156.145 184.917 156.193 184.877C156.24 184.837 156.302 184.816 156.364 184.82L176.238 186.556C176.301 186.558 176.36 186.586 176.403 186.632C176.446 186.678 176.468 186.739 176.466 186.802C176.463 186.865 176.436 186.924 176.39 186.966C176.343 187.009 176.282 187.031 176.22 187.029V187.027Z" fill="#BF643A"/>
<path d="M175.746 191.759H175.723L157.622 190.025C157.563 190.015 157.51 189.983 157.474 189.935C157.438 189.887 157.421 189.828 157.427 189.768C157.433 189.708 157.461 189.653 157.505 189.613C157.55 189.573 157.608 189.551 157.667 189.552L175.767 191.288C175.829 191.291 175.889 191.318 175.931 191.365C175.973 191.411 175.996 191.472 175.993 191.535C175.99 191.598 175.963 191.657 175.916 191.699C175.87 191.742 175.809 191.764 175.746 191.761V191.759Z" fill="#BF643A"/>
<path d="M135.176 183.987L175.029 114.168C175.029 114.168 135.91 123.152 120.842 142.856C105.773 162.56 92.4492 218.488 114.467 223.125C125.191 225.383 137.409 218.268 146.296 212.376C142.391 201.846 145.48 186.758 149.253 176.649L135.176 183.987Z" fill="url(#paint1_linear_1508_9868)"/>
<path d="M182.576 138.599C177.844 138.599 172.826 136.591 167.486 132.576L167.912 132.008C178.283 139.806 187.344 139.814 195.612 132.035L196.098 132.549C191.813 136.583 187.327 138.599 182.576 138.599Z" fill="#0A0A0A"/>
<path d="M149.098 176.336L115.964 192.304L116.272 192.944L149.406 176.976L149.098 176.336Z" fill="#0A0A0A"/>
<path d="M146.134 212.068L125.66 222.244L125.976 222.88L146.45 212.703L146.134 212.068Z" fill="#0A0A0A"/>
<path d="M139.605 158.92L134.82 182.363L135.516 182.505L140.3 159.062L139.605 158.92Z" fill="#0A0A0A"/>
<path d="M220.111 174.947L214.54 145.743L214.69 145.609L232.723 129.508L233.196 130.038L215.312 146.004L220.807 174.815L220.111 174.947Z" fill="#0A0A0A"/>
<path d="M194.732 93.8884V117.647C194.753 119.335 194.438 121.01 193.807 122.575C193.175 124.14 192.239 125.564 191.053 126.764C189.867 127.965 188.455 128.918 186.897 129.569C185.34 130.219 183.669 130.554 181.981 130.554C180.294 130.554 178.623 130.219 177.066 129.569C175.508 128.918 174.096 127.965 172.91 126.764C171.724 125.564 170.788 124.14 170.156 122.575C169.525 121.01 169.21 119.335 169.23 117.647V93.8884H194.732Z" fill="#FFBA9A"/>
<path d="M194.732 93.8884V114.558C187.274 112.476 179.631 106.637 173.03 98.2552L179.801 93.8884H194.732Z" fill="#BF643A"/>
<path d="M197.954 103.304C193.96 105.641 182.183 103.62 173.031 98.2592L167.353 73.7282L181.785 61.4248L194.798 63.081C196.761 68.3809 199.228 73.554 201.215 78.4129C202.455 81.4414 203.505 84.3469 204.13 87.082C205.654 93.7259 204.717 99.3532 197.954 103.304Z" fill="#FFBA9A"/>
<path d="M196.858 79.4033C197.505 79.1037 197.705 78.1618 197.306 77.2995C196.907 76.4372 196.059 75.9811 195.412 76.2808C194.765 76.5804 194.564 77.5222 194.963 78.3845C195.363 79.2468 196.211 79.7029 196.858 79.4033Z" fill="#013D55"/>
<path d="M188.329 81.7671C188.726 82.6302 188.518 83.5709 187.88 83.87C187.242 84.1691 186.387 83.7148 185.987 82.8517C185.588 81.9885 185.798 81.0478 186.434 80.7487C187.07 80.4497 187.929 80.9058 188.329 81.7671Z" fill="#013D55"/>
<path d="M194.923 86.8135C194.84 86.8136 194.759 86.7848 194.696 86.7319C194.632 86.6791 194.588 86.6056 194.573 86.5241C194.557 86.4426 194.571 86.3583 194.611 86.2857C194.651 86.213 194.715 86.1567 194.792 86.1264C194.804 86.1264 196.015 85.6286 196.363 84.4664C196.585 83.7244 194.879 82.4108 193.598 81.7161C193.52 81.6684 193.464 81.5928 193.441 81.5049C193.417 81.417 193.428 81.3235 193.472 81.2436C193.515 81.1636 193.587 81.1033 193.674 81.075C193.76 81.0467 193.854 81.0526 193.937 81.0915C194.537 81.4171 197.506 83.1187 197.043 84.6689C196.594 86.1699 195.114 86.7643 195.051 86.7889C195.01 86.8045 194.967 86.8128 194.923 86.8135Z" fill="#013D55"/>
<path d="M193.758 91.2161C192.639 91.1938 191.536 90.9533 190.51 90.5081C190.466 90.4905 190.427 90.4645 190.394 90.4317C190.361 90.3989 190.335 90.3599 190.317 90.3169C190.299 90.274 190.289 90.2279 190.289 90.1813C190.289 90.1347 190.298 90.0885 190.315 90.0453C190.333 90.0022 190.359 89.963 190.392 89.9299C190.425 89.8968 190.464 89.8705 190.507 89.8525C190.55 89.8345 190.596 89.8251 190.642 89.8249C190.689 89.8247 190.735 89.8337 190.778 89.8513C193.396 90.9246 195.478 90.7031 197.333 89.1529C197.369 89.1229 197.41 89.1003 197.454 89.0863C197.499 89.0723 197.546 89.0671 197.592 89.0712C197.638 89.0752 197.684 89.0883 197.725 89.1098C197.766 89.1313 197.803 89.1607 197.833 89.1964C197.863 89.2321 197.885 89.2733 197.899 89.3177C197.913 89.3621 197.919 89.4089 197.915 89.4553C197.911 89.5017 197.897 89.5468 197.876 89.5882C197.854 89.6295 197.825 89.6662 197.789 89.6961C196.567 90.7088 195.242 91.2161 193.758 91.2161Z" fill="#013D55"/>
<path d="M187.112 76.4184C187.852 77.1111 186.473 77.9724 186.001 78.3282C184.816 79.2179 183.701 80.1945 182.524 81.0917C182.365 81.2262 182.184 81.3336 181.99 81.4097C181.916 81.4403 181.835 81.4488 181.756 81.4343C181.693 81.4152 181.636 81.38 181.591 81.3322C181.546 81.2844 181.514 81.2257 181.498 81.1618C181.239 80.2589 182.515 79.1686 183.069 78.6386C183.713 78.0216 184.407 77.4651 185.104 76.9067C185.566 76.5376 186.518 75.8922 187.092 76.3994L187.112 76.4184Z" fill="#013D55"/>
<path d="M191.6 74.5572C191.693 75.566 193.22 75.0058 193.788 74.8506C195.219 74.472 196.675 74.1824 198.104 73.8038C198.308 73.7607 198.504 73.6846 198.683 73.5786C198.753 73.5376 198.81 73.4779 198.848 73.4063C198.873 73.3439 198.881 73.2759 198.871 73.2093C198.861 73.1428 198.833 73.0801 198.791 73.0278C198.236 72.2706 196.593 72.6076 195.834 72.7192C194.95 72.8498 194.085 73.0562 193.219 73.2644C192.651 73.4025 191.549 73.7565 191.598 74.5212C191.598 74.5382 191.6 74.5477 191.6 74.5572Z" fill="#013D55"/>
<path opacity="0.4" d="M182.212 95.9351C184.825 95.9351 186.944 93.8165 186.944 91.203C186.944 88.5896 184.825 86.4709 182.212 86.4709C179.598 86.4709 177.479 88.5896 177.479 91.203C177.479 93.8165 179.598 95.9351 182.212 95.9351Z" fill="#FF9498"/>
<path opacity="0.4" d="M204.136 87.1007C204.032 87.1007 203.931 87.1007 203.827 87.1007C202.81 87.0997 201.821 86.7714 201.006 86.1642C200.19 85.5571 199.592 84.7035 199.3 83.7298C199.007 82.7561 199.036 81.7141 199.382 80.7581C199.728 79.8022 200.373 78.9831 201.221 78.4221C202.451 81.4506 203.502 84.3561 204.136 87.1007Z" fill="#FF9498"/>
<path d="M138.266 63.3173C137.344 64.6536 136.409 65.9824 135.684 67.4266C135.283 68.1269 134.973 68.8708 134.638 69.5996L134.218 70.7353C134.07 71.1138 133.988 71.4924 133.871 71.8709C133.468 73.4079 133.25 74.9979 133.407 76.5538C133.482 77.326 133.657 78.0851 133.928 78.8119C134.212 79.5228 134.611 80.1826 135.107 80.7653C136.103 81.9368 137.49 82.708 139.01 82.9364C140.534 83.1579 142.112 82.8853 143.57 82.3061C145.039 81.6966 146.386 80.8264 147.545 79.7375C148.734 78.646 149.806 77.4344 150.746 76.1222L151.054 76.3267C150.192 77.7386 149.168 79.0458 148.005 80.2221C146.816 81.4091 145.422 82.371 143.89 83.0613C142.319 83.7631 140.586 84.0248 138.878 83.8185C138.017 83.6933 137.184 83.4191 136.417 83.0083L136.125 82.8588L135.855 82.6695C135.677 82.5427 135.493 82.4235 135.321 82.291C134.985 82.0114 134.676 81.7016 134.397 81.3654C133.84 80.7041 133.395 79.956 133.08 79.1508C132.787 78.3451 132.6 77.5045 132.525 76.6503C132.395 74.9654 132.592 73.2711 133.105 71.6608C133.239 71.2671 133.339 70.8583 133.504 70.4759L133.975 69.3213C134.321 68.5694 134.705 67.8359 135.126 67.1238C135.967 65.7081 136.921 64.3624 137.979 63.0996L138.266 63.3173Z" fill="#232323"/>
<path d="M159.352 72.029C155.148 75.5156 150.31 79.4621 144.846 80.6357C136.04 82.5285 132.597 71.9968 135.881 65.1524C137.473 61.8399 140.784 58.8625 144.492 58.2493C153.626 56.7388 163.613 68.4913 159.352 72.029Z" fill="#232323"/>
<path d="M157.532 63.6734C156.331 64.4431 155.297 65.4474 154.493 66.6263C153.731 67.7425 153.115 68.951 152.658 70.2226C152.188 71.5132 151.836 72.8436 151.606 74.1976C151.367 75.6494 151.211 77.1137 151.138 78.5832C150.277 77.2734 149.849 75.708 149.742 74.1256C149.64 72.521 149.876 70.9129 150.434 69.4049C150.986 67.8641 151.908 66.4823 153.118 65.3808C154.337 64.2943 155.956 63.5504 157.532 63.6734Z" fill="#F5CC00"/>
<path d="M177.848 85.9787C183.621 107.004 182.344 120.774 174.45 134.056H162.687L158.235 128.028L158.437 134.056H153.629C153.629 134.056 141.326 98.0927 154.103 68.9906C163.567 48.8793 189.593 53.3748 194.798 63.0755C184.956 64.6219 178.439 68.3754 177.214 77.9058C176.89 80.6122 177.106 83.356 177.848 85.9787Z" fill="#232323"/>
<path d="M152.971 73.1674C152.135 75.5846 151.302 77.9998 150.685 80.4813C150.003 82.942 149.451 85.4386 148.964 87.9447C148.008 92.9615 147.363 98.0326 147.034 103.129C146.705 108.224 146.684 113.335 146.971 118.432L147.075 120.344C147.113 120.982 147.189 121.616 147.246 122.252C147.376 123.522 147.454 124.8 147.654 126.062C147.855 127.325 147.953 128.603 148.167 129.863C148.381 131.124 148.601 132.384 148.805 133.649L148.264 133.77C147.961 132.519 147.669 131.264 147.387 130.003C147.105 128.745 146.91 127.471 146.672 126.201C146.434 124.93 146.31 123.647 146.134 122.368C146.059 121.728 145.96 121.088 145.902 120.446L145.735 118.516C144.897 108.199 145.59 97.8147 147.791 87.7005C148.094 86.4456 148.343 85.1793 148.699 83.9357C149.055 82.6921 149.354 81.4391 149.761 80.2125C149.95 79.5974 150.14 78.9803 150.355 78.3689L151.014 76.548C151.423 75.3234 151.974 74.1498 152.456 72.9517L152.971 73.1674Z" fill="#013D55"/>
<path d="M196.927 98.5731C193.571 98.1037 198.347 104.252 208.284 111.35L199.829 111.17C198.046 111.13 196.308 111.728 194.926 112.854C192.96 114.46 191.249 117.265 191.249 117.265C191.249 117.265 186.517 122.943 187.463 123.416C188.409 123.89 195.981 120.52 195.981 120.52L194.277 121.329C194.277 121.329 188.839 124.526 190.887 126.061C191.834 126.77 196.407 126.061 196.407 126.061L206.03 131.266L214.926 145.873L232.959 129.772C224.642 117.543 211.865 100.667 196.927 98.5731Z" fill="#FFBA9A"/>
<path d="M232.963 129.772L214.928 145.873L225.461 197.369C225.541 197.783 225.641 198.192 225.762 198.596C229.239 209.608 247.191 213.958 255.557 205.875C265.106 196.65 260.829 184.714 256.57 174.119C252.167 163.16 246.786 152.541 240.954 142.286C238.577 138.099 236.235 133.361 232.963 129.772Z" fill="url(#paint2_linear_1508_9868)"/>
<path d="M208.286 111.587C208.236 111.587 208.186 111.571 208.146 111.541C208.07 111.484 200.521 105.94 197.902 103.234C197.258 102.567 195.744 100.379 195.738 99.1679C195.739 99.0445 195.775 98.9239 195.842 98.8204C195.91 98.7168 196.005 98.6344 196.117 98.583C197.659 97.7804 204.294 99.6808 213.616 106.309C213.656 106.349 213.681 106.402 213.685 106.458C213.69 106.515 213.674 106.571 213.641 106.616C213.608 106.662 213.559 106.694 213.504 106.708C213.45 106.721 213.392 106.714 213.342 106.688C203.968 100.023 197.542 98.3596 196.335 98.9956C196.206 99.0619 196.206 99.1281 196.206 99.1603C196.206 100.126 197.531 102.162 198.237 102.897C200.828 105.575 208.344 111.096 208.42 111.151C208.461 111.181 208.491 111.222 208.506 111.27C208.521 111.317 208.521 111.369 208.506 111.416C208.49 111.464 208.46 111.505 208.419 111.534C208.379 111.564 208.33 111.579 208.28 111.579L208.286 111.587Z" fill="#BF643A"/>
<path d="M190.771 117.607L191.045 117.143C191.191 116.899 194.641 111.177 199.103 111.056L210.882 111.117C210.913 111.117 210.943 111.123 210.972 111.135C211.001 111.147 211.027 111.164 211.048 111.186C211.07 111.208 211.087 111.234 211.099 111.263C211.111 111.292 211.117 111.322 211.116 111.353C211.111 111.415 211.084 111.472 211.041 111.515C210.997 111.559 210.939 111.585 210.878 111.59L199.108 111.529C195.639 111.624 192.686 115.544 191.755 116.916L200.113 115.167L206.909 116.682C206.968 116.697 207.02 116.734 207.052 116.787C207.085 116.839 207.096 116.902 207.082 116.962C207.069 117.022 207.033 117.075 206.981 117.109C206.93 117.143 206.867 117.155 206.807 117.143L200.112 115.652L190.771 117.607Z" fill="#BF643A"/>
<path d="M187.87 123.731C187.683 123.743 187.497 123.703 187.332 123.614C187.26 123.566 187.2 123.503 187.156 123.43C187.112 123.356 187.086 123.273 187.078 123.188C186.9 121.827 190.644 117.587 191.07 117.108C191.112 117.061 191.171 117.032 191.233 117.029C191.296 117.025 191.358 117.046 191.404 117.088C191.451 117.13 191.48 117.188 191.484 117.251C191.487 117.314 191.466 117.375 191.424 117.422C189.865 119.169 187.434 122.264 187.548 123.127C187.548 123.195 187.58 123.212 187.593 123.22C188.252 123.651 192.831 121.779 195.871 120.309L195.941 120.275L205.126 122.042C205.188 122.054 205.243 122.09 205.278 122.142C205.313 122.194 205.327 122.258 205.315 122.32C205.303 122.381 205.267 122.436 205.215 122.471C205.163 122.507 205.099 122.52 205.038 122.508L196.005 120.769C194.75 121.374 189.751 123.731 187.87 123.731Z" fill="#BF643A"/>
<path d="M193.387 126.574C191.965 126.574 190.517 126.337 190.154 125.438C190.029 125.128 189.713 123.422 195.867 120.309C195.894 120.293 195.925 120.282 195.957 120.278C195.989 120.275 196.022 120.278 196.053 120.287C196.084 120.296 196.113 120.311 196.137 120.332C196.162 120.353 196.182 120.378 196.197 120.407C196.211 120.436 196.22 120.468 196.221 120.5C196.223 120.532 196.219 120.564 196.208 120.595C196.196 120.625 196.179 120.653 196.157 120.676C196.135 120.7 196.108 120.718 196.079 120.731C193.73 121.92 190.163 124.202 190.589 125.26C191.015 126.319 194.36 126.18 196.362 125.828C196.423 125.821 196.484 125.836 196.533 125.873C196.582 125.909 196.615 125.962 196.625 126.022C196.636 126.082 196.623 126.144 196.589 126.194C196.555 126.245 196.503 126.281 196.444 126.294C195.434 126.469 194.412 126.563 193.387 126.574Z" fill="#BF643A"/>
<path d="M66.602 68.7635C83.1179 68.7635 96.5067 55.3748 96.5067 38.8588C96.5067 22.3429 83.1179 8.9541 66.602 8.9541C50.0861 8.9541 36.6973 22.3429 36.6973 38.8588C36.6973 55.3748 50.0861 68.7635 66.602 68.7635Z" fill="#F2F5FA"/>
<path d="M66.3079 63.4342C52.7572 63.4342 41.7334 52.4085 41.7334 38.8597C41.7334 32.3421 44.3225 26.0915 48.9311 21.4829C53.5397 16.8743 59.7904 14.2852 66.3079 14.2852C72.8255 14.2852 79.0761 16.8743 83.6848 21.4829C88.2934 26.0915 90.8825 32.3421 90.8825 38.8597C90.8825 52.4085 79.8587 63.4342 66.3079 63.4342ZM66.3079 14.995C61.5879 14.995 56.9739 16.3946 53.0494 19.0169C49.1249 21.6392 46.0661 25.3663 44.2598 29.7271C42.4535 34.0878 41.9809 38.8862 42.9018 43.5155C43.8226 48.1448 46.0955 52.3971 49.433 55.7346C52.7706 59.0721 57.0229 61.345 61.6522 62.2659C66.2815 63.1867 71.0799 62.7141 75.4406 60.9078C79.8013 59.1016 83.5284 56.0428 86.1507 52.1182C88.773 48.1937 90.1727 43.5797 90.1727 38.8597C90.1656 32.5325 87.6491 26.4665 83.1751 21.9925C78.7011 17.5185 72.6351 15.002 66.3079 14.995Z" fill="#013D55"/>
<path d="M66.3125 39.3171L51.3232 27.239L51.7681 26.6863L66.3031 38.3991L74.8208 31.265L75.2769 31.8102L66.3125 39.3171Z" fill="#013D55"/>
<path d="M140.256 216.108H95.7744V223.679H140.256V216.108Z" fill="#DADADA"/>
<path d="M117.821 223.679H49.6812L35.0137 161.633H103.152L117.821 223.679Z" fill="#F2F5FA"/>
<path d="M78.6235 192.204C79.5656 194.686 77.7316 197.344 75.0763 197.344H74.6679C72.7766 197.344 71.0823 196.175 70.4112 194.406C69.4692 191.924 71.3031 189.266 73.9585 189.266H74.3668C76.2582 189.266 77.9525 190.436 78.6235 192.204ZM69.7219 194.346C70.5492 196.526 72.6381 197.968 74.9699 197.968H75.3795C78.3252 197.968 80.3601 195.02 79.3159 192.266C78.4891 190.085 76.3998 188.642 74.0674 188.642H73.6579C70.7114 188.642 68.6764 191.591 69.7219 194.346Z" fill="#251930"/>
<path d="M312.08 223.303H0V236H312.08V223.303Z" fill="#515151"/>
<path d="M9.15527e-05 223.729H312.08V223.106H9.15527e-05V223.729Z" fill="#DADADA"/>
<circle cx="316.916" cy="31.7428" r="7.25547" fill="#FFD44B"/>
<circle cx="316.916" cy="31.743" r="5.64315" fill="url(#paint3_linear_1508_9868)"/>
<rect x="314.576" y="31.7429" width="3.30527" height="3.30527" transform="rotate(-45 314.576 31.7429)" fill="white"/>
<path d="M330.523 61.6704C339.539 61.6704 346.848 54.3615 346.848 45.3456C346.848 36.3296 339.539 29.0208 330.523 29.0208C321.507 29.0208 314.198 36.3296 314.198 45.3456C314.198 54.3615 321.507 61.6704 330.523 61.6704Z" fill="#252525"/>
<path fill-rule="evenodd" clip-rule="evenodd" d="M334.272 51.4821C335.802 51.4821 337.042 50.2421 337.042 48.7125C337.042 47.1829 335.802 45.9429 334.272 45.9429C332.743 45.9429 331.503 47.1829 331.503 48.7125C331.503 50.2421 332.743 51.4821 334.272 51.4821ZM337.962 48.7125C337.962 50.7501 336.31 52.4019 334.272 52.4019C332.235 52.4019 330.583 50.7501 330.583 48.7125C330.583 46.675 332.235 45.0232 334.272 45.0232C336.31 45.0232 337.962 46.675 337.962 48.7125Z" fill="white"/>
<path fill-rule="evenodd" clip-rule="evenodd" d="M332.002 50.6197C332.186 50.8454 332.152 51.1773 331.926 51.3611C330.01 52.9217 328.015 54.0106 326.251 54.4864C324.513 54.9554 322.852 54.8598 321.801 53.8089C320.634 52.6422 320.642 50.728 321.306 48.7586C321.399 48.4828 321.698 48.3347 321.974 48.4277C322.25 48.5207 322.398 48.8198 322.305 49.0956C321.674 50.9648 321.824 52.3413 322.546 53.0636C323.195 53.7122 324.369 53.9025 325.977 53.4687C327.56 53.0416 329.425 52.0389 331.26 50.5439C331.486 50.3601 331.818 50.394 332.002 50.6197Z" fill="white"/>
<path fill-rule="evenodd" clip-rule="evenodd" d="M328.322 40.3006C328.145 40.0694 328.19 39.7386 328.421 39.5617C330.259 38.1556 332.147 37.1875 333.814 36.7857C335.461 36.3886 337.023 36.5198 338.027 37.5238C339.193 38.6906 339.186 40.6048 338.522 42.5742C338.429 42.85 338.13 42.9982 337.854 42.9051C337.578 42.8121 337.43 42.5131 337.523 42.2373C338.154 40.368 338.004 38.9914 337.281 38.2692C336.662 37.65 335.566 37.4475 334.061 37.8104C332.576 38.1684 330.82 39.0539 329.061 40.399C328.83 40.5758 328.499 40.5318 328.322 40.3006Z" fill="white"/>
<path fill-rule="evenodd" clip-rule="evenodd" d="M330.061 42.3878C330.061 44.4253 328.41 46.0771 326.372 46.0771C324.334 46.0771 322.683 44.4253 322.683 42.3878C322.683 40.3502 324.334 38.6985 326.372 38.6985C328.41 38.6985 330.061 40.3502 330.061 42.3878ZM326.003 40.5429H326.741V42.0185H328.216V42.7563H326.741V44.2322H326.003V42.7563H324.527V42.0185H326.003V40.5429Z" fill="white"/>
<path d="M335.593 49.0284V48.2905H332.958V49.0284H335.593Z" fill="white"/>
<circle cx="344.125" cy="59.8578" r="7.25547" fill="#FFD44B"/>
<circle cx="344.126" cy="59.858" r="5.64315" fill="url(#paint4_linear_1508_9868)"/>
<rect x="341.785" y="59.8579" width="3.30527" height="3.30527" transform="rotate(-45 341.785 59.8579)" fill="white"/>
<path d="M367 45.5L363.78 50.292L369.54 50.6848L367 45.5ZM294 45.5L297.22 40.708L291.46 40.3152L294 45.5ZM366.199 49.9203C363.908 66.5883 348.818 79.5 330.5 79.5V80.5C349.281 80.5 364.825 67.255 367.189 50.0565L366.199 49.9203ZM294.801 41.0797C297.092 24.4117 312.182 11.5 330.5 11.5V10.5C311.719 10.5 296.175 23.745 293.811 40.9435L294.801 41.0797ZM330.5 79.5C315.327 79.5 302.363 70.6376 297.061 58.1193L296.14 58.5093C301.603 71.4084 314.938 80.5 330.5 80.5V79.5ZM330.5 11.5C345.476 11.5 358.301 20.1338 363.729 32.3953L364.643 31.9905C359.051 19.3572 345.861 10.5 330.5 10.5V11.5Z" fill="black"/>
<defs>
<linearGradient id="paint0_linear_1508_9868" x1="224.203" y1="135.092" x2="133.71" y2="283.49" gradientUnits="userSpaceOnUse">
<stop offset="0.0707401" stop-color="#0E6F1F"/>
<stop offset="0.53307" stop-color="#31B047"/>
</linearGradient>
<linearGradient id="paint1_linear_1508_9868" x1="167.321" y1="99.7629" x2="67.3656" y2="245.189" gradientUnits="userSpaceOnUse">
<stop offset="0.0799614" stop-color="#0E6F1F"/>
<stop offset="0.53307" stop-color="#31B047"/>
</linearGradient>
<linearGradient id="paint2_linear_1508_9868" x1="258.592" y1="145.112" x2="184.065" y2="215.953" gradientUnits="userSpaceOnUse">
<stop stop-color="#0E6F1F"/>
<stop offset="0.53307" stop-color="#31B047"/>
</linearGradient>
<linearGradient id="paint3_linear_1508_9868" x1="313.086" y1="27.5106" x2="320.946" y2="35.7738" gradientUnits="userSpaceOnUse">
<stop offset="0.133929" stop-color="#FFC200"/>
<stop offset="0.580357" stop-color="#FFC200" stop-opacity="0"/>
<stop offset="1" stop-color="#FFC200"/>
</linearGradient>
<linearGradient id="paint4_linear_1508_9868" x1="340.296" y1="55.6256" x2="348.156" y2="63.8888" gradientUnits="userSpaceOnUse">
<stop offset="0.133929" stop-color="#FFC200"/>
<stop offset="0.580357" stop-color="#FFC200" stop-opacity="0"/>
<stop offset="1" stop-color="#FFC200"/>
</linearGradient>
</defs>
</svg>
