<svg width="12" height="12" viewBox="0 0 12 12" fill="none"
  xmlns="http://www.w3.org/2000/svg">
  <path d="M7.01818 0.000282446C6.89636 -0.00334439 6.77636 0.028034 6.67505 0.0899909C6.57374 0.151948 6.49621 0.241382 6.45336 0.345712C6.41051 0.450042 6.40449 0.564033 6.43615 0.671651C6.46782 0.779269 6.53557 0.875106 6.62988 0.945695L9.5142 3.20402H0.59593C0.518293 3.20247 0.441097 3.21507 0.368874 3.24116C0.29665 3.26725 0.230853 3.3063 0.175344 3.35596C0.119834 3.40561 0.0757306 3.46488 0.0456204 3.53033C0.0155102 3.59578 0 3.66604 0 3.73705C0 3.80805 0.0155102 3.87838 0.0456204 3.94383C0.0757306 4.00928 0.119834 4.06855 0.175344 4.1182C0.230853 4.16786 0.29665 4.20691 0.368874 4.233C0.441097 4.25909 0.518293 4.27169 0.59593 4.27013H11.0936C11.2121 4.26943 11.3276 4.23573 11.4246 4.17348C11.5217 4.11123 11.5957 4.02343 11.6367 3.92175C11.6778 3.82008 11.684 3.70934 11.6545 3.60436C11.625 3.49938 11.5612 3.40511 11.4716 3.33413L7.39167 0.13463C7.28849 0.0508313 7.15615 0.00325131 7.01818 0.000282446ZM0.59593 7.73686C0.477393 7.73757 0.361909 7.77126 0.26487 7.83351C0.16783 7.89576 0.0938474 7.98363 0.0527816 8.0853C0.0117158 8.18697 0.00551836 8.29765 0.0350154 8.40263C0.0645124 8.50761 0.128303 8.60188 0.217883 8.67286L4.30239 11.8724C4.36063 11.9178 4.4281 11.9523 4.50094 11.9739C4.57378 11.9956 4.65056 12.0039 4.7269 11.9983C4.80324 11.9928 4.87765 11.9736 4.94588 11.9418C5.0141 11.91 5.07481 11.8663 5.12453 11.813C5.17425 11.7598 5.21201 11.6981 5.23566 11.6315C5.2593 11.5649 5.26837 11.4947 5.26235 11.4249C5.25632 11.3551 5.23531 11.287 5.20053 11.2246C5.16575 11.1622 5.11787 11.1068 5.05962 11.0613L2.17644 8.80297H11.0936C11.1713 8.80458 11.2485 8.79202 11.3208 8.76595C11.3931 8.73989 11.4589 8.70088 11.5145 8.65122C11.57 8.60156 11.6142 8.54226 11.6443 8.47678C11.6745 8.4113 11.69 8.34099 11.69 8.26994C11.69 8.1989 11.6745 8.12852 11.6443 8.06304C11.6142 7.99756 11.57 7.93827 11.5145 7.88861C11.4589 7.83894 11.3931 7.79993 11.3208 7.77387C11.2485 7.74781 11.1713 7.73524 11.0936 7.73686H0.59593Z" fill="white"/>
</svg>
