<svg width="15" height="14" viewBox="0 0 15 14" fill="currentColor"
  xmlns="http://www.w3.org/2000/svg">
  <path d="M6.44551 0.481934C3.15699 0.481934 0.481445 3.15747 0.481445 6.446C0.481445 9.73453 3.15699 12.4101 6.44551 12.4101C7.92479 12.4101 9.27922 11.8673 10.3225 10.9721L12.5441 13.1937L12.6853 13.3277L13.3277 12.6854L13.1928 12.5441L10.9708 10.3226C11.8664 9.2793 12.4096 7.92528 12.4096 6.4456C12.4096 3.15707 9.73404 0.481934 6.44551 0.481934ZM6.44551 1.3992C9.23787 1.3992 11.4919 3.65324 11.4919 6.4456C11.4919 9.23796 9.23787 11.492 6.44551 11.492C3.65316 11.492 1.39912 9.23796 1.39912 6.4456C1.39912 3.65324 3.65316 1.3992 6.44551 1.3992Z" />
  <path fill-rule="evenodd" clip-rule="evenodd" d="M12.5443 13.1934L10.3228 10.9719C9.27949 11.8671 7.92506 12.4099 6.44579 12.4099C3.15726 12.4099 0.481718 9.73431 0.481718 6.44579C0.481718 3.15726 3.15726 0.481718 6.44579 0.481718C9.73431 0.481718 12.4099 3.15686 12.4099 6.44538C12.4099 7.92506 11.8667 9.27909 10.9711 10.3224L13.193 12.5439L13.3279 12.6852L12.6856 13.3275L12.5443 13.1934ZM11.6165 10.2865C12.416 9.2138 12.8916 7.88448 12.8916 6.44538C12.8916 2.89077 10.0003 0 6.44579 0C2.89121 0 0 2.89121 0 6.44579C0 10.0004 2.89121 12.8916 6.44579 12.8916C7.88444 12.8916 9.21405 12.4164 10.2868 11.6172L12.2082 13.5385L12.6944 14L14.0014 12.693L13.5415 12.2113L11.6165 10.2865ZM11.0105 6.44538C11.0105 3.91907 8.9721 1.88071 6.44579 1.88071C3.91947 1.88071 1.88111 3.91907 1.88111 6.44538C1.88111 8.9717 3.91947 11.0101 6.44579 11.0101C8.9721 11.0101 11.0105 8.9717 11.0105 6.44538ZM11.4922 6.44538C11.4922 3.65303 9.23814 1.39899 6.44579 1.39899C3.65343 1.39899 1.39939 3.65303 1.39939 6.44538C1.39939 9.23774 3.65343 11.4918 6.44579 11.4918C9.23814 11.4918 11.4922 9.23774 11.4922 6.44538Z" />
</svg>
