<svg width="32" height="32" viewBox="0 0 32 32" fill="none"
  xmlns="http://www.w3.org/2000/svg">
  <path fill-rule="evenodd" clip-rule="evenodd" d="M24.3012 11.2084C24.5915 11.4729 24.6124 11.9227 24.3479 12.213L15.7434 21.657L10.1598 15.9834C9.88436 15.7035 9.88797 15.2532 10.1679 14.9778C10.4478 14.7023 10.898 14.7059 11.1735 14.9858L15.7036 19.5889L23.2966 11.2551C23.5611 10.9648 24.0109 10.9439 24.3012 11.2084Z" fill="white"/>
  <path fill-rule="evenodd" clip-rule="evenodd" d="M16 30.5778C24.0511 30.5778 30.5778 24.0511 30.5778 16C30.5778 7.94892 24.0511 1.42222 16 1.42222C7.94892 1.42222 1.42222 7.94892 1.42222 16C1.42222 24.0511 7.94892 30.5778 16 30.5778ZM16 32C24.8366 32 32 24.8366 32 16C32 7.16344 24.8366 0 16 0C7.16344 0 0 7.16344 0 16C0 24.8366 7.16344 32 16 32Z" fill="white"/>
  <path fill-rule="evenodd" clip-rule="evenodd" d="M16 4.97691C9.91258 4.97691 4.97776 9.91173 4.97776 15.9991C4.97776 22.0865 9.91258 27.0214 16 27.0214C22.0874 27.0214 27.0222 22.0865 27.0222 15.9991C27.0222 15.6064 27.3406 15.288 27.7333 15.288C28.1261 15.288 28.4444 15.6064 28.4444 15.9991C28.4444 22.872 22.8729 28.4436 16 28.4436C9.12711 28.4436 3.55554 22.872 3.55554 15.9991C3.55554 9.12625 9.12711 3.55469 16 3.55469C16.3927 3.55469 16.7111 3.87306 16.7111 4.2658C16.7111 4.65853 16.3927 4.97691 16 4.97691Z" fill="white"/>
</svg>
