<svg width="69" height="69" viewBox="0 0 69 69" fill="none" xmlns="http://www.w3.org/2000/svg">
<path d="M33.9769 66.9295C51.9712 66.9295 66.4475 52.4531 66.4475 34.4589C66.4475 16.4646 51.9712 1.98828 33.9769 1.98828C15.9827 1.98828 1.50635 16.4646 1.50635 34.4589C1.50635 52.4531 15.9827 66.9295 33.9769 66.9295Z" fill="#50AF95"/>
<path d="M42.9064 39.6021C42.9064 34.8669 40.0653 33.2433 34.383 32.567C30.3242 32.0257 29.5125 30.9434 29.5125 29.0491C29.5125 27.1547 30.8655 25.9374 33.5712 25.9374C36.0065 25.9374 37.3595 26.7492 38.0359 28.7786C38.1713 29.1845 38.5772 29.455 38.983 29.455H41.1475C41.6888 29.455 42.0946 29.0491 42.0946 28.5081V28.3727C41.5534 25.3961 39.1181 23.0962 36.0065 22.8257V19.5787C36.0065 19.0374 35.6006 18.6315 34.9243 18.4961H32.8949C32.3536 18.4961 31.9477 18.902 31.8123 19.5787V22.6903C27.7536 23.2316 25.1832 25.9374 25.1832 29.3199C25.1832 33.7846 27.889 35.5432 33.5712 36.2199C37.3595 36.8963 38.5772 37.708 38.5772 39.8729C38.5772 42.0377 36.6828 43.5258 34.1125 43.5258C30.5947 43.5258 29.3771 42.0374 28.9712 40.0079C28.8361 39.467 28.4302 39.1962 28.0244 39.1962H25.7242C25.1832 39.1962 24.7773 39.6021 24.7773 40.1433V40.2788C25.3183 43.6609 27.4831 46.0962 31.9477 46.7729V50.02C31.9477 50.5609 32.3536 50.9668 33.03 51.1022H35.0593C35.6006 51.1022 36.0065 50.6963 36.1419 50.02V46.7729C40.2007 46.0962 42.9064 43.255 42.9064 39.6021Z" fill="white"/>
<path d="M27.08 53.8097C16.5271 50.0217 11.1152 38.2511 15.039 27.8333C17.0684 22.1509 21.5331 17.8216 27.08 15.7922C27.6213 15.5217 27.8918 15.1158 27.8918 14.4391V12.5451C27.8918 12.0039 27.6213 11.598 27.08 11.4629C26.9446 11.4629 26.6742 11.4629 26.5387 11.598C13.6859 15.6568 6.65051 29.3217 10.7093 42.1745C13.1446 49.7509 18.9624 55.5687 26.5387 58.004C27.08 58.2744 27.6213 58.004 27.7564 57.4627C27.8918 57.3276 27.8918 57.1922 27.8918 56.9217V55.0274C27.8918 54.6215 27.4859 54.0805 27.08 53.8097ZM41.4213 11.598C40.88 11.3275 40.3387 11.598 40.2037 12.1393C40.0683 12.2747 40.0683 12.4097 40.0683 12.6805V14.5745C40.0683 15.1158 40.4741 15.6568 40.88 15.9276C51.433 19.7156 56.8448 31.4862 52.9211 41.9041C50.8917 47.5864 46.427 51.9157 40.88 53.9451C40.3387 54.2156 40.0683 54.6215 40.0683 55.2982V57.1922C40.0683 57.7335 40.3387 58.1394 40.88 58.2744C41.0154 58.2744 41.2859 58.2744 41.4213 58.1394C54.2742 54.0805 61.3096 40.4156 57.2507 27.5628C54.8154 19.851 48.8623 14.0333 41.4213 11.598Z" fill="white"/>
</svg>
