<svg width="32" height="32" viewBox="0 0 32 32" fill="none" xmlns="http://www.w3.org/2000/svg">
<path d="M32 16C32 24.8368 24.8368 32 16 32C7.16352 32 0 24.8368 0 16C0 7.16336 7.16352 0 16 0C24.8368 0 32 7.16336 32 16Z" fill="#1BA27A"/>
<path d="M23.5059 8.06812H8.35547V11.7257H14.1019V17.1017H17.7595V11.7257H23.5059V8.06812Z" fill="white"/>
<path d="M15.9648 17.6744C11.2112 17.6744 7.35724 16.9221 7.35724 15.9939C7.35724 15.0659 11.211 14.3134 15.9648 14.3134C20.7184 14.3134 24.5721 15.0659 24.5721 15.9939C24.5721 16.9221 20.7184 17.6744 15.9648 17.6744ZM25.6296 16.2741C25.6296 15.0773 21.3025 14.1072 15.9648 14.1072C10.6272 14.1072 6.2998 15.0773 6.2998 16.2741C6.2998 17.328 9.65516 18.2061 14.1014 18.4006V26.1181H17.7587V18.4037C22.2392 18.2152 25.6296 17.3334 25.6296 16.2741Z" fill="white"/>
</svg>
