<svg width="34" height="21" viewBox="0 0 34 21" fill="none" xmlns="http://www.w3.org/2000/svg">
<path d="M6.96051 4.07152C12.5052 -1.35717 21.4949 -1.35717 27.0395 4.07152L27.7068 4.72487C27.9841 4.99631 27.9841 5.43639 27.7068 5.70782L25.4241 7.94281C25.2855 8.07853 25.0607 8.07853 24.9221 7.94281L24.0038 7.04372C20.1357 3.25653 13.8643 3.25653 9.9962 7.04372L9.01278 8.00657C8.87416 8.14229 8.64942 8.14229 8.51081 8.00657L6.22807 5.77158C5.95084 5.50015 5.95084 5.06007 6.22807 4.78863L6.96051 4.07152ZM31.7604 8.69371L33.7921 10.6829C34.0693 10.9543 34.0693 11.3944 33.7921 11.6658L24.6313 20.6351C24.3541 20.9066 23.9046 20.9066 23.6273 20.6351C23.6273 20.6351 23.6273 20.6351 23.6273 20.6351L17.1256 14.2693C17.0562 14.2015 16.9439 14.2015 16.8746 14.2693C16.8746 14.2693 16.8746 14.2693 16.8746 14.2693L10.3729 20.6351C10.0957 20.9066 9.64621 20.9066 9.36898 20.6351C9.36898 20.6351 9.36897 20.6351 9.36897 20.6351L0.207925 11.6657C-0.0693083 11.3943 -0.0693083 10.9542 0.207925 10.6827L2.23957 8.69359C2.5168 8.42216 2.96628 8.42216 3.24352 8.69359L9.74539 15.0595C9.81469 15.1273 9.92707 15.1273 9.99637 15.0595C9.99638 15.0595 9.99638 15.0595 9.99638 15.0595L16.4979 8.69359C16.7751 8.42215 17.2246 8.42214 17.5019 8.69357C17.5019 8.69358 17.5019 8.69358 17.5019 8.69358L24.0037 15.0595C24.0731 15.1273 24.1854 15.1273 24.2547 15.0595L30.7565 8.69371C31.0337 8.42227 31.4832 8.42227 31.7604 8.69371Z" fill="#3B99FC"/>
</svg>
