<svg width="24" height="22" viewBox="0 0 24 22" fill="none" xmlns="http://www.w3.org/2000/svg">
<path fill-rule="evenodd" clip-rule="evenodd" d="M6.87744 19.6596L9.99772 20.4894V19.4042L10.2524 19.1489H12.0355V20.4255V21.3191H10.1251L7.76895 20.2979L6.87744 19.6596Z" fill="#CDBDB2"/>
<path fill-rule="evenodd" clip-rule="evenodd" d="M17.0659 19.6596L14.0093 20.4894V19.4042L13.7546 19.1489H11.9716V20.4255V21.3191H13.882L16.2381 20.2979L17.0659 19.6596Z" fill="#CDBDB2"/>
<path fill-rule="evenodd" clip-rule="evenodd" d="M10.2523 17.2977L9.99756 19.404L10.316 19.1487H13.6273L14.0094 19.404L13.7546 17.2977L13.2452 16.9785L10.698 17.0423L10.2523 17.2977Z" fill="#393939"/>
<path fill-rule="evenodd" clip-rule="evenodd" d="M8.5332 3.06372L10.0615 6.63819L10.762 17.0424H13.2455L14.0096 6.63819L15.4106 3.06372H8.5332Z" fill="#F89C35"/>
<path fill-rule="evenodd" clip-rule="evenodd" d="M1.84698 10.9149L0.0639648 16.0851L4.52151 15.8298H7.38708V13.5957L7.25972 9L6.62293 9.51064L1.84698 10.9149Z" fill="#F89D35"/>
<path fill-rule="evenodd" clip-rule="evenodd" d="M5.22217 11.4893L10.4439 11.6169L9.87075 14.2978L7.38726 13.6595L5.22217 11.4893Z" fill="#D87C30"/>
<path fill-rule="evenodd" clip-rule="evenodd" d="M5.22217 11.553L7.38726 13.5955V15.6381L5.22217 11.553Z" fill="#EA8D3A"/>
<path fill-rule="evenodd" clip-rule="evenodd" d="M7.38721 13.6594L9.93438 14.2977L10.7622 17.0424L10.1891 17.3616L7.38721 15.702V13.6594Z" fill="#F89D35"/>
<path fill-rule="evenodd" clip-rule="evenodd" d="M7.38688 15.7019L6.87744 19.6593L10.2524 17.2976L7.38688 15.7019Z" fill="#EB8F35"/>
<path fill-rule="evenodd" clip-rule="evenodd" d="M10.4439 11.6169L10.7623 17.0425L9.80713 14.2659L10.4439 11.6169Z" fill="#EA8E3A"/>
<path fill-rule="evenodd" clip-rule="evenodd" d="M4.45801 15.7657L7.38725 15.7019L6.87782 19.6593L4.45801 15.7657Z" fill="#D87C30"/>
<path fill-rule="evenodd" clip-rule="evenodd" d="M1.46491 21.3829L6.87764 19.6595L4.45783 15.7659L0.0639648 16.085L1.46491 21.3829Z" fill="#EB8F35"/>
<path fill-rule="evenodd" clip-rule="evenodd" d="M10.0618 6.63818L7.32358 8.93605L5.22217 11.4892L10.4439 11.6807L10.0618 6.63818Z" fill="#E8821E"/>
<path fill-rule="evenodd" clip-rule="evenodd" d="M6.87744 19.6596L10.2524 17.2979L9.99772 19.3404V20.4893L7.70527 20.0425L6.87744 19.6596Z" fill="#DFCEC3"/>
<path fill-rule="evenodd" clip-rule="evenodd" d="M17.0659 19.6596L13.7546 17.2979L14.0093 19.3404V20.4893L16.3018 20.0425L17.0659 19.6596Z" fill="#DFCEC3"/>
<path fill-rule="evenodd" clip-rule="evenodd" d="M9.04269 12.7659L9.74316 14.234L7.25967 13.5957L9.04269 12.7659Z" fill="#393939"/>
<path fill-rule="evenodd" clip-rule="evenodd" d="M1.40088 0.0637207L10.0613 6.63819L8.59663 3.06372L1.40088 0.0637207Z" fill="#E88F35"/>
<path fill-rule="evenodd" clip-rule="evenodd" d="M1.4016 0.0637207L0.255371 3.57436L0.892164 7.40414L0.446409 7.65946L1.0832 8.23393L0.573767 8.68074L1.27424 9.31904L0.828484 9.70202L1.84735 10.9786L6.6233 9.51053C6.6233 9.51053 10.1257 6.70202 10.062 6.63819C9.9983 6.57436 1.4016 0.0637207 1.4016 0.0637207Z" fill="#8E5A30"/>
<path fill-rule="evenodd" clip-rule="evenodd" d="M22.0969 10.9149L23.8799 16.0851L19.4223 15.8298H16.5568V13.5957L16.6841 9L17.3209 9.51064L22.0969 10.9149Z" fill="#F89D35"/>
<path fill-rule="evenodd" clip-rule="evenodd" d="M18.7217 11.4893L13.5 11.6169L14.0731 14.2978L16.5566 13.6595L18.7217 11.4893Z" fill="#D87C30"/>
<path fill-rule="evenodd" clip-rule="evenodd" d="M18.7217 11.553L16.5566 13.5955V15.6381L18.7217 11.553Z" fill="#EA8D3A"/>
<path fill-rule="evenodd" clip-rule="evenodd" d="M16.5571 13.6594L14.01 14.2977L13.1821 17.0424L13.7552 17.3616L16.5571 15.702V13.6594Z" fill="#F89D35"/>
<path fill-rule="evenodd" clip-rule="evenodd" d="M16.557 15.7019L17.0664 19.6593L13.7551 17.3615L16.557 15.7019Z" fill="#EB8F35"/>
<path fill-rule="evenodd" clip-rule="evenodd" d="M13.4999 11.6169L13.1815 17.0425L14.1367 14.2659L13.4999 11.6169Z" fill="#EA8E3A"/>
<path fill-rule="evenodd" clip-rule="evenodd" d="M19.4863 15.7657L16.5571 15.7019L17.0665 19.6593L19.4863 15.7657Z" fill="#D87C30"/>
<path fill-rule="evenodd" clip-rule="evenodd" d="M22.4789 21.3829L17.0662 19.6595L19.486 15.7659L23.8799 16.085L22.4789 21.3829Z" fill="#EB8F35"/>
<path fill-rule="evenodd" clip-rule="evenodd" d="M13.8821 6.63818L16.6203 8.93605L18.7217 11.4892L13.5 11.6807L13.8821 6.63818Z" fill="#E8821E"/>
<path fill-rule="evenodd" clip-rule="evenodd" d="M14.9012 12.7659L14.2007 14.234L16.6842 13.5957L14.9012 12.7659Z" fill="#393939"/>
<path fill-rule="evenodd" clip-rule="evenodd" d="M22.543 0.0637207L13.8826 6.63819L15.3472 3.06372L22.543 0.0637207Z" fill="#E88F35"/>
<path fill-rule="evenodd" clip-rule="evenodd" d="M22.5422 0.0637207L23.6885 3.57436L23.0517 7.40414L23.4974 7.65946L22.8606 8.23393L23.3701 8.68074L22.6696 9.31904L23.1154 9.70202L22.0965 10.9786L17.3205 9.51053C17.3205 9.51053 13.8182 6.70202 13.8819 6.63819C13.9455 6.57436 22.5422 0.0637207 22.5422 0.0637207Z" fill="#8E5A30"/>
</svg>
