<svg width="28" height="18" viewBox="0 0 28 18" fill="none" xmlns="http://www.w3.org/2000/svg">
<path d="M5.73218 3.35302C10.2984 -1.11767 17.7016 -1.11767 22.2678 3.35302L22.8174 3.89107C23.0457 4.11461 23.0457 4.47703 22.8174 4.70056L20.9375 6.54114C20.8233 6.65291 20.6383 6.65291 20.5241 6.54114L19.7679 5.80071C16.5824 2.68185 11.4177 2.68185 8.23217 5.80071L7.42229 6.59365C7.30814 6.70541 7.12305 6.70541 7.0089 6.59365L5.129 4.75307C4.90069 4.52954 4.90069 4.16711 5.129 3.94358L5.73218 3.35302ZM26.1557 7.15953L27.8288 8.79765C28.0571 9.02118 28.0571 9.3836 27.8288 9.60714L20.2846 16.9936C20.0563 17.2172 19.6861 17.2172 19.4578 16.9936C19.4578 16.9936 19.4578 16.9936 19.4578 16.9936L14.1034 11.7512C14.0463 11.6953 13.9538 11.6953 13.8967 11.7512C13.8967 11.7512 13.8967 11.7512 13.8967 11.7512L8.54241 16.9936C8.31411 17.2172 7.94394 17.2172 7.71563 16.9936C7.71563 16.9936 7.71563 16.9936 7.71563 16.9936L0.171232 9.60704C-0.0570775 9.38351 -0.0570775 9.02109 0.171232 8.79755L1.84435 7.15943C2.07266 6.9359 2.44282 6.9359 2.67113 7.15943L8.02561 12.4019C8.08269 12.4578 8.17523 12.4578 8.23231 12.4019C8.23231 12.4019 8.23231 12.4019 8.23231 12.4019L13.5865 7.15943C13.8148 6.93589 14.185 6.93588 14.4133 7.15941C14.4133 7.15942 14.4133 7.15942 14.4133 7.15942L19.7678 12.4019C19.8249 12.4578 19.9174 12.4578 19.9745 12.4019L25.3289 7.15953C25.5572 6.93599 25.9273 6.93599 26.1557 7.15953Z" fill="#3B99FC"/>
</svg>
