<svg width="32" height="32" viewBox="0 0 32 32" fill="#FF0000" xmlns="http://www.w3.org/2000/svg">
<path fill-rule="evenodd" clip-rule="evenodd" d="M21.4812 10.8753C21.2035 10.5976 20.7532 10.5976 20.4755 10.8753L10.8755 20.4753C10.5978 20.753 10.5978 21.2032 10.8755 21.4809C11.1532 21.7586 11.6035 21.7586 11.8812 21.4809L21.4812 11.8809C21.7589 11.6032 21.7589 11.153 21.4812 10.8753Z"/>
<path fill-rule="evenodd" clip-rule="evenodd" d="M10.5198 10.875C10.7975 10.5973 11.2478 10.5973 11.5255 10.875L21.1255 20.475C21.4032 20.7527 21.4032 21.203 21.1255 21.4807C20.8478 21.7584 20.3975 21.7584 20.1198 21.4807L10.5198 11.8807C10.2421 11.603 10.2421 11.1527 10.5198 10.875Z"/>
<path fill-rule="evenodd" clip-rule="evenodd" d="M16 30.5778C24.0511 30.5778 30.5778 24.0511 30.5778 16C30.5778 7.94892 24.0511 1.42222 16 1.42222C7.94892 1.42222 1.42222 7.94892 1.42222 16C1.42222 24.0511 7.94892 30.5778 16 30.5778ZM16 32C24.8366 32 32 24.8366 32 16C32 7.16344 24.8366 0 16 0C7.16344 0 0 7.16344 0 16C0 24.8366 7.16344 32 16 32Z" />
</svg>
