<svg width="32" height="32" viewBox="0 0 32 32" fill="white" xmlns="http://www.w3.org/2000/svg">
<path d="M19.7496 1.55106C18.7541 0.557811 17.4052 0 15.9989 0C14.5926 0 13.2438 0.557811 12.2482 1.55106L1.55106 12.2482C0.557811 13.2438 0 14.5926 0 15.9989C0 17.4052 0.557811 18.7541 1.55106 19.7496L12.2482 30.4467C13.2431 31.4413 14.5922 32 15.9989 32C17.4056 32 18.7547 31.4413 19.7496 30.4467L30.4467 19.7496C31.44 18.7541 31.9978 17.4052 31.9978 15.9989C31.9978 14.5926 31.44 13.2438 30.4467 12.2482L19.7496 1.55106ZM28.9433 18.2493L18.2493 28.9433C17.6524 29.54 16.8429 29.8752 15.9989 29.8752C15.1549 29.8752 14.3454 29.54 13.7485 28.9433L3.05452 18.2493C2.45779 17.6524 2.12257 16.8429 2.12257 15.9989C2.12257 15.1549 2.45779 14.3454 3.05452 13.7485L13.7485 3.05452C14.3454 2.45779 15.1549 2.12257 15.9989 2.12257C16.8429 2.12257 17.6524 2.45779 18.2493 3.05452L28.9433 13.7485C29.54 14.3454 29.8752 15.1549 29.8752 15.9989C29.8752 16.8429 29.54 17.6524 28.9433 18.2493Z"/>
<path d="M15.9988 25.5483C16.5847 25.5483 17.0598 25.0733 17.0598 24.4873C17.0598 23.9013 16.5847 23.4263 15.9988 23.4263C15.4128 23.4263 14.9377 23.9013 14.9377 24.4873C14.9377 25.0733 15.4128 25.5483 15.9988 25.5483Z"/>
<path d="M15.9987 7.51123C14.5922 7.51292 13.2438 8.07238 12.2493 9.06691C11.2548 10.0614 10.6953 11.4098 10.6936 12.8163C10.6936 13.0977 10.8054 13.3676 11.0044 13.5666C11.2033 13.7655 11.4732 13.8773 11.7546 13.8773C12.036 13.8773 12.3059 13.7655 12.5049 13.5666C12.7038 13.3676 12.8156 13.0977 12.8156 12.8163C12.8156 11.9721 13.151 11.1625 13.7479 10.5656C14.3449 9.96862 15.1545 9.63326 15.9987 9.63326C16.8429 9.63326 17.6525 9.96862 18.2494 10.5656C18.8464 11.1625 19.1817 11.9721 19.1817 12.8163C19.1817 13.7649 18.6586 14.2625 17.6549 15.1325C16.8226 15.7013 16.1406 16.4634 15.6673 17.3536C15.1941 18.2437 14.9437 19.2353 14.9377 20.2434C14.9377 20.5248 15.0494 20.7947 15.2484 20.9937C15.4474 21.1926 15.7173 21.3044 15.9987 21.3044C16.2801 21.3044 16.55 21.1926 16.7489 20.9937C16.9479 20.7947 17.0597 20.5248 17.0597 20.2434C17.0597 18.4535 17.9785 17.6567 19.0438 16.7357C20.1091 15.8147 21.3038 14.7792 21.3038 12.8163C21.3021 11.4098 20.7426 10.0614 19.7481 9.06691C18.7535 8.07238 17.4052 7.51292 15.9987 7.51123Z" />
</svg>
